<svg width="998" height="1288" viewBox="0 0 998 1288" fill="none" xmlns="http://www.w3.org/2000/svg">
<path d="M185.68 485.237C295.995 485.237 369.149 537.401 369.149 627.193M369.149 627.193V1147.93M369.149 627.193C369.149 537.401 442.304 485.237 552.619 485.237M369.149 1147.93C369.149 1208.91 278.892 1270.48 187.39 1263.64M369.149 1147.93C369.149 1208.91 459.407 1270.48 550.909 1263.64M970.002 1232.33C824.499 1313.9 636.557 1236.07 673.897 1028.87C703.692 863.545 940.256 537.651 967.634 401.566C1009.95 191.219 853.24 32.6129 696.119 23.6681C524.761 13.9129 380.257 110.531 361.078 248.159C336.261 110.531 185.447 23.6681 23 23.6681" stroke="black" stroke-width="46" stroke-linecap="round" stroke-linejoin="round"/>
</svg>
