<svg width="533" height="1223" viewBox="0 0 533 1223" fill="none" xmlns="http://www.w3.org/2000/svg">
<path d="M410.591 1214.18H131.401C110.246 1214.18 101.549 1171.4 131.401 1153.17C294.765 1053.42 524.375 873.018 524.375 656.409C524.375 504.24 401.018 380.883 248.85 380.883C195.491 380.883 143.102 398.574 100.905 424.833C45.2319 461.227 8.44531 524.112 8.44531 595.589M8.44531 595.589C8.44531 708.175 99.7141 799.443 212.3 799.443C270.578 799.443 323.145 774.988 360.297 735.78M8.44531 595.589V284.083C12.991 101.798 133.007 -12.6733 269.604 11.7066C352.565 30.4099 408.905 101.663 380.735 192.8C344.28 274.824 230.772 315.422 108.511 237.001" stroke="black" stroke-width="16.89" stroke-linecap="round"/>
</svg>
