<svg width="1038" height="1299" viewBox="0 0 1038 1299" fill="none" xmlns="http://www.w3.org/2000/svg">
<path d="M109.244 1090.71V30.7139C270.13 253.046 373.515 411.631 486.836 637.638C600.158 863.644 672.06 1017.44 896.308 1274.78M608.783 365.497C743.055 444.851 863.395 440.087 931.53 392.751C1013.39 335.883 1051.36 209.813 965.957 98.6907C899.255 11.9058 667.12 -28.7866 539.929 135.986C455.948 244.78 449.676 414.061 480.447 622.641M23 1192.71C114.697 1265.4 275.727 1292.23 380.845 1265.4C525.101 1235.2 620.036 1125.34 595.552 978.001C570.556 833.395 541.875 734.221 470.306 602.266" stroke="black" stroke-width="46" stroke-linecap="round" stroke-linejoin="round"/>
</svg>
