<svg width="1302" height="1318" viewBox="0 0 1302 1318" fill="none" xmlns="http://www.w3.org/2000/svg">
<path d="M1066.89 562.634C865.087 680.57 500.665 680.568 520.364 312.379C530.838 116.609 758.182 -39.0044 1022.25 47.1973C1272.57 128.915 1344.14 465.119 1216.47 680.569C1106.79 865.672 953.502 1023.8 739.612 1151.32C678.469 1187.77 674.68 1261.62 739.612 1261.62H1112.92M234.842 754.417C436.868 636.856 801.29 637.534 780.908 1005.69C770.07 1201.44 542.438 1356.63 278.534 1269.94C28.3586 1187.75 -42.5869 851.418 85.4828 636.205C195.513 451.306 349.089 293.462 563.216 166.344C624.427 130.005 628.352 56.1614 563.421 56.0409L190.114 55.3485" stroke="black" stroke-width="46" stroke-linecap="round"/>
</svg>
