<svg preserveAspectRatio="none" width="100%" height="100%" overflow="visible" style="display: block;" viewBox="0 0 449.645 449.645" fill="none" xmlns="http://www.w3.org/2000/svg">
<g id="Component 33">
<path id="Vector" d="M182.704 19.7428C197.044 25.0496 205.304 29.69 218.164 42.0025C219.856 43.6218 222.096 44.5523 224.438 44.5523L225.206 44.5534C227.547 44.5534 229.788 43.6229 231.479 42.0036C244.34 29.6911 252.6 25.0507 266.939 19.7439C284.159 13.3709 311.82 17.2075 329.538 32.4368C349.312 50.0353 357.334 64.5771 362.424 88.1125C366.651 106.555 367.531 116.274 368.712 130.093C369.076 134.354 372.441 137.685 376.652 138.426C386.775 140.208 394.844 143.588 400.504 149.269C407.67 156.464 410.755 165.834 411.151 171.836C411.657 179.503 410.694 186.234 406.343 194.528C404.568 197.912 405.007 201.894 406.653 205.342C407.108 206.296 407.442 207.255 407.7 208.333C407.938 209.328 407.921 210.366 407.701 211.365C407.167 213.791 406.451 215.764 405.192 217.827C402.929 221.534 402.68 226.099 404.604 229.993C406.254 233.333 406.665 236.374 406.166 240.642C405.383 247.346 401.017 256.196 395.314 260.875L395.078 261.069C391.004 264.414 386.798 267.867 377.84 269.704C369.587 271.396 364.475 271.592 357.28 271.676C354.273 271.712 351.515 273.281 349.781 275.738C348.571 277.451 347.395 278.978 346.162 280.461C342.416 284.966 343.574 291.589 347.805 295.643C350.41 298.139 352.764 301.253 355.4 305.755C362.867 318.507 357.557 334.587 349.967 346.123C342.715 355.1 333.568 359.379 324.05 363.79C321.24 365.092 319.366 367.787 318.899 370.849C311.383 420.181 270.985 432.879 224.949 432.851C178.912 432.879 138.261 420.179 130.744 370.848C130.278 367.786 128.404 365.091 125.594 363.789C116.075 359.378 106.929 355.099 99.6764 346.122C92.0868 334.586 86.7764 318.506 94.2435 305.754C96.8798 301.252 99.2336 298.138 101.839 295.642C106.07 291.588 107.228 284.965 103.482 280.46C102.248 278.977 101.073 277.45 99.8629 275.737C98.1289 273.28 95.3709 271.711 92.3641 271.675C85.1687 271.591 80.0563 271.395 71.8034 269.703C62.8457 267.866 58.6396 264.413 54.566 261.068L54.3296 260.874C48.6271 256.195 44.2603 247.345 43.4774 240.641C42.979 236.373 43.3893 233.332 45.0397 229.992C46.9637 226.098 46.7146 221.533 44.4516 217.826C43.1922 215.763 42.4768 213.79 41.9424 211.364C41.7223 210.365 41.7054 209.326 41.9437 208.332C42.2019 207.254 42.5354 206.295 42.9907 205.341C44.6367 201.892 45.0753 197.911 43.3004 194.527C38.9497 186.233 37.9862 179.502 38.4926 171.834C38.8889 165.833 41.9737 156.463 49.14 149.268C54.7993 143.586 62.8684 140.207 72.9913 138.425C77.2023 137.684 80.5673 134.352 80.9314 130.092C82.1124 116.273 82.9922 106.554 87.2199 88.1114C92.3101 64.576 100.331 50.0342 120.105 32.4357C137.823 17.2064 165.484 13.3698 182.704 19.7428Z" stroke="var(--stroke-0, #F4F4E8)" stroke-width="5.89698" stroke-linejoin="round"/>
</g>
</svg>
