<svg preserveAspectRatio="none" width="100%" height="100%" overflow="visible" style="display: block;" viewBox="0 0 449.645 449.645" fill="none" xmlns="http://www.w3.org/2000/svg">
<g id="Component 33">
<path id="Vector" d="M170.773 174.435C183.207 160.889 202.166 149.234 224.714 149.234C247.262 149.234 266.436 160.889 278.87 174.435C279.981 175.644 281.713 176.081 283.241 175.48L289.585 172.982C290.829 172.492 291.389 171.053 290.944 169.792C287.926 161.24 290.044 151.742 296.152 144.936C298.485 142.337 302.367 140.138 306.443 138.612C308.993 137.657 311.19 135.891 312.495 133.502C318.568 122.378 327.8 111.592 340.065 108.723C362.013 104.537 376.95 115.806 381.747 137.32C384.036 150.034 379.497 158.26 372.118 169.089C371.329 170.247 370.966 171.64 370.984 173.041C371.084 180.675 368.692 186.231 366.003 189.632C363.972 192.203 360.388 196.211 355.296 198.705C353.712 199.481 352.416 200.926 352.563 202.684C352.766 205.123 353.672 207.385 355.339 209.363C359.22 213.97 366.119 213.38 371.905 211.703C382.83 208.535 388.058 208.374 400.397 210.227C423.366 213.675 439.729 231.234 436.536 255.476C435.676 262.008 430.653 267.847 425.986 273.008C423.475 275.784 423.005 279.791 424.706 283.125C430.465 294.407 432.946 300.558 430.65 308.85C427.059 321.819 412.953 326.272 397.282 325.323C376.095 324.04 365.898 324.201 351.28 320.981C348.885 320.454 346.422 321.545 345.14 323.636C339.328 333.115 333.143 338.237 324.119 339.955C314.697 341.75 294.085 341.785 279.548 341.785C265.717 341.219 262.161 340.46 251.15 334.95C248.171 333.459 245.855 331.956 243.878 330.234C237.163 324.384 236.92 314.325 239.412 305.775C240.065 303.535 238.932 301.133 236.733 300.351C229.039 297.617 220.662 297.597 212.91 300.351C210.711 301.133 209.578 303.535 210.231 305.775C212.724 314.325 212.48 324.384 205.765 330.234C203.788 331.956 201.473 333.459 198.493 334.95C187.483 340.46 183.926 341.219 170.095 341.785C155.559 341.785 134.946 341.75 125.524 339.955C116.5 338.237 110.315 333.115 104.503 323.636C103.221 321.545 100.758 320.454 98.363 320.981C83.7452 324.201 73.5479 324.04 52.3617 325.323C36.6908 326.272 22.5844 321.819 18.9929 308.85C16.6968 300.558 19.1782 294.407 24.9369 283.125C26.6387 279.791 26.1686 275.784 23.6576 273.008C18.9899 267.847 13.9676 262.008 13.1073 255.476C9.9144 231.234 26.2773 213.675 49.2459 210.227C61.5854 208.374 66.8135 208.535 77.7387 211.703C83.5244 213.38 90.4233 213.97 94.3044 209.363C95.9712 207.385 96.8771 205.123 97.0806 202.684C97.2272 200.926 95.9314 199.481 94.3472 198.705C89.255 196.211 85.6713 192.203 83.6399 189.632C80.9515 186.231 78.5598 180.675 78.6588 173.041C78.677 171.64 78.3144 170.247 77.5253 169.089C70.1466 158.26 65.6071 150.034 67.8963 137.32C72.693 115.806 87.6304 104.537 109.578 108.723C121.843 111.592 131.075 122.378 137.148 133.502C138.453 135.891 140.65 137.657 143.2 138.612C147.276 140.138 151.159 142.337 153.491 144.936C159.599 151.742 161.717 161.24 158.7 169.792C158.255 171.053 158.814 172.492 160.058 172.982L166.402 175.48C167.93 176.081 169.663 175.644 170.773 174.435Z" stroke="var(--stroke-0, #F4F4E8)" stroke-width="5.89698" stroke-linejoin="round"/>
</g>
</svg>
