<svg preserveAspectRatio="none" width="100%" height="100%" overflow="visible" style="display: block;" viewBox="0 0 449.645 449.645" fill="none" xmlns="http://www.w3.org/2000/svg">
<g id="Component 33">
<path id="Vector" d="M227.102 390.879C209.232 391.271 199.125 392.833 180.089 390.879C156.814 388.489 140.748 376.486 139.055 357.244C137.383 338.253 141.119 329.692 155.306 318.342C155.659 318.06 155.872 317.629 155.872 317.176C155.872 315.848 154.245 315.19 153.301 316.125C142.738 326.585 135.777 330.261 125.239 332.973C123.569 333.402 122.502 335.04 122.618 336.761C122.993 342.338 121.812 348.592 119.547 353.208C108.008 373.468 97.776 384.14 73.1317 390.879C48.4236 395.642 22.0954 382.663 15.9535 371.034C8.10219 356.17 8.16462 333.743 22.7533 320.451C24.2862 319.055 24.3922 316.591 22.8945 315.157C7.32044 300.24 8.86827 288.341 10.9079 266.432C15.5533 240.004 32.3693 223.169 52.6473 214.299C69.5667 206.898 89.4869 204.2 119.75 213.03C121.817 213.633 123.919 212.104 123.919 209.951C123.919 208.115 122.365 206.667 120.529 206.698C99.3524 207.056 85.1895 198.081 80.6835 188.245C70.3317 171.423 70.3317 142.956 86.2907 130.232C103.117 116.816 127.168 116.84 148.386 133.457C149.742 134.518 151.698 134.412 152.87 133.15L160.792 124.618C161.687 123.654 161.895 122.244 161.383 121.032C153.718 102.875 157.857 82.9116 167.811 74.5898C194.666 52.1396 254.981 52.1391 281.835 74.5891C291.789 82.9109 295.928 102.874 288.263 121.031C287.751 122.244 287.959 123.653 288.854 124.618L296.776 133.15C297.948 134.412 299.904 134.518 301.26 133.456C322.479 116.839 346.529 116.815 363.356 130.231C379.315 142.955 379.315 171.423 368.963 188.244C364.457 198.08 350.294 207.055 329.117 206.697C327.282 206.666 325.727 208.114 325.727 209.95C325.727 212.103 327.829 213.632 329.896 213.029C360.159 204.2 380.08 206.897 396.999 214.298C417.277 223.169 434.093 240.003 438.738 266.431C440.778 288.341 442.326 300.24 426.752 315.156C425.254 316.59 425.36 319.054 426.893 320.451C441.482 333.743 441.544 356.17 433.693 371.034C427.551 382.662 401.223 395.641 376.515 390.878C351.87 384.139 341.638 373.468 330.099 353.208C327.835 348.592 326.654 342.337 327.029 336.76C327.144 335.04 326.077 333.402 324.407 332.972C313.869 330.26 306.908 326.584 296.345 316.125C295.401 315.19 293.774 315.847 293.774 317.176C293.774 317.628 293.987 318.059 294.34 318.342C308.527 329.692 312.263 338.252 310.591 357.244C308.898 376.486 292.832 388.488 269.558 390.878C250.521 392.833 240.414 391.27 222.544 390.878" stroke="var(--stroke-0, #F4F4E8)" stroke-width="5.89698" stroke-linejoin="round"/>
</g>
</svg>
