<svg preserveAspectRatio="none" width="100%" height="100%" overflow="visible" style="display: block;" viewBox="0 0 449.645 449.645" fill="none" xmlns="http://www.w3.org/2000/svg">
<g id="Component 33">
<path id="Vector" d="M116.812 42.7791C155.834 36.2864 181.598 40.1003 222.162 59.6385C223.835 60.4442 225.809 60.4442 227.481 59.6385C268.046 40.1003 293.81 36.2868 332.832 42.7795C369.519 48.8848 436.811 105.646 439.026 158.051C439.026 200.318 423.161 228.064 393.196 265.072C390.622 268.251 391.858 273.044 395.543 274.818C418.457 285.849 434.974 303.852 436.297 320.107C438.799 350.849 432.034 368.681 401.367 390.408C380.597 405.123 336.928 406.725 296.526 390.408L282.378 383.334C279.243 381.766 275.46 383.232 273.711 386.27C268.848 394.712 261.553 401.429 253.877 405.459C244.503 410.38 233.546 410.041 224.822 409.468C216.098 410.041 205.141 410.38 195.767 405.459C188.091 401.429 180.796 394.712 175.934 386.269C174.184 383.232 170.401 381.766 167.266 383.334L153.118 390.408C112.716 406.724 69.0471 405.122 48.2772 390.408C17.6099 368.681 10.8449 350.848 13.3472 320.106C14.6702 303.852 31.1876 285.848 54.1007 274.818C57.7862 273.043 59.0217 268.251 56.4477 265.072C26.4827 228.064 10.6178 200.317 10.6178 158.05C12.8335 105.646 80.1252 48.8844 116.812 42.7791Z" stroke="var(--stroke-0, #F4F4E8)" stroke-width="5.89698" stroke-linejoin="round"/>
</g>
</svg>
