<svg preserveAspectRatio="none" width="100%" height="100%" overflow="visible" style="display: block;" viewBox="0 0 449.645 449.645" fill="none" xmlns="http://www.w3.org/2000/svg">
<g id="Component 33">
<path id="Vector" d="M145.752 55.1847C155.131 32.7313 193.718 30.5822 221.748 41.0719C223.73 41.8136 225.913 41.8136 227.895 41.0719C255.925 30.5822 294.512 32.7313 303.891 55.1847C313.244 77.5746 301.742 101.951 280.469 129.483C279.311 130.982 280.153 133.207 281.986 133.688C298.432 137.999 309.625 150.444 309.917 166.997C309.971 170.056 312.351 172.715 315.409 172.803C329.71 173.21 339.855 177.083 341.775 191.529C342.143 194.296 344.629 196.42 347.392 196.022C376.962 191.766 401.263 196.524 413.834 209.242C424.019 219.548 430.391 237.154 430.391 255.378C430.08 268.739 426.857 280.53 420.413 293.695C419.416 295.731 419.509 298.139 420.596 300.129C433.199 323.229 427.59 341.684 422.746 349.219C409.785 369.377 385.706 368.251 355.788 362.666C354.231 362.376 352.636 362.623 351.176 363.237C341.339 367.374 317.354 372.814 301.966 364.997C301.254 364.635 300.377 365.189 300.382 365.989C300.617 404.008 243.441 414.06 224.821 414.06C206.202 414.06 149.026 404.008 149.261 365.989C149.266 365.189 148.389 364.635 147.676 364.997C132.289 372.814 108.303 367.374 98.467 363.237C97.007 362.623 95.4113 362.376 93.8544 362.666C63.9369 368.251 39.8578 369.377 26.8969 349.219C22.0524 341.684 16.4436 323.229 29.047 300.129C30.1331 298.139 30.2263 295.731 29.2294 293.695C22.7855 280.53 19.563 268.739 19.252 255.378C19.2516 237.154 25.6231 219.548 35.809 209.242C48.3794 196.524 72.6803 191.766 102.25 196.022C105.013 196.42 107.5 194.296 107.868 191.529C109.788 177.083 119.933 173.21 134.233 172.803C137.292 172.715 139.672 170.056 139.726 166.997C140.018 150.444 151.21 137.999 167.657 133.688C169.49 133.207 170.332 130.982 169.173 129.483C147.901 101.951 136.398 77.5746 145.752 55.1847Z" stroke="var(--stroke-0, #F4F4E8)" stroke-width="5.89698" stroke-linejoin="round"/>
</g>
</svg>
