<svg preserveAspectRatio="none" width="100%" height="100%" overflow="visible" style="display: block;" viewBox="0 0 449.645 449.645" fill="none" xmlns="http://www.w3.org/2000/svg">
<g id="Component 33">
<path id="Vector" d="M147.425 42.8402C164.436 73.8083 173.896 91.2944 189.478 119.889C190.387 121.557 190.317 123.63 189.08 125.072C186.148 128.49 182.983 130.177 177.688 131.261C175.005 131.81 172.303 130.839 170.028 129.313C163.82 125.148 157.29 124.322 150.931 126.992C139.514 131.788 136.008 143.653 142.06 158.41C142.433 159.319 142.085 160.376 141.224 160.849L138.312 162.451C136.361 163.524 134.071 163.675 131.881 163.27C128.28 162.605 125.183 162.983 122.003 164.951C111.173 171.654 112.331 182.328 124.359 201.951C125.663 204.078 128.051 205.277 130.544 205.183C138.049 204.902 143.401 205.222 148.326 206.542C149.745 206.922 150.42 208.496 149.823 209.838L148.607 212.575C147.839 214.303 146.528 215.727 144.906 216.697C132.108 224.355 123.513 233.225 122.003 245.624C120.815 255.381 121.392 260.742 123.507 267.808C124.152 269.962 123.517 272.282 121.996 273.938C114.918 281.651 115.27 288.565 115.575 300.557C114.899 329.986 113.653 340.92 114.193 381.668C114.208 382.811 113.965 383.966 113.478 385.001L108.931 394.686C106.967 398.87 105.897 403.554 107.01 408.04C109.625 418.576 116.773 424.014 135.153 429.707C149.141 431.758 157.634 431.594 172.846 431.168C178.232 429.821 181.981 428.695 186.87 426.698C190.696 425.135 194.898 424.654 198.928 425.575L199.192 425.636C200.618 425.961 201.988 426.493 203.261 427.213L207.366 429.537C209.255 430.606 211.387 431.168 213.557 431.168H236.089C238.259 431.168 240.391 430.606 242.279 429.537L246.385 427.213C247.657 426.493 249.028 425.961 250.454 425.636L250.718 425.575C254.748 424.654 258.949 425.135 262.776 426.698C267.665 428.695 271.413 429.821 276.8 431.168C292.012 431.594 300.505 431.758 314.493 429.707C332.873 424.014 340.021 418.576 342.635 408.04C343.748 403.554 342.679 398.87 340.715 394.686L336.167 385.001C335.681 383.966 335.438 382.811 335.453 381.668C335.992 340.92 334.747 329.986 334.07 300.557C334.375 288.565 334.728 281.651 327.649 273.938C326.129 272.282 325.494 269.963 326.139 267.808C328.254 260.742 328.83 255.381 327.642 245.624C326.133 233.225 317.538 224.355 304.74 216.697C303.117 215.727 301.807 214.303 301.039 212.575L299.822 209.838C299.226 208.496 299.901 206.922 301.32 206.542C306.244 205.222 311.597 204.902 319.102 205.183C321.594 205.277 323.983 204.078 325.286 201.951C337.315 182.328 338.473 171.654 327.642 164.951C324.462 162.983 321.366 162.605 317.764 163.27C315.575 163.675 313.285 163.524 311.334 162.451L308.422 160.849C307.56 160.376 307.212 159.319 307.585 158.41C313.638 143.653 310.131 131.788 298.715 126.992C292.356 124.322 285.826 125.148 279.618 129.313C277.343 130.839 274.641 131.81 271.958 131.261C266.663 130.178 263.498 128.49 260.566 125.072C259.329 123.63 259.259 121.557 260.167 119.889C275.75 91.2945 285.21 73.8083 302.221 42.8403C306.402 33.1586 297.049 19.8123 283.521 18.2959C258.893 17.6857 249.247 20.44 233.555 26.4771L228.88 28.8147L220.766 28.8147L216.09 26.4771C200.399 20.4399 190.753 17.6856 166.125 18.2959C152.596 19.8123 143.243 33.1586 147.425 42.8402Z" stroke="var(--stroke-0, #F4F4E8)" stroke-width="5.89698" stroke-linejoin="round"/>
</g>
</svg>
