<svg preserveAspectRatio="none" width="100%" height="100%" overflow="visible" style="display: block;" viewBox="0 0 449.645 449.645" fill="none" xmlns="http://www.w3.org/2000/svg">
<g id="Component 33">
<path id="Vector" d="M173.627 44.0725C178.245 47.756 186.713 45.3438 188.149 39.6013C194.564 6.98891 255.087 7.0404 261.493 39.6033C262.928 45.3457 271.397 47.7579 276.015 44.0745C284.492 37.3125 295.543 37.177 321.972 38.4457C374.87 40.5076 395.278 65.0423 405.001 87.1995C422.499 127.073 419.921 146.256 399.603 176.446C397.435 180.572 402.174 185.425 411.836 185.425C422.746 185.425 427.956 189.225 429.93 196.404C433.084 207.877 425.55 211.714 416.949 214.766C414.588 215.603 412.761 217.507 412.085 219.919C410.905 224.127 413.58 228.528 417.238 230.92C421.167 233.49 425.342 237.89 426.022 245.151C427.354 259.391 409.912 259.875 409.912 259.875C404.225 260.388 400.605 260.073 396.768 258.849C393.425 257.782 389.859 257.52 386.467 258.419C378.418 260.554 370.904 261.016 363.36 258.491C359.395 257.164 354.729 256.756 351.809 259.748C351.318 260.252 350.876 260.766 350.464 261.304C348.232 264.213 347.81 268.188 349.259 271.556C351.226 276.134 356.457 278.182 361.437 278.033C375.995 277.597 383.893 278.059 391.694 283.081C400.803 288.945 404.292 300.116 403.111 311.41C402.694 315.398 400.833 318.893 399.069 321.826C397.53 324.384 397.113 327.408 397.707 330.333C403.277 357.772 397.648 387.265 371.984 397.63C365.02 400.443 357.324 400.464 349.835 401.035C334.366 402.213 325.636 405.866 314.855 410.876C299.426 416.985 285.686 413.09 275.142 406.598C270.175 403.539 263.525 403.216 259.643 407.571C256.95 410.593 255.132 413.521 253.877 416.96C252.123 421.767 249.888 426.638 245.531 429.322C234.356 436.207 215.285 436.205 204.11 429.32C199.754 426.636 197.519 421.765 195.765 416.958C194.51 413.519 192.691 410.591 189.998 407.569C186.117 403.214 179.467 403.537 174.5 406.596C163.955 413.089 150.216 416.983 134.787 410.874C124.005 405.864 115.275 402.211 99.807 401.033C92.3181 400.462 84.6219 400.441 77.6578 397.629C51.9938 387.263 46.3644 357.77 51.9347 330.331C52.5286 327.406 52.1115 324.382 50.5729 321.824C48.8087 318.891 46.9477 315.396 46.5306 311.408C45.3496 300.114 48.8388 288.943 57.9476 283.079C65.7488 278.057 73.6462 277.595 88.2047 278.031C93.185 278.18 98.4152 276.132 100.383 271.554C101.831 268.186 101.409 264.212 99.1776 261.302C98.7651 260.764 98.324 260.25 97.833 259.746C94.9126 256.754 90.2469 257.162 86.2818 258.489C78.7375 261.014 71.2237 260.552 63.1745 258.417C59.7823 257.518 56.2169 257.78 52.8735 258.847C49.0366 260.071 45.4165 260.386 39.73 259.873C39.73 259.873 22.2876 259.389 23.6198 245.149C24.2991 237.888 28.4743 233.488 32.4037 230.918C36.0613 228.526 38.7362 224.125 37.5567 219.917C36.8808 217.505 35.0532 215.601 32.6929 214.764C24.0919 211.712 16.558 207.875 19.712 196.402C21.6855 189.223 26.8952 185.423 37.806 185.423C47.4677 185.423 52.2069 180.57 50.039 176.444C29.721 146.254 27.1424 127.072 44.6405 87.1975C54.3638 65.0404 74.7719 40.5057 127.669 38.4437C154.099 37.175 165.149 37.3105 173.627 44.0725Z" stroke="var(--stroke-0, #F4F4E8)" stroke-width="5.89698" stroke-linejoin="round"/>
</g>
</svg>
