<svg preserveAspectRatio="none" width="100%" height="100%" overflow="visible" style="display: block;" viewBox="0 0 855.326 656.188" fill="none" xmlns="http://www.w3.org/2000/svg">
<g id="Vector" filter="url(#filter0_d_0_8)">
<path d="M12.5 4.5L12.5 14.5618C12.5 18.3496 12.761 22.1395 13.6148 25.8298C14.3056 28.8155 15.3002 32.4244 16.5501 35.1305C18.8424 40.0936 23.8273 48.2719 23.8273 48.2719C23.8273 48.2719 18.7381 56.1818 16.5501 61.083C15.3224 63.8331 14.3219 67.561 13.6225 70.6377C12.7717 74.3803 12.5 78.2198 12.5 82.0579V562.13C12.5 565.968 12.7717 569.807 13.6225 573.55C14.3219 576.626 15.3224 580.354 16.5501 583.104C18.7381 588.006 23.8273 595.916 23.8273 595.916C23.8273 595.916 18.8424 604.094 16.5501 609.057C15.3002 611.763 14.3056 615.372 13.6148 618.358C12.761 622.048 12.5 625.838 12.5 629.626L12.5 639.688H846.826V629.626C846.826 625.838 846.565 622.048 845.711 618.358C845.02 615.372 844.025 611.763 842.776 609.057C840.483 604.094 835.498 595.916 835.498 595.916C835.498 595.916 840.588 588.006 842.776 583.104C844.003 580.354 845.004 576.626 845.703 573.55C846.554 569.807 846.826 565.968 846.826 562.13L846.826 82.058C846.826 78.2199 846.554 74.3804 845.703 70.6377C845.004 67.5611 844.003 63.8331 842.775 61.0831C840.587 56.1819 835.498 48.2719 835.498 48.2719C835.498 48.2719 840.483 40.0937 842.775 35.1306C844.025 32.4245 845.02 28.8156 845.711 25.8299C846.565 22.1396 846.825 18.3496 846.825 14.5619V4.50007L12.5 4.5Z" fill="var(--fill-0, #090809)"/>
<path d="M12.5 4.5L12.5 14.5618C12.5 18.3496 12.761 22.1395 13.6148 25.8298C14.3056 28.8155 15.3002 32.4244 16.5501 35.1305C18.8424 40.0936 23.8273 48.2719 23.8273 48.2719C23.8273 48.2719 18.7381 56.1818 16.5501 61.083C15.3224 63.8331 14.3219 67.561 13.6225 70.6377C12.7717 74.3803 12.5 78.2198 12.5 82.0579V562.13C12.5 565.968 12.7717 569.807 13.6225 573.55C14.3219 576.626 15.3224 580.354 16.5501 583.104C18.7381 588.006 23.8273 595.916 23.8273 595.916C23.8273 595.916 18.8424 604.094 16.5501 609.057C15.3002 611.763 14.3056 615.372 13.6148 618.358C12.761 622.048 12.5 625.838 12.5 629.626L12.5 639.688H846.826V629.626C846.826 625.838 846.565 622.048 845.711 618.358C845.02 615.372 844.025 611.763 842.776 609.057C840.483 604.094 835.498 595.916 835.498 595.916C835.498 595.916 840.588 588.006 842.776 583.104C844.003 580.354 845.004 576.626 845.703 573.55C846.554 569.807 846.826 565.968 846.826 562.13L846.826 82.058C846.826 78.2199 846.554 74.3804 845.703 70.6377C845.004 67.5611 844.003 63.8331 842.775 61.0831C840.587 56.1819 835.498 48.2719 835.498 48.2719C835.498 48.2719 840.483 40.0937 842.775 35.1306C844.025 32.4245 845.02 28.8156 845.711 25.8299C846.565 22.1396 846.825 18.3496 846.825 14.5619V4.50007L12.5 4.5Z" stroke="var(--stroke-0, #333233)"/>
</g>
<defs>
<filter id="filter0_d_0_8" x="0" y="-5.96046e-08" width="855.326" height="656.188" filterUnits="userSpaceOnUse" color-interpolation-filters="sRGB">
<feFlood flood-opacity="0" result="BackgroundImageFix"/>
<feColorMatrix in="SourceAlpha" type="matrix" values="0 0 0 0 0 0 0 0 0 0 0 0 0 0 0 0 0 0 127 0" result="hardAlpha"/>
<feOffset dx="-2" dy="6"/>
<feGaussianBlur stdDeviation="5"/>
<feComposite in2="hardAlpha" operator="out"/>
<feColorMatrix type="matrix" values="0 0 0 0 0 0 0 0 0 0 0 0 0 0 0 0 0 0 0.1 0"/>
<feBlend mode="normal" in2="BackgroundImageFix" result="effect1_dropShadow_0_8"/>
<feBlend mode="normal" in="SourceGraphic" in2="effect1_dropShadow_0_8" result="shape"/>
</filter>
</defs>
</svg>
