<svg preserveAspectRatio="none" width="100%" height="100%" overflow="visible" style="display: block;" viewBox="0 0 856.125 283.768" fill="none" xmlns="http://www.w3.org/2000/svg">
<g id="Vector" filter="url(#filter0_d_0_7)">
<path d="M12.5 4.5L12.5 12.9109C12.5 16.0772 12.7182 19.2454 13.4319 22.3302C14.0094 24.826 14.8408 27.8428 15.8856 30.1049C17.8018 34.2537 21.9688 41.0901 21.9688 41.0901C21.9688 41.0901 17.7146 47.7023 15.8856 51.7993C14.8593 54.0982 14.023 57.2145 13.4384 59.7863C12.7271 62.9149 12.5 66.1245 12.5 69.3329V202.435C12.5 205.643 12.7271 208.853 13.4384 211.981C14.023 214.553 14.8593 217.669 15.8856 219.968C17.7146 224.065 21.9688 230.677 21.9688 230.677C21.9688 230.677 17.8018 237.514 15.8856 241.663C14.8408 243.925 14.0094 246.941 13.4319 249.437C12.7182 252.522 12.5 255.69 12.5 258.857L12.5 267.268H847.625V258.857C847.625 255.69 847.407 252.522 846.693 249.437C846.116 246.941 845.284 243.925 844.239 241.663C842.323 237.514 838.156 230.677 838.156 230.677C838.156 230.677 842.41 224.065 844.239 219.968C845.266 217.669 846.102 214.553 846.687 211.981C847.398 208.853 847.625 205.643 847.625 202.435L847.625 69.3329C847.625 66.1245 847.398 62.915 846.686 59.7864C846.102 57.2145 845.266 54.0982 844.239 51.7994C842.41 47.7023 838.156 41.0902 838.156 41.0902C838.156 41.0902 842.323 34.2538 844.239 30.105C845.284 27.8429 846.115 24.8261 846.693 22.3302C847.407 19.2454 847.625 16.0773 847.625 12.911V4.50006L12.5 4.5Z" fill="var(--fill-0, #090809)"/>
<path d="M12.5 4.5L12.5 12.9109C12.5 16.0772 12.7182 19.2454 13.4319 22.3302C14.0094 24.826 14.8408 27.8428 15.8856 30.1049C17.8018 34.2537 21.9688 41.0901 21.9688 41.0901C21.9688 41.0901 17.7146 47.7023 15.8856 51.7993C14.8593 54.0982 14.023 57.2145 13.4384 59.7863C12.7271 62.9149 12.5 66.1245 12.5 69.3329V202.435C12.5 205.643 12.7271 208.853 13.4384 211.981C14.023 214.553 14.8593 217.669 15.8856 219.968C17.7146 224.065 21.9688 230.677 21.9688 230.677C21.9688 230.677 17.8018 237.514 15.8856 241.663C14.8408 243.925 14.0094 246.941 13.4319 249.437C12.7182 252.522 12.5 255.69 12.5 258.857L12.5 267.268H847.625V258.857C847.625 255.69 847.407 252.522 846.693 249.437C846.116 246.941 845.284 243.925 844.239 241.663C842.323 237.514 838.156 230.677 838.156 230.677C838.156 230.677 842.41 224.065 844.239 219.968C845.266 217.669 846.102 214.553 846.687 211.981C847.398 208.853 847.625 205.643 847.625 202.435L847.625 69.3329C847.625 66.1245 847.398 62.915 846.686 59.7864C846.102 57.2145 845.266 54.0982 844.239 51.7994C842.41 47.7023 838.156 41.0902 838.156 41.0902C838.156 41.0902 842.323 34.2538 844.239 30.105C845.284 27.8429 846.115 24.8261 846.693 22.3302C847.407 19.2454 847.625 16.0773 847.625 12.911V4.50006L12.5 4.5Z" stroke="var(--stroke-0, #333233)"/>
</g>
<defs>
<filter id="filter0_d_0_7" x="0" y="-5.96046e-08" width="856.125" height="283.768" filterUnits="userSpaceOnUse" color-interpolation-filters="sRGB">
<feFlood flood-opacity="0" result="BackgroundImageFix"/>
<feColorMatrix in="SourceAlpha" type="matrix" values="0 0 0 0 0 0 0 0 0 0 0 0 0 0 0 0 0 0 127 0" result="hardAlpha"/>
<feOffset dx="-2" dy="6"/>
<feGaussianBlur stdDeviation="5"/>
<feComposite in2="hardAlpha" operator="out"/>
<feColorMatrix type="matrix" values="0 0 0 0 0 0 0 0 0 0 0 0 0 0 0 0 0 0 0.1 0"/>
<feBlend mode="normal" in2="BackgroundImageFix" result="effect1_dropShadow_0_7"/>
<feBlend mode="normal" in="SourceGraphic" in2="effect1_dropShadow_0_7" result="shape"/>
</filter>
</defs>
</svg>
