<svg shape-rendering="geometricPrecision" width="982" height="594" viewBox="0 0 982 594" fill="none" xmlns="http://www.w3.org/2000/svg">
<g filter="url(#filter0_d_1714_19465)">
<path d="M12.5 4.5L12.5 12.9109C12.5 16.0772 12.7182 19.2454 13.4319 22.3302C14.0094 24.826 14.8408 27.8428 15.8856 30.1049C17.8018 34.2537 21.9688 41.0901 21.9688 41.0901C21.9688 41.0901 17.7146 47.7023 15.8856 51.7993C14.8593 54.0982 14.023 57.2145 13.4384 59.7863C12.7272 62.9149 12.5 66.1245 12.5 69.3329V512.435C12.5 515.643 12.7272 518.853 13.4384 521.981C14.023 524.553 14.8593 527.669 15.8856 529.968C17.7146 534.065 21.9688 540.677 21.9688 540.677C21.9688 540.677 17.8018 547.514 15.8856 551.663C14.8408 553.925 14.0094 556.942 13.4319 559.437C12.7182 562.522 12.5 565.69 12.5 568.857L12.5 577.268H609.625V568.857C609.625 565.69 609.407 562.522 608.693 559.437C608.116 556.942 607.284 553.925 606.239 551.663C604.323 547.514 600.156 540.677 600.156 540.677C600.156 540.677 604.41 534.065 606.239 529.968C607.266 527.669 608.102 524.553 608.687 521.981C609.398 518.853 609.625 515.643 609.625 512.435L609.625 69.3329C609.625 66.1245 609.398 62.915 608.686 59.7864C608.102 57.2145 607.266 54.0982 606.239 51.7994C604.41 47.7023 600.156 41.0902 600.156 41.0902C600.156 41.0902 604.323 34.2538 606.239 30.105C607.284 27.8429 608.115 24.8261 608.693 22.3302C609.407 19.2454 609.625 16.0773 609.625 12.911V4.50006L12.5 4.5Z" fill="#090809"/>
<path d="M12.5 4.5L12.5 12.9109C12.5 16.0772 12.7182 19.2454 13.4319 22.3302C14.0094 24.826 14.8408 27.8428 15.8856 30.1049C17.8018 34.2537 21.9688 41.0901 21.9688 41.0901C21.9688 41.0901 17.7146 47.7023 15.8856 51.7993C14.8593 54.0982 14.023 57.2145 13.4384 59.7863C12.7272 62.9149 12.5 66.1245 12.5 69.3329V512.435C12.5 515.643 12.7272 518.853 13.4384 521.981C14.023 524.553 14.8593 527.669 15.8856 529.968C17.7146 534.065 21.9688 540.677 21.9688 540.677C21.9688 540.677 17.8018 547.514 15.8856 551.663C14.8408 553.925 14.0094 556.942 13.4319 559.437C12.7182 562.522 12.5 565.69 12.5 568.857L12.5 577.268H609.625V568.857C609.625 565.69 609.407 562.522 608.693 559.437C608.116 556.942 607.284 553.925 606.239 551.663C604.323 547.514 600.156 540.677 600.156 540.677C600.156 540.677 604.41 534.065 606.239 529.968C607.266 527.669 608.102 524.553 608.687 521.981C609.398 518.853 609.625 515.643 609.625 512.435L609.625 69.3329C609.625 66.1245 609.398 62.915 608.686 59.7864C608.102 57.2145 607.266 54.0982 606.239 51.7994C604.41 47.7023 600.156 41.0902 600.156 41.0902C600.156 41.0902 604.323 34.2538 606.239 30.105C607.284 27.8429 608.115 24.8261 608.693 22.3302C609.407 19.2454 609.625 16.0773 609.625 12.911V4.50006L12.5 4.5Z" stroke="#333233"/>
</g>
<g filter="url(#filter1_d_1714_19465)">
<path d="M609.625 4.5L609.625 12.9109C609.625 16.0772 609.843 19.2454 610.557 22.3302C611.134 24.826 611.966 27.8428 613.011 30.1049C614.927 34.2537 619.094 41.0901 619.094 41.0901C619.094 41.0901 614.84 47.7023 613.011 51.7993C611.984 54.0982 611.148 57.2145 610.563 59.7863C609.852 62.9149 609.625 66.1245 609.625 69.3329V222.435C609.625 225.643 609.852 228.853 610.563 231.981C611.148 234.553 611.984 237.669 613.011 239.968C614.84 244.065 619.094 250.677 619.094 250.677C619.094 250.677 614.927 257.514 613.011 261.663C611.966 263.925 611.134 266.941 610.557 269.437C609.843 272.522 609.625 275.69 609.625 278.857L609.625 287.268H972.75V278.857C972.75 275.69 972.532 272.522 971.818 269.437C971.241 266.941 970.409 263.925 969.364 261.663C967.448 257.514 963.281 250.677 963.281 250.677C963.281 250.677 967.535 244.065 969.364 239.968C970.391 237.669 971.227 234.553 971.812 231.981C972.523 228.853 972.75 225.643 972.75 222.435L972.75 69.3329C972.75 66.1245 972.523 62.915 971.811 59.7864C971.227 57.2145 970.391 54.0982 969.364 51.7994C967.535 47.7023 963.281 41.0902 963.281 41.0902C963.281 41.0902 967.448 34.2538 969.364 30.105C970.409 27.8429 971.24 24.8261 971.818 22.3302C972.532 19.2454 972.75 16.0773 972.75 12.911V4.50006L609.625 4.5Z" fill="#090809"/>
<path d="M609.625 4.5L609.625 12.9109C609.625 16.0772 609.843 19.2454 610.557 22.3302C611.134 24.826 611.966 27.8428 613.011 30.1049C614.927 34.2537 619.094 41.0901 619.094 41.0901C619.094 41.0901 614.84 47.7023 613.011 51.7993C611.984 54.0982 611.148 57.2145 610.563 59.7863C609.852 62.9149 609.625 66.1245 609.625 69.3329V222.435C609.625 225.643 609.852 228.853 610.563 231.981C611.148 234.553 611.984 237.669 613.011 239.968C614.84 244.065 619.094 250.677 619.094 250.677C619.094 250.677 614.927 257.514 613.011 261.663C611.966 263.925 611.134 266.941 610.557 269.437C609.843 272.522 609.625 275.69 609.625 278.857L609.625 287.268H972.75V278.857C972.75 275.69 972.532 272.522 971.818 269.437C971.241 266.941 970.409 263.925 969.364 261.663C967.448 257.514 963.281 250.677 963.281 250.677C963.281 250.677 967.535 244.065 969.364 239.968C970.391 237.669 971.227 234.553 971.812 231.981C972.523 228.853 972.75 225.643 972.75 222.435L972.75 69.3329C972.75 66.1245 972.523 62.915 971.811 59.7864C971.227 57.2145 970.391 54.0982 969.364 51.7994C967.535 47.7023 963.281 41.0902 963.281 41.0902C963.281 41.0902 967.448 34.2538 969.364 30.105C970.409 27.8429 971.24 24.8261 971.818 22.3302C972.532 19.2454 972.75 16.0773 972.75 12.911V4.50006L609.625 4.5Z" stroke="#333233"/>
</g>
<defs>
<filter id="filter0_d_1714_19465" x="0" y="0" width="618.125" height="593.768" filterUnits="userSpaceOnUse" color-interpolation-filters="sRGB">
<feFlood flood-opacity="0" result="BackgroundImageFix"/>
<feColorMatrix in="SourceAlpha" type="matrix" values="0 0 0 0 0 0 0 0 0 0 0 0 0 0 0 0 0 0 127 0" result="hardAlpha"/>
<feOffset dx="-2" dy="6"/>
<feGaussianBlur stdDeviation="5"/>
<feComposite in2="hardAlpha" operator="out"/>
<feColorMatrix type="matrix" values="0 0 0 0 0 0 0 0 0 0 0 0 0 0 0 0 0 0 0.1 0"/>
<feBlend mode="normal" in2="BackgroundImageFix" result="effect1_dropShadow_1714_19465"/>
<feBlend mode="normal" in="SourceGraphic" in2="effect1_dropShadow_1714_19465" result="shape"/>
</filter>
<filter id="filter1_d_1714_19465" x="597.125" y="0" width="384.125" height="303.768" filterUnits="userSpaceOnUse" color-interpolation-filters="sRGB">
<feFlood flood-opacity="0" result="BackgroundImageFix"/>
<feColorMatrix in="SourceAlpha" type="matrix" values="0 0 0 0 0 0 0 0 0 0 0 0 0 0 0 0 0 0 127 0" result="hardAlpha"/>
<feOffset dx="-2" dy="6"/>
<feGaussianBlur stdDeviation="5"/>
<feComposite in2="hardAlpha" operator="out"/>
<feColorMatrix type="matrix" values="0 0 0 0 0 0 0 0 0 0 0 0 0 0 0 0 0 0 0.1 0"/>
<feBlend mode="normal" in2="BackgroundImageFix" result="effect1_dropShadow_1714_19465"/>
<feBlend mode="normal" in="SourceGraphic" in2="effect1_dropShadow_1714_19465" result="shape"/>
</filter>
</defs>
</svg>
