<svg shape-rendering="geometricPrecision" preserveAspectRatio="xMidYMid meet" width="100%" height="100%" viewBox="0 0 46.275390625 46.27549743652344" fill="none" xmlns="http://www.w3.org/2000/svg">
<g transform="scale(0.8294760520499671, 0.8294779666226931)">
<g id="Vector">
<path d="M46.1085 27.0185C44.7486 27.8404 42.8928 29.5115 42.8928 29.5115C42.8928 29.5115 40.9512 27.8485 39.5502 27.0185C38.5626 26.4334 37.8674 26.0749 36.8735 25.6951C36.0964 25.3982 34.5506 25.0406 33.7187 25.0406C34.5506 25.0406 36.0966 24.6831 36.8737 24.3861C37.8676 24.0063 38.5629 23.6478 39.5504 23.0627C40.9515 22.2327 42.8931 20.5697 42.8931 20.5697C42.8931 20.5697 44.7488 22.2409 46.1087 23.0627C47.1503 23.6922 48.6742 24.2908 49.7023 24.6612C50.4335 24.9247 51.2061 25.0406 51.9834 25.0406C51.2061 25.0406 50.4333 25.1565 49.702 25.42C48.6739 25.7905 47.1501 26.389 46.1085 27.0185Z" fill="#1B1613"/>
<path d="M30.8235 42.3034C31.6454 40.9435 33.3166 39.0878 33.3166 39.0878C33.3166 39.0878 31.6536 37.1462 30.8235 35.7451C30.2385 34.7575 29.8512 34.0515 29.4714 33.0576C29.0916 32.0637 28.8456 30.7456 28.8456 29.9137C28.8456 30.7456 28.5999 32.0636 28.2201 33.0576C27.8403 34.0515 27.4531 34.7575 26.868 35.745C26.038 37.1461 24.375 39.0877 24.375 39.0877C24.375 39.0877 26.0461 40.9434 26.868 42.3034C27.4975 43.3449 28.096 44.8688 28.4665 45.8969C28.73 46.6282 28.8456 47.4011 28.8456 48.1783C28.8456 47.4011 28.9615 46.6282 29.225 45.897C29.5955 44.8688 30.1941 43.345 30.8235 42.3034Z" fill="#1B1613"/>
<path d="M11.5829 23.0627C12.9428 22.2408 14.7986 20.5697 14.7986 20.5697C14.7986 20.5697 16.7402 22.2327 18.1413 23.0627C19.1288 23.6477 19.824 24.0063 20.8179 24.3861C21.5896 24.6809 23.119 25.0355 23.9549 25.0405C23.119 25.0455 21.5897 25.4002 20.8181 25.695C19.8242 26.0748 19.1289 26.4334 18.1414 27.0184C16.7403 27.8485 14.7987 29.5115 14.7987 29.5115C14.7987 29.5115 12.943 27.8403 11.5831 27.0184C10.5415 26.3889 9.01765 25.7904 7.98951 25.4199C7.25827 25.1564 6.48528 25.0406 5.70801 25.0406C6.48528 25.0406 7.25813 24.9247 7.98938 24.6612C9.01752 24.2907 10.5414 23.6922 11.5829 23.0627Z" fill="#1B1613"/>
<path d="M26.8679 7.77774C26.046 9.13767 24.3748 10.9934 24.3748 10.9934C24.3748 10.9934 26.0378 12.935 26.8679 14.3361C27.4529 15.3236 27.8402 16.0297 28.22 17.0236C28.5856 17.9802 28.8271 19.2373 28.8447 20.072C28.8454 20.1045 28.8458 20.1363 28.8458 20.1675C28.8458 19.3356 29.0919 18.0175 29.4717 17.0236C29.8515 16.0297 30.2387 15.3237 30.8238 14.3361C31.6538 12.9351 33.3168 10.9935 33.3168 10.9935C33.3168 10.9935 31.6457 9.13772 30.8238 7.77779C30.1943 6.73623 29.5958 5.21239 29.2253 4.18425C28.9618 3.45301 28.8458 2.68011 28.8458 1.90283C28.8458 2.6801 28.7299 3.45296 28.4664 4.1842C28.0959 5.21234 27.4973 6.73618 26.8679 7.77774Z" fill="#1B1613"/>
<path d="M51.7781 25.0405C51.0077 25.0405 50.2417 25.1554 49.5169 25.4166C48.4979 25.7838 46.9875 26.377 45.9551 27.001C44.6072 27.8156 42.7678 29.472 42.7678 29.472C42.7678 29.472 40.8434 27.8237 39.4547 27.001C38.4759 26.4211 37.7868 26.0657 36.8017 25.6893C36.0314 25.3949 34.4993 25.0405 33.6748 25.0405H28.8447M28.8447 25.0405L28.8447 29.8706C28.8447 30.6951 29.0885 32.0016 29.465 32.9867C29.8414 33.9719 30.2253 34.6717 30.8052 35.6505C31.6279 37.0392 33.2762 38.9636 33.2762 38.9636C33.2762 38.9636 31.6198 40.803 30.8052 42.1509C30.1812 43.1833 29.588 44.6936 29.2208 45.7127C28.9596 46.4375 28.8447 47.2035 28.8447 47.9739M28.8447 25.0405V20.072M28.8447 25.0405H23.9549M23.9727 25.0406C23.9668 25.0406 23.9609 25.0405 23.9549 25.0405M28.8447 20.072C28.8271 19.2373 28.5856 17.9802 28.22 17.0236C27.8402 16.0297 27.4529 15.3236 26.8679 14.3361C26.0378 12.935 24.3748 10.9934 24.3748 10.9934C24.3748 10.9934 26.046 9.13767 26.8679 7.77774C27.4973 6.73618 28.0959 5.21234 28.4664 4.1842C28.7299 3.45296 28.8458 2.6801 28.8458 1.90283C28.8458 2.68011 28.9618 3.45301 29.2253 4.18425C29.5958 5.21239 30.1943 6.73623 30.8238 7.77779C31.6457 9.13772 33.3168 10.9935 33.3168 10.9935C33.3168 10.9935 31.6538 12.9351 30.8238 14.3361C30.2387 15.3237 29.8515 16.0297 29.4717 17.0236C29.0919 18.0175 28.8458 19.3356 28.8458 20.1675C28.8458 20.1363 28.8454 20.1045 28.8447 20.072ZM23.9549 25.0405C23.119 25.0455 21.5897 25.4002 20.8181 25.695C19.8242 26.0748 19.1289 26.4334 18.1414 27.0184C16.7403 27.8485 14.7987 29.5115 14.7987 29.5115C14.7987 29.5115 12.943 27.8403 11.5831 27.0184C10.5415 26.3889 9.01765 25.7904 7.98951 25.4199C7.25827 25.1564 6.48528 25.0406 5.70801 25.0406C6.48528 25.0406 7.25813 24.9247 7.98938 24.6612C9.01752 24.2907 10.5414 23.6922 11.5829 23.0627C12.9428 22.2408 14.7986 20.5697 14.7986 20.5697C14.7986 20.5697 16.7402 22.2327 18.1413 23.0627C19.1288 23.6477 19.824 24.0063 20.8179 24.3861C21.5896 24.6809 23.119 25.0355 23.9549 25.0405ZM46.1085 27.0185C44.7486 27.8404 42.8928 29.5115 42.8928 29.5115C42.8928 29.5115 40.9512 27.8485 39.5502 27.0185C38.5626 26.4334 37.8674 26.0749 36.8735 25.6951C36.0964 25.3982 34.5506 25.0406 33.7187 25.0406C34.5506 25.0406 36.0966 24.6831 36.8737 24.3861C37.8676 24.0063 38.5629 23.6478 39.5504 23.0627C40.9515 22.2327 42.8931 20.5697 42.8931 20.5697C42.8931 20.5697 44.7488 22.2409 46.1087 23.0627C47.1503 23.6922 48.6742 24.2908 49.7023 24.6612C50.4335 24.9247 51.2061 25.0406 51.9834 25.0406C51.2061 25.0406 50.4333 25.1565 49.702 25.42C48.6739 25.7905 47.1501 26.389 46.1085 27.0185ZM30.8235 42.3034C31.6454 40.9435 33.3166 39.0878 33.3166 39.0878C33.3166 39.0878 31.6536 37.1462 30.8235 35.7451C30.2385 34.7575 29.8512 34.0515 29.4714 33.0576C29.0916 32.0637 28.8456 30.7456 28.8456 29.9137C28.8456 30.7456 28.5999 32.0636 28.2201 33.0576C27.8403 34.0515 27.4531 34.7575 26.868 35.745C26.038 37.1461 24.375 39.0877 24.375 39.0877C24.375 39.0877 26.0461 40.9434 26.868 42.3034C27.4975 43.3449 28.096 44.8688 28.4665 45.8969C28.73 46.6282 28.8456 47.4011 28.8456 48.1783C28.8456 47.4011 28.9615 46.6282 29.225 45.897C29.5955 44.8688 30.1941 43.345 30.8235 42.3034Z" stroke="#F4F4F4"/>
</g>
</g>
</svg>