<svg shape-rendering="geometricPrecision" preserveAspectRatio="none" width="100%" height="100%" overflow="visible" style="display: block;" viewBox="0 0 317.488 310.644" fill="none" xmlns="http://www.w3.org/2000/svg">
<g id="Vector">
<path d="M308.352 302.533H313.182V297.703C313.182 296.878 312.938 295.572 312.562 294.587C312.185 293.602 311.801 292.902 311.221 291.923C310.399 290.534 308.75 288.61 308.75 288.61C308.75 288.61 310.407 286.77 311.221 285.423C311.845 284.39 312.439 282.88 312.806 281.861C313.067 281.136 313.182 280.37 313.182 279.6L313.182 47.9738C313.182 47.2034 313.067 46.4373 312.806 45.7125C312.439 44.6935 311.846 43.1831 311.222 42.1507C310.407 40.8028 308.751 38.9635 308.751 38.9635C308.751 38.9635 310.399 37.039 311.222 35.6503C311.802 34.6715 312.186 33.9717 312.562 32.9866C312.938 32.0014 313.182 30.695 313.182 29.8704L313.182 25.0404H308.352C307.528 25.0404 305.996 25.3948 305.225 25.6891C304.24 26.0655 303.551 26.4209 302.572 27.0008C301.184 27.8235 299.259 29.4718 299.259 29.4718C299.259 29.4718 297.42 27.8154 296.072 27.0008C295.039 26.3769 293.529 25.7836 292.51 25.4164C291.785 25.1552 291.019 25.0404 290.249 25.0404H51.7781C51.0077 25.0404 50.2417 25.1552 49.5169 25.4164C48.4978 25.7836 46.9875 26.3769 45.9551 27.0008C44.6072 27.8154 42.7678 29.4718 42.7678 29.4718C42.7678 29.4718 40.8434 27.8235 39.4547 27.0008C38.4759 26.4209 37.7868 26.0655 36.8016 25.6891C36.0314 25.3948 34.4993 25.0404 33.6747 25.0404H28.8447L28.8447 29.8704C28.8447 30.695 29.0885 32.0014 29.4649 32.9866C29.8414 33.9717 30.2252 34.6715 30.8051 35.6503C31.6278 37.039 33.2761 38.9635 33.2761 38.9635C33.2761 38.9635 31.6198 40.8028 30.8051 42.1507C30.1812 43.1831 29.588 44.6935 29.2208 45.7125C28.9596 46.4373 28.8447 47.2034 28.8447 47.9738V279.599C28.8447 280.37 28.9596 281.136 29.2208 281.861C29.588 282.88 30.1812 284.39 30.8051 285.422C31.6198 286.77 33.2761 288.61 33.2761 288.61C33.2761 288.61 31.6278 290.534 30.8051 291.923C30.2252 292.902 29.8414 293.601 29.4649 294.587C29.0885 295.572 28.8447 296.878 28.8447 297.703L28.8447 302.533H33.6747C34.4993 302.533 36.0314 302.178 36.8016 301.884C37.7868 301.508 38.4759 301.152 39.4547 300.572C40.8434 299.75 42.7678 298.101 42.7678 298.101C42.7678 298.101 44.6072 299.758 45.9551 300.572C46.9875 301.196 48.4978 301.79 49.5169 302.157C50.2417 302.418 51.0077 302.533 51.7781 302.533L290.248 302.533C291.019 302.533 291.785 302.418 292.51 302.157C293.529 301.79 295.039 301.196 296.072 300.572C297.419 299.758 299.259 298.101 299.259 298.101C299.259 298.101 301.183 299.75 302.572 300.572C303.551 301.152 304.24 301.508 305.225 301.884C305.995 302.179 307.527 302.533 308.352 302.533Z" fill="none"/>
<path d="M46.1085 27.0183C44.7485 27.8402 42.8928 29.5113 42.8928 29.5113C42.8928 29.5113 40.9512 27.8483 39.5501 27.0183C38.5626 26.4333 37.8674 26.0747 36.8734 25.6949C36.0963 25.398 34.5506 25.0404 33.7187 25.0404C34.5506 25.0404 36.0966 24.6829 36.8737 24.3859C37.8676 24.0062 38.5629 23.6476 39.5504 23.0626C40.9515 22.2325 42.8931 20.5695 42.8931 20.5695C42.8931 20.5695 44.7488 22.2407 46.1087 23.0626C47.1503 23.692 48.6741 24.2906 49.7023 24.6611C50.4335 24.9246 51.2061 25.0404 51.9834 25.0404C51.2061 25.0404 50.4332 25.1563 49.702 25.4198C48.6739 25.7903 47.15 26.3888 46.1085 27.0183Z" fill="#090809"/>
<path d="M30.8235 42.3032C31.6454 40.9433 33.3165 39.0876 33.3165 39.0876C33.3165 39.0876 31.6535 37.146 30.8235 35.7449C30.2385 34.7574 29.8512 34.0513 29.4714 33.0574C29.0916 32.0635 28.8456 30.7454 28.8456 29.9135C28.8456 30.7454 28.5999 32.0635 28.2201 33.0574C27.8403 34.0513 27.453 34.7573 26.868 35.7449C26.0379 37.1459 24.3749 39.0875 24.3749 39.0875C24.3749 39.0875 26.0461 40.9433 26.868 42.3032C27.4975 43.3448 28.096 44.8686 28.4665 45.8967C28.73 46.628 28.8456 47.4009 28.8456 48.1782C28.8456 47.4009 28.9615 46.628 29.225 45.8968C29.5955 44.8687 30.194 43.3448 30.8235 42.3032Z" fill="#090809"/>
<path d="M11.5829 23.0625C12.9428 22.2406 14.7986 20.5695 14.7986 20.5695C14.7986 20.5695 16.7402 22.2325 18.1412 23.0625C19.1288 23.6476 19.824 24.0061 20.8179 24.3859C21.5895 24.6807 23.1189 25.0354 23.9549 25.0404C23.1189 25.0454 21.5897 25.4 20.818 25.6949C19.8241 26.0747 19.1289 26.4332 18.1414 27.0183C16.7403 27.8483 14.7987 29.5113 14.7987 29.5113C14.7987 29.5113 12.943 27.8401 11.583 27.0183C10.5415 26.3888 9.01763 25.7902 7.98949 25.4198C7.25825 25.1563 6.48526 25.0404 5.70799 25.0404C6.48526 25.0404 7.25811 24.9245 7.98936 24.661C9.01749 24.2905 10.5413 23.692 11.5829 23.0625Z" fill="#090809"/>
<path d="M26.8678 7.77757C26.046 9.1375 24.3748 10.9932 24.3748 10.9932C24.3748 10.9932 26.0378 12.9348 26.8678 14.3359C27.4529 15.3235 27.8402 16.0295 28.22 17.0234C28.5855 17.9801 28.8271 19.2371 28.8447 20.0718C28.8454 20.1043 28.8457 20.1362 28.8457 20.1673C28.8457 19.3354 29.0919 18.0174 29.4716 17.0234C29.8514 16.0295 30.2387 15.3235 30.8238 14.336C31.6538 12.9349 33.3168 10.9933 33.3168 10.9933C33.3168 10.9933 31.6457 9.13755 30.8238 7.77762C30.1943 6.73606 29.5958 5.21222 29.2253 4.18408C28.9618 3.45284 28.8457 2.67994 28.8457 1.90266C28.8457 2.67993 28.7298 3.45279 28.4663 4.18403C28.0959 5.21217 27.4973 6.73601 26.8678 7.77757Z" fill="#090809"/>
<path d="M28.8447 25.0404H33.6747C34.4993 25.0404 36.0314 25.3948 36.8016 25.6891C37.7868 26.0655 38.4759 26.4209 39.4547 27.0008C40.8434 27.8235 42.7678 29.4718 42.7678 29.4718C42.7678 29.4718 44.6072 27.8154 45.9551 27.0008C46.9875 26.3769 48.4978 25.7836 49.5169 25.4164C50.2417 25.1552 51.0077 25.0404 51.7781 25.0404H290.249C291.019 25.0404 291.785 25.1552 292.51 25.4164C293.529 25.7836 295.039 26.3769 296.072 27.0008C297.42 27.8154 299.259 29.4718 299.259 29.4718C299.259 29.4718 301.184 27.8235 302.572 27.0008C303.551 26.4209 304.24 26.0655 305.225 25.6891C305.996 25.3948 307.528 25.0404 308.352 25.0404H313.182L313.182 29.8704C313.182 30.695 312.938 32.0014 312.562 32.9866C312.186 33.9717 311.802 34.6715 311.222 35.6503C310.399 37.039 308.751 38.9635 308.751 38.9635C308.751 38.9635 310.407 40.8028 311.222 42.1507C311.846 43.1831 312.439 44.6935 312.806 45.7125C313.067 46.4373 313.182 47.2034 313.182 47.9738L313.182 279.6C313.182 280.37 313.067 281.136 312.806 281.861C312.439 282.88 311.845 284.39 311.221 285.423C310.407 286.77 308.75 288.61 308.75 288.61C308.75 288.61 310.399 290.534 311.221 291.923C311.801 292.902 312.185 293.602 312.562 294.587C312.938 295.572 313.182 296.878 313.182 297.703V302.533H308.352C307.527 302.533 305.995 302.179 305.225 301.884C304.24 301.508 303.551 301.152 302.572 300.572C301.183 299.75 299.259 298.101 299.259 298.101C299.259 298.101 297.419 299.758 296.072 300.572C295.039 301.196 293.529 301.79 292.51 302.157C291.785 302.418 291.019 302.533 290.248 302.533L51.7781 302.533C51.0077 302.533 50.2417 302.418 49.5169 302.157C48.4978 301.79 46.9875 301.196 45.9551 300.572C44.6072 299.758 42.7678 298.101 42.7678 298.101C42.7678 298.101 40.8434 299.75 39.4547 300.572C38.4759 301.152 37.7868 301.508 36.8016 301.884C36.0314 302.178 34.4993 302.533 33.6747 302.533H28.8447L28.8447 297.703C28.8447 296.878 29.0885 295.572 29.4649 294.587C29.8414 293.601 30.2252 292.902 30.8051 291.923C31.6278 290.534 33.2761 288.61 33.2761 288.61C33.2761 288.61 31.6198 286.77 30.8051 285.422C30.1812 284.39 29.588 282.88 29.2208 281.861C28.9596 281.136 28.8447 280.37 28.8447 279.599V47.9738C28.8447 47.2034 28.9596 46.4373 29.2208 45.7125C29.588 44.6935 30.1812 43.1831 30.8051 42.1507C31.6198 40.8028 33.2761 38.9635 33.2761 38.9635C33.2761 38.9635 31.6278 37.039 30.8051 35.6503C30.2252 34.6715 29.8414 33.9717 29.4649 32.9866C29.0885 32.0014 28.8447 30.695 28.8447 29.8704L28.8447 25.0404ZM28.8447 25.0404V20.0718M28.8447 25.0404H23.9549M23.9727 25.0404C23.9668 25.0404 23.9609 25.0403 23.9549 25.0404M28.8447 20.0718C28.8271 19.2371 28.5855 17.9801 28.22 17.0234C27.8402 16.0295 27.4529 15.3235 26.8678 14.3359C26.0378 12.9348 24.3748 10.9932 24.3748 10.9932C24.3748 10.9932 26.046 9.1375 26.8678 7.77757C27.4973 6.73601 28.0959 5.21217 28.4663 4.18403C28.7298 3.45279 28.8457 2.67993 28.8457 1.90266C28.8457 2.67994 28.9618 3.45284 29.2253 4.18408C29.5958 5.21222 30.1943 6.73606 30.8238 7.77762C31.6457 9.13755 33.3168 10.9933 33.3168 10.9933C33.3168 10.9933 31.6538 12.9349 30.8238 14.336C30.2387 15.3235 29.8514 16.0295 29.4716 17.0234C29.0919 18.0174 28.8457 19.3354 28.8457 20.1673C28.8457 20.1362 28.8454 20.1043 28.8447 20.0718ZM23.9549 25.0404C23.1189 25.0454 21.5897 25.4 20.818 25.6949C19.8241 26.0747 19.1289 26.4332 18.1414 27.0183C16.7403 27.8483 14.7987 29.5113 14.7987 29.5113C14.7987 29.5113 12.943 27.8401 11.583 27.0183C10.5415 26.3888 9.01763 25.7902 7.98949 25.4198C7.25825 25.1563 6.48526 25.0404 5.70799 25.0404C6.48526 25.0404 7.25811 24.9245 7.98936 24.661C9.01749 24.2905 10.5413 23.692 11.5829 23.0625C12.9428 22.2406 14.7986 20.5695 14.7986 20.5695C14.7986 20.5695 16.7402 22.2325 18.1412 23.0625C19.1288 23.6476 19.824 24.0061 20.8179 24.3859C21.5895 24.6807 23.1189 25.0354 23.9549 25.0404ZM46.1085 27.0183C44.7485 27.8402 42.8928 29.5113 42.8928 29.5113C42.8928 29.5113 40.9512 27.8483 39.5501 27.0183C38.5626 26.4333 37.8674 26.0747 36.8734 25.6949C36.0963 25.398 34.5506 25.0404 33.7187 25.0404C34.5506 25.0404 36.0966 24.6829 36.8737 24.3859C37.8676 24.0062 38.5629 23.6476 39.5504 23.0626C40.9515 22.2325 42.8931 20.5695 42.8931 20.5695C42.8931 20.5695 44.7488 22.2407 46.1087 23.0626C47.1503 23.692 48.6741 24.2906 49.7023 24.6611C50.4335 24.9246 51.2061 25.0404 51.9834 25.0404C51.2061 25.0404 50.4332 25.1563 49.702 25.4198C48.6739 25.7903 47.15 26.3888 46.1085 27.0183ZM30.8235 42.3032C31.6454 40.9433 33.3165 39.0876 33.3165 39.0876C33.3165 39.0876 31.6535 37.146 30.8235 35.7449C30.2385 34.7574 29.8512 34.0513 29.4714 33.0574C29.0916 32.0635 28.8456 30.7454 28.8456 29.9135C28.8456 30.7454 28.5999 32.0635 28.2201 33.0574C27.8403 34.0513 27.453 34.7573 26.868 35.7449C26.0379 37.1459 24.3749 39.0875 24.3749 39.0875C24.3749 39.0875 26.0461 40.9433 26.868 42.3032C27.4975 43.3448 28.096 44.8686 28.4665 45.8967C28.73 46.628 28.8456 47.4009 28.8456 48.1782C28.8456 47.4009 28.9615 46.628 29.225 45.8968C29.5955 44.8687 30.194 43.3448 30.8235 42.3032Z" stroke="#F4F4E8" vector-effect="non-scaling-stroke"/>
</g>
</svg>
