<svg xmlns="http://www.w3.org/2000/svg" viewBox="12 4 149.617 39.133" fill="none" shape-rendering="geometricPrecision">
  <path
    d="M12 4L77.2372 4C79.5264 4 81.8425 4.1402 84.0068 4.88574C85.1167 5.26805 86.8086 6.47726 86.8086 6.47726C86.8086 6.47726 88.5501 5.26917 89.6826 4.88574C91.8059 4.16683 94.0681 4 96.3097 4L161.617 4V9.78329C161.617 13.1097 161.493 16.565 159.913 19.4924C159.883 19.5488 159.852 19.604 159.822 19.658C158.848 21.3619 156.663 23.5666 156.663 23.5666C156.663 23.5666 158.854 25.6788 159.822 27.3389C159.936 27.5347 160.046 27.7475 160.153 27.9711C161.472 30.7395 161.617 33.8893 161.617 36.9558V43.1331H96.6114C94.1666 43.1331 91.6735 43.0684 89.3793 42.2232C88.3692 41.851 86.8086 40.6558 86.8086 40.6558C86.8086 40.6558 85.3216 41.8499 84.2807 42.2232C81.9539 43.0576 79.4366 43.1331 76.9647 43.1331H12V37.8718C12 34.2093 12.325 30.4218 14.1918 27.2708C15.1116 25.7182 16.9545 23.5666 16.9545 23.5666C16.9545 23.5666 15.1026 21.5101 14.1918 20.0031C12.2505 16.7909 12 12.8825 12 9.12924V4Z"
    fill="#F8F8F7"
    stroke="#7E7E7E"
    stroke-width="1"
    vector-effect="non-scaling-stroke"
  />
</svg>
