<svg shape-rendering="geometricPrecision" preserveAspectRatio="xMidYMid meet" width="100%" height="100%" overflow="visible" style="display: block;" viewBox="0 0 191.617 51.1331" fill="none" xmlns="http://www.w3.org/2000/svg">
<g id="Rectangle 1002">
<path d="M12 4H88.2372C90.5264 4 92.8425 4.1402 95.0068 4.88574C96.1167 5.26805 97.8086 6.47726 97.8086 6.47726C97.8086 6.47726 99.5501 5.26917 100.683 4.88574C102.806 4.16683 105.068 4 107.31 4H183.617V5.7833C183.617 9.10969 183.493 12.565 181.913 15.4924C181.883 15.5488 181.852 15.604 181.822 15.658C180.848 17.3619 178.663 19.5666 178.663 19.5666C178.663 19.5666 180.854 21.6788 181.822 23.3389C181.936 23.5347 182.046 23.7475 182.153 23.9711C183.472 26.7395 183.617 29.8893 183.617 32.9558V35.1331H107.611C105.167 35.1331 102.673 35.0684 100.379 34.2232C99.3692 33.851 97.8086 32.6558 97.8086 32.6558C97.8086 32.6558 96.3216 33.8499 95.2807 34.2232C92.9539 35.0576 90.4366 35.1331 87.9647 35.1331H12V33.8718C12 30.2093 12.325 26.4218 14.1918 23.2708C15.1116 21.7182 16.9545 19.5666 16.9545 19.5666C16.9545 19.5666 15.1026 17.5101 14.1918 16.0031C12.2505 12.7909 12 8.88245 12 5.12925V4Z" fill="var(--fill-0, #F4F4F4)"/>
<path d="M88.2373 4.5C90.5128 4.5 92.7606 4.64087 94.8438 5.3584C95.3407 5.52959 96.0002 5.90037 96.5596 6.24902C96.8337 6.41985 97.0741 6.57961 97.2461 6.69629C97.332 6.75456 97.4005 6.8023 97.4473 6.83496C97.4706 6.85127 97.4891 6.86365 97.501 6.87207C97.5065 6.87598 97.5108 6.87884 97.5137 6.88086L97.5176 6.88379L97.8047 7.08887L98.0938 6.8877H98.0947C98.0954 6.88724 98.0964 6.88662 98.0977 6.88574C98.1006 6.88369 98.1052 6.88018 98.1113 6.87598C98.1236 6.86758 98.1421 6.8551 98.166 6.83887C98.2142 6.80623 98.2848 6.75837 98.373 6.7002C98.5501 6.58349 98.7983 6.42387 99.0801 6.25293C99.6547 5.90437 100.333 5.53206 100.843 5.35938C102.889 4.66644 105.088 4.50001 107.31 4.5H183.117V5.7832C183.117 9.11806 182.986 12.4523 181.474 15.2549C181.445 15.3079 181.416 15.3599 181.388 15.4102C180.927 16.2164 180.165 17.1622 179.501 17.9219C179.172 18.2982 178.872 18.6227 178.655 18.8525C178.547 18.9672 178.46 19.058 178.399 19.1201C178.369 19.1512 178.346 19.1755 178.33 19.1914C178.322 19.1992 178.316 19.2051 178.312 19.209C178.311 19.2109 178.309 19.213 178.309 19.2139L178.308 19.2148L177.95 19.5742L178.315 19.9268L178.316 19.9277C178.317 19.9286 178.319 19.9298 178.321 19.9316C178.325 19.9354 178.331 19.9407 178.339 19.9482L178.664 20.2734C178.881 20.4938 179.181 20.8053 179.51 21.167C180.174 21.8979 180.934 22.8088 181.39 23.5908C181.495 23.7724 181.599 23.9728 181.701 24.1865C182.967 26.8431 183.117 29.8899 183.117 32.9561V34.6328H107.611C105.163 34.6328 102.752 34.5647 100.552 33.7539C100.108 33.5901 99.5079 33.229 98.9932 32.8848C98.7418 32.7167 98.5205 32.5594 98.3623 32.4443C98.2833 32.3869 98.2198 32.3398 98.1768 32.3076C98.1554 32.2916 98.1388 32.2788 98.1279 32.2705C98.1228 32.2666 98.1188 32.2637 98.1162 32.2617C98.1151 32.2608 98.1139 32.2602 98.1133 32.2598L98.1123 32.2588L97.8018 32.0205L97.4951 32.2656V32.2666C97.4946 32.267 97.4934 32.2676 97.4922 32.2686C97.4898 32.2705 97.4863 32.2735 97.4814 32.2773C97.4711 32.2855 97.455 32.2985 97.4346 32.3145C97.3938 32.3463 97.3339 32.3924 97.2588 32.4492C97.1076 32.5636 96.8946 32.7204 96.6514 32.8877C96.1531 33.2304 95.567 33.5898 95.1123 33.7529C92.8761 34.5549 90.4382 34.6328 87.9648 34.6328H12.5V33.8721C12.5 30.223 12.8284 26.553 14.6221 23.5254C15.0644 22.7789 15.7384 21.8743 16.3115 21.1455C16.5961 20.7837 16.852 20.4696 17.0371 20.2461C17.1296 20.1344 17.2045 20.0452 17.2559 19.9844C17.2814 19.9541 17.3012 19.9307 17.3145 19.915C17.321 19.9074 17.3258 19.9014 17.3291 19.8975C17.3308 19.8955 17.3322 19.8935 17.333 19.8926L17.334 19.8916L17.6201 19.5586L17.3262 19.2314L17.3213 19.2266C17.318 19.2229 17.3132 19.2173 17.3066 19.21C17.2933 19.195 17.2728 19.1726 17.2471 19.1436C17.1956 19.0855 17.1209 19.0002 17.0283 18.8936C16.8428 18.6798 16.5855 18.379 16.3008 18.0322C15.7268 17.3332 15.0559 16.4651 14.6201 15.7441C12.7571 12.6615 12.5 8.88005 12.5 5.12891V4.5H88.2373Z" stroke="var(--stroke-0, #7E7E7E)"/>
</g>
</svg>
