<svg preserveAspectRatio="none" width="100%" height="100%" overflow="visible" style="display: block;" viewBox="0 0 169.617 59.1331" fill="none" xmlns="http://www.w3.org/2000/svg">
<g id="Rectangle 1002" filter="url(#filter0_d_0_6)">
<path d="M12 4L77.2372 4C79.5264 4 81.8425 4.1402 84.0068 4.88574C85.1167 5.26805 86.8086 6.47726 86.8086 6.47726C86.8086 6.47726 88.5501 5.26917 89.6826 4.88574C91.8059 4.16683 94.0681 4 96.3097 4L161.617 4V9.78329C161.617 13.1097 161.493 16.565 159.913 19.4924C159.883 19.5488 159.852 19.604 159.822 19.658C158.848 21.3619 156.663 23.5666 156.663 23.5666C156.663 23.5666 158.854 25.6788 159.822 27.3389C159.936 27.5347 160.046 27.7475 160.153 27.9711C161.472 30.7395 161.617 33.8893 161.617 36.9558V43.1331H96.6114C94.1666 43.1331 91.6735 43.0684 89.3793 42.2232C88.3692 41.851 86.8086 40.6558 86.8086 40.6558C86.8086 40.6558 85.3216 41.8499 84.2807 42.2232C81.9539 43.0576 79.4366 43.1331 76.9647 43.1331H12V37.8718C12 34.2093 12.325 30.4218 14.1918 27.2708C15.1116 25.7182 16.9545 23.5666 16.9545 23.5666C16.9545 23.5666 15.1026 21.5101 14.1918 20.0031C12.2505 16.7909 12 12.8825 12 9.12924V4Z" fill="var(--fill-0, #F4F4F4)"/>
<path d="M77.2373 4.5C79.5128 4.5 81.7606 4.64087 83.8438 5.3584C84.3407 5.52959 85.0002 5.90037 85.5596 6.24902C85.8337 6.41985 86.0741 6.57961 86.2461 6.69629C86.332 6.75456 86.4005 6.8023 86.4473 6.83496C86.4706 6.85127 86.4891 6.86365 86.501 6.87207C86.5065 6.87598 86.5108 6.87884 86.5137 6.88086L86.5176 6.88379L86.8047 7.08887L87.0938 6.8877H87.0947C87.0954 6.88724 87.0964 6.88662 87.0977 6.88574C87.1006 6.88369 87.1052 6.88018 87.1113 6.87598C87.1236 6.86758 87.1421 6.8551 87.166 6.83887C87.2142 6.80623 87.2848 6.75837 87.373 6.7002C87.5501 6.58349 87.7983 6.42387 88.0801 6.25293C88.6547 5.90437 89.3328 5.53206 89.8428 5.35938C91.8893 4.66644 94.0876 4.50001 96.3096 4.5H161.117V9.7832C161.117 13.1181 160.986 16.4523 159.474 19.2549C159.445 19.3079 159.416 19.3599 159.388 19.4102C158.927 20.2164 158.165 21.1622 157.501 21.9219C157.172 22.2982 156.872 22.6227 156.655 22.8525C156.547 22.9672 156.46 23.058 156.399 23.1201C156.369 23.1512 156.346 23.1755 156.33 23.1914C156.322 23.1992 156.316 23.2051 156.312 23.209C156.311 23.2109 156.309 23.213 156.309 23.2139L156.308 23.2148L155.95 23.5742L156.315 23.9268L156.316 23.9277C156.317 23.9286 156.319 23.9298 156.321 23.9316C156.325 23.9354 156.331 23.9407 156.339 23.9482L156.664 24.2734C156.881 24.4938 157.181 24.8053 157.51 25.167C158.174 25.8979 158.934 26.8088 159.39 27.5908C159.495 27.7724 159.599 27.9728 159.701 28.1865C160.967 30.8431 161.117 33.8899 161.117 36.9561V42.6328H96.6113C94.1625 42.6328 91.7523 42.5647 89.5518 41.7539C89.1075 41.5901 88.5079 41.229 87.9932 40.8848C87.7418 40.7167 87.5205 40.5594 87.3623 40.4443C87.2833 40.3869 87.2198 40.3398 87.1768 40.3076C87.1554 40.2916 87.1388 40.2788 87.1279 40.2705C87.1228 40.2666 87.1188 40.2637 87.1162 40.2617C87.1151 40.2608 87.1139 40.2602 87.1133 40.2598L87.1123 40.2588L86.8018 40.0205L86.4951 40.2656V40.2666C86.4946 40.267 86.4934 40.2676 86.4922 40.2686C86.4898 40.2705 86.4863 40.2735 86.4814 40.2773C86.4711 40.2855 86.455 40.2985 86.4346 40.3145C86.3938 40.3463 86.3339 40.3924 86.2588 40.4492C86.1076 40.5636 85.8946 40.7204 85.6514 40.8877C85.1531 41.2304 84.567 41.5898 84.1123 41.7529C81.8761 42.5549 79.4382 42.6328 76.9648 42.6328H12.5V37.8721C12.5 34.223 12.8284 30.553 14.6221 27.5254C15.0644 26.7789 15.7384 25.8743 16.3115 25.1455C16.5961 24.7837 16.852 24.4696 17.0371 24.2461C17.1296 24.1344 17.2045 24.0452 17.2559 23.9844C17.2814 23.9541 17.3012 23.9307 17.3145 23.915C17.321 23.9074 17.3258 23.9014 17.3291 23.8975C17.3308 23.8955 17.3322 23.8935 17.333 23.8926L17.334 23.8916L17.6201 23.5586L17.3262 23.2314L17.3213 23.2266C17.318 23.2229 17.3132 23.2173 17.3066 23.21C17.2933 23.195 17.2728 23.1726 17.2471 23.1436C17.1956 23.0855 17.1209 23.0002 17.0283 22.8936C16.8428 22.6798 16.5855 22.379 16.3008 22.0322C15.7268 21.3332 15.0559 20.4651 14.6201 19.7441C12.7571 16.6615 12.5 12.8801 12.5 9.12891V4.5H77.2373Z" stroke="var(--stroke-0, #7E7E7E)"/>
</g>
<defs>
<filter id="filter0_d_0_6" x="0" y="0" width="169.617" height="59.1331" filterUnits="userSpaceOnUse" color-interpolation-filters="sRGB">
<feFlood flood-opacity="0" result="BackgroundImageFix"/>
<feColorMatrix in="SourceAlpha" type="matrix" values="0 0 0 0 0 0 0 0 0 0 0 0 0 0 0 0 0 0 127 0" result="hardAlpha"/>
<feOffset dx="-2" dy="6"/>
<feGaussianBlur stdDeviation="5"/>
<feComposite in2="hardAlpha" operator="out"/>
<feColorMatrix type="matrix" values="0 0 0 0 0 0 0 0 0 0 0 0 0 0 0 0 0 0 0.1 0"/>
<feBlend mode="normal" in2="BackgroundImageFix" result="effect1_dropShadow_0_6"/>
<feBlend mode="normal" in="SourceGraphic" in2="effect1_dropShadow_0_6" result="shape"/>
</filter>
</defs>
</svg>
