<svg width="503" height="95" viewBox="0 0 503 95" fill="none" xmlns="http://www.w3.org/2000/svg">
<g filter="url(#filter0_d_1530_4404)">
<path d="M7.09961 7.1001H36.3027V43.1001H25.0996C15.1585 43.1001 7.09961 35.0412 7.09961 25.1001V7.1001Z" fill="#FDFBFB"/>
<path d="M6.59961 6.6001H36.3027V7.6001H7.59961L6.59961 6.6001ZM7.59961 7.6001M36.3027 43.1001H7.09961H36.3027M25.0996 43.1001C14.8823 43.1001 6.59961 34.8174 6.59961 24.6001V6.6001L7.59961 7.6001V25.1001C7.59961 35.0412 15.4346 43.1001 25.0996 43.1001ZM25.0996 43.1001M36.3027 7.1001V43.1001V7.1001" fill="#0B0B0B"/>
<path d="M7.09961 61.1001C7.09961 51.159 15.1585 43.1001 25.0996 43.1001H36.3027V79.1001H7.09961V61.1001Z" fill="#FDFBFB"/>
<path d="M7.09961 43.1001H36.3027H7.09961M36.3027 79.6001H6.59961L7.59961 78.6001H36.3027V79.6001ZM6.59961 79.6001V61.6001C6.59961 51.3828 14.8823 43.1001 25.0996 43.1001C15.4346 43.1001 7.59961 51.159 7.59961 61.1001V78.6001L6.59961 79.6001ZM7.59961 78.6001M36.3027 43.1001V79.1001V43.1001" fill="#0B0B0B"/>
<path d="M36.3027 7.1001H458.303V79.1001H36.3027V7.1001Z" fill="#FDFBFB"/>
<path d="M36.3027 7.1001V7.6001H458.303V7.1001V6.6001H36.3027V7.1001ZM458.303 79.1001V78.6001H36.3027V79.1001V79.6001H458.303V79.1001Z" fill="black"/>
<path d="M122.196 52.1313C121.498 52.1313 120.909 51.8709 120.43 51.3501C119.951 50.8293 119.685 50.1105 119.633 49.1938C119.602 48.6834 119.566 48.048 119.524 47.2876C119.493 46.5168 119.467 45.673 119.446 44.7563L119.29 40.0063C119.279 39.6938 119.165 39.5011 118.946 39.4282C118.727 39.3449 118.529 39.2668 118.352 39.1938C118.154 39.1105 118.055 38.9959 118.055 38.8501C118.055 38.7355 118.102 38.6105 118.196 38.4751C118.415 38.173 118.691 37.8136 119.024 37.397C119.357 36.9803 119.675 36.5897 119.977 36.2251C120.279 35.8501 120.493 35.5949 120.618 35.4595C120.764 35.2928 120.909 35.2095 121.055 35.2095C121.284 35.2095 121.425 35.3345 121.477 35.5845C121.55 35.9907 121.649 36.272 121.774 36.4282C121.899 36.5741 122.102 36.647 122.383 36.647H130.555C131.336 36.647 131.982 36.7251 132.493 36.8813C133.003 37.0272 133.482 37.3605 133.93 37.8813C134.243 38.2563 134.446 38.6053 134.54 38.9282C134.644 39.2407 134.722 39.6053 134.774 40.022C134.826 40.4178 134.868 40.9647 134.899 41.6626C134.93 42.3501 134.951 43.0532 134.961 43.772C134.982 44.4907 134.993 45.0949 134.993 45.5845C134.993 46.6157 134.967 47.3553 134.915 47.8032C134.863 48.2511 134.81 48.5636 134.758 48.7407C134.633 49.0845 134.461 49.4751 134.243 49.9126C134.034 50.3397 133.821 50.7355 133.602 51.1001C133.394 51.4647 133.227 51.7251 133.102 51.8813C132.946 52.048 132.696 52.1313 132.352 52.1313H122.196ZM123.165 49.4595H132.43C132.67 49.4595 132.821 49.423 132.883 49.3501C132.956 49.2668 132.993 49.1001 132.993 48.8501C132.993 48.1209 132.988 47.2772 132.977 46.3188C132.967 45.3501 132.93 44.397 132.868 43.4595C132.816 42.522 132.717 41.7355 132.571 41.1001C132.477 40.673 132.243 40.2772 131.868 39.9126C131.732 39.7772 131.488 39.6366 131.133 39.4907C130.779 39.3449 130.321 39.272 129.758 39.272H122.602C122.196 39.272 121.915 39.3032 121.758 39.3657C121.613 39.4178 121.529 39.5584 121.508 39.7876C121.498 39.9334 121.488 40.1366 121.477 40.397C121.477 40.647 121.477 40.9334 121.477 41.2563C121.477 41.8293 121.482 42.4699 121.493 43.1782C121.503 43.8761 121.514 44.5636 121.524 45.2407C121.545 45.9074 121.566 46.4959 121.586 47.0063C121.607 47.5168 121.628 47.8709 121.649 48.0688C121.701 48.6313 121.873 49.0063 122.165 49.1938C122.456 49.3709 122.79 49.4595 123.165 49.4595ZM139.587 52.522C139.389 52.522 139.29 52.4386 139.29 52.272C139.29 52.1782 139.368 51.9803 139.525 51.6782C139.691 51.3761 139.863 51.0741 140.04 50.772C140.228 50.4699 140.358 50.272 140.431 50.1782C140.504 50.0845 140.571 49.9959 140.634 49.9126C140.707 49.8293 140.837 49.7668 141.025 49.7251C142.014 49.4647 143.009 49.1261 144.009 48.7095C145.009 48.2824 145.842 47.7303 146.509 47.0532C146.978 46.5845 147.337 46.0376 147.587 45.4126C147.848 44.7772 148.025 44.1313 148.118 43.4751C148.223 42.8084 148.275 42.1991 148.275 41.647C148.275 41.2511 148.223 40.8709 148.118 40.5063C148.025 40.1418 147.936 39.9022 147.853 39.7876C147.665 39.4438 147.342 39.272 146.884 39.272H139.431C139.202 39.272 139.004 39.2043 138.837 39.0688C138.681 38.9334 138.556 38.7772 138.462 38.6001C138.41 38.4751 138.358 38.3032 138.306 38.0845C138.264 37.8553 138.243 37.522 138.243 37.0845C138.243 36.7824 138.223 36.3813 138.181 35.8813C138.15 35.3813 138.092 34.8709 138.009 34.3501C137.926 33.8293 137.811 33.397 137.665 33.0532C137.613 32.9386 137.587 32.8501 137.587 32.7876C137.587 32.7355 137.603 32.6782 137.634 32.6157C137.665 32.5532 137.702 32.4855 137.743 32.4126C137.931 32.1105 138.155 31.7928 138.415 31.4595C138.686 31.1157 138.91 30.8553 139.087 30.6782C139.139 30.6053 139.196 30.5688 139.259 30.5688C139.353 30.5688 139.452 30.6522 139.556 30.8188C139.775 31.1313 139.936 31.5741 140.04 32.147C140.155 32.7199 140.212 33.2668 140.212 33.7876C140.212 34.6001 140.223 35.1834 140.243 35.5376C140.264 35.8918 140.327 36.147 140.431 36.3032C140.545 36.4595 140.681 36.5532 140.837 36.5845C140.993 36.6053 141.155 36.6157 141.321 36.6157H148.134C148.78 36.6157 149.269 36.8032 149.603 37.1782C149.946 37.5428 150.181 37.9907 150.306 38.522C150.431 39.0428 150.493 39.5428 150.493 40.022C150.493 40.5949 150.441 41.147 150.337 41.6782C150.243 42.2095 150.144 42.6418 150.04 42.9751C149.946 43.3084 149.9 43.4751 149.9 43.4751C149.764 43.9751 149.54 44.548 149.228 45.1938C148.915 45.8397 148.556 46.4907 148.15 47.147C147.754 47.8032 147.337 48.4022 146.9 48.9438C146.462 49.4855 146.045 49.9022 145.65 50.1938C145.129 50.5793 144.389 50.9803 143.431 51.397C142.473 51.8136 141.368 52.1626 140.118 52.4438C139.858 52.4959 139.681 52.522 139.587 52.522ZM158.853 52.8188C158.708 52.8188 158.635 52.7407 158.635 52.5845C158.635 51.9491 158.629 51.1782 158.619 50.272C158.619 49.3553 158.609 48.397 158.588 47.397C158.567 46.397 158.536 45.4438 158.494 44.5376C158.452 43.6313 158.4 42.8657 158.338 42.2407C158.317 41.9699 158.254 41.7095 158.15 41.4595C158.056 41.2095 157.869 40.9543 157.588 40.6938C157.234 40.3813 156.801 40.0584 156.291 39.7251C155.791 39.3813 155.286 39.0636 154.775 38.772C154.275 38.4803 153.843 38.2459 153.478 38.0688C153.28 37.9438 153.181 37.8241 153.181 37.7095C153.181 37.6574 153.202 37.6053 153.244 37.5532C153.286 37.4907 153.327 37.423 153.369 37.3501C153.588 36.9959 153.879 36.6053 154.244 36.1782C154.609 35.7407 154.843 35.4647 154.947 35.3501C155.062 35.2563 155.14 35.2095 155.181 35.2095C155.213 35.2095 155.333 35.2563 155.541 35.3501C156.03 35.6001 156.583 35.9282 157.197 36.3345C157.822 36.7407 158.484 37.2355 159.181 37.8188C159.702 38.2563 160.056 38.7095 160.244 39.1782C160.431 39.6366 160.546 40.0949 160.588 40.5532C160.609 40.7616 160.624 41.1105 160.635 41.6001C160.655 42.0897 160.671 42.6209 160.681 43.1938C160.702 43.7668 160.713 44.2876 160.713 44.7563C160.713 45.6105 160.708 46.5168 160.697 47.4751C160.697 48.4334 160.676 49.3709 160.635 50.2876C160.635 50.3918 160.614 50.5011 160.572 50.6157C160.53 50.7199 160.489 50.8136 160.447 50.897C160.26 51.2303 160.015 51.5897 159.713 51.9751C159.411 52.3605 159.187 52.6157 159.041 52.7407C158.978 52.7928 158.916 52.8188 158.853 52.8188ZM163.901 54.5845C163.734 54.5845 163.651 54.4959 163.651 54.3188C163.651 54.2043 163.729 53.9751 163.885 53.6313C164.041 53.2876 164.208 52.9386 164.385 52.5845C164.573 52.2407 164.703 52.0063 164.776 51.8813C164.838 51.7459 164.916 51.6418 165.01 51.5688C165.114 51.4959 165.229 51.4334 165.354 51.3813C165.531 51.298 165.838 51.1522 166.276 50.9438C166.724 50.7355 167.166 50.522 167.604 50.3032C168.052 50.0845 168.364 49.9178 168.541 49.8032C168.719 49.7095 168.807 49.5845 168.807 49.4282C168.807 49.4074 168.786 49.3241 168.745 49.1782C168.703 49.0324 168.672 48.9438 168.651 48.9126C168.265 47.6105 167.901 46.3918 167.557 45.2563C167.213 44.1209 166.807 42.9751 166.338 41.8188C165.87 40.6626 165.239 39.4126 164.448 38.0688C164.291 37.7876 164.213 37.6001 164.213 37.5063C164.213 37.4543 164.234 37.397 164.276 37.3345C164.328 37.2616 164.38 37.1886 164.432 37.1157C164.536 36.9803 164.698 36.7824 164.916 36.522C165.146 36.2511 165.364 35.9959 165.573 35.7563C165.791 35.5063 165.932 35.3605 165.995 35.3188C166.047 35.298 166.094 35.2772 166.135 35.2563C166.177 35.2251 166.224 35.2095 166.276 35.2095C166.401 35.2095 166.484 35.2668 166.526 35.3813C167.495 37.423 168.26 39.5428 168.823 41.7407C169.396 43.9386 169.995 46.1782 170.62 48.4595C170.651 48.5845 170.713 48.647 170.807 48.647C170.943 48.647 171.047 48.6105 171.12 48.5376C171.797 48.1105 172.432 47.7043 173.026 47.3188C173.62 46.9334 173.995 46.6574 174.151 46.4907C174.359 46.272 174.495 46.0168 174.557 45.7251C174.62 45.4334 174.651 45.048 174.651 44.5688C174.651 43.6313 174.573 42.6834 174.416 41.7251C174.26 40.7668 174.057 39.8293 173.807 38.9126C173.703 38.5168 173.625 38.2147 173.573 38.0063C173.531 37.798 173.51 37.6418 173.51 37.5376C173.51 37.4126 173.552 37.2824 173.635 37.147C173.854 36.8657 174.146 36.522 174.51 36.1157C174.885 35.6991 175.14 35.4334 175.276 35.3188C175.318 35.298 175.354 35.2772 175.385 35.2563C175.427 35.2251 175.469 35.2095 175.51 35.2095C175.677 35.2095 175.781 35.3136 175.823 35.522C176.135 36.6574 176.349 37.8241 176.463 39.022C176.578 40.2199 176.635 41.3136 176.635 42.3032C176.635 43.0011 176.573 43.5897 176.448 44.0688C176.333 44.5376 176.172 45.0949 175.963 45.7407C175.786 46.3032 175.474 46.923 175.026 47.6001C174.588 48.2772 173.969 48.9178 173.166 49.522C172.521 50.0011 171.703 50.5428 170.713 51.147C169.724 51.7407 168.666 52.3293 167.541 52.9126C166.427 53.4959 165.354 54.0116 164.323 54.4595C164.104 54.5428 163.963 54.5845 163.901 54.5845ZM179.48 52.1001C179.198 52.1001 179.058 52.0168 179.058 51.8501C179.058 51.8188 179.063 51.7876 179.073 51.7563C179.084 51.7251 179.094 51.6991 179.105 51.6782C179.25 51.4178 179.454 51.0897 179.714 50.6938C179.974 50.298 180.172 50.0011 180.308 49.8032C180.485 49.5741 180.662 49.4595 180.839 49.4595H188.183C188.349 49.4595 188.448 49.397 188.48 49.272C188.521 49.1366 188.542 49.0168 188.542 48.9126C188.542 48.6418 188.537 48.2147 188.526 47.6313C188.516 47.048 188.5 46.4022 188.48 45.6938C188.459 44.9751 188.433 44.2824 188.401 43.6157C188.381 42.9386 188.36 42.3605 188.339 41.8813C188.318 41.3918 188.303 41.0949 188.292 40.9907C188.25 40.522 188.058 40.1261 187.714 39.8032C187.381 39.4699 187.006 39.3032 186.589 39.3032H179.745C179.287 39.3032 179.058 39.1053 179.058 38.7095C179.058 38.5949 179.151 38.3709 179.339 38.0376C179.526 37.6938 179.73 37.3657 179.948 37.0532C180.219 36.6886 180.438 36.397 180.605 36.1782C180.782 35.9491 181.011 35.6834 181.292 35.3813C181.375 35.298 181.438 35.2511 181.48 35.2407C181.521 35.2199 181.542 35.2095 181.542 35.2095C181.719 35.2095 181.823 35.2928 181.855 35.4595C181.907 35.7407 181.995 36.0116 182.12 36.272C182.256 36.522 182.485 36.647 182.808 36.647H187.151C187.714 36.647 188.219 36.7668 188.667 37.0063C189.115 37.2459 189.464 37.548 189.714 37.9126C189.954 38.2459 190.12 38.6938 190.214 39.2563C190.318 39.8084 190.375 40.3136 190.386 40.772C190.438 41.9803 190.459 43.147 190.448 44.272C190.448 45.3866 190.48 46.5272 190.542 47.6938C190.563 47.9751 190.589 48.2563 190.62 48.5376C190.651 48.8188 190.75 49.0532 190.917 49.2407C191.073 49.3866 191.589 49.4595 192.464 49.4595C192.516 49.4595 192.573 49.4855 192.636 49.5376C192.709 49.5793 192.745 49.647 192.745 49.7407C192.745 49.7824 192.724 49.8553 192.683 49.9595C192.631 50.0741 192.521 50.2668 192.355 50.5376C192.188 50.798 192.016 51.0584 191.839 51.3188C191.662 51.5793 191.526 51.7563 191.433 51.8501C191.329 51.9438 191.23 52.0116 191.136 52.0532C191.053 52.0845 190.901 52.1001 190.683 52.1001H179.48ZM209.293 58.5063C209.095 58.5063 208.996 58.3866 208.996 58.147C208.976 57.7303 208.95 57.0793 208.918 56.1938C208.898 55.3084 208.866 54.2824 208.825 53.1157C208.783 51.9491 208.736 50.7251 208.684 49.4438C208.642 48.1626 208.595 46.9126 208.543 45.6938C208.491 44.4647 208.434 43.3501 208.371 42.3501C208.319 41.3501 208.262 40.5584 208.2 39.9751C208.168 39.7459 208.101 39.5741 207.996 39.4595C207.892 39.3345 207.705 39.272 207.434 39.272H201.043C200.866 39.272 200.7 39.2355 200.543 39.1626C200.398 39.0793 200.325 38.9595 200.325 38.8032C200.325 38.7303 200.413 38.5376 200.59 38.2251C200.767 37.9126 200.976 37.5584 201.215 37.1626C201.465 36.7668 201.7 36.4074 201.918 36.0845C202.137 35.7616 202.288 35.5532 202.371 35.4595C202.496 35.2928 202.616 35.2095 202.731 35.2095C202.908 35.2095 203.038 35.3813 203.121 35.7251C203.205 36.0584 203.304 36.2928 203.418 36.4282C203.543 36.5532 203.799 36.6157 204.184 36.6157H212.606C212.981 36.6157 213.168 36.6834 213.168 36.8188C213.168 36.8293 213.163 36.8553 213.153 36.897C213.142 36.9386 213.132 36.9855 213.121 37.0376C213.017 37.3293 212.892 37.647 212.746 37.9907C212.601 38.3345 212.444 38.6574 212.278 38.9595C212.205 39.0949 212.137 39.1782 212.075 39.2095C212.012 39.2303 211.939 39.2511 211.856 39.272C211.564 39.3657 211.283 39.4647 211.012 39.5688C210.752 39.6626 210.621 39.9282 210.621 40.3657C210.621 40.7824 210.627 41.5376 210.637 42.6313C210.648 43.7147 210.679 44.8657 210.731 46.0845C210.783 47.3449 210.83 48.5949 210.871 49.8345C210.913 51.0741 210.934 52.3136 210.934 53.5532C210.934 53.897 210.929 54.2355 210.918 54.5688C210.908 54.9022 210.903 55.2355 210.903 55.5688C210.903 55.923 210.845 56.2199 210.731 56.4595C210.679 56.5845 210.575 56.7772 210.418 57.0376C210.273 57.3084 210.116 57.5741 209.95 57.8345C209.783 58.0949 209.637 58.2824 209.512 58.397C209.439 58.4699 209.366 58.5063 209.293 58.5063ZM217.403 52.522C217.205 52.522 217.106 52.4386 217.106 52.272C217.106 52.1782 217.185 51.9803 217.341 51.6782C217.508 51.3761 217.679 51.0741 217.856 50.772C218.044 50.4699 218.174 50.272 218.247 50.1782C218.32 50.0845 218.388 49.9959 218.45 49.9126C218.523 49.8293 218.653 49.7668 218.841 49.7251C219.83 49.4647 220.825 49.1261 221.825 48.7095C222.825 48.2824 223.659 47.7303 224.325 47.0532C224.794 46.5845 225.153 46.0376 225.403 45.4126C225.664 44.7772 225.841 44.1313 225.935 43.4751C226.039 42.8084 226.091 42.1991 226.091 41.647C226.091 41.2511 226.039 40.8709 225.935 40.5063C225.841 40.1418 225.752 39.9022 225.669 39.7876C225.481 39.4438 225.159 39.272 224.7 39.272H217.247C217.018 39.272 216.82 39.2043 216.653 39.0688C216.497 38.9334 216.372 38.7772 216.278 38.6001C216.226 38.4751 216.174 38.3032 216.122 38.0845C216.08 37.8553 216.06 37.522 216.06 37.0845C216.06 36.7824 216.039 36.3813 215.997 35.8813C215.966 35.3813 215.909 34.8709 215.825 34.3501C215.742 33.8293 215.627 33.397 215.481 33.0532C215.429 32.9386 215.403 32.8501 215.403 32.7876C215.403 32.7355 215.419 32.6782 215.45 32.6157C215.481 32.5532 215.518 32.4855 215.56 32.4126C215.747 32.1105 215.971 31.7928 216.231 31.4595C216.502 31.1157 216.726 30.8553 216.903 30.6782C216.955 30.6053 217.013 30.5688 217.075 30.5688C217.169 30.5688 217.268 30.6522 217.372 30.8188C217.591 31.1313 217.752 31.5741 217.856 32.147C217.971 32.7199 218.028 33.2668 218.028 33.7876C218.028 34.6001 218.039 35.1834 218.06 35.5376C218.08 35.8918 218.143 36.147 218.247 36.3032C218.362 36.4595 218.497 36.5532 218.653 36.5845C218.81 36.6053 218.971 36.6157 219.138 36.6157H225.95C226.596 36.6157 227.086 36.8032 227.419 37.1782C227.763 37.5428 227.997 37.9907 228.122 38.522C228.247 39.0428 228.31 39.5428 228.31 40.022C228.31 40.5949 228.258 41.147 228.153 41.6782C228.06 42.2095 227.961 42.6418 227.856 42.9751C227.763 43.3084 227.716 43.4751 227.716 43.4751C227.58 43.9751 227.356 44.548 227.044 45.1938C226.731 45.8397 226.372 46.4907 225.966 47.147C225.57 47.8032 225.153 48.4022 224.716 48.9438C224.278 49.4855 223.862 49.9022 223.466 50.1938C222.945 50.5793 222.205 50.9803 221.247 51.397C220.289 51.8136 219.185 52.1626 217.935 52.4438C217.674 52.4959 217.497 52.522 217.403 52.522ZM237.513 52.5845C236.774 52.5845 236.201 52.3553 235.795 51.897C235.399 51.4386 235.091 50.8397 234.873 50.1001C234.664 49.3501 234.477 48.5376 234.31 47.6626C233.956 45.8709 233.565 44.1261 233.138 42.4282C232.711 40.7199 232.091 39.1834 231.279 37.8188C231.227 37.7147 231.201 37.6418 231.201 37.6001C231.201 37.5584 231.227 37.4751 231.279 37.3501C231.404 37.1418 231.623 36.8241 231.935 36.397C232.248 35.9595 232.513 35.6313 232.732 35.4126C232.878 35.2772 232.993 35.2095 233.076 35.2095C233.17 35.2095 233.243 35.2511 233.295 35.3345C233.357 35.4074 233.404 35.4699 233.435 35.522C233.675 36.022 233.914 36.647 234.154 37.397C234.404 38.147 234.628 38.8761 234.826 39.5845C235.034 40.2928 235.18 40.8345 235.263 41.2095L235.982 44.7095C236.024 44.8449 236.118 44.9126 236.263 44.9126C236.43 44.9126 236.727 44.7876 237.154 44.5376C237.591 44.2772 237.998 43.9074 238.373 43.4282C238.758 42.9386 238.951 42.3553 238.951 41.6782C238.951 41.1782 238.94 40.7668 238.92 40.4438C238.899 40.1105 238.847 39.798 238.763 39.5063C238.68 39.2043 238.545 38.8501 238.357 38.4438C238.336 38.3501 238.31 38.272 238.279 38.2095C238.258 38.147 238.248 38.0897 238.248 38.0376C238.248 37.923 238.295 37.7928 238.388 37.647C238.659 37.2407 238.998 36.8032 239.404 36.3345C239.81 35.8657 240.086 35.548 240.232 35.3813C240.347 35.2668 240.446 35.2095 240.529 35.2095C240.612 35.2095 240.675 35.2511 240.716 35.3345C240.758 35.4178 240.795 35.5011 240.826 35.5845C240.94 35.9386 241.06 36.4647 241.185 37.1626C241.321 37.8605 241.388 38.5116 241.388 39.1157C241.388 40.1991 241.237 41.1574 240.935 41.9907C240.644 42.8136 240.222 43.5376 239.67 44.1626C239.201 44.7043 238.716 45.1678 238.216 45.5532C237.716 45.9282 237.206 46.272 236.685 46.5845C236.519 46.6782 236.435 46.8084 236.435 46.9751C236.435 47.0584 236.456 47.173 236.498 47.3188C236.581 47.6626 236.675 48.0376 236.779 48.4438C236.883 48.8501 236.993 49.1261 237.107 49.272C237.243 49.4699 237.409 49.6366 237.607 49.772C237.805 49.897 238.065 49.9595 238.388 49.9595C238.857 49.9595 239.404 49.8709 240.029 49.6938C240.664 49.5063 241.289 49.2668 241.904 48.9751C242.519 48.673 243.029 48.3449 243.435 47.9907C244.123 47.3866 244.654 46.7407 245.029 46.0532C245.414 45.3553 245.607 44.4386 245.607 43.3032C245.607 42.4386 245.539 41.5897 245.404 40.7563C245.279 39.923 245.086 39.1782 244.826 38.522C244.784 38.3866 244.748 38.2668 244.716 38.1626C244.685 38.048 244.67 37.9438 244.67 37.8501C244.67 37.7355 244.696 37.6313 244.748 37.5376C244.8 37.4438 244.862 37.3449 244.935 37.2407C245.091 37.0324 245.326 36.7511 245.638 36.397C245.951 36.0428 246.258 35.7043 246.56 35.3813C246.696 35.2668 246.805 35.2095 246.888 35.2095C247.024 35.2095 247.102 35.2928 247.123 35.4595C247.435 36.3657 247.654 37.2459 247.779 38.1001C247.914 38.9438 247.982 39.7824 247.982 40.6157C247.982 41.4699 247.868 42.3501 247.638 43.2563C247.409 44.1522 247.112 45.0063 246.748 45.8188C246.394 46.6209 246.013 47.3084 245.607 47.8813C244.67 49.2459 243.493 50.3709 242.076 51.2563C240.659 52.1418 239.138 52.5845 237.513 52.5845ZM251.998 52.8188C251.884 52.8188 251.826 52.7303 251.826 52.5532C251.826 52.3657 251.931 51.9699 252.139 51.3657C252.347 50.7616 252.582 50.0376 252.842 49.1938C253.113 48.3501 253.353 47.4699 253.561 46.5532C253.769 45.6261 253.873 44.7511 253.873 43.9282C253.873 43.3866 253.79 42.7772 253.623 42.1001C253.457 41.4126 253.222 40.798 252.92 40.2563C252.66 39.7772 252.368 39.3605 252.045 39.0063C251.733 38.6418 251.509 38.3657 251.373 38.1782C251.353 38.1366 251.326 38.1001 251.295 38.0688C251.274 38.0272 251.264 37.9803 251.264 37.9282C251.264 37.8866 251.3 37.8032 251.373 37.6782C251.582 37.3449 251.847 36.9595 252.17 36.522C252.493 36.0845 252.847 35.6782 253.233 35.3032C253.295 35.2407 253.358 35.2095 253.42 35.2095C253.472 35.2095 253.53 35.2407 253.592 35.3032C254.04 35.8032 254.451 36.4178 254.826 37.147C255.201 37.8657 255.504 38.6209 255.733 39.4126C255.962 40.1938 256.076 40.9334 256.076 41.6313C256.076 41.7043 256.103 41.7407 256.155 41.7407C256.186 41.7407 256.212 41.7199 256.233 41.6782C256.608 40.8345 257.061 39.9907 257.592 39.147C258.134 38.2928 258.774 37.5793 259.514 37.0063C260.264 36.4334 261.139 36.147 262.139 36.147C262.983 36.147 263.722 36.3605 264.358 36.7876C264.993 37.2043 265.524 37.7459 265.951 38.4126C266.389 39.0688 266.712 39.7563 266.92 40.4751C267.087 40.9959 267.222 41.6105 267.326 42.3188C267.431 43.0272 267.509 43.7407 267.561 44.4595C267.613 45.1678 267.639 45.7928 267.639 46.3345C267.639 46.3345 267.634 46.4543 267.623 46.6938C267.623 46.923 267.608 47.2043 267.576 47.5376C267.556 47.8605 267.514 48.1574 267.451 48.4282C267.389 48.7407 267.269 49.1157 267.092 49.5532C266.915 49.9803 266.728 50.3866 266.53 50.772C266.342 51.1574 266.186 51.4386 266.061 51.6157C265.946 51.7824 265.837 51.9074 265.733 51.9907C265.639 52.0636 265.504 52.1001 265.326 52.1001H256.92C256.66 52.1001 256.53 52.0168 256.53 51.8501C256.53 51.7668 256.55 51.6991 256.592 51.647C256.644 51.5636 256.774 51.3813 256.983 51.1001C257.191 50.8188 257.399 50.5428 257.608 50.272C257.816 50.0011 257.946 49.8449 257.998 49.8032C258.061 49.7303 258.134 49.6574 258.217 49.5845C258.3 49.5011 258.441 49.4595 258.639 49.4595H265.295C265.41 49.4595 265.524 49.4386 265.639 49.397C265.764 49.3553 265.826 49.2043 265.826 48.9438C265.826 48.6418 265.806 48.1834 265.764 47.5688C265.733 46.9543 265.67 46.272 265.576 45.522C265.493 44.772 265.373 44.0324 265.217 43.3032C265.071 42.5741 264.884 41.9438 264.655 41.4126C264.373 40.7355 263.91 40.1522 263.264 39.6626C262.618 39.173 261.889 38.9282 261.076 38.9282C260.389 38.9282 259.754 39.1261 259.17 39.522C258.587 39.9074 258.076 40.397 257.639 40.9907C257.212 41.5741 256.868 42.1574 256.608 42.7407C256.556 42.8866 256.462 43.173 256.326 43.6001C256.201 44.0168 256.071 44.4543 255.936 44.9126C255.8 45.3709 255.701 45.7199 255.639 45.9595C255.576 46.1991 255.467 46.5793 255.311 47.1001C255.165 47.6209 255.009 48.147 254.842 48.6782C254.686 49.1991 254.55 49.6001 254.436 49.8813C254.353 50.0897 254.259 50.2668 254.155 50.4126C254.082 50.5063 253.936 50.6991 253.717 50.9907C253.509 51.2824 253.269 51.5949 252.998 51.9282C252.728 52.2511 252.467 52.522 252.217 52.7407C252.175 52.7928 252.103 52.8188 251.998 52.8188ZM276.375 54.5845C276.208 54.5845 276.125 54.4959 276.125 54.3188C276.125 54.2043 276.203 53.9751 276.359 53.6313C276.515 53.2876 276.682 52.9386 276.859 52.5845C277.046 52.2407 277.177 52.0063 277.25 51.8813C277.312 51.7459 277.39 51.6418 277.484 51.5688C277.588 51.4959 277.703 51.4334 277.828 51.3813C278.005 51.298 278.312 51.1522 278.75 50.9438C279.198 50.7355 279.64 50.522 280.078 50.3032C280.526 50.0845 280.838 49.9178 281.015 49.8032C281.192 49.7095 281.281 49.5845 281.281 49.4282C281.281 49.4074 281.26 49.3241 281.218 49.1782C281.177 49.0324 281.145 48.9438 281.125 48.9126C280.739 47.6105 280.375 46.3918 280.031 45.2563C279.687 44.1209 279.281 42.9751 278.812 41.8188C278.343 40.6626 277.713 39.4126 276.921 38.0688C276.765 37.7876 276.687 37.6001 276.687 37.5063C276.687 37.4543 276.708 37.397 276.75 37.3345C276.802 37.2616 276.854 37.1886 276.906 37.1157C277.01 36.9803 277.171 36.7824 277.39 36.522C277.619 36.2511 277.838 35.9959 278.046 35.7563C278.265 35.5063 278.406 35.3605 278.468 35.3188C278.52 35.298 278.567 35.2772 278.609 35.2563C278.651 35.2251 278.698 35.2095 278.75 35.2095C278.875 35.2095 278.958 35.2668 279 35.3813C279.968 37.423 280.734 39.5428 281.296 41.7407C281.869 43.9386 282.468 46.1782 283.093 48.4595C283.125 48.5845 283.187 48.647 283.281 48.647C283.416 48.647 283.52 48.6105 283.593 48.5376C284.27 48.1105 284.906 47.7043 285.5 47.3188C286.093 46.9334 286.468 46.6574 286.625 46.4907C286.833 46.272 286.968 46.0168 287.031 45.7251C287.093 45.4334 287.125 45.048 287.125 44.5688C287.125 43.6313 287.046 42.6834 286.89 41.7251C286.734 40.7668 286.531 39.8293 286.281 38.9126C286.177 38.5168 286.099 38.2147 286.046 38.0063C286.005 37.798 285.984 37.6418 285.984 37.5376C285.984 37.4126 286.026 37.2824 286.109 37.147C286.328 36.8657 286.619 36.522 286.984 36.1157C287.359 35.6991 287.614 35.4334 287.75 35.3188C287.791 35.298 287.828 35.2772 287.859 35.2563C287.901 35.2251 287.942 35.2095 287.984 35.2095C288.151 35.2095 288.255 35.3136 288.296 35.522C288.609 36.6574 288.823 37.8241 288.937 39.022C289.052 40.2199 289.109 41.3136 289.109 42.3032C289.109 43.0011 289.046 43.5897 288.921 44.0688C288.807 44.5376 288.645 45.0949 288.437 45.7407C288.26 46.3032 287.948 46.923 287.5 47.6001C287.062 48.2772 286.442 48.9178 285.64 49.522C284.994 50.0011 284.177 50.5428 283.187 51.147C282.198 51.7407 281.14 52.3293 280.015 52.9126C278.901 53.4959 277.828 54.0116 276.796 54.4595C276.578 54.5428 276.437 54.5845 276.375 54.5845ZM292.985 52.8188C292.87 52.8188 292.813 52.7303 292.813 52.5532C292.813 52.3657 292.917 51.9699 293.125 51.3657C293.334 50.7616 293.568 50.0376 293.828 49.1938C294.099 48.3501 294.339 47.4699 294.547 46.5532C294.755 45.6261 294.86 44.7511 294.86 43.9282C294.86 43.3866 294.776 42.7772 294.61 42.1001C294.443 41.4126 294.209 40.798 293.906 40.2563C293.646 39.7772 293.354 39.3605 293.031 39.0063C292.719 38.6418 292.495 38.3657 292.36 38.1782C292.339 38.1366 292.313 38.1001 292.281 38.0688C292.261 38.0272 292.25 37.9803 292.25 37.9282C292.25 37.8866 292.287 37.8032 292.36 37.6782C292.568 37.3449 292.834 36.9595 293.156 36.522C293.479 36.0845 293.834 35.6782 294.219 35.3032C294.281 35.2407 294.344 35.2095 294.406 35.2095C294.459 35.2095 294.516 35.2407 294.578 35.3032C295.026 35.8032 295.438 36.4178 295.813 37.147C296.188 37.8657 296.49 38.6209 296.719 39.4126C296.948 40.1938 297.063 40.9334 297.063 41.6313C297.063 41.7043 297.089 41.7407 297.141 41.7407C297.172 41.7407 297.198 41.7199 297.219 41.6782C297.594 40.8345 298.047 39.9907 298.578 39.147C299.12 38.2928 299.761 37.5793 300.5 37.0063C301.25 36.4334 302.125 36.147 303.125 36.147C303.969 36.147 304.709 36.3605 305.344 36.7876C305.979 37.2043 306.511 37.7459 306.938 38.4126C307.375 39.0688 307.698 39.7563 307.906 40.4751C308.073 40.9959 308.209 41.6105 308.313 42.3188C308.417 43.0272 308.495 43.7407 308.547 44.4595C308.599 45.1678 308.625 45.7928 308.625 46.3345C308.625 46.3345 308.62 46.4543 308.61 46.6938C308.61 46.923 308.594 47.2043 308.563 47.5376C308.542 47.8605 308.5 48.1574 308.438 48.4282C308.375 48.7407 308.255 49.1157 308.078 49.5532C307.901 49.9803 307.714 50.3866 307.516 50.772C307.328 51.1574 307.172 51.4386 307.047 51.6157C306.933 51.7824 306.823 51.9074 306.719 51.9907C306.625 52.0636 306.49 52.1001 306.313 52.1001H297.906C297.646 52.1001 297.516 52.0168 297.516 51.8501C297.516 51.7668 297.537 51.6991 297.578 51.647C297.63 51.5636 297.761 51.3813 297.969 51.1001C298.177 50.8188 298.386 50.5428 298.594 50.272C298.802 50.0011 298.933 49.8449 298.985 49.8032C299.047 49.7303 299.12 49.6574 299.203 49.5845C299.287 49.5011 299.427 49.4595 299.625 49.4595H306.281C306.396 49.4595 306.511 49.4386 306.625 49.397C306.75 49.3553 306.813 49.2043 306.813 48.9438C306.813 48.6418 306.792 48.1834 306.75 47.5688C306.719 46.9543 306.656 46.272 306.563 45.522C306.479 44.772 306.36 44.0324 306.203 43.3032C306.058 42.5741 305.87 41.9438 305.641 41.4126C305.36 40.7355 304.896 40.1522 304.25 39.6626C303.604 39.173 302.875 38.9282 302.063 38.9282C301.375 38.9282 300.74 39.1261 300.156 39.522C299.573 39.9074 299.063 40.397 298.625 40.9907C298.198 41.5741 297.854 42.1574 297.594 42.7407C297.542 42.8866 297.448 43.173 297.313 43.6001C297.188 44.0168 297.058 44.4543 296.922 44.9126C296.787 45.3709 296.688 45.7199 296.625 45.9595C296.563 46.1991 296.453 46.5793 296.297 47.1001C296.151 47.6209 295.995 48.147 295.828 48.6782C295.672 49.1991 295.537 49.6001 295.422 49.8813C295.339 50.0897 295.245 50.2668 295.141 50.4126C295.068 50.5063 294.922 50.6991 294.703 50.9907C294.495 51.2824 294.255 51.5949 293.985 51.9282C293.714 52.2511 293.453 52.522 293.203 52.7407C293.162 52.7928 293.089 52.8188 292.985 52.8188ZM314.657 58.5063C314.48 58.5063 314.391 58.4178 314.391 58.2407C314.36 56.2824 314.334 54.2616 314.313 52.1782C314.303 50.0949 314.261 48.0168 314.188 45.9438C314.115 43.8605 313.964 41.8605 313.735 39.9438C313.704 39.7459 313.584 39.6053 313.376 39.522C313.178 39.4282 312.964 39.3709 312.735 39.3501C312.506 39.3188 312.345 39.2928 312.251 39.272C312.074 39.2303 311.985 39.1418 311.985 39.0063C311.985 38.9126 312.022 38.798 312.095 38.6626C312.522 37.9647 313.001 37.3084 313.532 36.6938C314.063 36.0688 314.449 35.6418 314.688 35.4126C314.824 35.2772 314.959 35.2095 315.095 35.2095C315.324 35.2095 315.464 35.3345 315.516 35.5845C315.6 35.8449 315.678 36.0845 315.751 36.3032C315.824 36.5116 316.058 36.6157 316.454 36.6157H326.079C326.964 36.6157 327.615 36.923 328.032 37.5376C328.449 38.1418 328.657 38.8136 328.657 39.5532C328.657 40.5949 328.506 41.6261 328.204 42.647C327.912 43.6678 327.61 44.5324 327.298 45.2407C326.808 46.3866 326.194 47.4647 325.454 48.4751C324.725 49.4751 323.824 50.298 322.751 50.9438C322.449 51.1209 322.032 51.3397 321.501 51.6001C320.98 51.8605 320.475 52.0897 319.985 52.2876C319.506 52.4855 319.173 52.5845 318.985 52.5845C318.746 52.5845 318.626 52.4803 318.626 52.272C318.626 52.1782 318.709 51.9699 318.876 51.647C319.043 51.3136 319.214 50.9803 319.391 50.647C319.579 50.3032 319.704 50.0741 319.766 49.9595C319.86 49.8241 319.938 49.7199 320.001 49.647C320.074 49.5636 320.183 49.5011 320.329 49.4595C321.089 49.2303 321.819 48.9803 322.516 48.7095C323.225 48.4386 323.85 48.0688 324.391 47.6001C324.944 47.1313 325.365 46.4959 325.657 45.6938C325.782 45.3605 325.923 44.7928 326.079 43.9907C326.246 43.1782 326.329 42.4074 326.329 41.6782C326.329 41.0949 326.23 40.548 326.032 40.0376C325.845 39.5272 325.412 39.272 324.735 39.272H316.641C316.548 39.272 316.454 39.3188 316.36 39.4126C316.266 39.5063 316.22 39.6105 316.22 39.7251C316.282 41.0168 316.319 42.3136 316.329 43.6157C316.339 44.9074 316.345 45.9334 316.345 46.6938C316.345 47.423 316.345 48.0584 316.345 48.6001C316.355 49.1418 316.36 49.8345 316.36 50.6782C316.36 51.7095 316.355 52.7147 316.345 53.6938C316.345 54.6834 316.334 55.3918 316.313 55.8188C316.313 55.8501 316.298 55.9282 316.266 56.0532C316.246 56.1782 316.204 56.3136 316.141 56.4595C316.006 56.7824 315.808 57.1313 315.548 57.5063C315.298 57.8813 315.084 58.173 314.907 58.3813C314.845 58.4647 314.761 58.5063 314.657 58.5063ZM348.065 52.8188C347.888 52.8188 347.783 52.6938 347.752 52.4438C347.69 51.5584 347.638 50.5584 347.596 49.4438C347.554 48.3293 347.497 47.2043 347.424 46.0688C347.351 44.9334 347.231 43.8918 347.065 42.9438C346.867 41.7772 346.429 40.8761 345.752 40.2407C345.075 39.5949 344.242 39.272 343.252 39.272H337.674C337.174 39.272 336.924 39.1157 336.924 38.8032C336.924 38.7095 336.955 38.6261 337.018 38.5532C337.07 38.4595 337.19 38.272 337.377 37.9907C337.565 37.7095 337.778 37.397 338.018 37.0532C338.257 36.6991 338.492 36.3709 338.721 36.0688C338.95 35.7668 339.127 35.548 339.252 35.4126C339.367 35.2772 339.497 35.2095 339.643 35.2095C339.83 35.2095 339.96 35.3345 340.033 35.5845C340.127 35.9907 340.21 36.2668 340.283 36.4126C340.356 36.548 340.617 36.6157 341.065 36.6157H344.315C344.773 36.6157 345.289 36.7251 345.861 36.9438C346.434 37.1522 346.986 37.5272 347.518 38.0688C348.059 38.6105 348.502 39.3866 348.846 40.397C349.096 41.0949 349.278 42.0011 349.393 43.1157C349.507 44.2199 349.575 45.3657 349.596 46.5532C349.627 47.7303 349.643 48.7928 349.643 49.7407C349.643 49.897 349.638 50.022 349.627 50.1157C349.627 50.1991 349.601 50.298 349.549 50.4126C349.424 50.7251 349.263 51.0897 349.065 51.5063C348.867 51.923 348.648 52.298 348.408 52.6313C348.294 52.7563 348.179 52.8188 348.065 52.8188ZM358.175 52.8188C358.029 52.8188 357.956 52.7407 357.956 52.5845C357.956 51.9491 357.951 51.1782 357.94 50.272C357.94 49.3553 357.93 48.397 357.909 47.397C357.888 46.397 357.857 45.4438 357.815 44.5376C357.774 43.6313 357.721 42.8657 357.659 42.2407C357.638 41.9699 357.576 41.7095 357.471 41.4595C357.378 41.2095 357.19 40.9543 356.909 40.6938C356.555 40.3813 356.123 40.0584 355.612 39.7251C355.112 39.3813 354.607 39.0636 354.096 38.772C353.596 38.4803 353.164 38.2459 352.8 38.0688C352.602 37.9438 352.503 37.8241 352.503 37.7095C352.503 37.6574 352.524 37.6053 352.565 37.5532C352.607 37.4907 352.649 37.423 352.69 37.3501C352.909 36.9959 353.201 36.6053 353.565 36.1782C353.93 35.7407 354.164 35.4647 354.268 35.3501C354.383 35.2563 354.461 35.2095 354.503 35.2095C354.534 35.2095 354.654 35.2563 354.862 35.3501C355.352 35.6001 355.904 35.9282 356.518 36.3345C357.143 36.7407 357.805 37.2355 358.503 37.8188C359.024 38.2563 359.378 38.7095 359.565 39.1782C359.753 39.6366 359.867 40.0949 359.909 40.5532C359.93 40.7616 359.945 41.1105 359.956 41.6001C359.977 42.0897 359.992 42.6209 360.003 43.1938C360.024 43.7668 360.034 44.2876 360.034 44.7563C360.034 45.6105 360.029 46.5168 360.018 47.4751C360.018 48.4334 359.998 49.3709 359.956 50.2876C359.956 50.3918 359.935 50.5011 359.893 50.6157C359.852 50.7199 359.81 50.8136 359.768 50.897C359.581 51.2303 359.336 51.5897 359.034 51.9751C358.732 52.3605 358.508 52.6157 358.362 52.7407C358.3 52.7928 358.237 52.8188 358.175 52.8188ZM363.347 52.1001C363.055 52.1001 362.91 52.0063 362.91 51.8188C362.91 51.7459 362.941 51.6782 363.003 51.6157C363.305 51.1574 363.535 50.8345 363.691 50.647C363.847 50.4491 364.055 50.1834 364.316 49.8501C364.399 49.7355 364.483 49.6366 364.566 49.5532C364.66 49.4699 364.79 49.4282 364.956 49.4282H373.05C373.248 49.4282 373.373 49.4022 373.425 49.3501C373.488 49.2876 373.519 49.2043 373.519 49.1001C373.519 49.0376 373.509 48.9543 373.488 48.8501C373.467 48.7459 373.399 48.6418 373.285 48.5376C372.68 47.8709 372.009 47.2147 371.269 46.5688C370.54 45.9126 369.972 45.397 369.566 45.022C369.472 44.9282 369.233 44.7043 368.847 44.3501C368.462 43.9959 368.024 43.5949 367.535 43.147C367.045 42.6991 366.592 42.2824 366.175 41.897C365.759 41.5011 365.472 41.2251 365.316 41.0688C364.972 40.6938 364.613 40.2824 364.238 39.8345C363.863 39.3866 363.477 38.8084 363.081 38.1001C363.029 38.0376 363.003 37.9751 363.003 37.9126C363.003 37.8501 363.014 37.798 363.035 37.7563C363.066 37.7043 363.081 37.6782 363.081 37.6782C363.509 37.022 363.842 36.548 364.081 36.2563C364.331 35.9543 364.587 35.6522 364.847 35.3501C364.941 35.2563 365.014 35.2095 365.066 35.2095C365.191 35.2095 365.274 35.2772 365.316 35.4126C365.597 36.1105 365.915 36.772 366.269 37.397C366.623 38.0116 367.014 38.6209 367.441 39.2251C367.972 39.9334 368.566 40.6105 369.222 41.2563C369.878 41.9022 370.555 42.5011 371.253 43.0532C371.358 43.147 371.472 43.1938 371.597 43.1938C371.712 43.1938 371.816 43.1522 371.91 43.0688C372.003 42.9751 372.097 42.8605 372.191 42.7251C372.326 42.4647 372.462 42.1261 372.597 41.7095C372.733 41.2824 372.8 40.7147 372.8 40.0063C372.8 39.6001 372.753 39.2407 372.66 38.9282C372.566 38.6053 372.509 38.4126 372.488 38.3501C372.415 38.1834 372.378 38.0741 372.378 38.022C372.378 37.9282 372.415 37.8293 372.488 37.7251C372.696 37.4334 373.003 37.0376 373.41 36.5376C373.816 36.0272 374.149 35.6418 374.41 35.3813C374.545 35.2668 374.634 35.2095 374.675 35.2095C374.759 35.2095 374.842 35.2824 374.925 35.4282C375.071 35.6886 375.227 36.0793 375.394 36.6001C375.561 37.1209 375.644 37.7616 375.644 38.522C375.644 39.4074 375.404 40.3293 374.925 41.2876C374.446 42.2355 373.811 43.1574 373.019 44.0532C372.925 44.147 372.878 44.2616 372.878 44.397C372.878 44.4907 372.899 44.5584 372.941 44.6001C373.608 45.2043 374.175 45.7407 374.644 46.2095C375.123 46.6678 375.446 47.0063 375.613 47.2251C375.759 47.4022 375.858 47.5845 375.91 47.772C375.962 47.9595 375.988 48.1209 375.988 48.2563C375.988 48.6105 375.873 48.9959 375.644 49.4126C375.519 49.6313 375.347 49.9491 375.128 50.3657C374.92 50.772 374.665 51.1886 374.363 51.6157C374.206 51.8449 374.061 51.9855 373.925 52.0376C373.8 52.0793 373.628 52.1001 373.41 52.1001H363.347Z" fill="#0B0B0B"/>
<path d="M458.303 7.1001H487.303V25.1001C487.303 35.0412 479.244 43.1001 469.303 43.1001H458.303V7.1001Z" fill="#FDFBFB"/>
<path d="M458.303 6.6001H487.803L486.803 7.6001H458.303V6.6001ZM458.303 7.6001M487.303 43.1001H458.303H487.303M487.303 43.1001M458.303 43.1001V7.1001V43.1001M487.803 6.6001V24.6001C487.803 34.8174 479.52 43.1001 469.303 43.1001C478.968 43.1001 486.803 35.0412 486.803 25.1001V7.6001L487.803 6.6001Z" fill="#0B0B0B"/>
<path d="M458.303 43.1001H469.303C479.244 43.1001 487.303 51.159 487.303 61.1001V79.1001H458.303V43.1001Z" fill="#FDFBFB"/>
<path d="M458.303 43.1001H487.303H458.303M487.803 79.6001H458.303V78.6001H486.803L487.803 79.6001ZM486.803 78.6001M458.303 79.1001V43.1001V79.1001M469.303 43.1001C479.52 43.1001 487.803 51.3828 487.803 61.6001V79.6001L486.803 78.6001V61.1001C486.803 51.159 478.968 43.1001 469.303 43.1001Z" fill="#0B0B0B"/>
</g>
<defs>
<filter id="filter0_d_1530_4404" x="-0.000391006" y="9.72748e-05" width="502.403" height="94.2" filterUnits="userSpaceOnUse" color-interpolation-filters="sRGB">
<feFlood flood-opacity="0" result="BackgroundImageFix"/>
<feColorMatrix in="SourceAlpha" type="matrix" values="0 0 0 0 0 0 0 0 0 0 0 0 0 0 0 0 0 0 127 0" result="hardAlpha"/>
<feOffset dx="4" dy="4"/>
<feGaussianBlur stdDeviation="5.3"/>
<feComposite in2="hardAlpha" operator="out"/>
<feColorMatrix type="matrix" values="0 0 0 0 0 0 0 0 0 0 0 0 0 0 0 0 0 0 0.17 0"/>
<feBlend mode="normal" in2="BackgroundImageFix" result="effect1_dropShadow_1530_4404"/>
<feBlend mode="normal" in="SourceGraphic" in2="effect1_dropShadow_1530_4404" result="shape"/>
</filter>
</defs>
</svg>
