<svg width="1182" height="1306" viewBox="0 0 1182 1306" fill="none" xmlns="http://www.w3.org/2000/svg">
<path d="M23.0039 273.647C36.451 199.296 174.607 -11.4686 376.295 27.8607C570.4 65.7114 622.021 269.561 596.134 459.472C573.116 628.335 316.542 863.155 296.884 1040.51C285.11 1146.73 326.881 1207.73 395.455 1252.1C465.438 1297.39 575.966 1288.41 621.326 1246.97M746.448 362.373C926.779 478.041 1094.2 418.161 1147.97 297.178C1189.52 162.753 1106.42 57.6572 984.054 30.0704C782.578 -5.88917 606.905 162.952 600.2 431.818C589.402 580.636 710.386 800.254 825.648 983.935C896.952 1097.56 952.428 1175.83 1040.87 1269.75" stroke="black" stroke-width="46" stroke-linecap="round"/>
</svg>
