<svg width="819" height="1313" viewBox="0 0 819 1313" fill="none" xmlns="http://www.w3.org/2000/svg">
<g filter="url(#filter0_d_264_165)">
<path d="M27 1281.42V388.738M27 46.4532V377.981M594.027 548.297C474.657 648.628 381.976 663.716 224.635 632.463C140.471 615.746 43.5845 516.073 27 388.738M27 388.738V377.981M27 377.981C27 130.264 233.256 6.32915 441.64 24.8C717.344 49.2381 813.662 309.909 787.185 486.975C754.854 741.308 613.678 883.562 378.743 1072.16C313.385 1124.62 267.666 1149.35 222.919 1182.95C178.171 1216.54 203.081 1265.42 250.499 1265.42H631.676" stroke="black" stroke-width="46" stroke-linecap="round" stroke-linejoin="round"/>
</g>
<defs>
<filter id="filter0_d_264_165" x="0" y="0" width="818.398" height="1312.42" filterUnits="userSpaceOnUse" color-interpolation-filters="sRGB">
<feFlood flood-opacity="0" result="BackgroundImageFix"/>
<feColorMatrix in="SourceAlpha" type="matrix" values="0 0 0 0 0 0 0 0 0 0 0 0 0 0 0 0 0 0 127 0" result="hardAlpha"/>
<feOffset dy="4"/>
<feGaussianBlur stdDeviation="2"/>
<feComposite in2="hardAlpha" operator="out"/>
<feColorMatrix type="matrix" values="0 0 0 0 0 0 0 0 0 0 0 0 0 0 0 0 0 0 0.25 0"/>
<feBlend mode="normal" in2="BackgroundImageFix" result="effect1_dropShadow_264_165"/>
<feBlend mode="normal" in="SourceGraphic" in2="effect1_dropShadow_264_165" result="shape"/>
</filter>
</defs>
</svg>
