<svg width="232" height="518" viewBox="0 0 232 518" fill="none" xmlns="http://www.w3.org/2000/svg">
<path d="M175.489 507.89H60.0043C51.2537 507.89 47.6561 490.192 60.0043 482.651C127.578 441.39 222.555 366.77 222.555 277.171C222.555 214.228 171.529 163.202 108.586 163.202C86.5144 163.202 64.8443 170.52 47.3898 181.382C24.361 196.435 9.14453 222.447 9.14453 252.013M9.14453 252.013C9.14453 298.583 46.8971 336.336 93.4673 336.336C117.574 336.336 139.317 326.22 154.685 310.002M9.14453 252.013V123.161C11.0248 47.7606 60.6684 0.410529 117.171 10.4951C151.487 18.2315 174.791 47.7048 163.139 85.4031C148.06 119.332 101.108 136.124 50.536 103.686" stroke="black" stroke-width="18.29" stroke-linecap="round"/>
</svg>
