<svg width="807" height="1825" viewBox="0 0 807 1825" fill="none" xmlns="http://www.w3.org/2000/svg">
<path d="M204.356 1711.43L192.37 1691.8L192.37 1691.8L204.356 1711.43ZM710.225 1212.26L690.212 1200.92V1200.92L710.225 1212.26ZM558.666 1111.62C567.403 1102.4 567.011 1087.84 557.79 1079.1C548.57 1070.37 534.012 1070.76 525.275 1079.98L541.971 1095.8L558.666 1111.62ZM171.96 656.412C182.593 649.462 185.577 635.208 178.627 624.576C171.677 613.944 157.423 610.959 146.791 617.909L159.375 637.161L171.96 656.412ZM151.018 613.912C140.233 620.624 136.931 634.807 143.642 645.592C150.354 656.377 164.537 659.679 175.322 652.968L163.17 633.44L151.018 613.912ZM183.012 340.755C172.32 333.897 158.093 337.005 151.235 347.697C144.376 358.389 147.484 372.616 158.177 379.474L170.594 360.115L183.012 340.755ZM572.116 294.92L593.133 304.261L593.687 303.015L594.09 301.712L572.116 294.92ZM408.201 27.8118L413.259 5.37487L412.753 5.26074L412.242 5.16956L408.201 27.8118ZM1.35383 428.985C1.03716 441.684 11.0747 452.235 23.7733 452.552C36.4719 452.868 47.0229 442.831 47.3395 430.132L24.3467 429.559L1.35383 428.985ZM46 429.559C46 416.856 35.7025 406.559 23 406.559C10.2975 406.559 0 416.856 0 429.559H23H46ZM616.153 1801.43V1778.43H204.356V1801.43V1824.43H616.153V1801.43ZM204.356 1801.43V1778.43C204.353 1778.43 204.372 1778.43 204.41 1778.43C204.448 1778.44 204.491 1778.45 204.536 1778.46C204.633 1778.48 204.668 1778.51 204.629 1778.48C204.542 1778.44 203.992 1778.11 203.192 1777.07C201.483 1774.86 199.565 1770.59 199.063 1764.59C198.078 1752.84 202.798 1739.33 216.343 1731.06L204.356 1711.43L192.37 1691.8C161.883 1710.42 151.001 1741.91 153.224 1768.43C154.325 1781.58 158.714 1794.76 166.81 1805.22C175.1 1815.94 187.992 1824.43 204.356 1824.43V1801.43ZM204.356 1711.43L216.343 1731.06C342.689 1653.91 436.189 1589.32 515.673 1512.59C595.353 1435.67 660.125 1347.37 730.237 1223.59L710.225 1212.26L690.212 1200.92C621.558 1322.12 559.323 1406.51 483.724 1479.49C407.929 1552.66 317.878 1615.17 192.37 1691.8L204.356 1711.43ZM23 889.02H0C0 1067.78 144.916 1212.7 323.679 1212.7V1189.7V1166.7C170.321 1166.7 46 1042.38 46 889.02H23ZM323.679 1189.7V1212.7C416.211 1212.7 499.704 1173.84 558.666 1111.62L541.971 1095.8L525.275 1079.98C474.639 1133.42 403.065 1166.7 323.679 1166.7V1189.7ZM159.375 637.161L146.791 617.909C58.4517 675.656 0 775.506 0 889.02H23H46C46 791.681 96.0664 706.024 171.96 656.412L159.375 637.161ZM783.98 978.728H806.98C806.98 741.581 614.735 549.336 377.589 549.336V572.336V595.336C589.33 595.336 760.98 766.986 760.98 978.728H783.98ZM710.225 1212.26L730.237 1223.59C768.123 1156.71 806.98 1071.75 806.98 978.728H783.98H760.98C760.98 1059.53 727.04 1135.91 690.212 1200.92L710.225 1212.26ZM377.589 572.336V549.336C294.468 549.336 216.798 572.977 151.018 613.912L163.17 633.44L175.322 652.968C234.02 616.439 303.305 595.336 377.589 595.336V572.336ZM170.594 360.115L158.177 379.474C347.315 500.791 532.259 441.229 593.133 304.261L572.116 294.92L551.098 285.578C504.433 390.575 354.536 450.774 183.012 340.755L170.594 360.115ZM572.116 294.92L594.09 301.712C616.786 228.284 605.699 161.185 570.79 108.583C536.166 56.4104 479.328 20.2698 413.259 5.37487L408.201 27.8118L403.142 50.2486C459.439 62.9405 505.334 93.1412 532.463 134.019C559.307 174.469 568.995 227.13 550.141 288.128L572.116 294.92ZM408.201 27.8118L412.242 5.16956C303.598 -14.2213 201.767 21.8366 126.812 98.2724C52.1134 174.448 4.82521 289.782 1.35383 428.985L24.3467 429.559L47.3395 430.132C50.573 300.471 94.4736 196.951 159.656 130.479C224.584 64.2682 311.327 33.8852 404.159 50.4539L408.201 27.8118ZM23 429.559H0V889.02H23H46V429.559H23Z" fill="black"/>
</svg>
