<svg width="280" height="613" viewBox="0 0 280 613" fill="none" xmlns="http://www.w3.org/2000/svg">
<path d="M63.8568 125.153C98.7862 149.208 173.258 163.707 197.643 100.109C213.131 51.999 175.236 13.4473 121.853 13.4473C33.8702 19.0486 14.7613 105.829 14.7613 213.467C13.4644 238.786 13.0767 271.586 13.82 290.183M191.695 361.414C150.261 397.723 126.483 406.463 86.9238 393.716C36.7303 377.542 14.7613 333.594 13.82 290.183M13.82 290.183C14.863 211.356 121.453 177.066 182.058 203.36C269.342 241.23 283.037 324.789 249.022 401.944C216.073 476.681 140.214 519.394 71.2729 573.724C63.4438 579.894 63.4692 597.401 73.7436 598.68H214.386" stroke="black" stroke-width="26.8936" stroke-linecap="round" stroke-linejoin="round"/>
</svg>
