<svg width="902" height="1319" viewBox="0 0 902 1319" fill="none" xmlns="http://www.w3.org/2000/svg">
<path d="M141.025 43.5022C365.273 300.844 502.667 550.906 550.496 680.647C572.019 739.028 580.426 824.417 575.512 910.598M428.55 952.788C294.278 873.433 173.938 878.197 105.803 925.533C23.9475 982.401 -14.0303 1108.47 71.3763 1219.59C138.077 1306.38 370.213 1347.07 497.404 1182.3C543.594 1122.46 569.504 1015.94 575.512 910.598M568.177 62.4967C630.203 6.84852 782.618 1.09702 846.843 103.666C907.512 200.552 853.067 330.148 790.289 446.839C691.062 631.264 639.838 716.607 575.512 910.598M575.512 910.598C562.442 1139.79 657.666 1280.99 878.512 1269.61" stroke="black" stroke-width="46" stroke-linecap="round" stroke-linejoin="round"/>
</svg>
