<svg width="1116" height="1319" viewBox="0 0 1116 1319" fill="none" xmlns="http://www.w3.org/2000/svg">
<path d="M642.82 952.788C508.547 873.433 388.208 878.197 320.072 925.533C238.217 982.401 200.239 1108.47 285.646 1219.59C352.347 1306.38 584.483 1347.07 711.674 1182.3C757.864 1122.46 783.774 1015.94 789.781 910.598M782.447 62.4967C844.473 6.84852 996.888 1.09702 1061.11 103.666C1121.78 200.552 1067.34 330.148 1004.56 446.839C905.332 631.264 854.107 716.607 789.781 910.598M789.781 910.598C776.711 1139.79 871.935 1280.99 1092.78 1269.61M789.781 910.598C789.781 625.319 713.933 385.695 492.047 153.536C320.072 -26.4001 83.7323 60.0451 36.9526 184.829C-12.395 316.463 77.6386 432.047 189.572 455.163C285.646 475.005 370.856 432.047 439.818 395.019" stroke="black" stroke-width="46" stroke-linecap="round" stroke-linejoin="round"/>
</svg>
