<svg width="998" height="1668" viewBox="0 0 998 1668" fill="none" xmlns="http://www.w3.org/2000/svg">
<path d="M185.68 485.238C295.995 485.238 369.149 537.402 369.149 627.194M369.149 627.194V1527.93M369.149 627.194C369.149 537.402 442.304 485.238 552.619 485.238M369.149 1527.93C369.149 1588.91 278.892 1650.48 187.39 1643.64M369.149 1527.93C369.149 1588.91 459.407 1650.48 550.909 1643.64M970.002 1232.33C824.499 1313.9 636.557 1236.07 673.897 1028.87C703.692 863.546 940.256 537.652 967.634 401.567C1009.95 191.219 853.24 32.6134 696.119 23.6686C524.761 13.9134 380.257 110.532 361.078 248.16C336.261 110.532 185.447 23.6686 23 23.6686" stroke="black" stroke-width="46" stroke-linecap="round" stroke-linejoin="round"/>
</svg>
