<svg width="2064" height="1276" viewBox="0 0 2064 1276" fill="none" xmlns="http://www.w3.org/2000/svg">
<path d="M1521.22 546.463C1576.02 604.293 1653.55 640.364 1739.51 640.364C1905.57 640.364 2040.19 505.745 2040.19 339.684C2040.19 234.258 1985.93 141.504 1903.81 87.8252M1900.02 84.1044C1837.78 45.3727 1764.3 23.0005 1685.6 23.0005C1461.15 23.0005 1279.21 204.948 1279.21 429.392C1279.21 516.307 1315.61 596.971 1352.96 662.92C1491.73 907.896 1606.98 1008.31 1858.83 1162.1C1902.86 1188.98 1890.03 1252.09 1858.83 1252.09H1447.03C1283.44 1252.09 1031.59 1153.86 1031.59 1045.44M541.971 546.462C487.172 604.293 409.638 640.363 323.679 640.363C157.619 640.363 23 505.745 23 339.684C23 234.257 77.2591 141.504 159.375 87.8247M163.17 84.1039C225.409 45.3722 298.886 23 377.589 23C602.033 23 783.98 204.948 783.98 429.392C783.98 516.306 747.581 596.971 710.225 662.919C571.459 907.896 456.211 1008.31 204.356 1162.1C160.325 1188.98 173.154 1252.09 204.356 1252.09L708.439 1251.16C870.832 1251.16 1031.59 1153.86 1031.59 1045.44M705.398 27.2338C901.531 27.2339 1031.59 119.978 1031.59 279.622M1031.59 279.622V1045.44M1031.59 279.622C1031.59 119.978 1161.66 27.2339 1357.79 27.2338" stroke="black" stroke-width="46" stroke-linecap="round"/>
</svg>
