<svg width="1378" height="1288" viewBox="0 0 1378 1288" fill="none" xmlns="http://www.w3.org/2000/svg">
<path d="M1349.46 1232.93C1203.96 1314.5 1016.02 1236.67 1053.36 1029.47C1083.16 864.145 1319.72 538.251 1347.1 402.166C1389.42 191.819 1232.7 33.2127 1075.58 24.2679C904.224 14.5126 759.72 111.131 740.541 248.759C715.724 111.131 565.161 23 402.714 23H243.015C178.083 23 181.872 99.8512 243.015 136.303C456.906 263.819 610.189 421.947 719.876 607.049C847.546 822.5 775.977 1158.7 525.65 1240.42C261.585 1326.62 34.2414 1171.01 23.7672 975.24C4.06795 607.051 368.491 607.049 570.298 724.985" stroke="black" stroke-width="46" stroke-linecap="round"/>
</svg>
