<svg preserveAspectRatio="none" width="100%" height="100%" overflow="visible" style="display: block;" viewBox="0 0 626.996 95.2509" fill="none" xmlns="http://www.w3.org/2000/svg">
<g id="g8">
<g id="g10">
<path id="path12" d="M157.531 10.8433H157.708L160.196 19.0628H154.992L157.531 10.8433ZM154.439 20.8468H160.723L161.652 23.9135H164.291L159.138 8.50644L156.326 8.58016L150.996 23.9135H153.484L154.439 20.8468Z" fill="var(--fill-0, #F4F4E8)"/>
</g>
<path id="path24" d="M170.803 24.189C171.909 24.189 173.192 24.1116 174.298 23.6619L174.397 21.701C173.443 21.9517 172.411 22.1544 171.555 22.1544C169.443 22.1544 167.611 20.8717 167.611 17.6281C167.611 15.8184 168.091 14.6389 168.791 13.8833C169.37 13.4557 170.125 13.2309 171.054 13.2309C172.082 13.2309 173.067 13.4078 174.069 13.6584L174.22 11.7233C173.391 11.3437 172.363 11.1926 171.279 11.1926C167.634 11.1926 165.194 13.7063 165.194 17.853C165.194 21.9996 167.858 24.1853 170.8 24.1853" fill="var(--fill-0, #F4F4E8)"/>
<path id="path28" d="M183.999 20.7206C183.07 21.7268 181.913 22.1544 180.906 22.1544C179.473 22.1544 178.721 21.3251 178.721 20.0903C178.721 19.4895 178.82 18.9366 179.123 18.4833C180.077 17.9525 181.183 17.9304 182.263 17.9304C182.915 17.9304 183.42 17.9562 183.995 18.0078V20.7206H183.999ZM182.543 16.3233C181.161 16.3233 179.528 16.4228 178.47 17.0015C177.213 17.606 176.432 18.8592 176.432 20.47C176.432 22.0807 177.515 24.0895 180.202 24.0895C181.658 24.0895 182.941 23.5108 184.025 22.4566L184.176 22.5046L184.353 23.9126H186.365V15.693C186.365 12.6006 184.707 11.1926 181.666 11.1926C180.21 11.1926 178.699 11.469 177.342 11.8966L177.191 13.8317C178.548 13.4299 180.081 13.1793 181.29 13.1793C183.579 13.1793 184.028 14.1597 184.028 16.1206V16.3712C183.549 16.3233 183.096 16.3233 182.543 16.3233Z" fill="var(--fill-0, #F4F4E8)"/>
<path id="path32" d="M197.449 20.801C196.292 22.0321 195.186 22.1574 194.659 22.1574C192.598 22.1574 191.566 20.5245 191.566 17.7343C191.566 15.9467 192.02 14.4907 192.923 13.6872C193.726 13.2855 194.456 13.1343 195.359 13.1343C196.063 13.1343 196.767 13.2338 197.445 13.4366V20.801H197.449ZM199.786 6.21959L197.449 6.52184V11.472C196.823 11.2951 196.244 11.2214 195.588 11.2214C192.193 11.2214 189.152 13.4587 189.152 18.1324C189.152 22.0026 191.187 24.1146 193.903 24.1146C195.061 24.1146 196.391 23.7128 197.471 22.5813L197.648 22.655L197.825 23.9119H199.786V6.21959Z" fill="var(--fill-0, #F4F4E8)"/>
<path id="path36" d="M206.296 13.7576C206.949 13.2048 207.83 13.0278 208.534 13.0278C210.318 13.0278 211.198 14.1852 211.272 16.57H205.216C205.367 15.2136 205.817 14.3584 206.296 13.754M208.887 24.1887C209.942 24.1887 211.427 24.0118 212.758 23.5105L212.883 21.7265C211.549 22.1283 210.244 22.2794 209.212 22.2794C206.775 22.2794 205.316 21.0999 205.19 18.1328H213.41C213.561 17.4288 213.561 16.8759 213.561 16.2235C213.561 12.932 211.626 11.1959 208.633 11.1959C204.837 11.1959 202.828 14.0378 202.828 17.8306C202.828 21.8777 205.143 24.1887 208.887 24.1887Z" fill="var(--fill-0, #F4F4E8)"/>
<path id="path40" d="M218.739 14.2624C219.996 13.5326 221.128 13.282 222.005 13.282C223.49 13.282 224.217 13.9123 224.217 15.5193V23.9121H226.553V15.0917C226.553 14.7637 226.553 14.4873 226.502 14.2366C227.81 13.5326 228.916 13.282 229.845 13.282C231.327 13.282 232.031 13.9123 232.031 15.5193V23.9121H234.367V15.0659C234.367 12.3531 233.162 11.2437 230.873 11.2437C229.063 11.2437 227.431 11.9735 226.225 12.6996L226.048 12.6222C225.496 11.6159 224.489 11.24 223.033 11.24C221.426 11.24 219.993 11.8924 218.835 12.6738L218.658 12.6222L218.581 11.3137L216.395 11.5901V23.9047H218.732V14.2514L218.739 14.2624Z" fill="var(--fill-0, #F4F4E8)"/>
<path id="path44" d="M247.648 11.5483H245.182L242.292 21.5518H242.09L238.82 11.5483H236.233L240.958 23.7891V23.966L238.57 28.7429H241.083L243.42 23.6896L247.644 11.5483H247.648Z" fill="var(--fill-0, #F4F4E8)"/>
<path id="path48" d="M257.224 14.1868C257.928 13.457 258.581 13.1289 259.79 13.1289C261.751 13.1289 263.207 14.5112 263.207 17.6257C263.207 19.1849 262.904 20.3902 262.429 21.2453C261.751 21.9493 260.896 22.3031 259.867 22.3031C257.63 22.3031 256.321 20.7698 256.321 17.7289C256.321 16.273 256.624 15.0898 257.228 14.1868M259.539 24.2161C263.236 24.2161 265.647 21.5512 265.647 17.353C265.647 13.5823 263.185 11.2197 260.092 11.2197C256.273 11.2197 253.911 13.8588 253.911 18.057C253.911 21.8535 256.321 24.2161 259.539 24.2161Z" fill="var(--fill-0, #F4F4E8)"/>
<path id="path52" d="M269.213 23.9155H271.55V13.385H274.992L275.118 11.5494H271.55V9.7138C271.55 9.23832 271.598 8.81076 271.701 8.45691C272.051 8.18047 272.556 8.02935 273.26 8.02935C274.038 8.02935 274.793 8.12887 275.42 8.23207L275.748 6.34489C274.944 6.16797 274.115 6.09425 273.437 6.09425C270.846 6.09425 269.213 7.17422 269.213 10.016V11.5494L267.127 11.7263L267.053 13.385H269.213V23.9155Z" fill="var(--fill-0, #F4F4E8)"/>
<path id="path56" d="M287.338 10.8431H287.515L290.003 19.0626H284.798L287.338 10.8431ZM284.249 20.8466H290.534L291.462 23.9132H294.101L288.949 8.50621L286.136 8.57993L280.806 23.9132H283.294L284.249 20.8466Z" fill="var(--fill-0, #F4F4E8)"/>
<path id="path60" d="M298.274 14.6373C299.328 13.7822 300.184 13.5315 301.19 13.5315C301.617 13.5315 302.045 13.5831 302.52 13.6826L302.697 11.5448C302.244 11.3679 301.816 11.2942 301.389 11.2942C300.36 11.2942 299.354 11.8213 298.348 12.9786L298.197 12.927L298.145 11.3163L295.934 11.5927V23.9073H298.271V14.6336L298.274 14.6373Z" fill="var(--fill-0, #F4F4E8)"/>
<path id="path64" d="M305.664 21.5763C305.664 23.3087 306.394 24.0643 308.532 24.0643C309.21 24.0643 309.991 23.939 310.743 23.7142L310.769 21.8528C310.039 21.9781 309.486 22.0039 309.059 22.0039C308.731 22.0039 308.381 21.9781 308.005 21.9265V13.3826H310.821L310.972 11.547L308.005 11.5212V8.25553L306.095 8.50617L305.793 11.4954L303.906 11.5949L303.806 13.3531H305.668V21.5727L305.664 21.5763Z" fill="var(--fill-0, #F4F4E8)"/>
<path id="path68" d="M316.725 22.3534C315.77 22.3534 314.539 22.077 313.154 21.3988L312.726 23.2602C313.883 23.8389 315.063 24.1632 316.471 24.1632C319.689 24.1632 321.296 22.453 321.296 20.4921C321.296 16.7472 315.137 16.268 315.137 14.2334C315.137 13.8575 315.313 13.5552 315.641 13.3046C316.043 13.1055 316.747 12.9544 317.477 12.9544C318.281 12.9544 319.386 13.1277 320.592 13.6805L320.993 11.8192C319.836 11.3916 318.756 11.1926 317.676 11.1926C314.963 11.1926 312.951 12.4752 312.951 14.5357C312.951 18.1552 319.007 18.38 319.007 20.8459C319.007 21.2735 318.83 21.6494 318.553 21.9259C318.078 22.2281 317.422 22.3534 316.718 22.3534" fill="var(--fill-0, #F4F4E8)"/>
<path id="path72" d="M331.506 16.572L329.294 16.6974C329.143 18.157 329.069 19.565 329.069 20.6707V23.9143H331.506V16.5757V16.572Z" fill="var(--fill-0, #F4F4E8)"/>
<path id="path76" d="M337.159 12.8542C337.258 13.5582 337.258 14.3396 337.258 15.1174V23.9156H339.72V14.8188C339.72 11.2509 338.792 10.698 333.738 10.698C332.08 10.698 330.244 10.7754 328.685 10.9228L328.836 12.9095C330.469 12.7842 332.408 12.7068 333.889 12.7068C335.146 12.7068 336.252 12.7326 337.159 12.8579" fill="var(--fill-0, #F4F4E8)"/>
<path id="path80" d="M343.746 12.8037V18.5353H346.183V12.9069C346.183 11.0714 345.63 10.7691 343.72 10.7691C343.116 10.7691 342.364 10.7691 341.734 10.7949L341.936 12.8074H343.746V12.8037Z" fill="var(--fill-0, #F4F4E8)"/>
<path id="path84" d="M351.414 23.9154L352.269 13.6612C353.851 12.9572 355.384 12.8061 356.541 12.8061C357.142 12.8061 357.595 12.8319 357.997 12.9056C358.123 13.8861 358.122 14.8665 358.122 15.8949V21.8034H354.378V23.9154H360.537V15.4931C360.537 11.575 359.859 10.6941 356.943 10.6941C355.133 10.6941 353.548 11.07 351.739 12.0505L351.259 10.6167L349.022 10.7678L349.977 13.6833L348.919 23.9117H351.407L351.414 23.9154Z" fill="var(--fill-0, #F4F4E8)"/>
<path id="path88" d="M369.085 12.8032C368.882 14.285 368.782 15.7667 368.782 18.1072V23.9383H371.27V12.877L373.054 12.7V10.8165H362.623L362.774 12.8032H369.085Z" fill="var(--fill-0, #F4F4E8)"/>
<path id="path92" d="M384.546 12.9822L380.473 23.9146H382.961L386.883 12.7279L386.632 10.7928H375.398L375.549 12.8053H384.472L384.546 12.9822Z" fill="var(--fill-0, #F4F4E8)"/>
<path id="path96" d="M378.083 16.0707L375.897 16.1223C375.721 17.6298 375.647 19.4138 375.647 20.5711V28.7649H378.087V16.0707H378.083Z" fill="var(--fill-0, #F4F4E8)"/>
<path id="path100" d="M399.852 14.4087L400.18 10.7891H397.74L397.563 13.8816C397.511 15.2638 397.135 16.6718 396.656 17.5011L396.479 17.5785C394.669 15.367 392.76 12.9269 390.773 10.6675L388.061 10.8665C389.041 11.9244 390.047 13.0781 391.028 14.2096V14.3349C390.073 15.566 389.469 17.1731 389.27 19.1856L388.842 23.9109H391.304L391.555 19.9375C391.629 18.5295 391.905 17.1473 392.333 15.9936L392.458 15.9678C394.319 18.2789 396.479 21.0728 398.514 23.9109H401.079V23.6345C400.021 22.0753 398.967 20.6452 397.887 19.2114C398.945 18.0798 399.675 16.3474 399.848 14.4087" fill="var(--fill-0, #F4F4E8)"/>
<path id="path104" d="M47.7872 55.8379C47.0574 55.8121 46.2539 55.9153 45.6273 56.166C45.6789 56.8442 45.8521 57.5224 46.0806 58.3038L47.9899 58.0273L47.7872 55.8416V55.8379Z" fill="var(--fill-0, #F4F4E8)"/>
<path id="path108" d="M43.8915 55.8379C43.1617 55.8121 42.3582 55.9153 41.7316 56.166C41.7832 56.8442 41.9564 57.5224 42.1849 58.3038L44.0942 58.0273L43.8915 55.8416V55.8379Z" fill="var(--fill-0, #F4F4E8)"/>
<path id="path112" d="M90.0941 42.8642L89.8914 40.6785C89.1616 40.6527 88.3581 40.7559 87.7315 41.0065C87.7831 41.6884 87.9563 42.363 88.1849 43.1444L90.0941 42.8679V42.8642Z" fill="var(--fill-0, #F4F4E8)"/>
<path id="path116" d="M93.8885 42.8642L93.6858 40.6785C92.956 40.6527 92.1525 40.7559 91.5222 41.0065C91.5738 41.6884 91.747 42.363 91.9755 43.1444L93.8848 42.8679L93.8885 42.8642Z" fill="var(--fill-0, #F4F4E8)"/>
<path id="path120" d="M75.8892 51.9401C74.9087 51.9401 73.626 51.8885 72.2438 51.5641L72.1922 51.3872C74.9308 47.7935 76.9175 46.0574 78.4767 46.0574C80.7361 46.0574 82.1699 48.4459 82.1441 50.5321C80.4855 51.5125 77.8206 51.9401 75.8855 51.9401M57.4155 51.8406C56.1844 51.8406 54.8022 51.4904 53.8217 50.5837C54.8022 47.5649 55.7089 46.2343 57.1132 46.2343C58.5176 46.2343 59.3506 47.4654 60.3568 50.6316C59.5791 51.4609 58.4696 51.8369 57.4155 51.8369M33.9621 52.0396C32.6057 52.0396 31.0724 51.7374 29.915 51.4609C30.619 48.5196 31.5995 46.485 33.3097 46.485C35.02 46.485 35.5213 48.1952 36.6528 51.413C35.7719 51.918 34.8689 52.0396 33.9658 52.0396M98.9666 52.7952C99.748 52.1907 100.249 51.3393 100.275 49.7544L100.452 35.4273L97.9898 35.6779L98.1151 50.8859C97.26 51.4646 96.556 51.6415 95.476 51.6415C94.0938 51.6415 92.7853 51.3651 91.8307 50.838L92.0076 44.9811L89.7703 45.1322L89.5454 50.8638C88.565 51.3909 87.5587 51.6452 85.9775 51.6452C85.9738 51.6452 85.9701 51.6452 85.9627 51.6452C85.959 51.6452 85.9553 51.6452 85.948 51.6452C85.3472 51.6452 84.669 51.5678 83.8618 51.4167C84.0645 51.0665 84.164 50.6132 84.164 50.0861C84.164 47.447 82.2289 43.7279 78.9374 43.7279C76.4236 43.7279 73.5818 46.3928 70.3898 50.9928L69.0592 50.3146L69.7116 46.6435L67.5996 46.7172L67.1462 49.6327C66.8698 51.2656 66.0147 51.5936 64.2565 51.6452C64.2565 51.6452 64.2491 51.6452 64.2454 51.6452C64.2418 51.6452 64.2344 51.6452 64.2307 51.6452C63.0475 51.6452 62.5462 50.8638 62.1445 49.758C61.0387 46.5661 60.2094 43.9012 57.445 43.9012C54.6805 43.9012 53.5232 46.3375 52.0414 50.3588C51.4886 51.3393 50.7588 51.6415 49.9036 51.6415C48.5214 51.6415 47.2166 51.3651 46.2583 50.838L46.4352 44.9811L44.1979 45.1322L43.973 50.8638C42.9926 51.3909 41.9863 51.6452 40.4051 51.6452C39.0229 51.6452 38.5179 50.8417 38.2673 50.1377C37.3863 47.5502 36.3801 44.1555 33.5419 44.1555C30.7038 44.1555 29.27 47.2479 28.2379 51.0923C27.9357 51.0149 27.7109 50.9928 27.5597 50.9928C26.9073 51.0665 26.3028 51.8479 26.3028 52.5261C26.3028 53.2523 26.3286 54.0079 26.3508 55.0399L26.6272 61.3723H28.9383L28.2601 53.3039L28.3854 53.2044C29.845 53.783 31.8059 54.2327 33.6636 54.2327C35.5213 54.2327 36.6528 53.7794 37.508 53.0016H37.6591C38.2378 53.6319 39.0671 53.9563 40.3977 53.9563C42.0822 53.9563 43.7666 53.5545 45.0972 52.5225H45.2741C46.5052 53.5029 48.116 53.9563 49.8999 53.9563C51.1568 53.9305 51.9604 53.6798 52.8671 52.4967H53.0698C54.124 53.5029 55.4841 54.2069 57.268 54.2069C58.5249 54.2069 59.8076 53.8052 61.0387 52.3971H61.2414C62.0192 53.5766 62.9996 53.9563 64.2307 53.9563C64.2344 53.9563 64.2381 53.9563 64.2417 53.9563C64.2454 53.9563 64.2491 53.9563 64.2528 53.9563C65.9115 53.9563 67.3453 53.5029 68.2483 52.246H68.451C70.5373 53.654 73.1506 54.1332 75.5132 54.1332C78.0528 54.1332 80.4892 53.6282 82.0741 52.8763H82.2768C83.5853 53.7056 84.8164 53.9563 85.9443 53.9563C85.948 53.9563 85.9517 53.9563 85.959 53.9563C85.9627 53.9563 85.9701 53.9563 85.9738 53.9563C87.6582 53.9563 89.3427 53.5545 90.6733 52.5225H90.8502C92.0813 53.5029 93.692 53.9563 95.476 53.9563C96.9098 53.9563 98.1151 53.5545 98.9702 52.7989" fill="var(--fill-0, #F4F4E8)"/>
<path id="path124" d="M105.199 53.9513H107.359L107.51 35.5255L105.1 35.7504L105.199 53.9476V53.9513Z" fill="var(--fill-0, #F4F4E8)"/>
<path id="path128" d="M115.959 51.6648C113.873 51.6648 112.966 50.9866 112.793 50.3305C112.819 48.8488 114.075 46.7626 115.708 46.7626C117.341 46.7626 118.399 48.5207 118.572 51.2851C117.868 51.5137 116.939 51.6648 115.959 51.6648ZM114.123 57.0941C113.346 57.0941 112.288 56.9946 111.333 56.6407L111.057 58.6532C111.886 59.055 113.065 59.3573 114.249 59.3573C118.222 59.3573 120.533 56.0657 120.533 51.6169C120.533 47.168 118.218 44.4552 115.933 44.4552C113.497 44.4552 111.057 47.5698 111.057 50.1868C111.057 52.601 112.966 53.7068 115.38 53.7068C116.261 53.7068 117.466 53.5557 118.546 53.1281C118.27 55.7156 116.91 57.0978 114.123 57.0978" fill="var(--fill-0, #F4F4E8)"/>
<path id="path132" d="M138.682 47.0169L139.537 54.0275C138.38 55.6604 136.648 56.2648 134.635 56.2648C131.594 56.2648 130.061 54.8568 130.061 51.9155C130.061 50.8355 130.264 49.7298 130.614 48.4987L128.83 48.1227C128.177 49.833 127.949 51.3147 127.949 52.52C127.949 56.5155 130.536 58.6275 134.333 58.6275C138.129 58.6275 141.373 56.5155 141.373 52.7964C141.373 51.7939 141.17 49.2285 140.894 46.7147L138.682 47.0169Z" fill="var(--fill-0, #F4F4E8)"/>
<path id="path136" d="M135.516 45.3338L135.317 43.148C134.587 43.1222 133.784 43.2254 133.157 43.4761C133.205 44.158 133.382 44.8325 133.611 45.6139L135.52 45.3375L135.516 45.3338Z" fill="var(--fill-0, #F4F4E8)"/>
<path id="path140" d="M159.444 43.1407L161.353 42.8642L161.154 40.6785C160.424 40.6527 159.621 40.7559 158.994 41.0065C159.042 41.6884 159.219 42.363 159.448 43.1444" fill="var(--fill-0, #F4F4E8)"/>
<path id="path144" d="M170.303 40.4578L172.213 40.1814L172.01 37.9956C171.28 37.9698 170.477 38.0694 169.846 38.3237C169.898 39.0019 170.071 39.6801 170.3 40.4615" fill="var(--fill-0, #F4F4E8)"/>
<path id="path148" d="M170.782 50.5321C169.323 49.7028 168.268 48.4717 168.117 47.1632C168.42 45.8805 169.728 44.7268 171.007 44.7268C172.286 44.7268 173.62 45.4824 174.048 47.9446C173.396 49.0504 172.389 49.8797 170.956 50.5358H170.779L170.782 50.5321ZM149.743 51.789C147.657 51.789 146.201 51.4351 145.998 50.1782C146.124 48.8218 147.082 46.9346 148.663 46.9346C150.399 46.9346 151.505 49.1462 151.63 51.7853H149.743V51.789ZM189.687 52.7952C190.465 52.1907 190.966 51.3393 190.996 49.7544L191.173 35.4273L188.71 35.6779L188.836 50.8859C187.981 51.4646 187.277 51.6415 186.197 51.6415C184.94 51.6415 183.76 51.3393 182.854 50.7864L183.005 35.4531L180.543 35.7037L180.642 50.8085C179.735 51.3872 178.806 51.6379 177.351 51.6379H175.415C174.66 51.6379 173.908 51.5604 173.178 51.4093L173.079 51.3098C174.711 50.1303 175.743 48.7702 175.743 47.388C175.743 45.1507 173.934 42.3863 171.295 42.3863C168.807 42.3863 166.418 45.1028 166.418 47.4654C166.418 48.7481 167.122 50.1303 168.405 51.2361L168.305 51.3356C167.273 51.5125 166.145 51.6379 164.863 51.6379C163.481 51.6379 162.172 51.3614 161.217 50.8343L161.394 44.9774L159.157 45.1286L158.932 50.8601C157.952 51.3872 156.945 51.6415 155.364 51.6415C155.36 51.6415 155.357 51.6415 155.349 51.6415C155.346 51.6415 155.342 51.6415 155.338 51.6415H153.58C153.381 46.813 151.118 44.6273 149.058 44.6273C146.57 44.6273 144.281 47.4912 144.281 50.2814C144.281 52.7215 146.164 53.8752 149.408 53.8752H151.52C151.144 56.013 149.658 57.0672 147.17 57.0672C146.389 57.0672 145.309 56.916 144.38 56.6138L144.13 58.6226C144.907 59.0244 146.09 59.3266 147.27 59.3266C150.639 59.3266 152.799 57.0893 153.403 53.9489H155.338C155.338 53.9489 155.346 53.9489 155.349 53.9489C155.353 53.9489 155.357 53.9489 155.364 53.9489C157.049 53.9489 158.733 53.5471 160.064 52.5151H160.241C161.472 53.4955 163.082 53.9489 164.866 53.9489C166.853 53.9489 168.814 53.4955 170.495 52.8173H170.697C172.585 53.7241 174.667 53.9231 177.358 53.9489C178.917 53.9489 180.476 53.5693 181.755 52.4635H181.932C183.112 53.4697 184.671 53.9489 186.204 53.9489C187.638 53.9489 188.843 53.5471 189.698 52.7915" fill="var(--fill-0, #F4F4E8)"/>
<path id="path152" d="M207.531 38.2185L209.44 37.9421L209.237 35.7563C208.508 35.7305 207.704 35.8338 207.078 36.0844C207.129 36.7626 207.302 37.4408 207.531 38.2222" fill="var(--fill-0, #F4F4E8)"/>
<path id="path156" d="M203.739 38.2185L205.648 37.9421L205.445 35.7563C204.715 35.7305 203.912 35.8338 203.285 36.0844C203.333 36.7626 203.51 37.4408 203.739 38.2222" fill="var(--fill-0, #F4F4E8)"/>
<path id="path160" d="M213.842 55.8379C213.112 55.8121 212.308 55.9153 211.678 56.166C211.729 56.8442 211.903 57.5224 212.131 58.3038L214.041 58.0273L213.842 55.8416V55.8379Z" fill="var(--fill-0, #F4F4E8)"/>
<path id="path164" d="M217.737 55.8379C217.011 55.8121 216.204 55.9153 215.577 56.166C215.629 56.8442 215.802 57.5224 216.03 58.3038L217.94 58.0273L217.737 55.8416V55.8379Z" fill="var(--fill-0, #F4F4E8)"/>
<path id="path168" d="M227.063 46.2339C228.471 46.2339 229.3 47.465 230.306 50.6311C229.528 51.4605 228.423 51.8364 227.365 51.8364C226.134 51.8364 224.751 51.4863 223.771 50.5795C224.751 47.5608 225.658 46.2302 227.063 46.2302M203.738 49.1015C202.43 49.1015 201.401 48.8767 201.047 47.9957C201.35 46.0606 202.784 44.601 205.773 43.7975L205.998 48.8509C205.242 49.0536 204.413 49.1015 203.734 49.1015M230.984 52.393H231.187C231.965 53.5725 232.945 53.9521 234.18 53.9521C234.184 53.9521 234.187 53.9521 234.191 53.9521C234.195 53.9521 234.198 53.9521 234.202 53.9521C236.24 53.9521 237.973 53.473 238.953 52.6694C239.757 52.065 240.159 51.1877 240.159 49.6544C240.159 48.7477 240.033 45.9058 239.83 44.0739L237.542 44.3025L238.146 50.8376C236.989 51.4384 235.732 51.6411 234.198 51.6411C234.195 51.6411 234.191 51.6411 234.187 51.6411C234.184 51.6411 234.18 51.6411 234.176 51.6411C232.993 51.6411 232.492 50.8597 232.09 49.7539C230.984 46.5619 230.155 43.897 227.391 43.897C224.626 43.897 223.469 46.3334 221.987 50.3547C221.434 51.3352 220.704 51.6374 219.849 51.6374C218.467 51.6374 217.159 51.361 216.204 50.8339L216.381 44.977L214.143 45.1281L213.919 50.8597C212.938 51.3868 211.932 51.6411 210.347 51.6411C208.46 51.6411 208.036 51.1361 207.959 49.2268L207.682 40.0784L205.544 40.3549L205.618 41.7629C200.543 43.3957 199.334 46.2892 199.334 48.1727C199.334 49.8571 200.716 51.2135 203.583 51.2135C204.262 51.2135 205.216 51.1619 206.145 50.8855L206.322 50.9592C206.676 53.097 207.83 53.9521 210.343 53.9521C212.028 53.9521 213.712 53.5504 215.043 52.5183H215.22C216.451 53.4988 218.062 53.9521 219.846 53.9521C221.102 53.9263 221.906 53.6757 222.813 52.4925H223.012C224.066 53.4988 225.426 54.2028 227.21 54.2028C228.467 54.2028 229.75 53.801 230.981 52.393" fill="var(--fill-0, #F4F4E8)"/>
<path id="path172" d="M238.501 56.1657C238.552 56.8439 238.726 57.5221 238.954 58.3035L240.863 58.027L240.661 55.8413C239.931 55.8155 239.127 55.9187 238.501 56.1693" fill="var(--fill-0, #F4F4E8)"/>
<path id="path176" d="M235.057 58.3001L236.966 58.0236L236.764 55.8379C236.034 55.8121 235.23 55.9153 234.6 56.166C234.652 56.8442 234.825 57.5224 235.053 58.3038" fill="var(--fill-0, #F4F4E8)"/>
<path id="path180" d="M246.948 54.2013C250.417 54.2013 253.056 52.4652 253.056 49.9294C253.056 47.3935 251.371 43.468 247.777 40.8068L246.244 42.6903C249.086 44.9055 250.944 47.7436 251.146 50.4343C250.066 51.6396 248.456 51.8644 247.125 51.8644C245.794 51.8644 244.689 51.588 244.689 50.8066C244.689 50.6555 244.714 50.4306 244.74 50.18L242.982 50.0031C242.857 50.4785 242.757 51.0351 242.757 51.4885C242.757 53.6484 245.02 54.2013 246.955 54.2013" fill="var(--fill-0, #F4F4E8)"/>
<path id="path184" d="M269.14 52.6975C270.021 52.1704 270.548 51.4922 270.548 50.3864C270.548 48.5508 268.889 44.8834 265.192 41.8904V41.6914L271.174 37.6701L270.972 35.2816L262.579 41.415V43.022L263.862 43.6744C266.674 46.1624 268.108 48.4255 268.712 50.6371C266.954 51.5659 264.868 51.6433 261.525 51.6433C261.521 51.6433 261.517 51.6433 261.514 51.6433C261.51 51.6433 261.506 51.6433 261.499 51.6433C259.741 51.6433 259.037 51.3153 259.037 49.8077V35.5286L256.623 35.7792L256.847 50.0326C256.873 52.9997 258.156 53.9544 261.499 53.9544C261.503 53.9544 261.506 53.9544 261.514 53.9544C261.521 53.9544 261.521 53.9544 261.525 53.9544C265.295 53.9544 267.581 53.6779 269.14 52.6975Z" fill="var(--fill-0, #F4F4E8)"/>
<path id="path188" d="M276.384 53.9546L276.484 38.5439L273.996 38.8203L274.272 53.9509H276.384V53.9546Z" fill="var(--fill-0, #F4F4E8)"/>
<path id="path192" d="M275.429 33.2919C275.857 33.2919 276.336 33.3693 276.76 33.5683L276.962 32.1087C276.483 31.8581 276.008 31.7585 275.554 31.7585C274.069 31.7585 273.166 32.9159 273.166 34.0696C273.166 34.722 273.494 35.3007 274.095 35.802L272.661 36.0047V37.21L277.991 36.6571V35.2491L276.531 35.4481C275.352 35.0464 274.445 34.4935 274.294 33.8669C274.545 33.5388 274.92 33.2882 275.425 33.2882" fill="var(--fill-0, #F4F4E8)"/>
<path id="path196" d="M287.267 50.131C287.267 49.5266 287.366 48.9737 287.669 48.5203C288.623 47.9932 289.729 47.9674 290.813 47.9674C291.465 47.9674 291.97 47.9932 292.545 48.0411V50.7577C291.616 51.7639 290.459 52.1878 289.453 52.1878C288.019 52.1878 287.267 51.3584 287.267 50.1274M292.571 52.4937L292.722 52.5453L292.899 53.9533H294.911V45.7338C294.911 42.6413 293.253 41.237 290.212 41.237C288.756 41.237 287.245 41.5134 285.888 41.941L285.737 43.8761C287.094 43.4743 288.627 43.2237 289.836 43.2237C292.125 43.2237 292.575 44.2041 292.575 46.165V46.4157C292.095 46.3641 291.642 46.3641 291.089 46.3641C289.707 46.3641 288.074 46.4636 287.016 47.046C285.759 47.6468 284.982 48.9073 284.982 50.5144C284.982 52.1214 286.065 54.1339 288.752 54.1339C290.208 54.1339 291.491 53.5552 292.575 52.5011" fill="var(--fill-0, #F4F4E8)"/>
<path id="path200" d="M306.57 53.9531H308.907V45.1033C308.907 42.3868 307.676 41.281 305.365 41.281C303.555 41.281 302.095 41.985 300.942 42.7148L300.765 42.6632L300.687 41.3547L298.501 41.6312V53.9494H300.838V44.3477C302.195 43.57 303.352 43.3156 304.307 43.3156C305.814 43.3156 306.57 43.9459 306.57 45.553V53.9494V53.9531Z" fill="var(--fill-0, #F4F4E8)"/>
<path id="path204" d="M315.472 43.7215C316.279 43.3197 317.005 43.1686 317.912 43.1686C318.616 43.1686 319.32 43.2681 319.998 43.4708V50.8353C318.841 52.0663 317.735 52.1917 317.208 52.1917C315.148 52.1917 314.115 50.5588 314.115 47.7686C314.115 45.9846 314.569 44.525 315.472 43.7215ZM316.452 54.1526C317.61 54.1526 318.94 53.7508 320.02 52.6192L320.197 52.6929L320.374 53.9498H322.335V36.2539L319.998 36.5561V41.5099C319.372 41.333 318.793 41.2593 318.137 41.2593C314.742 41.2593 311.701 43.4966 311.701 48.1704C311.701 52.0405 313.736 54.1526 316.452 54.1526Z" fill="var(--fill-0, #F4F4E8)"/>
<path id="path208" d="M333.821 40.5034C334.551 40.4039 335.229 40.4039 335.985 40.4039C339.151 40.4039 341.112 41.7603 341.112 45.9364C341.112 48.9036 340.231 50.6618 338.373 51.7675C337.544 51.9924 336.814 52.044 336.085 52.044C335.355 52.044 334.603 52.0182 333.821 51.9444V40.5071V40.5034ZM343.674 45.6821C343.674 39.7478 339.726 38.3914 336.284 38.3914C335.226 38.3914 333.696 38.3914 331.381 38.6679V53.9238C333.316 54.0491 334.448 54.1007 335.83 54.1007C340.806 54.1007 343.67 51.2589 343.67 45.6784" fill="var(--fill-0, #F4F4E8)"/>
<path id="path212" d="M349.331 43.8024C349.984 43.2495 350.865 43.0726 351.569 43.0726C353.353 43.0726 354.234 44.2262 354.307 46.6147H348.251C348.403 45.2583 348.852 44.4032 349.331 43.7987M355.918 51.7676C354.587 52.1693 353.279 52.3205 352.251 52.3205C349.811 52.3205 348.355 51.141 348.229 48.1738H356.449C356.6 47.4698 356.6 46.9169 356.6 46.2645C356.6 42.973 354.665 41.237 351.672 41.237C347.875 41.237 345.867 44.0751 345.867 47.8716C345.867 51.9187 348.181 54.2298 351.926 54.2298C352.98 54.2298 354.466 54.0528 355.796 53.5516L355.922 51.7676H355.918Z" fill="var(--fill-0, #F4F4E8)"/>
<path id="path216" d="M367.203 50.5365C367.203 46.7916 361.044 46.3125 361.044 44.2778C361.044 43.9019 361.221 43.5996 361.545 43.349C361.947 43.1463 362.651 42.9952 363.381 42.9952C364.184 42.9952 365.29 43.1721 366.495 43.725L366.897 41.8636C365.74 41.436 364.66 41.237 363.58 41.237C360.867 41.237 358.854 42.516 358.854 44.5801C358.854 48.1996 364.91 48.4282 364.91 50.8903C364.91 51.3179 364.733 51.6939 364.457 51.9703C363.982 52.2726 363.325 52.3979 362.621 52.3979C361.667 52.3979 360.436 52.1214 359.053 51.4432L358.626 53.3046C359.783 53.8833 360.963 54.2113 362.371 54.2113C365.589 54.2113 367.196 52.5011 367.196 50.5402" fill="var(--fill-0, #F4F4E8)"/>
<path id="path220" d="M370.369 37.1374C370.395 38.0183 370.468 38.7444 370.62 39.6253L372.909 39.5774L373.06 37.0636C372.105 36.9862 371.073 37.0378 370.369 37.1374Z" fill="var(--fill-0, #F4F4E8)"/>
<path id="path224" d="M373.133 53.9521V41.5859H369.008L368.909 43.3441L370.818 43.4436V53.9521H373.133Z" fill="var(--fill-0, #F4F4E8)"/>
<path id="path228" d="M377.959 55.256C377.959 54.4267 378.386 53.7227 379.116 52.9671L380.447 53.1956C382.935 53.5237 385.021 53.649 385.021 55.2044C385.021 56.5129 383.388 57.4676 381.35 57.4676C379.488 57.4676 377.955 56.7894 377.955 55.256M379.341 43.369C380.071 43.0152 380.624 42.9415 381.125 42.9415C382.96 42.9415 383.738 43.9956 383.738 45.5548C383.738 46.5352 383.384 47.2134 382.857 47.6926C382.304 47.969 381.726 48.0427 381.247 48.0427C379.337 48.0427 378.434 46.9849 378.434 45.529C378.434 44.648 378.784 43.944 379.337 43.369M387.059 54.729C387.059 52.1157 384.497 51.6881 381.025 51.1868C380.472 51.1094 380.045 51.0615 379.164 50.8846L379.492 49.5024C379.894 49.6019 380.373 49.6277 380.826 49.6277C383.642 49.6277 386.079 48.1939 386.079 45.5068C386.079 44.4269 385.677 43.6197 384.848 43.0189V42.8419L387.513 42.9451L387.638 41.2607L383.064 41.4376C382.485 41.3381 381.932 41.2607 381.305 41.2607C378.39 41.2607 376.101 42.9931 376.101 45.7096C376.101 47.1692 376.779 48.1975 377.859 48.85V49.0527C377.354 49.7567 377.155 50.3096 377.155 50.9141C377.155 51.4669 377.332 51.8945 377.682 52.2705V52.4695C376.551 53.3983 375.847 54.4304 375.847 55.7389C375.847 58.4296 378.36 59.281 380.823 59.281C384.619 59.281 387.055 57.2685 387.055 54.7326" fill="var(--fill-0, #F4F4E8)"/>
<path id="path232" d="M400.056 53.9531V45.1033C400.056 42.3868 398.825 41.281 396.514 41.281C394.704 41.281 393.245 41.985 392.091 42.7148L391.914 42.6632L391.84 41.3547L389.654 41.6312V53.9494H391.991V44.3477C393.348 43.57 394.505 43.3156 395.46 43.3156C396.967 43.3156 397.723 43.9459 397.723 45.553V53.9494H400.06L400.056 53.9531Z" fill="var(--fill-0, #F4F4E8)"/>
<path id="path236" d="M24.1573 75.8606L24.8872 82.3957C23.1769 82.4731 21.544 82.0934 19.8854 81.3415L20.3609 76.7894L18.2489 76.8668L17.8213 81.6917C17.0178 82.1966 16.1147 82.322 15.3333 82.322C14.6551 82.322 14.0027 82.2224 13.3724 81.9939C13.295 80.737 13.1476 78.9789 12.9449 77.2428L10.7333 77.545L11.5885 84.5593C10.4311 86.1921 8.69871 86.7966 6.68621 86.7966C3.64535 86.7966 2.11202 85.3886 2.11202 82.4473C2.11202 81.3673 2.31106 80.2615 2.6649 79.0305L0.880929 78.6545C0.228525 80.3647 0 81.8465 0 83.0518C0 87.0473 2.5875 89.1593 6.38397 89.1593C9.85239 89.1593 12.8675 87.4011 13.3466 84.2571C13.9253 84.4561 14.5777 84.5851 15.208 84.5851C16.5644 84.5851 17.9724 84.1575 19.2035 83.1771H19.4025C20.8622 84.0322 22.2702 84.5851 24.0283 84.5851C25.0567 84.5851 25.7386 84.3345 26.0408 84.058C26.5421 83.6784 26.8186 82.9264 26.8186 81.946C26.8186 80.9656 26.5937 77.9505 26.3394 75.6615L24.1537 75.8606H24.1573Z" fill="var(--fill-0, #F4F4E8)"/>
<path id="path240" d="M45.9014 70.9866L47.8107 70.7101L47.608 68.5244C46.8782 68.4986 46.0746 68.6018 45.4444 68.8524C45.496 69.5306 45.6692 70.2088 45.8977 70.9903" fill="var(--fill-0, #F4F4E8)"/>
<path id="path244" d="M51.4071 68.521C50.6773 68.4952 49.8738 68.5984 49.2435 68.849C49.2951 69.5272 49.4684 70.2055 49.6969 70.9869L51.6062 70.7104L51.4071 68.5247V68.521Z" fill="var(--fill-0, #F4F4E8)"/>
<path id="path248" d="M48.2637 81.0612C46.8078 80.2319 45.7499 79.0008 45.5988 77.6923C45.901 76.4133 47.2095 75.2559 48.4885 75.2559C49.7675 75.2559 51.1018 76.0116 51.5294 78.4737C50.877 79.5795 49.8708 80.4088 48.4369 81.0612H48.26H48.2637ZM57.4637 81.4151C56.6086 81.9938 55.9046 82.1707 54.8246 82.1707H52.8895C52.1339 82.1707 51.382 82.097 50.6522 81.9458L50.5526 81.8426C52.1855 80.6632 53.2175 79.3067 53.2175 77.9245C53.2175 75.6872 51.4078 72.9228 48.7687 72.9228C46.2807 72.9228 43.8922 75.6393 43.8922 77.9983C43.8922 79.2809 44.5962 80.6632 45.8789 81.7689L45.7757 81.8684C44.7474 82.0454 43.6158 82.1707 42.3331 82.1707C42.3294 82.1707 42.3257 82.1707 42.3184 82.1707C42.3147 82.1707 42.311 82.1707 42.3073 82.1707C41.2273 82.1707 40.2211 81.8168 39.5171 79.7048L37.0033 72.2667L34.8434 72.5947L38.0095 81.2382L37.91 81.3635C36.4246 82.167 35.0203 82.4692 33.5091 82.4692C31.8246 82.4692 31.3491 82.0933 31.3491 81.264C31.3491 81.0612 31.3491 80.9617 31.4007 80.7111L29.6426 80.5341C29.4914 81.0354 29.4177 81.5625 29.4177 82.0417C29.4177 83.9768 30.6746 84.7803 33.1884 84.7803C35.7022 84.7803 37.4087 84.0026 38.7172 82.8931H38.92C39.7493 84.0247 40.8551 84.4781 42.311 84.4781C42.3147 84.4781 42.3184 84.4781 42.322 84.4781C42.3257 84.4781 42.3294 84.4781 42.3368 84.4781C44.3235 84.4781 46.2844 84.0247 47.9688 83.3465H48.1679C50.055 84.2532 52.1376 84.4523 54.8283 84.4781C56.2584 84.4781 57.4674 84.0763 58.3225 83.3207C59.1039 82.7162 59.6052 81.8648 59.631 80.2798L59.8079 65.9528L57.3457 66.2034L57.4711 81.4114L57.4637 81.4151Z" fill="var(--fill-0, #F4F4E8)"/>
<path id="path252" d="M64.5502 84.4836H66.7101L66.8612 66.0578L64.447 66.2863L64.5465 84.4836H64.5502Z" fill="var(--fill-0, #F4F4E8)"/>
<path id="path256" d="M85.3397 82.4441H78.8783V73.3694C80.161 73.2699 81.1894 73.2441 81.9708 73.2441C83.5041 73.2441 84.4846 73.2957 85.2402 73.3952C85.2881 74.0218 85.3397 74.7037 85.3397 75.7063V82.4441ZM81.5211 71.2611C79.8109 71.2611 77.85 71.3864 76.2171 71.5375L76.394 73.5242V84.4824H87.8056V75.9127C87.8056 71.7403 86.8988 71.2611 81.5211 71.2611Z" fill="var(--fill-0, #F4F4E8)"/>
<path id="path260" d="M91.8015 71.3424C91.1971 71.3424 90.4451 71.3424 89.8148 71.3682L90.0176 73.377H91.8274V79.1086H94.2637V73.4802C94.2637 71.6446 93.7108 71.3424 91.8015 71.3424Z" fill="var(--fill-0, #F4F4E8)"/>
<path id="path264" d="M98.4356 71.363L98.185 67.3417L95.9735 67.5923L96.1504 71.363L96.4526 73.3718H103.415L103.467 73.5487L98.5167 84.4848H101.156L105.933 73.1985L105.708 71.363H98.443H98.4356Z" fill="var(--fill-0, #F4F4E8)"/>
<path id="path268" d="M118.974 77.6211C118.572 81.5945 116.762 82.5491 113.596 82.5491C112.715 82.5491 111.912 82.5233 111.13 82.4238L110.854 79.8584C113.242 79.5562 115.078 78.6531 115.479 76.0398L116.283 71.3882H113.968L113.441 75.2105C113.165 77.1714 112.335 77.9012 110.876 78.1518H110.673L109.969 71.3661H107.606L108.79 81.8451C108.863 82.6007 108.967 83.3305 109.118 84.2336C110.551 84.5616 112.335 84.6353 113.743 84.6353C117.591 84.6353 120.581 83.2531 121.185 78.4025L122.04 71.3882H119.578L118.974 77.6211Z" fill="var(--fill-0, #F4F4E8)"/>
<path id="path272" d="M125.81 71.3424C125.184 71.3424 124.502 71.3424 123.875 71.3682L124.001 73.377H125.81V84.4863H128.273V73.5023C128.273 71.6925 127.72 71.3424 125.81 71.3424Z" fill="var(--fill-0, #F4F4E8)"/>
<path id="path276" d="M134.384 71.2611C132.95 71.2611 131.646 71.3385 130.462 71.438L130.614 73.4763C131.819 73.351 133.205 73.2736 134.41 73.2736C135.615 73.2736 136.647 73.2994 137.326 73.3989C137.403 74.1029 137.403 74.7074 137.403 75.5109V84.4824H139.865V75.6842C139.865 71.7624 139.412 71.2611 134.384 71.2611Z" fill="var(--fill-0, #F4F4E8)"/>
<path id="path280" d="M144.158 71.3424C143.554 71.3424 142.802 71.3424 142.172 71.3682L142.374 73.377H144.184V79.1086H146.62V73.4802C146.62 71.6446 146.068 71.3424 144.158 71.3424Z" fill="var(--fill-0, #F4F4E8)"/>
<path id="path284" d="M158.741 79.379C158.741 80.3594 158.715 81.4173 158.516 82.3977C158.037 82.5746 157.562 82.6484 156.858 82.6484C155.877 82.6484 154.923 82.4972 154.045 82.2466L153.894 84.108C154.698 84.5097 155.553 84.7383 156.684 84.7383C158.015 84.7383 159.198 84.5134 159.95 83.7062C160.857 82.7737 161.185 81.0155 161.185 78.804V69.1506H158.745V79.379H158.741Z" fill="var(--fill-0, #F4F4E8)"/>
<path id="path288" d="M166.484 77.1475C166.636 75.7911 167.085 74.936 167.564 74.3315C168.217 73.7786 169.098 73.6017 169.802 73.6017C171.586 73.6017 172.467 74.7591 172.54 77.1438H166.484V77.1475ZM169.901 71.7661C166.105 71.7661 164.096 74.6043 164.096 78.4007C164.096 82.4479 166.411 84.7589 170.156 84.7589C171.21 84.7589 172.695 84.582 174.026 84.0807L174.151 82.2967C172.817 82.6985 171.512 82.8496 170.48 82.8496C168.04 82.8496 166.584 81.6664 166.459 78.703H174.678C174.829 77.999 174.829 77.4461 174.829 76.79C174.829 73.4985 172.894 71.7624 169.901 71.7624" fill="var(--fill-0, #F4F4E8)"/>
<path id="path292" d="M180.081 73.5482L179.93 73.5003L179.878 71.8896L177.667 72.166V84.4843H180.003V75.2106C181.058 74.3554 181.913 74.1048 182.919 74.1048C183.347 74.1048 183.774 74.1527 184.25 74.2559L184.427 72.1181C183.973 71.9412 183.546 71.8675 183.118 71.8675C182.09 71.8675 181.083 72.3946 180.077 73.5519" fill="var(--fill-0, #F4F4E8)"/>
<path id="path296" d="M194.283 81.3888C192.974 82.5461 191.972 82.7968 191.039 82.7968C189.506 82.7968 188.75 82.1923 188.75 80.5336V72.1114H186.413V80.9317C186.413 83.6482 187.67 84.7798 189.981 84.7798C191.666 84.7798 193 84.1495 194.253 83.0695L194.43 83.1211L194.53 84.4775H196.616V72.1114H194.279V81.3851L194.283 81.3888Z" fill="var(--fill-0, #F4F4E8)"/>
<path id="path300" d="M201.95 74.8064C201.95 74.4304 202.127 74.1282 202.451 73.8775C202.853 73.6785 203.557 73.5274 204.287 73.5274C205.09 73.5274 206.196 73.7043 207.401 74.2572L207.803 72.3958C206.646 71.9683 205.566 71.7692 204.486 71.7692C201.773 71.7692 199.761 73.0519 199.761 75.1123C199.761 78.7319 205.816 78.9604 205.816 81.4226C205.816 81.8501 205.64 82.2261 205.363 82.5025C204.888 82.8048 204.232 82.9301 203.528 82.9301C202.573 82.9301 201.342 82.6537 199.956 81.9755L199.528 83.8368C200.686 84.4155 201.865 84.7436 203.273 84.7436C206.491 84.7436 208.098 83.0333 208.098 81.0724C208.098 77.3275 201.939 76.8484 201.939 74.8138" fill="var(--fill-0, #F4F4E8)"/>
<path id="path304" d="M217.709 81.2939C216.78 82.2964 215.623 82.7277 214.617 82.7277C213.183 82.7277 212.431 81.8984 212.431 80.6673C212.431 80.0628 212.53 79.5099 212.833 79.0565C213.787 78.5295 214.893 78.5036 215.977 78.5036C216.629 78.5036 217.134 78.5294 217.709 78.5774V81.2939ZM215.372 71.7658C213.913 71.7658 212.405 72.0423 211.049 72.4698L210.898 74.4049C212.254 74.0032 213.787 73.7525 214.996 73.7525C217.285 73.7525 217.735 74.733 217.735 76.6939V76.9445C217.256 76.8966 216.802 76.8966 216.249 76.8966C214.867 76.8966 213.234 76.9961 212.177 77.5748C210.92 78.1756 210.138 79.4362 210.138 81.0432C210.138 82.6503 211.222 84.6628 213.909 84.6628C215.369 84.6628 216.648 84.0841 217.731 83.0299L217.882 83.0778L218.059 84.4859H220.068V76.2663C220.068 73.1738 218.409 71.7658 215.369 71.7658" fill="var(--fill-0, #F4F4E8)"/>
<path id="path308" d="M225.883 81.4446V66.7895L223.546 67.0917V81.9459C223.546 82.9521 223.598 83.6783 224.025 84.1316C224.501 84.5592 225.157 84.6366 225.961 84.6366C226.639 84.6366 227.343 84.5592 227.921 84.4339L228.047 82.6757L225.909 82.5246C225.883 82.1707 225.883 81.8943 225.883 81.4446Z" fill="var(--fill-0, #F4F4E8)"/>
<path id="path312" d="M232.088 77.1475C232.239 75.7911 232.689 74.936 233.168 74.3315C233.821 73.7786 234.702 73.6017 235.406 73.6017C237.19 73.6017 238.07 74.7591 238.144 77.1438H232.088V77.1475ZM235.505 71.7661C231.709 71.7661 229.7 74.6043 229.7 78.4007C229.7 82.4479 232.015 84.7589 235.759 84.7589C236.814 84.7589 238.299 84.582 239.63 84.0807L239.755 82.2967C238.421 82.6985 237.116 82.8496 236.084 82.8496C233.644 82.8496 232.188 81.6664 232.062 78.703H240.282C240.433 77.999 240.433 77.4461 240.433 76.79C240.433 73.4985 238.498 71.7624 235.505 71.7624" fill="var(--fill-0, #F4F4E8)"/>
<path id="path316" d="M257.755 71.8133C255.946 71.8133 254.313 72.5431 253.107 73.2692L252.931 73.1955C252.378 72.1892 251.371 71.8133 249.916 71.8133C248.308 71.8133 246.875 72.4657 245.717 73.2471L245.54 73.1992L245.463 71.8907L243.277 72.1671V84.4854H245.614V74.832C246.871 74.1022 248.003 73.8516 248.88 73.8516C250.365 73.8516 251.091 74.4782 251.091 76.0889V84.4817H253.428V75.6613C253.428 75.3333 253.428 75.0568 253.377 74.8062C254.685 74.1022 255.791 73.8516 256.72 73.8516C258.201 73.8516 258.905 74.4782 258.905 76.0889V84.4817H261.242V75.6355C261.242 72.919 260.037 71.8133 257.748 71.8133" fill="var(--fill-0, #F4F4E8)"/>
<path id="path320" d="M278.216 75.3082C278.216 71.7919 277.261 71.2611 273.137 71.2611C271.78 71.2611 270.299 71.3127 268.99 71.438L269.167 73.4763C270.372 73.3731 271.957 73.2994 273.137 73.2994C274.143 73.2994 274.947 73.351 275.625 73.4505C275.724 74.0034 275.75 74.5563 275.75 75.1866V82.3741H268.913V84.4861H280.173V82.4478L278.212 82.3225V75.3082H278.216Z" fill="var(--fill-0, #F4F4E8)"/>
<path id="path324" d="M282.94 71.3424C282.313 71.3424 281.631 71.3424 281.005 71.3682L281.13 73.377H282.94V84.4863H285.402V73.5023C285.402 71.6925 284.849 71.3424 282.94 71.3424Z" fill="var(--fill-0, #F4F4E8)"/>
<path id="path328" d="M298.628 71.3606H296.24L294.378 77.822L294.227 77.8478L289.83 71.2611L287.29 71.5117L291.463 77.4423C292.771 79.2779 294.024 80.8112 295.134 82.1935L295.082 82.3704L288.193 82.3188V84.4787H297.92L298.223 82.5178L295.683 79.4253V79.2226C296.84 77.1364 297.618 74.7738 298.624 71.3569" fill="var(--fill-0, #F4F4E8)"/>
<path id="path332" d="M301.919 71.3424C301.315 71.3424 300.563 71.3424 299.933 71.3682L300.135 73.377H301.945V79.1086H304.382V73.4802C304.382 71.6446 303.829 71.3424 301.919 71.3424Z" fill="var(--fill-0, #F4F4E8)"/>
<path id="path336" d="M314.79 77.316C314.691 79.6049 313.762 80.836 312.052 81.6138L308.985 71.2306L306.549 71.4075L310.017 82.3178L306.648 83.4235V85.6867L311.451 84.1017C314.543 83.0955 316.777 81.411 317.079 77.7694L317.606 71.3596H315.067L314.79 77.316Z" fill="var(--fill-0, #F4F4E8)"/>
<path id="path340" d="M321.528 71.3424C320.901 71.3424 320.219 71.3424 319.593 71.3682L319.718 73.377H321.528V84.4863H323.99V73.5023C323.99 71.6925 323.437 71.3424 321.528 71.3424Z" fill="var(--fill-0, #F4F4E8)"/>
<path id="path344" d="M338.746 71.2611C336.534 71.2611 334.094 71.3606 331.96 71.5117L332.162 73.5463L334.4 73.3952L334.374 80.8628C334.374 81.9428 334.098 82.4441 332.867 82.4441C332.538 82.4441 332.262 82.4183 331.761 82.3962V84.3829C332.214 84.5082 332.867 84.5598 333.419 84.5598C336.11 84.5598 336.814 83.3766 336.814 81.3162V73.2994C337.618 73.2736 338.347 73.2478 338.952 73.2478C340.26 73.2478 341.414 73.2994 342.347 73.4763C342.446 74.3572 342.446 75.1866 342.446 75.9901V84.4861H344.908V75.839C344.908 71.8435 344.156 71.2648 338.749 71.2648" fill="var(--fill-0, #F4F4E8)"/>
<path id="path348" d="M349.304 71.3424C348.677 71.3424 347.996 71.3424 347.369 71.3682L347.494 73.377H349.304V84.4863H351.766V73.5023C351.766 71.6925 351.213 71.3424 349.304 71.3424Z" fill="var(--fill-0, #F4F4E8)"/>
<path id="path352" d="M357.196 71.3119C356.264 71.3119 355.84 71.3377 355.184 71.3635L355.309 73.3723H357.897V82.3696H354.579V84.4816H360.337V75.6613C360.337 72.3919 360.411 71.3119 357.193 71.3119" fill="var(--fill-0, #F4F4E8)"/>
<path id="path356" d="M371.299 71.2637C369.489 71.2637 367.904 71.6433 366.094 72.6201L365.619 71.1899L363.382 71.3411L364.336 74.2566L363.282 84.485H365.77L366.625 74.2308C368.206 73.5268 369.74 73.3757 370.897 73.3757C371.498 73.3757 371.951 73.4015 372.353 73.4752C372.478 74.4556 372.478 75.4361 372.478 76.4645V82.3729H368.734V84.485H374.893V76.0664C374.893 72.1446 374.214 71.2637 371.299 71.2637Z" fill="var(--fill-0, #F4F4E8)"/>
<path id="path360" d="M388.567 74.9788L388.895 71.3593H386.455L386.279 74.4518C386.227 75.834 385.851 77.242 385.375 78.0713L385.199 78.145C383.389 75.9335 381.479 73.4971 379.493 71.234L376.78 71.433C377.76 72.4909 378.767 73.6482 379.747 74.7761V74.9014C378.792 76.1325 378.188 77.7433 377.989 79.7521L377.561 84.4774H380.024L380.274 80.504C380.352 79.096 380.624 77.7138 381.052 76.5601L381.177 76.5343C383.039 78.8453 385.199 81.6356 387.233 84.4774H389.799V84.201C388.741 82.6418 387.687 81.208 386.607 79.7779C387.661 78.6463 388.391 76.9103 388.567 74.9752" fill="var(--fill-0, #F4F4E8)"/>
<path id="path364" d="M393.317 71.363L393.067 67.3417L390.855 67.5923L391.032 71.363L391.334 73.3718H398.297L398.345 73.5487L393.395 84.4848H396.034L400.811 73.1985L400.586 71.363H393.321H393.317Z" fill="var(--fill-0, #F4F4E8)"/>
<path id="path368" d="M559.405 13.7247H565.236L565.284 13.9016L560.96 23.6803H565.409L569.655 13.275L569.405 10.3594H562.921L562.718 6.21282L558.896 6.54086L559.021 10.3631L559.397 13.732L559.405 13.7247Z" fill="var(--fill-0, #F4F4E8)"/>
<path id="path372" d="M574.513 14.2005C573.356 15.3579 572.604 17.3188 572.452 19.604L572.198 23.6732H576.271L576.345 20.5329C576.371 19.1986 576.47 18.1186 576.695 16.9133H576.872C578.405 19.0732 579.835 21.3622 581.195 23.6732H585.571V23.371C584.59 21.6607 583.61 20.1274 582.629 18.6199C583.986 17.2893 584.616 15.0519 584.715 12.8404L584.841 10.3524H580.845L580.768 12.5898C580.742 13.795 580.69 15.004 580.44 15.9845H580.314C578.932 13.9978 577.602 12.1622 576.168 10.2271L571.52 10.5551C572.6 11.8378 573.58 12.9436 574.509 14.1268V14.2005H574.513Z" fill="var(--fill-0, #F4F4E8)"/>
<path id="path376" d="M587.734 13.7247H593.565L593.617 13.9016L589.293 23.6803H593.742L597.988 13.275L597.738 10.3594H591.254L591.055 6.21282L587.237 6.54086L587.362 10.3631L587.738 13.732L587.734 13.7247Z" fill="var(--fill-0, #F4F4E8)"/>
<path id="path380" d="M606.213 19.9599L606.161 20.1369H600.607V23.679H611.34L611.867 20.7377L609.53 18.2497V18.047C610.887 16.3367 611.491 14.3537 612.269 10.3545H608.399L607.418 15.7838L607.267 15.8096L603.924 10.2034L599.549 10.5572L602.918 15.4853C604.374 17.5973 605.229 18.6515 606.209 19.9599" fill="var(--fill-0, #F4F4E8)"/>
<path id="path384" d="M618.854 13.7492C619.506 13.7492 620.11 13.775 620.638 13.8487C620.685 14.2026 620.711 14.6043 620.711 15.183V20.0853H614.954V23.679H626.568V20.2843L624.91 20.1332V15.3821C624.91 10.8853 623.527 10.2034 619.255 10.2034C617.799 10.2034 616.288 10.255 614.932 10.4319L615.234 13.9261C616.34 13.8524 617.674 13.7492 618.854 13.7492Z" fill="var(--fill-0, #F4F4E8)"/>
<path id="path388" d="M562.419 58.2783L562.117 55.337C561.162 55.2375 560.057 55.4144 559.176 55.6908C559.227 56.7708 559.452 57.6517 559.78 58.6064L562.419 58.2783Z" fill="var(--fill-0, #F4F4E8)"/>
<path id="path392" d="M566.417 55.3404C565.463 55.2409 564.357 55.4178 563.476 55.6942C563.528 56.7742 563.753 57.6551 564.081 58.6098L566.72 58.2817L566.417 55.3404Z" fill="var(--fill-0, #F4F4E8)"/>
<path id="path396" d="M576.071 40.3823L574.892 40.6071C573.734 40.2791 572.503 39.752 572.279 39.2507C572.607 39.0738 573.008 38.9743 573.484 38.9743C573.86 38.9743 574.313 39.0775 574.689 39.2249L575.017 36.8881C574.439 36.6596 573.989 36.5858 573.51 36.5858C571.751 36.5858 570.568 38.016 570.568 39.6267C570.568 40.1796 570.896 40.7104 571.449 41.2374L570.041 41.5139V43.2462L576.075 42.2437V40.3823H576.071Z" fill="var(--fill-0, #F4F4E8)"/>
<path id="path400" d="M618.047 42.5468L617.744 39.6054C616.79 39.5059 615.684 39.6791 614.803 39.9593C614.855 41.0392 615.079 41.9201 615.408 42.8748L618.047 42.5468Z" fill="var(--fill-0, #F4F4E8)"/>
<path id="path404" d="M611.439 42.8748L614.078 42.5468L613.776 39.6054C612.821 39.5059 611.715 39.6791 610.834 39.9593C610.886 41.0392 611.111 41.9201 611.439 42.8748Z" fill="var(--fill-0, #F4F4E8)"/>
<path id="path408" d="M621.343 55.6908C621.394 56.7708 621.619 57.6517 621.947 58.6064L624.586 58.2783L624.284 55.337C623.329 55.2375 622.224 55.4144 621.343 55.6908Z" fill="var(--fill-0, #F4F4E8)"/>
<path id="path412" d="M625.791 48.7037C625.791 47.6717 625.692 45.4086 625.541 43.4513L621.77 43.8273L622.448 49.9864C621.442 50.3403 620.565 50.4656 619.208 50.4656C618.128 50.4656 617.023 50.3403 616.193 49.9864L616.37 44.4576L612.725 44.6603L612.548 50.0122C611.818 50.2887 610.989 50.4656 609.607 50.4656C607.417 50.4656 607.218 49.8611 607.093 48.7332L606.717 44.4613L603.071 44.7893L603.599 48.9618C603.646 49.4372 603.724 49.9422 603.798 50.4435C603.296 50.5467 602.743 50.5946 602.213 50.5946C601.435 50.5946 600.502 50.4435 599.548 50.167L600.2 45.8693L596.68 45.7182L596.179 50.1191C595.6 50.4693 595.125 50.5467 594.443 50.5467C593.588 50.5467 592.961 50.4214 592.231 50.1191L592.456 48.6116L592.832 45.873L589.412 45.9504L589.083 49.0908C588.984 50.1707 588.228 50.473 586.772 50.473C586.769 50.473 586.765 50.473 586.761 50.473C586.758 50.473 586.754 50.473 586.75 50.473C585.77 50.473 584.716 50.3219 583.986 49.9717L584.237 35.8473L580.09 36.1975L580.341 49.9975C579.714 50.2739 578.958 50.4767 577.779 50.4767C576.699 50.4767 575.593 50.3513 574.764 49.9975L574.941 44.4687L571.295 44.6714L571.118 50.0233C570.389 50.2997 569.559 50.4767 568.177 50.4767C567.097 50.4767 565.991 50.3513 565.162 49.9975L565.339 44.4687L561.694 44.6714L561.517 50.0233C560.787 50.2997 559.958 50.4767 558.575 50.4767C557.669 50.4767 556.589 50.4029 555.711 49.9975L555.837 35.8473L551.69 36.1975L552.118 53.4659C550.935 54.1183 549.703 54.4464 548.295 54.4464C545.881 54.4464 544.952 53.418 544.952 51.4571C544.952 50.5762 545.103 49.4962 545.531 48.1877L542.413 47.6606C541.635 49.6473 541.381 51.1549 541.381 52.386C541.381 56.1566 543.769 58.5672 547.916 58.5672C551.686 58.5672 554.952 56.6063 555.582 53.1637V53.1895L555.734 53.1416C556.563 53.8935 557.694 54.2215 558.575 54.2215C560.208 54.2215 561.845 53.8935 563.249 52.8135H563.452C564.908 54.0188 566.393 54.2215 568.177 54.2215C569.81 54.2215 571.447 53.8935 572.851 52.8135H573.054C574.509 54.0188 575.995 54.2215 577.779 54.2215C579.312 54.2215 580.794 53.9451 582.228 52.8135H582.405C583.761 53.993 585.42 54.2215 586.754 54.2215C586.758 54.2215 586.761 54.2215 586.765 54.2215C586.769 54.2215 586.772 54.2215 586.776 54.2215C588.361 54.2215 589.92 53.8677 590.901 52.9904H591.1C592.408 54.1441 593.838 54.321 594.646 54.321C596.002 54.321 597.233 53.8161 598.14 53.1637H598.317C599.271 53.9414 600.329 54.3948 601.936 54.3948C603.318 54.3948 604.45 54.1183 605.582 53.3369H605.758C606.687 53.8898 607.944 54.2178 609.603 54.2178C611.236 54.2178 612.872 53.8898 614.277 52.8098H614.479C615.935 54.0151 617.421 54.2178 619.205 54.2178C621.14 54.2178 622.824 53.8382 623.779 53.3111C625.135 52.5555 625.788 51.0738 625.788 48.7111" fill="var(--fill-0, #F4F4E8)"/>
<path id="path416" d="M550.908 81.8232C550.507 81.9486 549.88 81.9744 549.349 81.9744C548.818 81.9744 548.619 81.9486 548.218 81.8748V78.2295H549.526C550.908 78.2295 551.587 78.7308 551.587 80.1904C551.587 80.8686 551.435 81.3699 550.908 81.8232ZM548.221 72.1699C548.726 72.1441 549.228 72.1183 549.504 72.1183C550.584 72.1183 551.314 72.5716 551.314 73.7032C551.314 74.3556 551.063 74.9085 550.51 75.2623C550.156 75.3361 549.604 75.3619 548.877 75.3619H548.225V72.1699H548.221ZM553.249 76.6188V76.416C554.605 75.6383 555.261 74.5583 555.261 73.0729C555.261 70.5591 553.352 69.2285 549.504 69.2285C548.398 69.2285 546.061 69.3281 544.252 69.6303V84.7351C547.042 85.0115 548.774 85.0115 549.102 85.0115C553.348 85.0115 555.663 83.2792 555.663 80.1351C555.663 78.2 554.782 77.1458 553.249 76.6151" fill="var(--fill-0, #F4F4E8)"/>
<path id="path420" d="M562.048 77.0948C562.121 76.413 562.298 75.7384 562.6 75.2077C563.128 74.8059 563.857 74.7543 564.185 74.7543C565.391 74.7543 565.844 75.4583 565.944 77.0948H562.048ZM564.41 71.8166C560.463 71.8166 558.1 74.4041 558.1 78.6282C558.1 82.8522 560.64 85.0379 564.609 85.0379C565.866 85.0379 567.4 84.861 568.782 84.3855L568.984 81.5695C567.4 81.8718 566.368 81.9455 565.114 81.9455C563.305 81.9455 562.298 81.4442 562.048 79.4833H569.537C569.762 78.4807 569.762 77.7251 569.762 76.9216C569.762 73.6522 567.753 71.8203 564.407 71.8203" fill="var(--fill-0, #F4F4E8)"/>
<path id="path424" d="M576.9 81.3663L581.927 74.5548L581.876 72.1148H572.399L572.222 75.1077H577.25L577.276 75.2846L572.123 81.9966L571.998 84.7353H581.75L582.101 81.5433H576.948L576.9 81.3663Z" fill="var(--fill-0, #F4F4E8)"/>
<path id="path428" d="M591.404 81.1946C590.549 81.8249 589.797 81.9503 589.344 81.9503C588.415 81.9503 587.988 81.4711 587.988 80.6454C587.988 80.3432 588.039 80.0189 588.264 79.6134C588.692 79.3628 589.292 79.2374 589.996 79.2374C590.324 79.2374 590.877 79.2632 591.452 79.289L591.404 81.1983V81.1946ZM589.948 71.7698C588.515 71.7698 586.782 72.0463 585.297 72.5475L585.072 75.6879C586.506 75.2862 588.238 75.0834 589.318 75.0834C591.504 75.0834 591.556 75.9128 591.504 77.0443V77.0959C591.202 77.0701 590.826 77.0443 590.347 77.0443C589.09 77.0443 587.755 77.2471 586.826 77.5972C585.168 78.2275 584.213 79.6318 584.213 81.2168C584.213 82.8017 585.094 84.9358 588.135 84.9358C589.418 84.9358 590.498 84.5083 591.629 83.4762L591.78 83.5278L592.156 84.7331H595.322V76.4362C595.322 73.2442 593.262 71.7624 589.945 71.7624" fill="var(--fill-0, #F4F4E8)"/>
<path id="path432" d="M602.667 80.3888V66.7658L598.797 67.2929V80.9675C598.797 82.5783 598.996 83.6324 599.626 84.2111C600.304 84.8156 601.185 84.9151 602.114 84.9151C603.043 84.9151 603.95 84.7898 604.451 84.6866L604.676 81.6973L602.715 81.5462C602.689 81.1924 602.663 80.8422 602.663 80.3888" fill="var(--fill-0, #F4F4E8)"/>
<path id="path436" d="M610.536 77.0948C610.609 76.413 610.786 75.7384 611.089 75.2077C611.616 74.8059 612.346 74.7543 612.674 74.7543C613.879 74.7543 614.332 75.4583 614.432 77.0948H610.536ZM612.898 71.8166C608.951 71.8166 606.588 74.4041 606.588 78.6282C606.588 82.8522 609.128 85.0379 613.097 85.0379C614.354 85.0379 615.888 84.861 617.27 84.3855L617.473 81.5695C615.888 81.8718 614.859 81.9455 613.602 81.9455C611.793 81.9455 610.786 81.4442 610.536 79.4833H618.025C618.25 78.4807 618.25 77.7251 618.25 76.9216C618.25 73.6522 616.238 71.8203 612.895 71.8203" fill="var(--fill-0, #F4F4E8)"/>
<path id="path440" d="M625.039 81.5462C625.013 81.1924 624.988 80.8422 624.988 80.3888V66.7658L621.117 67.2929V80.9675C621.117 82.5783 621.317 83.6324 621.947 84.2111C622.625 84.8156 623.506 84.9151 624.435 84.9151C625.364 84.9151 626.27 84.7898 626.772 84.6866L626.996 81.6973L625.036 81.5462H625.039Z" fill="var(--fill-0, #F4F4E8)"/>
<path id="path444" d="M445.274 16.7289C445.646 16.7289 445.949 16.423 445.949 16.0507C445.949 15.6785 445.643 15.3762 445.27 15.3762C444.898 15.3762 444.596 15.6821 444.596 16.0544C444.596 16.4267 444.902 16.7289 445.274 16.7289Z" fill="var(--fill-0, #F4F4E8)"/>
<path id="path448" d="M513.32 48.8651L511.606 48.8356C511.613 47.3686 511.577 45.2308 511.448 43.9813C511.009 43.9923 510.762 43.996 510.386 44.0697C510.497 46.2076 510.533 47.8072 510.449 49.7608L514.334 49.8197C514.348 49.5544 514.289 46.0196 514.227 44.8585L515.248 44.7848C515.329 46.4693 515.329 48.0653 515.285 49.9635C515.661 50.0298 515.908 50.0262 516.346 50.0262C516.446 48.6955 516.258 43.9481 516.247 43.7675L513.158 43.9813C513.158 43.9813 513.316 47.4608 513.316 48.8651" fill="var(--fill-0, #F4F4E8)"/>
<path id="path452" d="M482.525 23.8621C482.388 23.9284 481.983 23.9284 481.71 24.0648L482.119 24.6804C482.322 24.544 482.727 24.474 482.525 24.0685C482.186 24.1349 482.532 24.3523 482.123 24.3523C482.038 24.3523 481.979 24.3155 481.979 24.2675C481.957 23.9432 482.591 24.1385 482.521 23.8658" fill="var(--fill-0, #F4F4E8)"/>
<path id="path456" d="M462.004 24.3486C461.599 24.3486 461.941 24.1349 461.602 24.0685C461.4 24.474 461.809 24.544 462.008 24.6804L462.417 24.0648C462.144 23.9284 461.735 23.9284 461.602 23.8621C461.532 24.1349 462.166 23.9395 462.144 24.2639C462.144 24.3118 462.085 24.3486 462 24.3486" fill="var(--fill-0, #F4F4E8)"/>
<path id="path460" d="M491.47 73.7203H497.965C498.215 73.4733 498.466 73.2153 498.713 72.9573H491.131C484.924 71.4608 478.507 70.7089 472.067 70.7089C465.621 70.7089 459.207 71.4645 452.993 72.9573H445.426C445.676 73.2116 445.923 73.466 446.178 73.7166H452.654V75.5227H448.124C454.563 81.0552 462.934 84.3983 472.067 84.402C481.201 84.402 489.572 81.0552 496.007 75.5227H491.47V73.7203Z" fill="var(--fill-0, #F4F4E8)"/>
<path id="path464" d="M446.856 40.3864C446.901 40.637 446.956 40.8877 447.008 41.1346L436.444 51.6357C436.399 51.2966 436.363 50.9465 436.341 50.5889L446.856 40.3827V40.3864ZM436.982 40.2611L446.392 33.726C446.374 33.9729 446.37 34.2236 446.359 34.4705L436.772 41.2931C436.831 40.9466 436.901 40.6002 436.982 40.2611ZM441.523 28.8569L448.132 26.0667C448.036 26.2952 447.947 26.5385 447.863 26.7633L440.974 29.7747C441.151 29.4688 441.335 29.1591 441.519 28.8569M448.567 20.5673L451.659 19.9592C451.519 20.1471 451.364 20.3351 451.232 20.5268L447.811 21.2455C448.058 21.0133 448.316 20.7885 448.567 20.5673ZM497.331 42.9702V44.1128L446.794 44.1165V42.9665H497.331V42.9702ZM466.812 40.9466C466.709 40.9356 466.602 40.9208 466.491 40.9061C466.237 38.3739 465.813 36.4646 465.057 34.9607C465.175 34.1756 465.149 33.0736 464.884 32.1115C465.654 32.974 466.557 33.5343 467.534 33.8734C468.706 34.2788 468.021 34.7101 467.402 34.7064C466.779 34.7101 466.185 34.6143 465.831 34.3526C466.296 35.1192 467.21 35.7569 468.176 36.037C468.835 36.2287 468.799 36.6489 468.19 36.6526C468.161 36.6489 468.124 36.6526 468.091 36.6415C467.39 36.5973 466.403 36.2582 465.522 35.7016C467.221 38.079 469.871 39.0963 472.588 39.3691C474.007 39.5054 473.951 40.7292 472.311 40.7918C470.343 40.8582 468.629 40.6628 466.664 39.4317C467.726 40.7292 470.31 41.7723 472.507 42.2072H468.452C468.463 41.975 468.375 41.0756 466.812 40.9466ZM467.169 28.1087L465.677 31.8646C465.595 31.7872 465.522 31.7098 465.448 31.625L465.253 31.4075L466.816 27.9612C466.93 28.0128 467.048 28.0607 467.166 28.1087M469.672 28.8422L468.78 33.8329C468.721 33.737 468.644 33.6486 468.544 33.5712C468.459 33.4974 468.36 33.4348 468.242 33.3758L469.296 28.7684C469.418 28.7979 469.547 28.82 469.672 28.8458M472.492 38.6282C472.204 38.595 471.928 38.5582 471.655 38.5029L471.88 29.0633C471.946 29.0633 472.009 29.0633 472.075 29.0633C472.138 29.0633 472.201 29.0633 472.271 29.0633L472.495 38.6245L472.492 38.6282ZM464.092 24.8688C464.106 24.2311 464.165 23.6082 464.269 23.0258C466.189 25.1747 468.968 26.5311 472.072 26.5274C475.164 26.5311 477.943 25.171 479.864 23.0406C479.963 23.6266 480.018 24.2422 480.033 24.8872C477.917 26.7928 475.131 27.9539 472.075 27.9539C469.001 27.9539 466.204 26.7854 464.092 24.8651M464.829 21.0465C466.414 23.3502 469.075 24.8651 472.075 24.8688C475.072 24.8688 477.715 23.3539 479.303 21.0686C479.392 21.275 479.469 21.4925 479.539 21.7173C477.825 23.9731 475.116 25.4364 472.072 25.4364C469.016 25.4364 466.303 23.962 464.593 21.6878C464.659 21.4704 464.74 21.2566 464.825 21.0428M468.264 17.0731C468.71 18.7612 470.251 20.0144 472.079 20.0144C473.9 20.0144 475.437 18.7649 475.886 17.0842C476.797 17.6075 477.567 18.2894 478.194 19.1003C477.077 21.345 474.759 22.8968 472.079 22.9005C469.392 22.9005 467.074 21.345 465.946 19.0856C466.58 18.2747 467.346 17.5928 468.264 17.0731ZM470.328 12.5173C470.343 12.2851 470.273 11.8428 470.184 11.6217C470.785 11.5848 471.463 11.5737 472.079 11.5737C472.691 11.5737 473.362 11.5885 473.974 11.6217C473.87 11.8391 473.811 12.2814 473.815 12.521C473.292 12.2593 472.702 12.1045 472.079 12.1082C471.445 12.1082 470.859 12.2593 470.328 12.521M476.981 28.1087C477.095 28.0607 477.217 28.0128 477.331 27.9612L478.894 31.4112L478.699 31.6287C478.625 31.7135 478.548 31.7946 478.467 31.8683L476.981 28.1123V28.1087ZM474.475 28.8422C474.604 28.8237 474.729 28.7979 474.854 28.7647L475.905 33.3684C475.787 33.4348 475.687 33.4938 475.603 33.5712C475.507 33.6486 475.426 33.737 475.367 33.8365L474.471 28.8422H474.475ZM479.237 32.1079C478.975 33.0699 478.942 34.172 479.071 34.957C478.315 36.4572 477.888 38.3702 477.637 40.9024C477.53 40.9171 477.423 40.9393 477.313 40.9393C476.108 41.0388 475.787 41.599 475.702 41.9529C475.006 41.8718 474.279 41.776 473.653 41.6543C474.781 41.2747 475.588 40.8692 476.189 40.4822C476.793 40.0878 477.177 39.7266 477.46 39.4317C476.491 40.0067 475.393 40.4085 474.224 40.6075C474.331 40.4343 474.39 40.2316 474.39 40.051C474.401 39.6676 474.224 39.2143 473.715 38.9046C475.982 38.3149 477.254 37.3381 478.607 35.6942C477.726 36.2471 476.738 36.5825 476.038 36.6304C475.997 36.6415 475.968 36.6415 475.934 36.6378C475.33 36.6378 475.282 36.225 475.953 36.0333C476.915 35.7458 477.829 35.1119 478.29 34.3415C477.94 34.6032 477.335 34.6954 476.719 34.6954C476.104 34.6954 475.407 34.2641 476.579 33.866C477.567 33.5306 478.467 32.9667 479.237 32.1005M496.262 26.7559C496.17 26.5127 496.085 26.2878 495.997 26.0519L502.62 28.8569C502.805 29.1555 502.989 29.4651 503.169 29.7673L496.262 26.7559ZM492.466 19.9555L495.58 20.571C495.842 20.7885 496.096 21.017 496.343 21.2455L492.901 20.5305C492.761 20.3351 492.609 20.1434 492.466 19.9555ZM507.379 41.2894L497.766 34.4668C497.755 34.2088 497.748 33.9582 497.733 33.7075L507.169 40.2537C507.242 40.5965 507.312 40.9429 507.379 41.2894ZM507.707 51.6431L497.117 41.1199C497.176 40.8766 497.228 40.6186 497.276 40.379L507.806 50.5963C507.777 50.9538 507.747 51.3003 507.703 51.6431M497.803 52.7009L494.397 47.8835V46.6929H494.5L498.868 52.6973H497.803V52.7009ZM493.634 48.4106H484.519C483.737 47.6771 482.853 47.1094 481.902 46.6929H493.638V48.4106H493.634ZM490.755 52.6973C490.516 52.0965 489.93 51.6689 489.252 51.6689C488.566 51.6689 487.984 52.1001 487.748 52.6973H484.747V49.1662H491.95L492.407 52.6973H490.755ZM488.396 56.221V53.2833C488.393 52.8115 488.783 52.4245 489.255 52.4282C489.72 52.4282 490.107 52.8152 490.11 53.2796V56.2136C490.107 56.6854 489.727 57.0724 489.252 57.0687C488.787 57.0687 488.4 56.6817 488.396 56.2173M492.945 56.807L493.645 62.1847H484.747L484.751 56.807H487.755C487.991 57.4115 488.573 57.8391 489.259 57.8391C489.937 57.8391 490.519 57.4115 490.755 56.807H492.945ZM493.874 63.9835H484.747V62.9403L493.737 62.944L493.874 63.9798V63.9835ZM496 67.4924H484.747V64.7464H496V67.4924ZM472.444 67.4851V56.8033H483.992V67.4887H472.444V67.4851ZM460.137 67.4851V56.8033H471.681V67.4887H460.137V67.4851ZM459.381 67.4851H448.124V64.7464H459.381V67.4851ZM450.387 62.944H459.381V63.9835H450.255L450.391 62.944H450.387ZM451.184 56.7997L453.369 56.807C453.609 57.4078 454.188 57.8391 454.873 57.8354C455.559 57.8354 456.145 57.4041 456.377 56.7997H459.381L459.377 62.1774H450.48L451.187 56.7997H451.184ZM455.732 53.2833V56.2173C455.728 56.6891 455.352 57.0761 454.873 57.0724C454.409 57.0724 454.022 56.6854 454.018 56.2136V53.2833C454.022 52.8115 454.401 52.4245 454.877 52.4282C455.356 52.4282 455.728 52.8078 455.732 53.2796M451.714 52.6973L452.164 49.1662H459.377L459.374 52.7009H456.37C456.134 52.0965 455.551 51.6689 454.866 51.6689C454.18 51.6652 453.605 52.1001 453.362 52.6973H451.714ZM450.483 46.6929H462.223C461.276 47.1058 460.387 47.6808 459.606 48.4069H450.48V46.6929H450.483ZM448.393 45.93V44.8684H495.724L495.728 45.9226H448.39L448.393 45.93ZM483.988 52.7009H472.44L472.444 48.945C472.503 48.8934 472.569 48.8344 472.628 48.7828C472.783 48.6538 472.938 48.5175 473.096 48.4069C474.563 47.2974 476.332 46.7003 478.198 46.6856H478.234C480.088 46.6966 481.872 47.2937 483.336 48.4069C483.487 48.5211 483.649 48.6501 483.804 48.7791C483.866 48.8344 483.925 48.886 483.988 48.945V52.6973V52.7009ZM487.633 53.4639V56.044H456.488V53.4639H487.633ZM469.587 46.6929H474.53C473.634 47.08 472.805 47.6107 472.068 48.2705C471.316 47.6034 470.476 47.08 469.587 46.6929ZM471.025 48.4106C471.187 48.5211 471.338 48.6538 471.493 48.7828L471.681 48.9487V52.7009H460.133V48.9487C460.192 48.8971 460.258 48.8418 460.325 48.7828C460.468 48.6575 460.623 48.5211 460.789 48.4069C462.249 47.2974 464.029 46.6966 465.887 46.6892H465.924C467.789 46.7003 469.562 47.2974 471.025 48.4106ZM446.344 52.6973H445.271L449.639 46.6892H449.724V47.9093L446.344 52.6973ZM463.347 26.1256C463.1 26.122 462.842 26.1846 462.555 26.2989C462.278 26.0114 462.171 25.7571 462.138 25.4511C462.234 25.488 462.322 25.5138 462.411 25.5285C462.551 25.5543 462.68 25.418 462.68 25.2668C462.695 24.596 462.824 24.2458 462.949 24.0431C463.093 24.0321 463.211 23.9768 463.295 23.9252C463.325 23.8994 463.347 23.8699 463.377 23.8404C463.31 24.5702 463.307 25.3295 463.347 26.122M459.849 23.0737C460.103 21.9864 460.962 21.662 461.692 21.7284C462.437 21.7984 463.24 22.3034 463.244 23.1253C463.244 23.2949 463.196 23.5013 463.071 23.5934C462.931 23.6819 462.735 23.634 462.591 23.5676C461.806 23.2359 460.855 23.0664 459.845 23.07M458.707 24.5297C458.736 24.2127 458.758 23.8809 458.758 23.5418C459.51 23.4497 460.236 23.4571 460.914 23.5492C460.605 23.9178 459.938 24.4596 458.707 24.5297ZM480.829 23.9252C480.903 23.9805 481.021 24.0357 481.168 24.0394C481.29 24.2385 481.43 24.5997 481.437 25.2668C481.445 25.418 481.563 25.5507 481.695 25.5285C481.788 25.5101 481.883 25.488 481.972 25.4474C481.946 25.7571 481.843 26.004 481.559 26.2952C481.268 26.1809 481.014 26.1183 480.763 26.1183C480.807 25.3258 480.8 24.5665 480.733 23.8367C480.767 23.8699 480.785 23.9031 480.826 23.9215M482.422 21.7321C482.484 21.721 482.547 21.7247 482.606 21.721C483.14 21.721 483.701 21.9385 484.036 22.5024C482.687 22.5024 481.548 22.8378 480.874 23.2433C480.874 23.1991 480.866 23.1659 480.866 23.1253C480.874 22.3108 481.673 21.8021 482.418 21.7321M484.18 22.7973C484.202 22.8821 484.242 22.9742 484.261 23.0737C483.258 23.0737 482.307 23.247 481.522 23.575C481.375 23.6377 481.179 23.6893 481.05 23.6008C481.017 23.5713 480.988 23.5492 480.977 23.5234C481.614 23.118 482.772 22.7678 484.18 22.7973ZM485.359 23.5418C485.359 23.7114 485.363 23.8809 485.37 24.0542C484.74 23.9768 484.423 23.6966 484.276 23.4755C484.622 23.4865 484.991 23.4976 485.359 23.5455M485.411 24.5297C484.176 24.4633 483.509 23.9141 483.199 23.5492C483.446 23.5124 483.697 23.4976 483.948 23.4829C484.099 23.7704 484.475 24.2532 485.396 24.338C485.4 24.4043 485.403 24.4707 485.415 24.526M435.747 53.4565H453.251V56.0404H436.259C437.295 60.4671 439.142 64.5879 441.622 68.2443H502.513C504.998 64.5916 506.844 60.4708 507.88 56.0404H490.873V53.4602H508.396C508.702 51.5583 508.861 49.6122 508.861 47.6255C508.864 31.8572 498.886 18.3779 484.924 13.155C483.369 12.5689 481.765 12.0898 480.114 11.7322C481.706 12.2483 483.472 13.0923 485.256 14.2644C492.37 18.9566 499.624 28.7242 496.122 42.0745C496.104 42.1224 496.089 42.1593 496.078 42.2072H495.031C495.042 42.1372 495.053 42.0561 495.075 41.975C495.167 41.6617 495.23 41.4295 495.348 40.8582C495.027 41.3447 494.659 41.8054 494.261 42.2072H492.536C492.956 41.6543 493.206 41.0646 493.343 40.3901C492.842 41.1457 492.318 41.7649 491.74 42.2072H490.479C490.479 42.2072 490.516 42.1667 490.538 42.1556C491.117 41.776 492.484 40.2316 492.462 38.4181C492.093 39.9551 490.844 41.4184 489.473 42.2072H488.072C488.09 42.1888 488.109 42.1851 488.131 42.1777C488.861 41.8276 490.317 40.8655 490.704 40.0104C489.48 40.9024 488.131 41.6617 486.893 42.1998H484.769C486.55 41.4258 488.098 40.5006 488.828 38.8125C486.977 40.3716 484.814 41.6027 481.574 42.1998H476.443C476.417 41.9824 476.72 41.7575 477.387 41.6949C481.917 41.3152 487.903 39.1774 489.259 35.3699C486.977 37.7952 483.619 39.7008 480.818 39.5091C479.771 39.4317 479.502 38.6208 480.674 38.4292C484.449 37.8136 488.094 35.6316 488.566 32.1816C487.858 34.0245 486.498 35.1966 484.862 35.4583C484.268 35.5505 483.822 35.1413 484.688 34.8612C485.713 34.5258 487.117 33.4864 487.232 32.3216C486.753 33.2579 485.787 33.608 485.138 33.6301C484.615 33.6449 484.64 33.3647 485.12 33.1694C485.234 33.1215 485.348 33.0514 485.462 32.9704C486.159 32.4212 486.59 31.1643 486.587 29.325C486.583 29.1849 486.583 29.0486 486.576 28.8901C484.928 29.9737 483.549 31.1938 483.594 32.5465C483.642 33.7628 483.457 35.7864 482.44 37.2202C481.832 37.4192 481.198 37.574 480.553 37.6809C479.473 37.8615 479.115 38.4734 479.145 39.0005C479.178 39.6934 479.827 40.2058 480.767 40.2647C480.851 40.2647 480.944 40.2758 481.028 40.2758C480.081 40.5301 479.101 40.7218 478.139 40.8434C478.566 37.0691 479.241 35.0418 480.921 32.7123L480.803 32.6571C480.284 33.1178 479.849 33.6338 479.477 34.2236C479.447 33.42 479.565 32.4654 479.878 31.7024C479.941 31.7651 479.996 31.8314 480.063 31.8867L480.169 31.9825L480.302 31.9494C481.412 31.6913 483.192 30.6556 484.412 29.6162L484.261 29.4282C483.103 30.3276 481.404 31.1311 480.31 31.3744C479.871 30.9947 479.373 30.5008 479.679 28.868L479.561 28.8348C479.373 29.3729 479.281 29.8263 479.281 30.217C479.005 30.1285 478.82 29.6973 478.953 28.3003C479.034 27.4636 479.16 27.2793 479.797 26.8112C480.431 26.3505 481.021 26.4574 481.566 26.7043C481.865 26.8407 481.784 26.9881 481.566 26.9771C481.349 26.9513 480.947 26.9771 480.947 26.9771C481.356 27.1909 481.526 27.3125 481.666 27.4268C481.806 27.5484 481.791 27.7327 481.482 27.6664C481.179 27.5963 480.848 27.4968 480.619 27.4599C480.862 27.6406 481.025 27.7769 481.183 27.9686C481.297 28.105 481.128 28.2598 480.936 28.116C480.726 27.9686 480.372 27.847 480.055 27.8138C480.306 27.9391 480.457 28.0607 480.586 28.1787C480.711 28.2856 480.586 28.4404 480.413 28.3372C480.155 28.1971 479.547 28.433 479.23 28.2561L479.329 28.492C479.477 28.6173 479.672 28.6615 479.989 28.6615H480.122C480.166 28.6652 480.195 28.6689 480.221 28.68C480.313 28.7316 480.416 28.7647 480.509 28.7647C480.689 28.7647 480.844 28.6763 480.932 28.5436C480.98 28.562 481.028 28.5694 481.084 28.5657C481.29 28.5657 481.471 28.4514 481.555 28.2672C481.585 28.2119 481.6 28.1345 481.603 28.0718C481.88 28.0718 482.046 27.9022 482.097 27.7438C482.171 27.5742 482.123 27.3789 482.001 27.2167C482.06 27.1614 482.116 27.0729 482.134 26.9918C482.156 26.8849 482.171 26.638 481.861 26.4353C481.994 26.2583 482.105 26.0335 482.167 25.7902C482.363 25.7644 482.786 25.6981 482.949 25.7644C482.927 25.8418 482.794 25.9008 482.691 25.9745V26.0704C482.882 26.0409 483.03 25.9487 483.092 25.8308C483.137 25.7239 483.232 25.499 483.033 25.5175C482.823 25.5212 482.447 25.499 482.23 25.4511C482.234 25.3958 482.237 25.3406 482.234 25.2742C482.322 25.1931 482.392 25.0899 482.429 24.9646L482.355 24.9351C482.248 25.0457 482.057 25.1194 481.754 25.1452C481.699 24.6255 481.614 24.2495 481.515 23.9878C481.566 23.9694 481.614 23.9547 481.67 23.9325C482.031 23.7814 482.44 23.6672 482.875 23.5898C483.037 23.8035 483.336 24.1353 483.837 24.397C483.988 24.9535 483.752 25.8234 483.461 26.1478C483.361 26.1883 483.273 26.2362 483.185 26.3026C482.764 26.6085 482.562 27.0987 482.447 27.788C482.193 27.8285 481.928 27.9907 481.754 28.3077L481.839 28.3777C481.939 28.1271 482.411 28.0976 482.779 28.1676C482.864 27.5152 483.111 26.8997 483.457 26.6417C483.774 26.4095 484.235 26.2657 484.762 26.3689L484.795 26.192C484.519 26.0777 484.239 26.0224 483.977 26.0409C484.206 25.4585 484.206 24.9978 484.054 24.5075C484.423 24.6697 484.88 24.784 485.444 24.8098C485.551 25.5027 485.772 26.1515 486.207 26.7817L486.542 26.5532H486.55C486.69 25.8271 486.76 25.1378 486.76 24.4781C486.76 20.254 484.08 17.4454 482.167 16.3543C484.43 18.2968 486.424 20.958 486.078 25.6317C485.82 24.9388 485.739 24.2016 485.746 23.3612C485.746 23.2654 485.669 23.1732 485.569 23.1622C485.267 23.1216 484.965 23.0885 484.659 23.0848C484.382 21.6583 483.251 21.2492 482.381 21.3266C481.611 21.393 480.796 21.8611 480.538 22.6351C479.937 19.6237 478.227 17.3016 475.536 16.0484C472.886 14.81 473.682 13.2545 474.924 13.3909C474.574 12.9375 474.427 12.3404 474.692 11.8576C474.895 11.4632 475.374 11.1499 476.24 11.0798C475.662 11.0135 475.072 10.9582 474.49 10.9287C473.679 10.8624 472.871 10.8439 472.053 10.8402C471.231 10.8402 470.413 10.8661 469.598 10.925C469.012 10.9545 468.434 11.0098 467.862 11.0798C468.717 11.1572 469.186 11.4632 469.396 11.8612C469.661 12.3441 469.514 12.9449 469.167 13.3946C470.409 13.2545 471.202 14.8136 468.552 16.0484C465.865 17.3053 464.154 19.6274 463.553 22.6351C463.295 21.8684 462.488 21.4003 461.707 21.3266C460.841 21.2529 459.705 21.6547 459.429 23.0885C459.127 23.0885 458.828 23.1216 458.522 23.1622C458.423 23.1732 458.342 23.2617 458.353 23.3612C458.353 24.209 458.275 24.9462 458.01 25.6502C457.667 20.9654 459.661 18.2894 461.928 16.3507C459.724 17.6149 456.488 21.1571 457.542 26.5606L457.888 26.7817C458.323 26.1478 458.544 25.5027 458.655 24.8098C459.219 24.784 459.665 24.666 460.037 24.5075C459.886 24.9941 459.882 25.4622 460.104 26.0409C459.853 26.0261 459.576 26.0814 459.296 26.1957L459.329 26.3763C459.86 26.2694 460.325 26.4131 460.638 26.6454C460.999 26.8997 461.231 27.5263 461.32 28.1713C461.692 28.1013 462.157 28.1308 462.267 28.3814L462.341 28.3077C462.171 27.9944 461.902 27.8322 461.648 27.7917C461.53 27.1061 461.331 26.6159 460.907 26.3063C460.826 26.2473 460.73 26.1994 460.634 26.1551C460.354 25.8308 460.107 24.9609 460.258 24.4043C460.763 24.1463 461.069 23.8146 461.224 23.5934C461.655 23.6745 462.064 23.7888 462.426 23.9436C462.481 23.9657 462.532 23.9841 462.577 23.9952C462.474 24.2569 462.392 24.6329 462.341 25.1563C462.042 25.1268 461.851 25.0567 461.744 24.9425L461.666 24.972C461.703 25.0973 461.773 25.2005 461.865 25.2816C461.858 25.3516 461.858 25.4032 461.869 25.4622C461.652 25.5027 461.276 25.5322 461.073 25.5212C460.863 25.5064 460.955 25.7313 461.014 25.8381C461.066 25.9524 461.224 26.0446 461.405 26.074V25.9782C461.301 25.9082 461.172 25.8492 461.154 25.7681C461.312 25.6981 461.747 25.7681 461.928 25.7939C461.991 26.0409 462.105 26.2657 462.234 26.4426C461.924 26.6417 461.943 26.8849 461.965 26.9918C461.98 27.0766 462.028 27.1651 462.098 27.224C461.969 27.3825 461.932 27.5742 461.998 27.7438C462.05 27.9059 462.212 28.0644 462.492 28.0755C462.488 28.1381 462.514 28.2155 462.54 28.2708C462.621 28.4551 462.809 28.5731 463.015 28.5694C463.071 28.5694 463.115 28.562 463.159 28.5436C463.251 28.6763 463.413 28.7574 463.576 28.7611C463.686 28.7611 463.786 28.7316 463.874 28.68C463.896 28.6689 463.929 28.6615 463.966 28.6615H464.106C464.42 28.6615 464.619 28.6136 464.766 28.492L464.869 28.2487C464.545 28.4256 463.948 28.1897 463.682 28.3409C463.528 28.4404 463.391 28.2856 463.52 28.175C463.638 28.0607 463.8 27.9354 464.047 27.8138C463.727 27.8433 463.366 27.9649 463.178 28.116C462.971 28.2635 462.805 28.105 462.912 27.9723C463.074 27.7806 463.237 27.6479 463.476 27.4636C463.255 27.5005 462.923 27.6 462.614 27.6737C462.315 27.7438 462.3 27.5595 462.44 27.4341C462.577 27.3199 462.743 27.1946 463.152 26.9881C463.152 26.9881 462.75 26.9623 462.54 26.9845C462.322 27.0029 462.234 26.8555 462.54 26.7191C463.085 26.4758 463.668 26.3652 464.313 26.8297C464.95 27.3014 465.072 27.4747 465.149 28.3151C465.286 29.7083 465.109 30.1396 464.829 30.228C464.829 29.8337 464.74 29.384 464.549 28.8458L464.434 28.8753C464.733 30.5082 464.246 31.0058 463.8 31.3891C462.709 31.1422 461.014 30.3386 459.853 29.4393L459.705 29.6272C460.922 30.6667 462.698 31.7024 463.811 31.9641L463.94 31.9936L464.051 31.9014C464.121 31.8462 464.18 31.7909 464.243 31.7245C464.552 32.4764 464.67 33.4348 464.633 34.2346C464.265 33.6486 463.826 33.1362 463.31 32.6681L463.196 32.7197C464.88 35.0529 465.555 37.0838 465.975 40.8582C465.013 40.7365 464.033 40.5449 463.085 40.2905C463.181 40.2832 463.266 40.2832 463.354 40.2721C464.287 40.2095 464.943 39.7008 464.976 39.0078C464.995 38.4808 464.644 37.8689 463.572 37.692C462.919 37.5814 462.289 37.4266 461.677 37.2276C460.671 35.7937 460.476 33.7702 460.524 32.5502C460.568 31.2011 459.193 29.9774 457.542 28.8974C457.531 29.0522 457.534 29.1886 457.534 29.3361C457.527 31.1716 457.966 32.4248 458.659 32.974C458.766 33.0625 458.88 33.1325 458.994 33.1731C459.473 33.3758 459.506 33.6522 458.983 33.6375C458.338 33.6154 457.365 33.2652 456.889 32.3253C457 33.5011 458.404 34.5369 459.429 34.8686C460.299 35.1524 459.849 35.5615 459.256 35.4694C457.616 35.2077 456.259 34.0319 455.551 32.1926C456.023 35.6389 459.665 37.8173 463.447 38.4365C464.619 38.6282 464.35 39.4391 463.303 39.5128C460.505 39.7082 457.14 37.8062 454.858 35.3772C456.211 39.1811 462.201 41.3226 466.731 41.7022C467.398 41.7649 467.7 41.9934 467.674 42.2109H462.547C459.311 41.6101 457.14 40.3753 455.293 38.8199C456.023 40.5006 457.571 41.4295 459.352 42.2072H457.232C455.983 41.6654 454.634 40.9024 453.41 40.0067C453.793 40.8655 455.249 41.8312 455.983 42.174C456.005 42.1814 456.023 42.1888 456.045 42.2072H454.648C453.274 41.4295 452.024 39.9551 451.652 38.4181C451.63 40.2279 453.004 41.7723 453.579 42.1482C453.602 42.1667 453.627 42.1851 453.65 42.2035H452.378C451.799 41.7612 451.276 41.142 450.774 40.3827C450.915 41.0609 451.169 41.6469 451.585 42.2035H449.868C449.459 41.8018 449.09 41.3447 448.773 40.8508C448.884 41.4221 448.95 41.6543 449.042 41.9713C449.068 42.0561 449.083 42.1298 449.094 42.1998H448.04C448.029 42.1556 448.014 42.1187 447.999 42.0708C444.505 28.7353 451.733 18.975 458.843 14.2866C460.601 13.1144 462.367 12.2556 463.952 11.7433C462.311 12.1156 460.712 12.591 459.156 13.1734C445.224 18.4148 435.275 31.8793 435.272 47.6255C435.268 49.6048 435.426 51.5509 435.732 53.4529" fill="var(--fill-0, #F4F4E8)"/>
<path id="path468" d="M472.07 94.1856C446.402 94.1856 425.517 73.294 425.514 47.6254C425.517 21.9532 446.405 1.0726 472.074 1.06891C497.746 1.06891 518.627 21.9532 518.63 47.6291C518.627 73.3014 497.746 94.182 472.07 94.1856ZM472.07 0C445.808 0.00368589 424.441 21.3634 424.445 47.6254C424.445 73.8874 445.808 95.2546 472.067 95.2509C498.329 95.2509 519.696 73.8911 519.699 47.6291C519.696 21.3671 498.332 0 472.07 0Z" fill="var(--fill-0, #F4F4E8)"/>
<path id="path472" d="M447.986 10.1528L448.675 11.2844C450.551 10.1528 452.737 8.95862 454.488 8.01134C455.052 7.69436 455.052 8.01134 455.24 8.45365C455.24 8.45365 453.614 9.83586 452.675 10.6578C452.052 11.1591 451.609 11.9774 452.173 12.8583L452.671 13.6802L453.987 12.862L453.485 11.981L452.737 12.486C452.549 12.169 452.487 11.8557 453.614 11.0375L456.681 8.77064L455.929 7.25573C455.432 6.2458 455.177 6.30846 454.366 6.68811C452.616 7.56903 450.301 8.82961 448.801 9.71054L448.491 9.20557C448.24 8.82961 448.119 8.76695 447.927 8.89227C447.488 9.14291 447.179 9.39355 446.866 9.64788L447.426 10.5288L447.99 10.1528H447.986Z" fill="var(--fill-0, #F4F4E8)"/>
<path id="path476" d="M458.676 7.19415C457.924 8.20039 458.488 9.7153 458.923 11.0385C459.612 10.7252 459.985 10.5373 460.862 10.2203L460.298 9.15135L459.236 9.58998C459.048 8.95969 458.801 7.88709 459.362 7.32315C463.361 7.95344 464.927 7.69911 466.236 8.96337L466.549 8.83437C466.302 7.88709 465.801 7.51113 464.927 7.13517C465.797 6.37956 466.424 5.24431 465.864 3.60777C464.99 3.66674 464.301 3.79575 463.612 3.92107L463.8 5.11899C464.363 4.99367 464.798 4.93101 465.362 4.86466C465.3 5.49495 465.233 6.1879 464.109 6.75552C461.422 6.05889 459.358 6.12155 457.172 5.36594L456.984 5.55761C457.298 6.5012 457.799 6.88084 458.672 7.19415" fill="var(--fill-0, #F4F4E8)"/>
<path id="path480" d="M467.807 3.28777L467.87 4.61101C470.122 4.54835 472.559 4.54466 474.56 4.61101C475.187 4.61101 474.999 4.928 474.999 5.36662C474.999 5.36662 472.934 5.80892 471.685 6.05588C470.937 6.18489 470.185 6.68617 470.185 7.6961V8.70604C470.623 8.64338 471.184 8.64338 471.744 8.70604C471.807 8.39274 471.873 8.13841 471.744 7.63344H470.867C470.87 7.32014 470.929 7.00315 472.371 6.81517L476.06 6.37655L476.189 4.67735C476.252 3.54579 476.001 3.48313 475.065 3.41678C473.126 3.29146 470.498 3.29146 468.747 3.35043V2.72383C468.747 2.34418 468.622 2.21886 468.434 2.21886L467.118 2.34787L467.181 3.35412L467.807 3.29146V3.28777Z" fill="var(--fill-0, #F4F4E8)"/>
<path id="path484" d="M485.432 9.46468C485.122 9.02605 484.872 8.77541 484.558 8.45843L485.557 7.5775C485.933 7.2642 486.121 6.82189 486.309 6.32061C486.497 5.81564 486.247 5.565 485.871 5.43968C485.248 5.18535 485.185 5.18904 484.371 4.93471L483.936 6.25795L485.248 6.69657C485.122 7.20154 484.746 7.7065 484.245 8.08247L480.681 5.24801L480.43 4.11276C479.748 3.92478 479.243 3.86212 478.433 3.73311L478.119 5.05635L480.242 5.49865C481.617 6.82189 482.929 8.14513 484.304 9.59368C482.118 8.90073 479.866 8.33311 477.677 7.8908C477.489 8.33311 477.364 8.77541 477.305 9.15137C479.741 9.65634 482.553 10.3493 484.805 11.1712C485.119 10.6036 485.24 10.1613 485.428 9.46836" fill="var(--fill-0, #F4F4E8)"/>
<path id="path488" d="M491.624 10.7892C491.62 10.2253 490.496 10.1589 490.681 11.1689C491.182 11.5448 491.742 11.2942 491.624 10.7892Z" fill="var(--fill-0, #F4F4E8)"/>
<path id="path492" d="M486.246 11.6082C488.181 12.5555 491.185 14.1331 493.12 15.5816L494.057 14.4464C493.747 14.1957 493.371 13.9451 492.932 13.6908C494.37 13.3775 494.433 13.2521 494.93 12.5592L495.431 11.8699C495.995 11.048 495.807 10.6094 495.181 10.1671C493.12 8.7185 491.366 7.70856 488.871 6.63965L488.248 7.83757C490.747 8.91016 492.247 9.79109 494.433 11.3687L493.869 12.3122C493.496 12.8799 493.183 13.0089 492.184 13.3222C490.496 12.3122 488.745 11.306 486.869 10.4877L486.246 11.6193V11.6082Z" fill="var(--fill-0, #F4F4E8)"/>
<path id="path496" d="M513.961 53.9796L514.846 54.3998C514.787 54.9084 514.728 55.347 514.61 55.7304L513.67 55.7414L513.961 53.9759V53.9796ZM510.246 52.0777C511.193 52.6268 512.008 52.9954 513.022 53.6073L512.679 55.8188L509.553 55.9921L509.38 57.131L515.506 56.7219C515.683 55.9036 515.852 54.9526 515.9 53.8837L510.357 50.9424L510.246 52.0777Z" fill="var(--fill-0, #F4F4E8)"/>
<path id="path500" d="M507.325 63.317C508.7 64.0726 509.703 64.4523 510.827 65.0199L511.266 64.01C510.392 63.5087 509.64 63.2544 508.763 62.7531C509.201 61.6805 509.471 60.947 509.846 59.8117L514.41 60.947L514.723 59.8117L509.098 58.4222C508.534 60.125 507.952 61.6768 507.325 63.3133" fill="var(--fill-0, #F4F4E8)"/>
<path id="path504" d="M504.05 69.0707L504.924 69.7637C505.864 68.4441 506.553 67.3089 507.238 66.1109L508.551 66.8039C507.924 68.1234 507.235 69.2624 506.424 70.7072L507.297 71.2085L509.55 67.2388L510.36 67.6811C509.675 69.384 509.111 70.2023 508.234 71.7762L509.045 72.3401C510.169 70.7036 510.921 69.196 511.798 67.2388L506.671 64.6587C505.856 66.2952 505.045 67.4932 504.043 69.067" fill="var(--fill-0, #F4F4E8)"/>
<path id="path508" d="M502.424 71.2711L505.675 73.8549L502.737 74.0429L503.113 77.128L499.737 74.2309L498.985 75.0491L503.548 78.8346C503.862 78.5802 504.175 78.2669 504.422 77.891L503.987 75.0565L506.987 74.9939L507.614 73.9876L503.051 70.3939L502.428 71.2748L502.424 71.2711Z" fill="var(--fill-0, #F4F4E8)"/>
<path id="path512" d="M499.981 19.6854L501.864 17.9973C501.68 17.7466 501.433 17.4886 501.119 17.1716C500.552 17.7982 499.358 18.8635 498.48 19.737C499.785 20.9423 500.548 21.7937 501.418 22.741L505.815 19.1804L505.071 18.3548C503.873 19.3537 502.682 20.2936 501.488 21.2335L499.977 19.6854H499.981Z" fill="var(--fill-0, #F4F4E8)"/>
<path id="path516" d="M505.554 28.941L506.431 28.307C505.554 26.7331 504.868 25.6642 504.058 24.4663L505.432 23.519C506.247 24.9713 506.933 25.9149 507.743 27.4261L508.621 26.9248L506.306 23.0177L507.12 22.4501C507.622 23.2057 508.997 25.2846 509.494 26.4198L510.434 25.8522C509.247 23.6443 508.433 22.5091 507.242 20.8099L502.557 24.212C503.619 25.6605 504.618 27.3007 505.558 28.941" fill="var(--fill-0, #F4F4E8)"/>
<path id="path520" d="M511.164 29.2535C511.975 30.5104 512.288 31.6493 512.598 32.5266C512.849 33.2859 511.85 33.4776 511.658 32.9136C511.282 31.841 510.843 30.7684 510.283 29.6995L511.164 29.2572V29.2535ZM506.848 31.4614L509.41 30.2008C509.786 30.9527 510.099 31.4577 510.349 32.217L507.972 34.2921L508.411 35.49L510.851 33.1569C511.724 34.9851 514.164 33.9162 513.538 32.0917C512.974 30.3851 512.605 29.6332 511.599 27.934C509.911 28.6896 508.164 29.6921 506.406 30.5104L506.848 31.4577V31.4614Z" fill="var(--fill-0, #F4F4E8)"/>
<path id="path524" d="M510.107 42.2076C512.352 41.9422 513.904 41.6363 515.831 41.3193L515.61 40.3167C513.992 40.6263 512.809 40.7922 511.069 41.0428C510.848 40.1029 510.689 39.1004 510.406 38.1642C511.703 37.6776 513.126 37.1911 514.674 36.7598L514.39 35.6983C512.285 36.3986 511.235 36.6861 509.012 37.5191C509.444 39.1446 509.809 40.7664 510.107 42.2113" fill="var(--fill-0, #F4F4E8)"/>
<path id="path528" d="M493.114 80.2976L491.702 81.1895L492.41 82.3506L493.372 81.7572C493.563 81.6392 493.755 81.5213 493.935 81.7793L494.525 82.6823L494.927 82.0041L493.865 80.4524C493.685 80.1907 493.504 80.0617 493.121 80.2976" fill="var(--fill-0, #F4F4E8)"/>
<path id="path532" d="M488.779 82.6146C487.437 83.2486 485.207 84.2217 482.601 85.051L483.043 86.3964C486.088 85.4565 487.367 84.8188 489.155 84.0816C489.601 83.9121 489.918 83.7978 490.205 84.3765L491.75 87.7233L492.538 86.8129L490.636 83.1344C490.176 82.2276 489.612 82.2055 488.782 82.611" fill="var(--fill-0, #F4F4E8)"/>
<path id="path536" d="M480.29 85.6399L478.524 86.0159L478.723 87.4091L480.046 87.1401C480.422 87.0922 480.61 87.0995 480.717 87.6082C480.979 88.9388 481.02 89.5101 481.333 91.224L482.229 90.6896L481.263 86.366C481.101 85.6694 480.791 85.533 480.286 85.6399" fill="var(--fill-0, #F4F4E8)"/>
<path id="path540" d="M476.681 86.2903L475.055 86.3234L475.092 87.7093L476.53 87.7351C476.511 88.5534 476.493 89.497 476.423 89.8766C475.155 90.7981 474.093 90.8423 473.094 90.8239L471.779 90.7981C472.044 89.9835 472.438 89.11 472.829 88.2364C472.962 87.9194 473.087 87.7351 473.588 87.7462H473.964L473.931 86.3677C473.054 86.4156 472.431 86.4008 471.366 86.3787L471.336 87.7646L472.398 87.783L471.428 89.4048C470.654 90.647 470.404 90.706 469.092 90.5548L469.202 88.1C469.206 87.9084 469.272 87.7204 469.585 87.7278L470.275 87.7425L470.238 86.3566C469.796 86.3455 468.675 86.2608 467.735 86.1834L467.647 87.5693L468.395 87.6467L468.13 91.738C469.939 91.9628 472.623 92.1398 474.44 91.9186C475.829 91.1925 476.275 90.8202 477.23 89.8324C477.366 89.2685 477.322 88.3249 477.348 86.9979C477.355 86.493 477.175 86.305 476.673 86.2903" fill="var(--fill-0, #F4F4E8)"/>
<path id="path544" d="M465.281 85.8772C462.657 85.3133 461.846 85.1216 460.092 84.6167L460.279 83.9864C460.405 83.6104 460.217 83.4814 460.029 83.4224L458.905 83.0465L458.532 84.1154L459.155 84.307L458.779 85.5639C461.031 86.2569 463.221 86.7618 464.529 87.0162C465.469 87.2042 465.281 87.1415 465.156 87.8971C465.156 87.8971 463.158 88.0224 462.156 88.0888C461.341 88.1514 460.53 88.2768 460.217 89.2203L459.907 90.1639C460.408 90.3519 460.781 90.4809 461.407 90.6062L461.721 89.659L460.91 89.4083C460.969 89.095 461.282 89.0287 461.533 89.0287L465.974 89.0913L466.288 87.3258C466.475 86.1905 466.162 86.0689 465.289 85.8772" fill="var(--fill-0, #F4F4E8)"/>
<path id="path548" d="M455.643 85.3459L454.755 86.9788C452.071 85.8325 450.519 84.9405 448.212 83.2892L448.783 82.3493C449.156 81.7854 449.476 81.6564 450.472 81.3467L455.153 83.9564C455.835 84.336 456.019 84.594 455.643 85.3459ZM455.654 82.6995C453.723 81.7448 451.478 80.5322 449.55 79.0762L448.603 80.2078C448.912 80.4584 449.285 80.7165 449.723 80.9708C448.286 81.273 448.216 81.402 447.715 82.095L446.454 83.7831C449.443 85.9431 451.504 87.0894 455.241 88.6854L456.509 86.2932C457.578 84.1001 457.582 83.6541 455.65 82.6995" fill="var(--fill-0, #F4F4E8)"/>
<path id="path552" d="M439.38 72.7931C438.765 71.9011 437.906 70.7585 437.412 69.9955C436.24 68.2853 437.939 67.4781 438.739 68.6907L440.829 71.7353L439.38 72.7931ZM437.998 73.7883C436.881 72.3914 436.454 71.8201 435.47 70.2978C435.038 69.6601 435.669 69.2252 436.163 69.9181C437.143 71.3225 437.825 72.1481 438.687 73.2907L438.002 73.7883H437.998ZM436.052 68.5322C434.615 68.5138 433.66 69.638 434.957 71.5399C435.816 72.8152 437.106 74.5329 437.788 75.2885L442.207 71.9417L439.62 68.0052C438.514 66.3576 436.255 67.15 436.052 68.5322Z" fill="var(--fill-0, #F4F4E8)"/>
<path id="path556" d="M435.523 59.8348L434.516 60.2624C435.187 61.9063 435.733 63.0452 436.345 64.3795L434.962 65.0577C434.292 63.6018 433.617 62.3301 433.134 60.8152L432.191 61.2428L433.956 65.4853L433.075 65.9792C432.707 65.2825 431.612 62.6877 431.251 61.6114L430.37 61.98C431.155 64.3832 431.829 65.6511 432.685 67.4277C434.572 66.5026 435.829 65.8833 437.716 64.7739C436.982 63.2553 436.252 61.4824 435.523 59.8385" fill="var(--fill-0, #F4F4E8)"/>
<path id="path560" d="M429.51 55.1021C430.379 55.6181 433.417 57.8591 434.224 58.4968L435.038 58.1909C434.559 56.4843 434.139 54.7777 433.848 52.8869L432.786 53.0638C432.901 54.2617 433.195 55.5886 433.431 56.5986L429.148 53.7125L428.146 53.8931C428.433 55.9756 429.038 57.9365 429.58 59.8311L430.649 59.4662C430.225 58.1356 429.867 56.8123 429.51 55.1058" fill="var(--fill-0, #F4F4E8)"/>
<path id="path564" d="M429.836 47.9894L428.91 47.2817L428.925 46.1502L429.865 45.6563L429.836 47.9894ZM433.695 50.4922C432.633 49.7882 431.892 49.3385 430.838 48.5055C430.853 47.2486 430.927 46.2386 431 45.225L433.706 43.747L433.779 42.4938C431.642 43.6032 429.692 44.5247 427.864 45.6378C427.794 46.5225 427.79 47.0864 427.845 47.6467C430.385 49.696 432.869 51.362 433.798 51.8154L433.691 50.4922H433.695Z" fill="var(--fill-0, #F4F4E8)"/>
<path id="path568" d="M435.294 35.6407L431.929 34.4686L431.545 35.5375L433.908 36.3853C433.584 37.4505 433.196 38.7037 432.994 39.9016L428.501 39.1607L428.302 40.2923L433.915 41.1732C434.313 39.2234 434.708 37.6532 435.29 35.6444" fill="var(--fill-0, #F4F4E8)"/>
<path id="path572" d="M438.374 28.3627L437.441 27.913C436.612 29.4132 435.971 30.7917 435.329 32.4245L433.899 31.7758C434.478 30.2093 435.311 28.5801 436.011 27.139L435.079 26.6893C434.249 28.0015 433.479 29.9439 432.838 31.3261L432.152 31.0018C432.86 29.0593 433.368 27.9904 434.268 26.2396L433.335 25.7862C432.314 27.6034 431.415 29.6122 430.641 31.68C432.447 32.4577 434.187 33.1654 436.055 33.8178C436.638 32.0596 437.6 30.0545 438.37 28.359" fill="var(--fill-0, #F4F4E8)"/>
<path id="path576" d="M442.51 22.1738L439.284 19.6784L438.65 20.6183L441.006 22.347L439.041 25.0967L435.252 22.5977L434.677 23.6002C436.479 24.7539 437.659 25.5869 439.458 26.6153C440.412 25.1151 441.555 23.6776 442.506 22.1775" fill="var(--fill-0, #F4F4E8)"/>
<path id="path580" d="M497.791 15.7139C498.156 15.6365 498.392 15.279 498.318 14.9141C498.241 14.5492 497.883 14.3133 497.519 14.387C497.154 14.4644 496.918 14.8219 496.991 15.1868C497.069 15.5517 497.426 15.7876 497.791 15.7139Z" fill="var(--fill-0, #F4F4E8)"/>
<path id="path584" d="M498.056 79.2186C497.683 79.2113 497.37 79.5061 497.363 79.8784C497.355 80.2507 497.65 80.5603 498.022 80.5714C498.395 80.5787 498.704 80.2839 498.715 79.9116C498.723 79.5393 498.428 79.2297 498.056 79.2186Z" fill="var(--fill-0, #F4F4E8)"/>
<path id="path588" d="M443.914 77.4084C443.542 77.4563 443.28 77.7954 443.328 78.164C443.376 78.5363 443.715 78.798 444.083 78.7501C444.456 78.7022 444.717 78.3668 444.669 77.9945C444.622 77.6222 444.286 77.3605 443.914 77.4084Z" fill="var(--fill-0, #F4F4E8)"/>
<path id="path590" d="M472.288 20.7049H471.861V22.2013H472.288V20.7049Z" fill="var(--fill-0, #F4F4E8)"/>
<path id="path594" d="M471.08 20.6054L470.667 20.4948L470.28 21.9397L470.693 22.0503L471.08 20.6054Z" fill="var(--fill-0, #F4F4E8)"/>
<path id="path598" d="M469.196 21.4912L469.944 20.1937L469.572 19.9799L468.827 21.2774L469.199 21.4912H469.196Z" fill="var(--fill-0, #F4F4E8)"/>
<path id="path602" d="M467.891 20.5612L468.945 19.4996L468.643 19.1974L467.589 20.2589L467.891 20.5612Z" fill="var(--fill-0, #F4F4E8)"/>
<path id="path606" d="M467.946 18.2048L466.652 18.9568L466.87 19.3254L468.164 18.5734L467.95 18.2048H467.946Z" fill="var(--fill-0, #F4F4E8)"/>
<path id="path610" d="M473.87 21.9397L473.483 20.4948L473.07 20.6054L473.457 22.0503L473.87 21.9397Z" fill="var(--fill-0, #F4F4E8)"/>
<path id="path614" d="M475.325 21.2774L474.577 19.9799L474.205 20.1937L474.95 21.4912L475.322 21.2774H475.325Z" fill="var(--fill-0, #F4F4E8)"/>
<path id="path618" d="M476.561 20.2589L475.507 19.1974L475.204 19.4996L476.262 20.5612L476.564 20.2589H476.561Z" fill="var(--fill-0, #F4F4E8)"/>
<path id="path622" d="M477.493 18.9568L476.199 18.2048L475.985 18.5734L477.279 19.3254L477.493 18.9568Z" fill="var(--fill-0, #F4F4E8)"/>
</g>
</svg>
