<svg width="880" height="924" viewBox="0 0 880 924" fill="none" xmlns="http://www.w3.org/2000/svg" aria-hidden="true">
  <rect width="880" height="924" fill="#F4F4E8"/>
  <path d="M405.465 369.365C408.752 351.192 442.519 299.677 491.815 309.29C539.258 318.541 551.876 368.366 545.548 414.784C539.922 456.057 477.211 513.451 472.406 556.8C469.528 582.762 479.738 597.672 496.499 608.517C513.604 619.585 540.619 617.391 551.706 607.263M582.288 391.051C626.364 419.322 667.284 404.686 680.427 375.116C690.582 342.26 670.271 316.573 640.363 309.83C591.118 301.041 548.181 342.309 546.542 408.024C543.903 444.398 573.474 498.077 601.645 542.972C619.073 570.745 632.633 589.874 654.25 612.83" stroke="#1E1E1E" stroke-width="5" stroke-linecap="round"/>
  <path d="M474.535 369.365C471.248 351.192 437.481 299.677 388.185 309.29C340.742 318.541 328.124 368.366 334.452 414.784C340.078 456.057 402.789 513.451 407.594 556.8C410.472 582.762 400.262 597.672 383.501 608.517C366.396 619.585 339.381 617.391 328.294 607.263M297.712 391.051C253.636 419.322 212.716 404.686 199.573 375.116C189.418 342.26 209.729 316.573 239.637 309.83C288.882 301.041 331.819 342.309 333.458 408.024C336.097 444.398 306.526 498.077 278.355 542.972C260.927 570.745 247.367 589.874 225.75 612.83" stroke="#1E1E1E" stroke-width="5" stroke-linecap="round"/>
</svg>
