<svg preserveAspectRatio="none" width="100%" height="100%" overflow="visible" style="display: block;" viewBox="0 0 230.916 230.916" fill="none" xmlns="http://www.w3.org/2000/svg">
<g id="Frame 396">
<path id="Vector" d="M74.9938 28.2873C79.8754 16.6009 99.82 15.6008 114.268 21.2074C114.975 21.4818 115.757 21.4818 116.464 21.2075C130.921 15.6008 151.034 16.6008 155.915 28.2873C160.729 39.8115 154.809 52.358 143.86 66.5288C143.264 67.3005 143.698 68.4434 144.64 68.6934C148.546 69.7291 151.22 71.6006 154.59 74.3559C155.173 74.8328 156.059 74.5448 156.262 73.8194C161.948 53.565 173.425 44.1991 188.406 46.5499C207.186 49.4969 206.967 67.9443 203.092 77.6711C198.726 88.6287 187.971 93.474 175.647 92.8838C174.828 92.8445 174.26 93.7168 174.581 94.4721C175.203 95.9381 175.23 96.8295 175.367 98.7471C175.463 100.082 176.705 101.012 178.029 100.817C193.374 98.5565 205.994 100.996 212.503 107.581C217.746 112.886 221.025 121.948 221.025 131.327C220.865 138.204 219.206 144.273 215.89 151.049C215.377 152.098 215.425 153.337 215.984 154.361C222.471 166.251 219.584 175.75 217.09 179.628C210.419 190.003 198.026 189.424 182.627 186.549C181.826 186.4 181.004 186.527 180.253 186.843C175.19 188.972 162.845 191.773 154.925 187.749C154.558 187.562 154.106 187.848 154.109 188.259C154.23 207.828 124.801 213.002 115.218 213.002C105.634 213.002 76.679 207.828 76.8 188.259C76.8026 187.848 76.3512 187.562 75.9843 187.749C68.0643 191.773 55.719 188.972 50.6561 186.843C49.9047 186.527 49.0834 186.4 48.282 186.549C32.8834 189.424 20.4898 190.003 13.8188 179.628C11.3253 175.75 8.43841 166.251 14.9254 154.361C15.4844 153.337 15.5324 152.098 15.0193 151.049C11.7026 144.273 10.0439 138.204 9.88386 131.327C9.88366 121.948 13.1631 112.886 18.4058 107.581C24.9151 100.996 37.5354 98.5565 52.8802 100.817C54.2041 101.012 55.4457 100.082 55.5416 98.7471C55.6795 96.8295 55.7057 95.9381 56.3281 94.4721C56.6489 93.7168 56.0812 92.8445 55.2615 92.8838C42.9382 93.474 32.1833 88.6287 27.8174 77.6711C23.9419 67.9443 23.7234 49.4969 42.5029 46.5499C57.4836 44.1991 68.961 53.565 74.6467 73.8194C74.8503 74.5448 75.7358 74.8328 76.319 74.3559C79.6886 71.6006 82.3631 69.7291 86.2688 68.6934C87.2114 68.4434 87.6453 67.3005 87.0491 66.5288C76.0998 52.358 70.1795 39.8115 74.9938 28.2873Z" stroke="var(--stroke-0, #F4F4E8)" stroke-width="3.02841" stroke-linejoin="round"/>
</g>
</svg>
