<svg width="231" height="231" viewBox="0 0 231 231" fill="none" xmlns="http://www.w3.org/2000/svg" aria-hidden="true">
  <path d="M74.9947 28.2879C79.8763 16.6015 99.8209 15.6014 114.269 21.2079C114.976 21.4823 115.758 21.4823 116.465 21.2081C130.921 15.6014 151.034 16.6014 155.916 28.2879C160.73 39.8121 154.81 52.3586 143.861 66.5294C143.265 67.301 143.698 68.444 144.641 68.694C148.547 69.7297 151.221 71.6011 154.591 74.3565C155.174 74.8334 156.06 74.5454 156.263 73.82C161.949 53.5656 173.426 44.1997 188.407 46.5505C207.186 49.4975 206.968 67.9449 203.093 77.6717C198.727 88.6293 187.972 93.4746 175.648 92.8844C174.829 92.8451 174.261 93.7174 174.582 94.4727C175.204 95.9387 175.23 96.8301 175.368 98.7477C175.464 100.082 176.706 101.013 178.03 100.818C193.374 98.5571 205.995 100.996 212.504 107.582C217.747 112.886 221.026 121.948 221.026 131.328C220.866 138.205 219.207 144.274 215.891 151.05C215.378 152.098 215.425 153.337 215.984 154.362C222.471 166.251 219.585 175.75 217.091 179.629C210.42 190.004 198.027 189.424 182.628 186.55C181.826 186.4 181.005 186.528 180.254 186.844C175.191 188.973 162.846 191.773 154.926 187.749C154.559 187.563 154.107 187.848 154.11 188.26C154.231 207.828 124.802 213.002 115.219 213.002C105.635 213.002 76.6799 207.828 76.8009 188.26C76.8035 187.848 76.3521 187.563 75.9852 187.749C68.0652 191.773 55.7199 188.973 50.657 186.844C49.9056 186.528 49.0843 186.4 48.283 186.55C32.8843 189.424 20.4907 190.004 13.8197 179.629C11.3262 175.75 8.43932 166.251 14.9263 154.362C15.4853 153.337 15.5333 152.098 15.0202 151.05C11.7035 144.274 10.0448 138.205 9.88477 131.328C9.88456 121.948 13.164 112.886 18.4067 107.582C24.916 100.996 37.5363 98.5571 52.8811 100.818C54.205 101.013 55.4466 100.082 55.5425 98.7477C55.6804 96.8301 55.7066 95.9387 56.329 94.4727C56.6498 93.7174 56.0821 92.8451 55.2624 92.8844C42.9391 93.4746 32.1842 88.6293 27.8183 77.6717C23.9428 67.9449 23.7243 49.4975 42.5038 46.5505C57.4845 44.1997 68.9619 53.5656 74.6476 73.82C74.8512 74.5454 75.7367 74.8334 76.3199 74.3565C79.6895 71.6011 82.364 69.7297 86.2697 68.694C87.2123 68.444 87.6462 67.301 87.05 66.5294C76.1007 52.3586 70.1805 39.8121 74.9947 28.2879Z" fill="none" stroke="#F4F4E8" stroke-width="3.03" stroke-linejoin="round"/>
</svg>
