<svg width="425" height="234" viewBox="0 0 425 234" fill="none" xmlns="http://www.w3.org/2000/svg" aria-hidden="true">
  <path d="M161.013 69.5249C173.448 55.9793 192.406 44.3236 214.954 44.3236C237.502 44.3236 256.676 55.9793 269.111 69.5249C270.221 70.7343 271.954 71.1713 273.481 70.5699L279.825 68.0723C281.07 67.5823 281.629 66.1429 281.184 64.8815C278.167 56.3295 280.285 46.8317 286.392 40.0262C288.725 37.4269 292.607 35.2275 296.684 33.7016C299.233 32.7472 301.431 30.9813 302.735 28.5918C308.808 17.4682 318.04 6.6819 330.305 3.81277C352.253 -0.372703 367.191 10.8963 371.987 32.4101C374.276 45.1241 369.737 53.3502 362.358 64.1789C361.569 65.337 361.207 66.7296 361.225 68.1308C361.324 75.7651 358.932 81.3206 356.244 84.7222C354.212 87.2925 350.629 91.3004 345.536 93.7945C343.952 94.5704 342.656 96.0162 342.803 97.774C343.006 100.213 343.912 102.475 345.579 104.453C349.46 109.06 356.359 108.47 362.145 106.793C373.07 103.625 378.298 103.464 390.638 105.316C413.606 108.765 429.969 126.324 426.776 150.566C425.916 157.098 420.894 162.937 416.226 168.097C413.715 170.874 413.245 174.881 414.947 178.215C420.705 189.497 423.187 195.648 420.891 203.94C417.299 216.909 403.193 221.362 387.522 220.413C366.336 219.129 356.138 219.291 341.521 216.071C339.125 215.544 336.662 216.635 335.38 218.726C329.568 228.205 323.383 233.327 314.36 235.045C304.937 236.84 284.325 236.874 269.789 236.874C255.957 236.308 252.401 235.55 241.39 230.039C238.411 228.548 236.095 227.046 234.119 225.324C227.403 219.474 227.16 209.415 229.652 200.865C230.305 198.625 229.172 196.222 226.973 195.441C219.279 192.707 210.902 192.687 203.151 195.441C200.952 196.222 199.819 198.625 200.472 200.865C202.964 209.415 202.72 219.474 196.005 225.324C194.029 227.046 191.713 228.548 188.734 230.039C177.723 235.55 174.167 236.308 160.335 236.874C145.799 236.874 125.186 236.84 115.764 235.045C106.741 233.327 100.556 228.205 94.7437 218.726C93.4616 216.635 90.9986 215.544 88.6032 216.071C73.9854 219.291 63.7881 219.129 42.6019 220.413C26.931 221.362 12.8246 216.909 9.23313 203.94C6.93703 195.648 9.41844 189.497 15.1771 178.215C16.8789 174.881 16.4089 170.874 13.8979 168.097C9.23015 162.937 4.20786 157.098 3.34755 150.566C0.154636 126.324 16.5175 108.765 39.4862 105.316C51.8256 103.464 57.0537 103.625 67.979 106.793C73.7646 108.47 80.6636 109.06 84.5447 104.453C86.2115 102.475 87.1174 100.213 87.3208 97.774C87.4674 96.0162 86.1716 94.5704 84.5875 93.7945C79.4953 91.3004 75.9115 87.2925 73.8801 84.7222C71.1917 81.3206 68.8 75.7651 68.8991 68.1308C68.9172 66.7296 68.5547 65.337 67.7656 64.1789C60.3869 53.3502 55.8474 45.1241 58.1366 32.4101C62.9332 10.8963 77.8707 -0.372703 99.8187 3.81277C112.084 6.6819 121.316 17.4682 127.389 28.5918C128.693 30.9813 130.89 32.7472 133.44 33.7016C137.517 35.2275 141.399 37.4269 143.732 40.0262C149.839 46.8317 151.957 56.3295 148.94 64.8815C148.495 66.1429 149.054 67.5823 150.299 68.0723L156.643 70.5699C158.17 71.1713 159.903 70.7343 161.013 69.5249Z" stroke="#F4F4E8" stroke-width="5.9" stroke-linejoin="round"/>
</svg>
