<svg width="300" height="300" viewBox="0 0 300.43 300.43" fill="none" xmlns="http://www.w3.org/2000/svg" aria-hidden="true">
  <path d="M97.2404 36.4774C103.592 21.273 129.54 19.9718 148.337 27.2661C149.257 27.6231 150.275 27.6231 151.195 27.2663C170.003 19.9718 196.171 21.2729 202.522 36.4774C208.786 51.4707 201.083 67.7942 186.838 86.2309C186.062 87.2348 186.626 88.7219 187.853 89.0471C192.934 90.3946 196.414 92.8294 200.798 96.4142C201.557 97.0347 202.709 96.6599 202.974 95.7163C210.371 69.3645 225.303 57.1792 244.794 60.2377C269.227 64.0718 268.942 88.0725 263.9 100.727C258.22 114.984 244.228 121.288 228.194 120.52C227.128 120.469 226.389 121.603 226.807 122.586C227.617 124.493 227.651 125.653 227.83 128.148C227.955 129.885 229.57 131.095 231.293 130.841C251.257 127.9 267.676 131.073 276.145 139.642C282.966 146.543 287.233 158.333 287.232 170.536C287.024 179.483 284.866 187.379 280.551 196.195C279.883 197.559 279.946 199.171 280.673 200.504C289.113 215.972 285.357 228.331 282.113 233.377C273.434 246.875 257.309 246.121 237.275 242.382C236.232 242.187 235.164 242.353 234.186 242.764C227.599 245.534 211.538 249.177 201.233 243.942C200.756 243.7 200.169 244.071 200.172 244.606C200.33 270.066 162.042 276.797 149.573 276.797C137.105 276.797 99.433 270.066 99.5905 244.606C99.5938 244.071 99.0065 243.7 98.5292 243.942C88.225 249.177 72.1633 245.534 65.5764 242.764C64.5987 242.353 63.5302 242.187 62.4876 242.382C42.4534 246.121 26.3289 246.875 17.6497 233.377C14.4055 228.331 10.6497 215.972 19.0895 200.504C19.8168 199.171 19.8792 197.559 19.2116 196.195C14.8965 187.379 12.7385 179.483 12.5302 170.536C12.53 158.333 16.7967 146.543 23.6176 139.642C32.0864 131.073 48.5058 127.9 68.47 130.841C70.1924 131.095 71.8077 129.885 71.9325 128.148C72.1119 125.653 72.146 124.493 72.9558 122.586C73.3731 121.603 72.6345 120.469 71.5681 120.52C55.535 121.288 41.5425 114.984 35.8624 100.727C30.8202 88.0725 30.536 64.0718 54.9688 60.2377C74.4591 57.1792 89.3916 69.3645 96.7889 95.7163C97.0538 96.6599 98.2058 97.0347 98.9646 96.4142C103.349 92.8294 106.828 90.3946 111.91 89.0471C113.136 88.7219 113.701 87.2348 112.925 86.2309C98.6795 67.7942 90.977 51.4707 97.2404 36.4774Z" stroke="#F4F4E8" stroke-width="3.94" stroke-linejoin="round"/>
</svg>
