<svg preserveAspectRatio="none" width="100%" height="100%" overflow="visible" style="display: block;" viewBox="0 0 11.3438 11.5916" fill="none" xmlns="http://www.w3.org/2000/svg">
<g id="Layer_1" clip-path="url(#clip0_0_14)">
<path id="Vector" d="M2.47893 10.4477L1.33502 11.5916L0.0957918 10.3714L1.20157 9.26565C0.477094 8.27427 0.0195312 7.09223 0.0195312 5.77673C0.0195312 4.46124 0.458029 3.26014 1.20157 2.30688L0.0957918 1.22017L1.33502 0L2.45987 1.12484C3.35593 0.476628 4.48077 0.114391 5.66281 0.114391C6.84485 0.114391 7.96969 0.476628 8.86575 1.12484L9.99059 0L11.2298 1.22017L10.1622 2.28782C10.8867 3.2792 11.3442 4.46124 11.3442 5.77673C11.3442 7.09223 10.8867 8.3124 10.124 9.26565L11.2298 10.3714L9.99059 11.5916L8.86575 10.4668C7.95062 11.0768 6.84485 11.4581 5.66281 11.4581C4.48077 11.4581 3.35593 11.0959 2.45987 10.4477H2.47893ZM5.66281 9.74228C7.8553 9.74228 9.62835 7.98829 9.62835 5.77673C9.62835 3.56518 7.87436 1.83025 5.66281 1.83025C3.45125 1.83025 1.71633 3.58424 1.71633 5.77673C1.71633 7.96922 3.47032 9.74228 5.66281 9.74228Z" fill="var(--fill-0, #F4F4E8)"/>
</g>
<defs>
<clipPath id="clip0_0_14">
<rect width="11.3438" height="11.5916" fill="white"/>
</clipPath>
</defs>
</svg>
