<svg preserveAspectRatio="none" width="100%" height="100%" overflow="visible" style="display: block;" viewBox="0 0 291.758 162.674" fill="none" xmlns="http://www.w3.org/2000/svg">
<path id="Vector" d="M109.217 47.1587C117.651 37.9706 130.511 30.0643 145.806 30.0643C161.1 30.0643 174.106 37.9706 182.541 47.1587C183.294 47.9791 184.469 48.2755 185.505 47.8675L189.809 46.1734C190.653 45.841 191.032 44.8646 190.73 44.0091C188.684 38.2081 190.12 31.7656 194.263 27.1493C195.845 25.3862 198.479 23.8943 201.244 22.8593C202.973 22.2119 204.464 21.0141 205.349 19.3932C209.468 11.848 215.73 4.53145 224.05 2.58528C238.937 -0.253781 249.07 7.39013 252.323 21.9832C253.876 30.6073 250.797 36.1872 245.792 43.5325C245.257 44.318 245.011 45.2626 245.023 46.2131C245.09 51.3916 243.468 55.1599 241.644 57.4672C240.266 59.2107 237.835 61.9293 234.381 63.6211C233.307 64.1474 232.428 65.1281 232.527 66.3205C232.665 67.9747 233.28 69.5089 234.41 70.851C237.043 73.9761 241.723 73.5758 245.647 72.4379C253.058 70.2892 256.604 70.1798 264.974 71.4366C280.554 73.7759 291.653 85.6861 289.488 102.13C288.904 106.561 285.497 110.521 282.331 114.022C280.628 115.905 280.309 118.623 281.463 120.885C285.37 128.537 287.053 132.71 285.495 138.334C283.059 147.131 273.491 150.152 262.861 149.508C248.49 148.637 241.573 148.747 231.657 146.563C230.033 146.205 228.362 146.945 227.492 148.364C223.55 154.793 219.355 158.268 213.234 159.433C206.843 160.651 192.861 160.674 183.001 160.674C173.619 160.29 171.206 159.776 163.738 156.038C161.717 155.027 160.146 154.007 158.805 152.839C154.25 148.871 154.085 142.048 155.776 136.248C156.219 134.729 155.45 133.099 153.958 132.569C148.739 130.715 143.057 130.701 137.799 132.569C136.308 133.099 135.539 134.729 135.982 136.248C137.673 142.048 137.507 148.871 132.952 152.839C131.612 154.007 130.041 155.027 128.02 156.038C120.551 159.776 118.139 160.29 108.757 160.674C98.8968 160.674 84.915 160.651 78.5237 159.433C72.403 158.268 68.2077 154.793 64.2653 148.364C63.3957 146.945 61.725 146.205 60.1002 146.563C50.1847 148.747 43.2677 148.637 28.8969 149.508C18.2671 150.152 8.69853 147.131 6.26237 138.334C4.70489 132.71 6.38807 128.537 10.2942 120.885C11.4486 118.623 11.1298 115.905 9.42651 114.022C6.26035 110.521 2.85366 106.561 2.2701 102.13C0.104303 85.6861 11.2035 73.7759 26.7834 71.4366C35.1534 70.1798 38.6997 70.2892 46.1105 72.4379C50.035 73.5758 54.7146 73.9761 57.3472 70.851C58.4778 69.5089 59.0923 67.9747 59.2303 66.3205C59.3298 65.1281 58.4508 64.1474 57.3762 63.6211C53.9221 61.9293 51.4912 59.2107 50.1133 57.4672C48.2897 55.1599 46.6674 51.3916 46.7346 46.2131C46.7469 45.2626 46.501 44.318 45.9657 43.5325C40.9606 36.1872 37.8814 30.6073 39.4342 21.9832C42.6879 7.39013 52.8201 -0.253781 67.7078 2.58528C76.0273 4.53145 82.2895 11.848 86.4089 19.3932C87.2938 21.0141 88.7842 22.2119 90.5137 22.8593C93.2789 23.8943 95.9122 25.3862 97.4945 27.1493C101.637 31.7656 103.074 38.2081 101.027 44.0091C100.726 44.8646 101.105 45.841 101.949 46.1734L106.252 47.8675C107.288 48.2755 108.464 47.9791 109.217 47.1587Z" stroke="var(--stroke-0, #1500e1)" stroke-width="4" stroke-linejoin="round"/>
</svg>
