<svg preserveAspectRatio="none" width="100%" height="100%" overflow="visible" style="display: block;" viewBox="0 0 272.426 277.41" fill="none" xmlns="http://www.w3.org/2000/svg">
<path id="Vector" d="M102.833 20.8508C105.844 23.2525 111.366 21.6797 112.302 17.9354C116.485 -3.3288 155.948 -3.29523 160.124 17.9367C161.06 21.6809 166.582 23.2537 169.593 20.852C175.12 16.443 182.326 16.3547 199.559 17.1819C234.049 18.5264 247.356 34.5237 253.696 48.9708C265.105 74.9697 263.424 87.4773 250.176 107.162C248.762 109.852 251.852 113.016 258.152 113.016C265.266 113.016 268.663 115.494 269.95 120.175C272.006 127.656 267.094 130.157 261.486 132.148C259.947 132.694 258.755 133.935 258.314 135.508C257.545 138.251 259.29 141.121 261.674 142.681C264.236 144.356 266.959 147.226 267.402 151.96C268.27 161.244 256.897 161.56 256.897 161.56C253.19 161.894 250.829 161.689 248.328 160.891C246.147 160.195 243.823 160.025 241.611 160.611C236.363 162.003 231.463 162.304 226.544 160.657C223.959 159.792 220.917 159.526 219.013 161.478C218.692 161.806 218.405 162.141 218.136 162.492C216.681 164.389 216.406 166.98 217.35 169.177C218.633 172.161 222.043 173.496 225.291 173.399C234.783 173.115 239.932 173.417 245.019 176.691C250.958 180.515 253.233 187.798 252.463 195.162C252.191 197.762 250.978 200.041 249.828 201.954C248.824 203.622 248.552 205.593 248.94 207.501C252.572 225.392 248.901 244.622 232.167 251.381C227.627 253.215 222.609 253.228 217.726 253.6C207.64 254.368 201.947 256.751 194.918 260.017C184.858 264 175.899 261.461 169.024 257.228C165.785 255.233 161.449 255.023 158.918 257.862C157.162 259.832 155.976 261.741 155.158 263.984C154.015 267.118 152.557 270.294 149.717 272.044C142.43 276.533 129.995 276.532 122.709 272.043C119.869 270.293 118.411 267.117 117.268 263.983C116.45 261.74 115.264 259.831 113.508 257.861C110.977 255.021 106.641 255.232 103.402 257.226C96.5268 261.46 87.5685 263.999 77.5083 260.016C70.4785 256.749 64.7863 254.367 54.7005 253.599C49.8175 253.227 44.7993 253.213 40.2586 251.379C23.5249 244.62 19.8543 225.391 23.4864 207.499C23.8736 205.592 23.6016 203.621 22.5984 201.953C21.4481 200.04 20.2347 197.761 19.9628 195.161C19.1927 187.797 21.4678 180.513 27.407 176.69C32.4935 173.416 37.6429 173.114 47.1354 173.398C50.3827 173.495 53.7929 172.16 55.0761 169.175C56.0203 166.979 55.7451 164.388 54.2901 162.491C54.0211 162.14 53.7335 161.804 53.4133 161.476C51.5092 159.525 48.467 159.791 45.8817 160.656C40.9626 162.303 36.0633 162.001 30.815 160.61C28.6032 160.023 26.2785 160.194 24.0985 160.89C21.5967 161.688 19.2363 161.893 15.5285 161.559C15.5285 161.559 4.15564 161.243 5.02427 151.958C5.46718 147.224 8.18953 144.355 10.7516 142.679C13.1364 141.12 14.8806 138.25 14.1115 135.506C13.6708 133.934 12.4792 132.692 10.9401 132.146C5.33207 130.156 0.41977 127.654 2.47626 120.174C3.76302 115.493 7.15988 113.015 14.2741 113.015C20.5737 113.015 23.6639 109.851 22.2503 107.161C9.00238 87.476 7.32111 74.9685 18.7303 48.9695C25.0702 34.5224 38.3768 18.5251 72.8673 17.1806C90.1004 16.3534 97.3055 16.4418 102.833 20.8508Z" stroke="var(--stroke-0, white)" stroke-width="4" stroke-linejoin="round"/>
</svg>
