<svg preserveAspectRatio="none" width="100%" height="100%" overflow="visible" style="display: block;" viewBox="0 0 162.765 281.371" fill="none" xmlns="http://www.w3.org/2000/svg">
<path id="Vector" d="M29.43 18.5309C40.8484 39.3179 47.1983 51.0553 57.6581 70.2491C58.2682 71.3687 58.2208 72.7602 57.3907 73.7279C55.4225 76.0225 53.2982 77.1551 49.7438 77.8826C47.9428 78.2512 46.129 77.5992 44.6024 76.5751C40.4351 73.7794 36.0517 73.2244 31.7835 75.0171C24.1204 78.2358 21.7666 86.2001 25.8293 96.1058C26.0797 96.7162 25.8461 97.4253 25.2681 97.7432L23.3132 98.8185C22.0036 99.5388 20.4665 99.6399 18.9968 99.3683C16.5792 98.9215 14.5008 99.1756 12.3663 100.497C5.09668 104.996 5.87345 112.16 13.9477 125.332C14.8227 126.76 16.4259 127.565 18.099 127.502C23.1365 127.313 26.7295 127.528 30.0352 128.414C30.9874 128.669 31.4405 129.725 31.0402 130.626L30.2237 132.463C29.7083 133.623 28.8284 134.579 27.7395 135.231C19.1486 140.371 13.3796 146.325 12.3663 154.647C11.5688 161.197 11.9557 164.795 13.3757 169.538C13.8085 170.984 13.3822 172.541 12.3616 173.653C7.61003 178.83 7.84684 183.471 8.05154 191.52C7.59718 211.274 6.76142 218.614 7.12363 245.965C7.13379 246.733 6.97028 247.508 6.644 248.203L3.59165 254.704C2.27316 257.512 1.55529 260.656 2.30242 263.667C4.05729 270.739 8.85532 274.39 21.1925 278.211C30.582 279.588 36.2826 279.478 46.4937 279.192C50.1094 278.287 52.6258 277.531 55.907 276.191C58.4757 275.142 61.296 274.819 64.001 275.438L64.1784 275.478C65.1353 275.697 66.0553 276.054 66.9095 276.537L69.6653 278.097C70.9326 278.815 72.3641 279.192 73.8204 279.192H88.9451C90.4014 279.192 91.8328 278.815 93.1002 278.097L95.856 276.537C96.7101 276.054 97.6301 275.697 98.587 275.478L98.7645 275.438C101.469 274.819 104.29 275.142 106.858 276.191C110.14 277.531 112.656 278.287 116.272 279.192C126.483 279.478 132.183 279.588 141.573 278.211C153.91 274.39 158.708 270.739 160.463 263.667C161.21 260.656 160.492 257.512 159.174 254.704L156.121 248.203C155.795 247.508 155.632 246.733 155.642 245.965C156.004 218.614 155.168 211.274 154.714 191.52C154.919 183.471 155.155 178.83 150.404 173.653C149.383 172.541 148.957 170.984 149.39 169.538C150.81 164.795 151.197 161.197 150.399 154.647C149.386 146.325 143.617 140.371 135.026 135.231C133.937 134.579 133.057 133.623 132.542 132.463L131.725 130.626C131.325 129.725 131.778 128.669 132.73 128.414C136.036 127.528 139.629 127.313 144.667 127.502C146.34 127.565 147.943 126.76 148.818 125.332C156.892 112.16 157.669 104.996 150.399 100.497C148.265 99.1756 146.186 98.9215 143.769 99.3683C142.299 99.6399 140.762 99.5388 139.452 98.8185L137.497 97.7432C136.919 97.4253 136.686 96.7162 136.936 96.1058C140.999 86.2002 138.645 78.2358 130.982 75.0171C126.714 73.2244 122.33 73.7794 118.163 76.5751C116.636 77.5992 114.823 78.2512 113.022 77.8826C109.467 77.1551 107.343 76.0226 105.375 73.7279C104.545 72.7602 104.497 71.3687 105.107 70.2492C115.567 51.0553 121.917 39.3179 133.335 18.5309C136.142 12.0322 129.864 3.07368 120.783 2.05579C104.252 1.64616 97.7772 3.49496 87.2443 7.54734L84.1061 9.1164L78.6593 9.11639L75.5212 7.54733C64.9883 3.49495 58.5137 1.64615 41.9824 2.05578C32.9014 3.07367 26.6234 12.0322 29.43 18.5309Z" stroke="var(--stroke-0, #1500e1)" stroke-width="4" stroke-linejoin="round"/>
</svg>
