<svg preserveAspectRatio="none" width="100%" height="100%" overflow="visible" style="display: block;" viewBox="0 0 278.478 284.742" fill="none" xmlns="http://www.w3.org/2000/svg">
<path id="Vector" d="M75.961 6.70285C93.8627 0.657771 110.968 1.31076 133.426 3.83791L145.052 3.83721C167.51 1.31005 184.615 0.657066 202.517 6.70215C219.944 12.5862 233.331 23.0931 232.394 39.9519C231.927 48.3709 227.593 55.9405 221.013 61.3898C235.434 65.4501 245.413 69.1738 255.529 75.6363C269.389 85.096 278.05 96.6154 276.24 117.391C274.979 131.854 257.494 151.22 238.855 160.024C231.153 163.662 226.793 165.908 217.536 170.307C217.128 170.501 216.995 171.02 217.319 171.335C220.506 174.434 228.188 174.419 232.058 177.268C239.909 183.048 240.762 189.574 239.177 196.161C237.286 202.564 231.991 205.681 224.783 206.895C219.352 207.809 215.029 208.045 210.15 208.076C209.57 208.079 209.048 208.427 208.814 208.958C204.811 218.031 199.382 223.672 190.784 229.588C186.68 232.412 182.446 234.329 176.942 236.351C176.086 236.666 175.72 237.685 176.219 238.449C178.079 241.293 179.891 243.297 182.447 245.285C185.456 247.624 189.347 248.306 193.156 248.448C203.036 248.814 210.084 252.365 213.649 259.042C216.123 268.006 212.22 277.886 201.248 281.521C196.545 283.078 191.776 283.086 186.574 281.882C182.137 280.855 177.503 280.826 173.007 281.553C168.957 282.208 165.068 282.241 160.806 282.643C154.796 282.643 149.845 280.892 143.588 278.189C142.764 277.833 141.876 277.645 140.977 277.645L137.501 277.646C136.602 277.646 135.714 277.834 134.89 278.19C128.632 280.893 123.681 282.644 117.672 282.644C113.41 282.242 109.52 282.209 105.47 281.554C100.975 280.827 96.3407 280.856 91.9038 281.883C86.7023 283.087 81.9331 283.079 77.2303 281.521C66.2582 277.886 62.3549 268.006 64.8285 259.043C68.3941 252.366 75.4424 248.815 85.3216 248.448C89.1305 248.307 93.0223 247.625 96.0311 245.285C98.5867 243.298 100.399 241.294 102.259 238.449C102.758 237.686 102.392 236.667 101.535 236.352C96.0314 234.329 91.7983 232.413 87.6942 229.589C79.0963 223.673 73.6666 218.031 69.6643 208.959C69.4301 208.428 68.9082 208.08 68.3281 208.076C63.4493 208.046 59.1256 207.81 53.6945 206.895C46.4865 205.682 41.1918 202.565 39.3011 196.161C37.7154 189.575 38.5693 183.049 46.4197 177.269C50.2902 174.42 57.9722 174.435 61.1593 171.335C61.4829 171.021 61.3498 170.501 60.9421 170.308C51.6853 165.909 47.3253 163.663 39.6225 160.025C20.9842 151.221 3.49881 131.855 2.23825 117.392C0.427462 96.6161 9.08937 85.0967 22.9493 75.637C33.0646 69.1745 43.0434 65.4508 57.4651 61.3905C50.8852 55.9412 46.5512 48.3716 46.0835 39.9526C45.1469 23.0938 58.5338 12.5869 75.961 6.70285Z" stroke="var(--stroke-0, #1500e1)" stroke-width="4" stroke-linejoin="round"/>
</svg>
