<svg preserveAspectRatio="none" width="100%" height="100%" overflow="visible" style="display: block;" viewBox="0 0 424.977 300" fill="none" xmlns="http://www.w3.org/2000/svg">
<g id="Rectangle 1971" filter="url(#filter0_d_0_4)">
<path d="M12.5 4.50001L351.644 4.5C354.852 4.5 358.062 4.72715 361.19 5.43836C363.762 6.02301 366.878 6.85929 369.177 7.88557C373.274 9.71461 379.886 13.9688 379.886 13.9688C379.886 13.9688 386.723 9.80176 390.872 7.88557C393.134 6.84079 396.151 6.00935 398.646 5.4319C401.731 4.71818 404.899 4.5 408.066 4.5L416.477 4.50001C416.477 52.9316 416.477 235.033 416.477 283.5C309.723 283.5 121.025 283.5 12.5 283.5C12.5 236.06 12.5 51.9896 12.5 4.50001Z" fill="var(--fill-0, #F8F8F7)"/>
<path d="M12.5 4.50001L351.644 4.5C354.852 4.5 358.062 4.72715 361.19 5.43836C363.762 6.02301 366.878 6.85929 369.177 7.88557C373.274 9.71461 379.886 13.9688 379.886 13.9688C379.886 13.9688 386.723 9.80176 390.872 7.88557C393.134 6.84079 396.151 6.00935 398.646 5.4319C401.731 4.71818 404.899 4.5 408.066 4.5L416.477 4.50001C416.477 52.9316 416.477 235.033 416.477 283.5C309.723 283.5 121.025 283.5 12.5 283.5C12.5 236.06 12.5 51.9896 12.5 4.50001Z" stroke="var(--stroke-0, #1B1613)"/>
</g>
<defs>
<filter id="filter0_d_0_4" x="0" y="8.9407e-08" width="424.977" height="300" filterUnits="userSpaceOnUse" color-interpolation-filters="sRGB">
<feFlood flood-opacity="0" result="BackgroundImageFix"/>
<feColorMatrix in="SourceAlpha" type="matrix" values="0 0 0 0 0 0 0 0 0 0 0 0 0 0 0 0 0 0 127 0" result="hardAlpha"/>
<feOffset dx="-2" dy="6"/>
<feGaussianBlur stdDeviation="5"/>
<feComposite in2="hardAlpha" operator="out"/>
<feColorMatrix type="matrix" values="0 0 0 0 0 0 0 0 0 0 0 0 0 0 0 0 0 0 0.1 0"/>
<feBlend mode="normal" in2="BackgroundImageFix" result="effect1_dropShadow_0_4"/>
<feBlend mode="normal" in="SourceGraphic" in2="effect1_dropShadow_0_4" result="shape"/>
</filter>
</defs>
</svg>
