<svg preserveAspectRatio="none" width="100%" height="100%" overflow="visible" style="display: block;" viewBox="0 0 111.617 51.1331" fill="none" xmlns="http://www.w3.org/2000/svg">
<g id="Rectangle 1002" filter="url(#filter0_d_0_6)">
<path d="M12 4H48.2372C50.5264 4 52.8425 4.1402 55.0068 4.88574C56.1167 5.26805 57.8086 6.47726 57.8086 6.47726C57.8086 6.47726 59.5501 5.26917 60.6826 4.88574C62.8059 4.16683 65.0681 4 67.3097 4H103.617V5.78335C103.617 9.10971 103.493 12.565 101.914 15.4924C101.883 15.5488 101.852 15.604 101.822 15.658C100.848 17.3619 98.6627 19.5666 98.6627 19.5666C98.6627 19.5666 100.854 21.6788 101.822 23.3389C101.936 23.5347 102.046 23.7475 102.153 23.9712C103.472 26.7395 103.617 29.8892 103.617 32.9557V35.1331H67.6114C65.1666 35.1331 62.6735 35.0684 60.3793 34.2232C59.3692 33.851 57.8086 32.6558 57.8086 32.6558C57.8086 32.6558 56.3216 33.8499 55.2807 34.2232C52.9539 35.0576 50.4366 35.1331 47.9647 35.1331H12V33.8718C12 30.2093 12.325 26.4218 14.1918 23.2708C15.1116 21.7182 16.9545 19.5666 16.9545 19.5666C16.9545 19.5666 15.1026 17.5101 14.1918 16.0031C12.2505 12.7909 12 8.88246 12 5.12925V4Z" fill="var(--fill-0, #F4F4F4)"/>
<path d="M48.2373 4.5C50.5128 4.5 52.7606 4.64087 54.8438 5.3584C55.3407 5.52959 56.0002 5.90037 56.5596 6.24902C56.8337 6.41985 57.0741 6.57961 57.2461 6.69629C57.332 6.75456 57.4005 6.8023 57.4473 6.83496C57.4706 6.85127 57.4891 6.86365 57.501 6.87207C57.5065 6.87598 57.5108 6.87884 57.5137 6.88086L57.5176 6.88379L57.8047 7.08887L58.0938 6.8877H58.0947C58.0954 6.88724 58.0964 6.88662 58.0977 6.88574C58.1006 6.88369 58.1052 6.88018 58.1113 6.87598C58.1236 6.86758 58.1421 6.8551 58.166 6.83887C58.2142 6.80623 58.2848 6.75837 58.373 6.7002C58.5501 6.58349 58.7983 6.42387 59.0801 6.25293C59.6547 5.90437 60.3328 5.53206 60.8428 5.35938C62.8893 4.66644 65.0876 4.50001 67.3096 4.5H103.117V5.7832C103.117 9.11804 102.986 12.4523 101.474 15.2549C101.445 15.3079 101.416 15.3599 101.388 15.4102C100.927 16.2164 100.165 17.1622 99.501 17.9219C99.172 18.2982 98.8721 18.6227 98.6553 18.8525C98.5472 18.9672 98.4596 19.058 98.3994 19.1201C98.3693 19.1512 98.3457 19.1755 98.3301 19.1914C98.3224 19.1992 98.3163 19.2051 98.3125 19.209C98.3106 19.2109 98.3095 19.213 98.3086 19.2139L98.3076 19.2148L97.9502 19.5742L98.3154 19.9268L98.3164 19.9277C98.3173 19.9286 98.3194 19.9298 98.3213 19.9316C98.3251 19.9354 98.3312 19.9407 98.3389 19.9482L98.6641 20.2734C98.8811 20.4938 99.1809 20.8053 99.5098 21.167C100.174 21.8979 100.934 22.8088 101.39 23.5908C101.495 23.7724 101.599 23.9728 101.701 24.1865C102.967 26.8431 103.117 29.8899 103.117 32.9561V34.6328H67.6113C65.1625 34.6328 62.7523 34.5647 60.5518 33.7539C60.1075 33.5901 59.5079 33.229 58.9932 32.8848C58.7418 32.7167 58.5205 32.5594 58.3623 32.4443C58.2833 32.3869 58.2198 32.3398 58.1768 32.3076C58.1554 32.2916 58.1388 32.2788 58.1279 32.2705C58.1228 32.2666 58.1188 32.2637 58.1162 32.2617C58.1151 32.2608 58.1139 32.2602 58.1133 32.2598L58.1123 32.2588L57.8018 32.0205L57.4951 32.2656V32.2666C57.4946 32.267 57.4934 32.2676 57.4922 32.2686C57.4898 32.2705 57.4863 32.2735 57.4814 32.2773C57.4711 32.2855 57.455 32.2985 57.4346 32.3145C57.3938 32.3463 57.3339 32.3924 57.2588 32.4492C57.1076 32.5636 56.8946 32.7204 56.6514 32.8877C56.1531 33.2304 55.567 33.5898 55.1123 33.7529C52.8761 34.5549 50.4382 34.6328 47.9648 34.6328H12.5V33.8721C12.5 30.223 12.8284 26.553 14.6221 23.5254C15.0644 22.7789 15.7384 21.8743 16.3115 21.1455C16.5961 20.7837 16.852 20.4696 17.0371 20.2461C17.1296 20.1344 17.2045 20.0452 17.2559 19.9844C17.2814 19.9541 17.3012 19.9307 17.3145 19.915C17.321 19.9074 17.3258 19.9014 17.3291 19.8975C17.3308 19.8955 17.3322 19.8935 17.333 19.8926L17.334 19.8916L17.6201 19.5586L17.3262 19.2314L17.3213 19.2266C17.318 19.2229 17.3132 19.2173 17.3066 19.21C17.2933 19.195 17.2728 19.1726 17.2471 19.1436C17.1956 19.0855 17.1209 19.0002 17.0283 18.8936C16.8428 18.6798 16.5855 18.379 16.3008 18.0322C15.7268 17.3332 15.0559 16.4651 14.6201 15.7441C12.7571 12.6615 12.5 8.88005 12.5 5.12891V4.5H48.2373Z" stroke="var(--stroke-0, #7E7E7E)"/>
</g>
<defs>
<filter id="filter0_d_0_6" x="0" y="0" width="111.617" height="51.1331" filterUnits="userSpaceOnUse" color-interpolation-filters="sRGB">
<feFlood flood-opacity="0" result="BackgroundImageFix"/>
<feColorMatrix in="SourceAlpha" type="matrix" values="0 0 0 0 0 0 0 0 0 0 0 0 0 0 0 0 0 0 127 0" result="hardAlpha"/>
<feOffset dx="-2" dy="6"/>
<feGaussianBlur stdDeviation="5"/>
<feComposite in2="hardAlpha" operator="out"/>
<feColorMatrix type="matrix" values="0 0 0 0 0 0 0 0 0 0 0 0 0 0 0 0 0 0 0.1 0"/>
<feBlend mode="normal" in2="BackgroundImageFix" result="effect1_dropShadow_0_6"/>
<feBlend mode="normal" in="SourceGraphic" in2="effect1_dropShadow_0_6" result="shape"/>
</filter>
</defs>
</svg>
