<svg width="90" height="90" viewBox="0 0 90 90" fill="none" xmlns="http://www.w3.org/2000/svg">
<path d="M22.7173 19.6015C27.3595 17.8588 32.1831 17.8094 38.5058 21.9131C38.6427 22.0019 38.824 21.9899 38.9488 21.8849C42.2966 19.0693 47.7012 19.0693 51.049 21.8849C51.1739 21.9899 51.3551 22.0019 51.492 21.9131C57.8147 17.8094 62.6384 17.8588 67.2806 19.6015C74.5211 22.3197 78.5229 29.3212 79.4197 34.0953C80.5687 40.2116 78.101 47.0941 74.6028 52.0535C71.7949 56.0343 69.1624 58.3691 65.7735 60.2825C65.4034 60.4915 65.627 61.1462 66.0455 61.0719C69.9922 60.3713 73.8022 60.0993 76.3021 62.3907C78.2409 64.1678 79.046 67.085 78.2554 69.2622C77.5708 71.1473 75.254 71.5168 73.2485 71.5168H16.7493C14.7438 71.5168 12.427 71.1473 11.7424 69.2622C10.9518 67.085 11.7569 64.1678 13.6957 62.3907C16.1957 60.0993 20.0056 60.3713 23.9524 61.0719C24.3709 61.1462 24.5945 60.4915 24.2243 60.2825C20.8355 58.3691 18.2029 56.0343 15.395 52.0535C11.8968 47.0941 9.4291 40.2116 10.5781 34.0953C11.475 29.3212 15.4767 22.3197 22.7173 19.6015Z" stroke="#F4F4E8" stroke-width="1.5" stroke-linejoin="round" stroke-linecap="round"/>
</svg>