<svg width="90" height="90" viewBox="0 0 90 90" fill="none" xmlns="http://www.w3.org/2000/svg">
<path d="M45.3474 23.0567C44.4387 23.0567 44.1184 23.4496 43.8882 24.1741C43.8108 24.418 43.5021 24.5038 43.3194 24.3247C37.3867 18.5085 32.0031 18.1007 27.3439 18.8801C22.7744 19.6441 19.1233 24.0015 19.5281 29.1412C19.5416 29.3125 19.4259 29.4693 19.258 29.5056C15.5023 30.3192 13.0053 32.8635 12.1738 35.4342C8.84451 45.7273 24.7711 50.7248 33.5179 50.9193C33.7613 50.9248 33.9146 51.1815 33.8033 51.3981C31.8579 55.1813 29.8121 56.8635 24.346 58.0108C22.9895 58.2955 21.7297 58.2162 17.3456 57.646C14.35 57.2564 10.9049 58.4027 10.5485 61.4024C9.57837 69.5674 23.4095 75.4821 30.0086 67.3829C30.1818 67.1704 30.541 67.2257 30.6439 67.4798C32.9123 73.0805 41.922 72.3137 44.6376 67.6757C44.8275 67.3512 45.8676 67.3512 46.0576 67.6757C48.7731 72.3137 57.7826 73.0805 60.051 67.4798C60.154 67.2257 60.5132 67.1704 60.6864 67.3829C67.2855 75.4821 81.1166 69.5674 80.1465 61.4024C79.7901 58.4027 76.345 57.2564 73.3494 57.646C68.9652 58.2162 67.7054 58.2955 66.3489 58.0108C60.8829 56.8635 58.837 55.1813 56.8917 51.3981C56.7803 51.1815 56.9336 50.9248 57.1771 50.9193C65.9239 50.7248 81.8504 45.7273 78.5211 35.4342C77.6897 32.8635 75.1927 30.3192 71.437 29.5056C71.2691 29.4693 71.1533 29.3125 71.1668 29.1412C71.5717 24.0015 67.9205 19.6441 63.3511 18.8801C58.6918 18.1007 53.3083 18.5085 47.3756 24.3247C47.1929 24.5038 46.8842 24.418 46.8067 24.1741C46.5766 23.4496 46.2562 23.0567 45.3475 23.0567" stroke="#F4F4E8" stroke-width="1.5" stroke-linejoin="round" stroke-linecap="round"/>
</svg>