<svg width="90" height="90" viewBox="0 0 90 90" fill="none" xmlns="http://www.w3.org/2000/svg">
<path d="M23.4659 18.5361C26.3249 20.1713 27.6441 21.4037 28.4502 24.2197C28.5295 24.4967 28.9108 24.5679 29.0941 24.3455C32.018 20.7977 37.5702 24.3095 41.2739 27.3888C43.3813 29.141 46.582 29.1444 48.692 27.3955C52.4092 24.3145 57.9855 20.7952 60.9116 24.3455C61.0949 24.5679 61.4762 24.4967 61.5555 24.2197C62.3616 21.4037 63.6808 20.1713 66.5397 18.5361C69.2307 16.997 73.1924 16.1869 76.4054 18.5361C78.198 19.8467 78.6498 21.8937 78.485 24.1979C78.2943 26.8644 76.0418 28.7382 73.6291 29.8893C69.2719 31.968 68.3188 34.8806 68.3188 39.2659V50.4563C68.3188 53.6162 70.3057 56.3811 73.4635 57.6717C76.0207 58.7169 79.098 59.4569 79.7581 62.1395C80.442 64.9186 79.7992 68.0625 78.3918 69.9832C75.9946 73.2545 70.6094 73.2619 68.3188 72.5683C65.5598 71.7329 63.3003 69.84 62.3944 66.6351C62.3087 66.3318 61.8699 66.2725 61.7159 66.5476C61.0752 67.6917 60.4444 68.5043 59.5791 69.1523C58.0424 70.3031 56.0163 70.4522 54.0965 70.4522H35.9092C33.9894 70.4522 31.9632 70.3031 30.4266 69.1523C29.5613 68.5043 28.9305 67.6917 28.2898 66.5476C28.1358 66.2725 27.697 66.3318 27.6113 66.6351C26.7054 69.84 24.4459 71.7329 21.6868 72.5683C19.3962 73.2619 14.0111 73.2545 11.6139 69.9832C10.2064 68.0625 9.5637 64.9186 10.2476 62.1395C10.9077 59.4569 13.985 58.7169 16.5422 57.6717C19.6999 56.3811 21.6868 53.6162 21.6868 50.4563V39.2659C21.6868 34.8806 20.7338 31.968 16.3766 29.8893C13.9639 28.7382 11.7114 26.8644 11.5207 24.1979C11.3559 21.8937 11.8077 19.8467 13.6002 18.5361C16.8132 16.1869 20.775 16.997 23.4659 18.5361Z" stroke="#F4F4E8" stroke-width="1.5" stroke-linejoin="round" stroke-linecap="round"/>
</svg>