<svg width="90" height="90" viewBox="0 0 90 90" fill="none" xmlns="http://www.w3.org/2000/svg">
<path d="M14.1145 12.3621C18.54 10.8083 25.7147 12.5794 31.3002 17.7968C31.4811 17.9658 31.7689 17.9519 31.9322 17.7658C39.3071 9.36453 50.6994 9.36452 58.0742 17.7658C58.2375 17.9519 58.5254 17.9658 58.7063 17.7968C64.2918 12.5794 71.4665 10.8083 75.892 12.3621C78.4767 13.2695 80.6515 16.2492 80.4236 20.2488C80.1894 24.3603 75.507 25.571 71.3904 25.6863C68.8181 25.7583 67.2215 26.7502 66.198 29.191C65.8499 30.0211 66.1287 30.9451 66.6419 31.6848C68.1796 33.9013 67.372 35.3302 65.7245 37.6106L53.855 51.5996C49.8601 56.9013 49.8527 60.9693 51.3572 63.3184C53.744 67.045 59.0585 65.6177 60.7926 63.3184C62.5506 60.9872 63.728 57.8571 64.2914 54.3705C64.8255 51.0647 65.8949 47.4084 69.126 46.5291C72.5007 45.6108 76.2005 46.5774 78.7857 49.1597C82.0311 52.4017 78.4217 66.4512 75.4876 70.0542C69.0728 77.9311 58.1767 79.3606 52.5741 78.1554C50.0983 77.6228 47.6047 75.7778 46.1768 73.7986C45.8881 73.3984 44.1184 73.3984 43.8297 73.7986C42.4018 75.7778 39.9082 77.6228 37.4324 78.1554C31.8297 79.3606 20.9337 77.9311 14.5189 70.0542C11.5847 66.4512 7.97536 52.4017 11.2207 49.1597C13.806 46.5774 17.5058 45.6108 20.8804 46.5291C24.1116 47.4084 25.1809 51.0647 25.7151 54.3705C26.2785 57.8571 27.4559 60.9872 29.2139 63.3184C30.9479 65.6177 36.2625 67.045 38.6493 63.3184C40.1538 60.9693 40.1464 56.9013 36.1514 51.5996L24.282 37.6106C22.6345 35.3302 21.8269 33.9013 23.3646 31.6848C23.8777 30.9451 24.1566 30.0211 23.8085 29.191C22.7849 26.7502 21.1884 25.7583 18.6161 25.6863C14.4995 25.571 9.81703 24.3603 9.58283 20.2488C9.355 16.2492 11.5298 13.2695 14.1145 12.3621Z" stroke="#F4F4E8" stroke-width="1.5" stroke-linejoin="round" stroke-linecap="round"/>
</svg>