<svg width="90" height="90" viewBox="0 0 90 90" fill="none" xmlns="http://www.w3.org/2000/svg">
<path d="M23.9968 23.214C27.1038 23.9694 30.5501 25.7798 31.4969 28.3618C31.5948 28.6287 32.0676 28.7024 32.2314 28.4702C34.9427 24.6275 42.2212 23.9885 44.7184 26.3787C44.8712 26.525 45.1227 26.525 45.2755 26.3787C47.7727 23.9885 55.0512 24.6275 57.7625 28.4702C57.9263 28.7024 58.3991 28.6287 58.497 28.3618C59.4438 25.7798 62.8901 23.9694 65.9971 23.214C71.1321 21.9657 76.4597 24.9374 78.4895 28.9415C80.3535 32.6187 79.1802 38.4452 76.9563 40.5771C73.0478 44.3239 67.5213 43.9935 63.2076 42.0829C62.9754 41.98 62.727 42.2079 62.8175 42.4453C65.1999 48.6912 67.537 52.1067 71.7161 56.2527C73.2062 57.7309 74.9284 59.3454 74.9107 61.4443C74.8877 64.1776 72.0535 65.58 68.7035 65.58C63.4505 65.58 59.3209 56.4033 57.6679 51.7005C57.6117 51.5404 57.4281 51.4684 57.2782 51.5479C53.5174 53.5432 52.5269 56.7047 53.2796 58.4413C53.9668 60.0271 55.4945 60.6425 57.5617 60.8584C59.2734 61.0372 61.3309 61.6324 61.4713 63.3477C61.6959 66.0922 57.0766 67.1882 54.9578 67.0606C53.129 66.9505 50.9354 66.2679 49.6795 65.5189C48.475 64.8006 46.4562 63.2488 46.047 61.0183C46.021 60.8768 45.8693 60.7918 45.7388 60.8525C45.2685 61.0713 44.7254 61.0713 44.255 60.8525C44.1246 60.7918 43.9729 60.8768 43.9469 61.0183C43.5377 63.2488 41.5189 64.8006 40.3144 65.5189C39.0585 66.2679 36.8649 66.9505 35.0361 67.0606C32.9173 67.1882 28.298 66.0922 28.5226 63.3477C28.663 61.6324 30.7205 61.0372 32.4322 60.8584C34.4994 60.6425 36.0271 60.0271 36.7143 58.4413C37.467 56.7047 36.4765 53.5432 32.7157 51.5479C32.5658 51.4684 32.3822 51.5404 32.326 51.7005C30.673 56.4033 26.5434 65.58 21.2904 65.58C17.9404 65.58 15.1062 64.1776 15.0832 61.4443C15.0655 59.3454 16.7877 57.7309 18.2777 56.2527C22.4569 52.1067 24.794 48.6912 27.1764 42.4453C27.2669 42.2079 27.0185 41.98 26.7863 42.0829C22.4726 43.9935 16.9461 44.3239 13.0376 40.5771C10.8137 38.4452 9.64038 32.6187 11.5044 28.9415C13.5342 24.9374 18.8618 21.9657 23.9968 23.214Z" stroke="#F4F4E8" stroke-width="1.5" stroke-linejoin="round" stroke-linecap="round"/>
</svg>