<svg width="90" height="90" viewBox="0 0 90 90" fill="none" xmlns="http://www.w3.org/2000/svg">
<path d="M16.7711 18.4097L27.2936 31.5258C27.5016 31.785 27.9398 31.6383 27.9777 31.3081C28.7233 24.8051 36.5962 18.4597 43.9045 21.7158C44.6047 22.0278 45.416 22.0278 46.1161 21.7158C53.4229 18.4597 61.2811 24.8051 62.0267 31.3081C62.0646 31.6383 62.5028 31.785 62.7108 31.5258L73.2333 18.4097C73.4413 18.1505 73.8596 18.2975 73.8596 18.6299V55.1514C73.8596 55.1792 73.8563 55.2076 73.8493 55.2345C73.1077 58.0947 67.7978 57.9871 66.7032 55.4796C65.8168 53.449 65.4774 50.7153 65.5289 47.6091C65.5347 47.2573 65.0783 47.1041 64.8807 47.3952C61.8398 51.8751 59.6968 56.2919 60.3376 59.8895C60.3413 59.9098 60.3471 59.9306 60.3543 59.9498C62.4042 65.3796 69.7726 62.4276 73.8847 60.1512C74.8042 59.6421 75.8496 59.2606 76.8581 59.5569C79.2669 60.2647 80.2133 62.538 79.8817 63.9566C79.3732 66.132 77.0733 69.1743 72.7815 70.4511C64.527 72.9069 56.1809 72.3251 51.8819 64.137C51.7636 63.9117 51.4517 63.8704 51.2878 64.065L45.2713 71.2095C45.1307 71.3765 44.8736 71.3765 44.7331 71.2095L38.7166 64.065C38.5527 63.8704 38.2408 63.9117 38.1226 64.137C33.8235 72.3251 25.4775 72.9069 17.2229 70.4511C12.9311 69.1743 10.6313 66.132 10.1227 63.9566C9.79112 62.538 10.7375 60.2647 13.1463 59.5569C14.1548 59.2606 15.2002 59.6421 16.1198 60.1512C20.2319 62.4276 27.6002 65.3796 29.6501 59.9498C29.6574 59.9306 29.6632 59.9098 29.6668 59.8895C30.3076 56.2919 28.1646 51.8751 25.1238 47.3952C24.9262 47.1041 24.4697 47.2573 24.4756 47.6091C24.5271 50.7153 24.1876 53.449 23.3012 55.4796C22.2066 57.9871 16.8967 58.0947 16.1551 55.2345C16.1481 55.2076 16.1448 55.1792 16.1448 55.1514V18.6299C16.1448 18.2975 16.5631 18.1505 16.7711 18.4097Z" stroke="#F4F4E8" stroke-width="1.5" stroke-linejoin="round" stroke-linecap="round"/>
</svg>