<svg width="90" height="90" viewBox="0 0 90 90" fill="none" xmlns="http://www.w3.org/2000/svg">
<path d="M36.5913 19.2812C40.0086 19.2812 42.4618 20.4443 44.4088 24.3896C44.5419 24.6594 44.9396 24.6594 45.0727 24.3896C47.0197 20.4443 49.473 19.2812 52.8902 19.2812C55.249 19.2812 56.9457 21.1803 56.9457 23.4002C56.9457 25.5291 56.2185 27.3191 52.9988 29.3177C52.816 29.4312 52.823 29.7034 53.0147 29.8012L56.1513 31.4015C60.1701 33.4519 61.8151 23.057 66.2824 22.4261C77.2485 20.8773 83.3933 34.7648 74.9524 41.34C70.3212 44.9476 60.9239 45.1528 56.5703 39.4346C56.518 39.3659 56.4359 39.3223 56.35 39.3307C54.897 39.4732 55.3707 41.9147 55.9337 43.1738C56.6564 44.7903 57.4588 45.9713 60.8035 48.5002C67.043 53.2179 68.9638 52.5205 74.2831 56.8253C78.2768 60.0572 77.2303 64.7567 74.9521 67.1639C69.1241 73.3218 49.1789 73.114 45.1902 64.5447C45.0396 64.2212 44.4419 64.2212 44.2913 64.5447C40.3026 73.114 20.3575 73.3218 14.5295 67.1639C12.2512 64.7567 11.2047 60.0572 15.1984 56.8253C20.5178 52.5205 22.4386 53.2179 28.6781 48.5002C32.0228 45.9713 32.8251 44.7903 33.5479 43.1738C34.1109 41.9147 34.5845 39.4732 33.1316 39.3307C33.0456 39.3223 32.9635 39.3659 32.9112 39.4346C28.5577 45.1528 19.1603 44.9476 14.5291 41.34C6.08829 34.7648 12.2331 20.8773 23.1992 22.4261C27.6665 23.057 29.3115 33.4519 33.3303 31.4015L36.4669 29.8012C36.6585 29.7034 36.6656 29.4312 36.4828 29.3177C33.2631 27.3191 32.5358 25.5291 32.5358 23.4002C32.5358 21.1803 34.2325 19.2812 36.5913 19.2812Z" stroke="#F4F4E8" stroke-width="1.5" stroke-linejoin="round" stroke-linecap="round"/>
</svg>