<svg width="90" height="90" viewBox="0 0 90 90" fill="none" xmlns="http://www.w3.org/2000/svg">
<path d="M20.7879 68.7003C27.9117 64.6808 32.3139 61.1501 38.2316 54.8299C38.4523 54.5942 38.1577 54.2052 37.8646 54.3405C31.186 57.4236 25.2763 56.3921 19.6689 52.9146C19.6545 52.9058 19.6408 52.8955 19.6283 52.8841C5.50024 40.1201 13.838 5.61443 35.1771 12.152C44.4905 15.6448 45.948 26.6327 38.0813 29.3707C37.7773 29.4765 37.7963 30.0197 38.1127 30.0789C41.0834 30.6354 42.9222 31.3488 44.6285 33.5188C44.8171 33.7586 45.1873 33.7586 45.3759 33.5188C47.0822 31.3488 48.9209 30.6354 51.8917 30.0789C52.208 30.0197 52.2271 29.4765 51.9231 29.3707C44.0564 26.6327 45.5139 15.6448 54.8272 12.152C76.1664 5.61443 84.5041 40.1201 70.376 52.8841C70.3635 52.8955 70.3498 52.9058 70.3355 52.9146C64.728 56.3921 58.8184 57.4236 52.1398 54.3405C51.8467 54.2052 51.5521 54.5942 51.7727 54.8299C57.6905 61.1501 62.0927 64.6808 69.2165 68.7003C71.1778 69.807 73.237 71.4558 73.0568 73.7006C72.4373 81.4179 50.9229 79.0668 45.3372 73.8671C45.1477 73.6907 44.8567 73.6907 44.6672 73.8671C39.0815 79.0668 17.567 81.4179 16.9475 73.7006C16.7673 71.4558 18.8266 69.807 20.7879 68.7003Z" stroke="#F4F4E8" stroke-width="1.5" stroke-linejoin="round" stroke-linecap="round"/>
</svg>