<svg width="90" height="90" viewBox="0 0 90 90" fill="none" xmlns="http://www.w3.org/2000/svg">
<path d="M15.7027 71.5297C20.7179 73.6544 37.1224 73.4509 41.4742 70.7168C43.1844 69.6424 43.2243 67.0222 42.0504 65.5703C41.8562 65.3302 41.9466 64.9141 42.2405 64.8196C42.9655 64.5865 43.3805 64.295 43.6052 63.6716C43.6613 63.5162 43.802 63.4019 43.9672 63.4019H46.0318C46.197 63.4019 46.3377 63.5162 46.3938 63.6716C46.6185 64.295 47.0335 64.5865 47.7585 64.8196C48.0524 64.9141 48.1428 65.3302 47.9486 65.5703C46.7747 67.0222 46.8146 69.6424 48.5248 70.7168C52.8766 73.4509 69.2811 73.6544 74.2963 71.5297C76.9713 70.3965 78.6562 65.7245 75.7594 63.4019C73.1773 61.3317 70.191 60.9831 66.5533 61.3054C66.1858 61.3379 65.9939 60.854 66.2873 60.6302C76.9922 52.4647 81.2231 45.1353 79.9858 32.0287C79.5558 27.4741 76.8831 21.8927 71.6955 19.223C66.6757 16.6395 60.9446 16.6311 56.4153 17.7239C50.8255 19.1727 48.1564 20.6719 45.2981 24.6402C45.1519 24.8433 44.8472 24.8433 44.7009 24.6402C41.8427 20.6719 39.1735 19.1727 33.5837 17.7239C29.0544 16.6311 23.3233 16.6395 18.3035 19.223C13.1159 21.8927 10.4432 27.4741 10.0132 32.0287C8.77594 45.1353 13.0068 52.4647 23.7117 60.6302C24.0051 60.854 23.8132 61.3379 23.4457 61.3054C19.808 60.9831 16.8217 61.3317 14.2396 63.4019C11.3427 65.7245 13.0277 70.3965 15.7027 71.5297Z" stroke="#F4F4E8" stroke-width="1.5" stroke-linejoin="round" stroke-linecap="round"/>
</svg>