<svg width="90" height="90" viewBox="0 0 90 90" fill="none" xmlns="http://www.w3.org/2000/svg">
<path d="M11.8096 52.6967C13.8732 47.4883 18.57 46.2341 23.4863 46.1777C23.8117 46.1739 23.9998 45.7913 23.8177 45.5217C20.3636 40.4077 22.9808 34.2952 28.749 32.3857C29.083 32.2752 29.151 31.7928 28.8606 31.5942C20.6117 25.95 30.2634 14.7732 38.2935 20.8233C43.2863 25.1105 39.4545 30.6393 44.9986 31.1022C50.5426 30.6393 46.7108 25.1105 51.7036 20.8233C59.7337 14.7732 69.3854 25.95 61.1365 31.5942C60.8462 31.7928 60.9141 32.2752 61.2481 32.3857C67.0163 34.2952 69.6335 40.4077 66.1794 45.5217C65.9973 45.7913 66.1854 46.1739 66.5108 46.1777C71.4271 46.2341 76.1239 47.4883 78.1876 52.6967C81.2733 60.2099 75.7897 68.8972 69.2996 70.4255C63.9293 71.6902 59.405 70.4938 54.543 67.5055C54.4166 67.4279 54.2558 67.4282 54.1303 67.5073C51.2617 69.3157 49.1777 70.4255 46.577 70.4255C46.0314 70.4255 45.5054 70.3866 44.9986 70.3126C44.4918 70.3866 43.9658 70.4255 43.4201 70.4255C40.8194 70.4255 38.7355 69.3157 35.8668 67.5073C35.7414 67.4282 35.5805 67.4279 35.4541 67.5055C30.5921 70.4938 26.0679 71.6902 20.6975 70.4255C14.2074 68.8972 8.72385 60.2099 11.8096 52.6967Z" stroke="#F4F4E8" stroke-width="1.5" stroke-linejoin="round" stroke-linecap="round"/>
</svg>