<svg preserveAspectRatio="none" width="100%" height="100%" overflow="visible" style="display: block;" viewBox="0 0 60 60" fill="none" xmlns="http://www.w3.org/2000/svg">
<g id="Frame 397">
<path id="Vector" d="M30.5338 6.21051C32.3032 5.5243 34.4205 5.2449 36.2193 5.48883C38.0442 5.73638 39.3375 6.48246 39.8209 7.63922C40.825 10.043 39.7881 12.7706 37.3033 16.1451L36.7867 16.8287C36.2769 17.489 36.6719 18.384 37.3912 18.5748C38.2474 18.8019 38.8414 19.2038 39.6939 19.9009C40.2723 20.3739 41.1285 20.0824 41.3248 19.3843C42.0391 16.8395 43.0938 15.0704 44.356 14.0103C45.5956 12.9693 47.0921 12.5626 48.8384 12.8365C49.9356 13.0087 50.7077 13.3985 51.2505 13.8853C51.795 14.3736 52.1477 14.9945 52.3502 15.6881C52.7623 17.1003 52.5314 18.7564 52.0738 19.9048C51.126 22.2829 48.8232 23.4545 45.9556 23.3951L45.6763 23.3853C44.8697 23.3467 44.3897 24.1741 44.6724 24.8404C44.7777 25.0883 44.7817 25.1955 44.8189 25.7125C44.8775 26.5245 45.6232 27.0476 46.3677 26.9381C50.2802 26.3616 53.2484 27.0294 54.6832 28.481C55.8716 29.6834 56.6771 31.8223 56.6812 34.106C56.6426 35.7665 56.2452 37.2376 55.4224 38.9185C55.1778 39.4184 55.2056 39.9975 55.4625 40.4683C57.0079 43.3009 56.2871 45.4758 55.7779 46.2681C55.0532 47.3952 54.0315 47.9378 52.6812 48.1207C51.2883 48.3092 49.5857 48.1072 47.5914 47.7349C47.2149 47.6647 46.8515 47.7283 46.5455 47.857C45.9595 48.1034 44.9028 48.4058 43.7515 48.5191C42.6596 48.6265 41.5816 48.5546 40.7564 48.192L40.5953 48.1158L40.48 48.066C39.902 47.8644 39.2897 48.3081 39.2935 48.9214C39.3063 51.0028 37.7667 52.4178 35.6353 53.3511C33.5257 54.2748 31.0965 54.5953 29.938 54.5953C28.7801 54.5952 26.3835 54.2745 24.3062 53.3521C22.2111 52.4218 20.6928 51.0092 20.7056 48.9214C20.7094 48.308 20.0973 47.8641 19.5191 48.066L19.4048 48.1158C18.5617 48.5442 17.4132 48.6337 16.2486 48.5191C15.097 48.4058 14.0396 48.1034 13.4537 47.857C13.1477 47.7284 12.785 47.6648 12.4088 47.7349C10.4143 48.1072 8.71188 48.3092 7.31891 48.1207C5.96839 47.9379 4.94697 47.3953 4.22223 46.2681C3.71301 45.476 2.99197 43.3013 4.53766 40.4683C4.79455 39.9975 4.82142 39.4185 4.57672 38.9185C3.80543 37.3427 3.40908 35.9515 3.33063 34.4156L3.31891 34.106C3.32303 31.8223 4.12852 29.6834 5.31695 28.481C6.75175 27.0295 9.71919 26.3617 13.6314 26.9381C14.3761 27.0478 15.1217 26.5246 15.1802 25.7125C15.2174 25.1955 15.2214 25.0883 15.3267 24.8404C15.5919 24.2158 15.1875 23.4499 14.4713 23.3882L14.3238 23.3853C11.3267 23.5289 8.90369 22.3599 7.92535 19.9048C7.46777 18.7564 7.23681 17.1003 7.64899 15.6881C7.85145 14.9945 8.20425 14.3736 8.74859 13.8853C9.29145 13.3984 10.0635 13.0087 11.1607 12.8365C12.9073 12.5624 14.4044 12.9691 15.6441 14.0103C16.9062 15.0704 17.96 16.8396 18.6744 19.3843C18.8706 20.0825 19.7278 20.374 20.3062 19.9009C21.1586 19.2039 21.7527 18.8018 22.6089 18.5748C23.3282 18.3839 23.7225 17.489 23.2125 16.8287C20.359 13.1357 19.1072 10.2032 20.1783 7.63922C20.6624 6.48039 21.9473 5.73595 23.7584 5.48883C25.545 5.24505 27.6514 5.52401 29.4205 6.21051C29.7786 6.34937 30.1757 6.34938 30.5338 6.21051Z" stroke="var(--stroke-0, #F4F4E8)" stroke-width="1.5" stroke-linejoin="round"/>
</g>
</svg>
