<svg width="253" height="279" viewBox="0 0 253 279" fill="none" xmlns="http://www.w3.org/2000/svg" aria-hidden="true">
  <path
    d="M252.459 278.162L252.459 66.5775C252.459 63.3691 252.23 60.1589 251.524 57.0292C250.921 54.3571 250.049 51.0806 248.975 48.6744C247.093 44.4583 242.715 37.6539 242.715 37.6539C242.715 37.6539 247.003 30.6188 248.975 26.3494C250.069 23.9809 250.935 20.8085 251.531 18.2148C252.239 15.1287 252.459 11.9601 252.459 8.79382L252.459 0C202.619 0.0000100136 49.8755 0.0000200272 0 0C0 109.857 0 166.482 0 278.162C48.8189 278.162 203.589 278.162 252.459 278.162Z"
    fill="#F4F4F4"
    stroke="#0B0B0B"
    vector-effect="non-scaling-stroke"
    shape-rendering="geometricPrecision"
  />
</svg>
