<svg width="224" height="83" viewBox="0 0 224 83" fill="none" xmlns="http://www.w3.org/2000/svg" aria-hidden="true">
  <path
    d="M12 4H94.9347C99.2114 4 103.521 4.31092 107.591 5.62449C107.759 5.67877 107.923 5.73326 108.081 5.78775C110.321 6.55938 113.736 9 113.736 9C113.736 9 117.251 6.56165 119.537 5.78775C123.822 4.33697 128.388 4 132.912 4H215.473V12.7004C215.473 16.0268 215.108 19.3585 214.014 22.5C213.414 24.2262 212.666 26.0993 211.849 27.53C209.883 30.9692 205.473 35.4189 205.473 35.4189C205.473 35.4189 209.895 39.6822 211.849 43.0328C212.779 44.6295 213.594 46.7824 214.214 48.6899C215.162 51.6062 215.473 54.6769 215.473 57.7434V66.8379H133.451C128.564 66.8379 123.511 66.6911 118.925 65.0014C116.886 64.2502 113.736 61.8379 113.736 61.8379C113.736 61.8379 110.735 64.248 108.634 65.0014C103.938 66.6856 98.857 66.8379 93.8678 66.8379H12V59.7401C12 55.362 12.6434 50.98 14.3971 46.9685C15.0254 45.5311 15.724 44.0769 16.4239 42.8954C18.2804 39.7617 22 35.4189 22 35.4189C22 35.4189 18.2622 31.2683 16.4239 28.2266C15.6057 26.8727 14.8109 25.1547 14.126 23.5016C12.5602 19.7226 12 15.6279 12 11.5374V4Z"
    fill="#F4F4E8"
    shape-rendering="geometricPrecision"
  />
  <path
    d="M94.9346 4.5C99.1917 4.5 103.441 4.81066 107.438 6.10059C107.603 6.15398 107.764 6.20743 107.919 6.26074C108.981 6.62665 110.353 7.40236 111.484 8.10742C112.044 8.45646 112.536 8.78231 112.887 9.02051C113.062 9.13952 113.203 9.23662 113.299 9.30371C113.347 9.33725 113.384 9.36332 113.409 9.38086L113.443 9.40527L113.445 9.40625V9.40723L113.732 9.61133L114.021 9.41113V9.41016L114.023 9.40918C114.025 9.40812 114.027 9.40642 114.03 9.4043C114.037 9.3999 114.047 9.39354 114.06 9.38477C114.085 9.36722 114.123 9.34108 114.173 9.30762C114.272 9.24053 114.416 9.14332 114.597 9.02441C114.958 8.78626 115.464 8.46043 116.039 8.11133C117.201 7.40645 118.611 6.62962 119.697 6.26172C123.642 4.92596 127.846 4.5461 132.067 4.50391L132.912 4.5H214.973V12.7002C214.973 15.9923 214.611 19.2645 213.542 22.3359C212.944 24.0533 212.209 25.892 211.414 27.2822C210.457 28.9562 208.891 30.8977 207.547 32.4355C206.878 33.2008 206.27 33.8598 205.829 34.3271C205.609 34.5608 205.43 34.7461 205.307 34.873C205.245 34.9362 205.198 34.9848 205.166 35.0176C205.15 35.034 205.137 35.0465 205.129 35.0547C205.125 35.0588 205.122 35.0625 205.12 35.0645C205.119 35.0653 205.119 35.066 205.118 35.0664H205.117V35.0674L204.761 35.4268L205.126 35.7793L205.128 35.7812C205.13 35.7832 205.134 35.7861 205.138 35.79C205.146 35.7978 205.158 35.8096 205.174 35.8252C205.206 35.8566 205.254 35.904 205.315 35.9648C205.439 36.0865 205.617 36.2643 205.838 36.4883C206.28 36.9368 206.889 37.5693 207.559 38.3057C208.904 39.7857 210.468 41.6568 211.417 43.2842C212.32 44.8334 213.121 46.9457 213.738 48.8447C214.665 51.6943 214.973 54.7083 214.973 57.7432V66.3379H133.451C128.561 66.3379 123.591 66.1876 119.098 64.5322C118.139 64.179 116.885 63.4186 115.844 62.7227C115.329 62.3788 114.878 62.0573 114.555 61.8223C114.393 61.7048 114.263 61.6092 114.175 61.543C114.131 61.51 114.097 61.4841 114.074 61.4668C114.063 61.4583 114.055 61.4516 114.049 61.4473C114.046 61.4451 114.043 61.4434 114.042 61.4424L114.041 61.4414L114.039 61.4404L113.729 61.2021L113.423 61.4482L113.422 61.4492C113.421 61.4502 113.419 61.452 113.416 61.4541C113.411 61.4584 113.402 61.4651 113.392 61.4736C113.37 61.4908 113.337 61.5159 113.295 61.5488C113.211 61.6147 113.087 61.7101 112.933 61.8271C112.623 62.0615 112.188 62.3825 111.689 62.7256C110.68 63.4197 109.45 64.1771 108.466 64.5303C103.86 66.1819 98.8588 66.3379 93.8682 66.3379H12.5V59.7402C12.5 55.4087 13.1372 51.0995 14.8555 47.1689C15.4803 45.7397 16.1696 44.3065 16.8545 43.1504C17.7651 41.6133 19.1413 39.7652 20.3008 38.291C20.8784 37.5566 21.3988 36.9194 21.7744 36.4658C21.9622 36.239 22.1143 36.0574 22.2188 35.9336C22.2709 35.8718 22.3116 35.824 22.3389 35.792C22.3523 35.7762 22.3623 35.7639 22.3691 35.7559C22.3725 35.752 22.3753 35.7491 22.377 35.7471C22.3778 35.7461 22.3795 35.7446 22.3799 35.7441L22.665 35.4111L22.3711 35.084L22.3691 35.082L22.3301 35.0381C22.3027 35.0075 22.2621 34.9622 22.21 34.9033C22.1052 34.785 21.953 34.6124 21.7646 34.3955C21.3879 33.9616 20.8665 33.3509 20.2881 32.6465C19.1266 31.232 17.7512 29.4563 16.8516 27.9678C16.0527 26.6458 15.2691 24.9547 14.5879 23.3105C13.0547 19.61 12.5 15.5844 12.5 11.5371V4.5H94.9346Z"
    stroke="#1B1613"
    stroke-width="1.5"
    vector-effect="non-scaling-stroke"
    fill="none"
    shape-rendering="geometricPrecision"
  />
</svg>
