<svg width="318" height="417" viewBox="0 0 318 417" fill="none" xmlns="http://www.w3.org/2000/svg">
<rect width="318" height="417" fill="#6E6E6E"/>
<g id="Section 1">
<path d="M-6996.18 -5178.45C-6996.18 -5179.55 -6995.29 -5180.45 -6994.18 -5180.45H8175.82C8176.92 -5180.45 8177.82 -5179.55 8177.82 -5178.45V3969.55C8177.82 3970.65 8176.92 3971.55 8175.82 3971.55H-6994.18C-6995.29 3971.55 -6996.18 3970.65 -6996.18 3969.55V-5178.45Z" fill="#444444"/>
<path d="M-6994.18 -5180.45V-5179.45H8175.82V-5180.45V-5181.45H-6994.18V-5180.45ZM8177.82 -5178.45H8176.82V3969.55H8177.82H8178.82V-5178.45H8177.82ZM8175.82 3971.55V3970.55H-6994.18V3971.55V3972.55H8175.82V3971.55ZM-6996.18 3969.55H-6995.18V-5178.45H-6996.18H-6997.18V3969.55H-6996.18ZM-6994.18 3971.55V3970.55C-6994.73 3970.55 -6995.18 3970.1 -6995.18 3969.55H-6996.18H-6997.18C-6997.18 3971.21 -6995.84 3972.55 -6994.18 3972.55V3971.55ZM8177.82 3969.55H8176.82C8176.82 3970.1 8176.37 3970.55 8175.82 3970.55V3971.55V3972.55C8177.48 3972.55 8178.82 3971.21 8178.82 3969.55H8177.82ZM8175.82 -5180.45V-5179.45C8176.37 -5179.45 8176.82 -5179 8176.82 -5178.45H8177.82H8178.82C8178.82 -5180.11 8177.48 -5181.45 8175.82 -5181.45V-5180.45ZM-6994.18 -5180.45V-5181.45C-6995.84 -5181.45 -6997.18 -5180.11 -6997.18 -5178.45H-6996.18H-6995.18C-6995.18 -5179 -6994.73 -5179.45 -6994.18 -5179.45V-5180.45Z" fill="#F4F4E8" fill-opacity="0.1"/>
<g id="&#215;&#144;&#215;&#153;&#215;&#160;&#215;&#147;&#215;&#167;&#215;&#161;">
<rect width="1920" height="1078" transform="translate(-1329.18 -158.679)" fill="#090809"/>
<g id="Vector" filter="url(#filter0_d_1370_65755)">
<path d="M308.352 408.739H313.182V403.909C313.182 403.085 312.938 401.778 312.562 400.793C312.185 399.808 311.801 399.108 311.221 398.129C310.399 396.741 308.75 394.816 308.75 394.816C308.75 394.816 310.407 392.977 311.221 391.629C311.845 390.597 312.439 389.086 312.806 388.067C313.067 387.342 313.182 386.576 313.182 385.806L313.182 47.9739C313.182 47.2035 313.067 46.4375 312.806 45.7127C312.439 44.6936 311.846 43.1833 311.222 42.1509C310.407 40.803 308.751 38.9636 308.751 38.9636C308.751 38.9636 310.399 37.0392 311.222 35.6505C311.802 34.6717 312.186 33.9719 312.562 32.9867C312.938 32.0016 313.182 30.6951 313.182 29.8706L313.182 25.0405H308.352C307.528 25.0405 305.996 25.3949 305.225 25.6893C304.24 26.0657 303.551 26.4211 302.572 27.001C301.184 27.8237 299.259 29.472 299.259 29.472C299.259 29.472 297.42 27.8156 296.072 27.001C295.039 26.377 293.529 25.7838 292.51 25.4166C291.785 25.1554 291.019 25.0405 290.249 25.0405H51.7781C51.0077 25.0405 50.2417 25.1554 49.5169 25.4166C48.4979 25.7838 46.9875 26.377 45.9551 27.001C44.6072 27.8156 42.7678 29.472 42.7678 29.472C42.7678 29.472 40.8434 27.8237 39.4547 27.001C38.4759 26.4211 37.7868 26.0657 36.8017 25.6893C36.0314 25.3949 34.4993 25.0405 33.6748 25.0405H28.8447L28.8447 29.8706C28.8447 30.6951 29.0885 32.0016 29.465 32.9867C29.8414 33.9719 30.2253 34.6717 30.8052 35.6505C31.6279 37.0392 33.2762 38.9636 33.2762 38.9636C33.2762 38.9636 31.6198 40.803 30.8052 42.1509C30.1812 43.1833 29.588 44.6936 29.2208 45.7127C28.9596 46.4375 28.8447 47.2035 28.8447 47.9739V385.806C28.8447 386.576 28.9596 387.342 29.2208 388.067C29.588 389.086 30.1812 390.596 30.8052 391.629C31.6198 392.977 33.2762 394.816 33.2762 394.816C33.2762 394.816 31.6279 396.741 30.8052 398.129C30.2253 399.108 29.8414 399.808 29.465 400.793C29.0885 401.778 28.8447 403.085 28.8447 403.909L28.8447 408.739H33.6748C34.4993 408.739 36.0314 408.385 36.8017 408.091C37.7868 407.714 38.4759 407.359 39.4547 406.779C40.8434 405.956 42.7678 404.308 42.7678 404.308C42.7678 404.308 44.6072 405.964 45.9551 406.779C46.9875 407.403 48.4979 407.996 49.5169 408.363C50.2417 408.624 51.0077 408.739 51.7781 408.739L290.249 408.739C291.019 408.739 291.785 408.625 292.51 408.363C293.529 407.996 295.039 407.403 296.072 406.779C297.419 405.964 299.259 404.308 299.259 404.308C299.259 404.308 301.183 405.956 302.572 406.779C303.551 407.359 304.24 407.714 305.225 408.091C305.995 408.385 307.527 408.739 308.352 408.739Z" fill="#090809"/>
<path d="M46.1085 27.0185C44.7486 27.8404 42.8928 29.5115 42.8928 29.5115C42.8928 29.5115 40.9512 27.8485 39.5502 27.0185C38.5626 26.4334 37.8674 26.0749 36.8735 25.6951C36.0964 25.3982 34.5506 25.0406 33.7187 25.0406C34.5506 25.0406 36.0966 24.6831 36.8737 24.3861C37.8676 24.0063 38.5629 23.6478 39.5504 23.0627C40.9515 22.2327 42.8931 20.5697 42.8931 20.5697C42.8931 20.5697 44.7488 22.2409 46.1087 23.0627C47.1503 23.6922 48.6742 24.2908 49.7023 24.6612C50.4335 24.9247 51.2061 25.0406 51.9834 25.0406C51.2061 25.0406 50.4333 25.1565 49.702 25.42C48.6739 25.7905 47.1501 26.389 46.1085 27.0185Z" fill="#1B1613"/>
<path d="M30.8235 42.3034C31.6454 40.9435 33.3166 39.0878 33.3166 39.0878C33.3166 39.0878 31.6536 37.1462 30.8235 35.7451C30.2385 34.7575 29.8512 34.0515 29.4714 33.0576C29.0916 32.0637 28.8456 30.7456 28.8456 29.9137C28.8456 30.7456 28.5999 32.0636 28.2201 33.0576C27.8403 34.0515 27.4531 34.7575 26.868 35.745C26.038 37.1461 24.375 39.0877 24.375 39.0877C24.375 39.0877 26.0461 40.9434 26.868 42.3034C27.4975 43.3449 28.096 44.8688 28.4665 45.8969C28.73 46.6282 28.8456 47.4011 28.8456 48.1783C28.8456 47.4011 28.9615 46.6282 29.225 45.897C29.5955 44.8688 30.1941 43.345 30.8235 42.3034Z" fill="#1B1613"/>
<path d="M11.5829 23.0627C12.9428 22.2408 14.7986 20.5697 14.7986 20.5697C14.7986 20.5697 16.7402 22.2327 18.1413 23.0627C19.1288 23.6477 19.824 24.0063 20.8179 24.3861C21.5896 24.6809 23.119 25.0355 23.9549 25.0405C23.119 25.0455 21.5897 25.4002 20.8181 25.695C19.8242 26.0748 19.1289 26.4334 18.1414 27.0184C16.7403 27.8485 14.7987 29.5115 14.7987 29.5115C14.7987 29.5115 12.943 27.8403 11.5831 27.0184C10.5415 26.3889 9.01765 25.7904 7.98951 25.4199C7.25827 25.1564 6.48528 25.0406 5.70801 25.0406C6.48528 25.0406 7.25813 24.9247 7.98938 24.6612C9.01752 24.2907 10.5414 23.6922 11.5829 23.0627Z" fill="#1B1613"/>
<path d="M26.8679 7.77774C26.046 9.13767 24.3748 10.9934 24.3748 10.9934C24.3748 10.9934 26.0378 12.935 26.8679 14.3361C27.4529 15.3236 27.8402 16.0297 28.22 17.0236C28.5856 17.9802 28.8271 19.2373 28.8447 20.072C28.8454 20.1045 28.8458 20.1363 28.8458 20.1675C28.8458 19.3356 29.0919 18.0175 29.4717 17.0236C29.8515 16.0297 30.2387 15.3237 30.8238 14.3361C31.6538 12.9351 33.3168 10.9935 33.3168 10.9935C33.3168 10.9935 31.6457 9.13772 30.8238 7.77779C30.1943 6.73623 29.5958 5.21239 29.2253 4.18425C28.9618 3.45301 28.8458 2.68011 28.8458 1.90283C28.8458 2.6801 28.7299 3.45296 28.4664 4.1842C28.0959 5.21234 27.4973 6.73618 26.8679 7.77774Z" fill="#1B1613"/>
<path d="M28.8447 25.0405H33.6748C34.4993 25.0405 36.0314 25.3949 36.8017 25.6893C37.7868 26.0657 38.4759 26.4211 39.4547 27.001C40.8434 27.8237 42.7678 29.472 42.7678 29.472C42.7678 29.472 44.6072 27.8156 45.9551 27.001C46.9875 26.377 48.4979 25.7838 49.5169 25.4166C50.2417 25.1554 51.0077 25.0405 51.7781 25.0405H290.249C291.019 25.0405 291.785 25.1554 292.51 25.4166C293.529 25.7838 295.039 26.377 296.072 27.001C297.42 27.8156 299.259 29.472 299.259 29.472C299.259 29.472 301.184 27.8237 302.572 27.001C303.551 26.4211 304.24 26.0657 305.225 25.6893C305.996 25.3949 307.528 25.0405 308.352 25.0405H313.182L313.182 29.8706C313.182 30.6951 312.938 32.0016 312.562 32.9867C312.186 33.9719 311.802 34.6717 311.222 35.6505C310.399 37.0392 308.751 38.9636 308.751 38.9636C308.751 38.9636 310.407 40.803 311.222 42.1509C311.846 43.1833 312.439 44.6936 312.806 45.7127C313.067 46.4375 313.182 47.2035 313.182 47.9739L313.182 385.806C313.182 386.576 313.067 387.342 312.806 388.067C312.439 389.086 311.845 390.597 311.221 391.629C310.407 392.977 308.75 394.816 308.75 394.816C308.75 394.816 310.399 396.741 311.221 398.129C311.801 399.108 312.185 399.808 312.562 400.793C312.938 401.778 313.182 403.085 313.182 403.909V408.739H308.352C307.527 408.739 305.995 408.385 305.225 408.091C304.24 407.714 303.551 407.359 302.572 406.779C301.183 405.956 299.259 404.308 299.259 404.308C299.259 404.308 297.419 405.964 296.072 406.779C295.039 407.403 293.529 407.996 292.51 408.363C291.785 408.625 291.019 408.739 290.249 408.739L51.7781 408.739C51.0077 408.739 50.2417 408.624 49.5169 408.363C48.4979 407.996 46.9875 407.403 45.9551 406.779C44.6072 405.964 42.7678 404.308 42.7678 404.308C42.7678 404.308 40.8434 405.956 39.4547 406.779C38.4759 407.359 37.7868 407.714 36.8017 408.091C36.0314 408.385 34.4993 408.739 33.6748 408.739H28.8447L28.8447 403.909C28.8447 403.085 29.0885 401.778 29.465 400.793C29.8414 399.808 30.2253 399.108 30.8052 398.129C31.6279 396.741 33.2762 394.816 33.2762 394.816C33.2762 394.816 31.6198 392.977 30.8052 391.629C30.1812 390.596 29.588 389.086 29.2208 388.067C28.9596 387.342 28.8447 386.576 28.8447 385.806V47.9739C28.8447 47.2035 28.9596 46.4375 29.2208 45.7127C29.588 44.6936 30.1812 43.1833 30.8052 42.1509C31.6198 40.803 33.2762 38.9636 33.2762 38.9636C33.2762 38.9636 31.6279 37.0392 30.8052 35.6505C30.2253 34.6717 29.8414 33.9719 29.465 32.9867C29.0885 32.0016 28.8447 30.6951 28.8447 29.8706L28.8447 25.0405ZM28.8447 25.0405V20.072M28.8447 25.0405H23.9549M23.9727 25.0406C23.9668 25.0406 23.9609 25.0405 23.9549 25.0405M28.8447 20.072C28.8271 19.2373 28.5856 17.9802 28.22 17.0236C27.8402 16.0297 27.4529 15.3236 26.8679 14.3361C26.0378 12.935 24.3748 10.9934 24.3748 10.9934C24.3748 10.9934 26.046 9.13767 26.8679 7.77774C27.4973 6.73618 28.0959 5.21234 28.4664 4.1842C28.7299 3.45296 28.8458 2.6801 28.8458 1.90283C28.8458 2.68011 28.9618 3.45301 29.2253 4.18425C29.5958 5.21239 30.1943 6.73623 30.8238 7.77779C31.6457 9.13772 33.3168 10.9935 33.3168 10.9935C33.3168 10.9935 31.6538 12.9351 30.8238 14.3361C30.2387 15.3237 29.8515 16.0297 29.4717 17.0236C29.0919 18.0175 28.8458 19.3356 28.8458 20.1675C28.8458 20.1363 28.8454 20.1045 28.8447 20.072ZM23.9549 25.0405C23.119 25.0455 21.5897 25.4002 20.8181 25.695C19.8242 26.0748 19.1289 26.4334 18.1414 27.0184C16.7403 27.8485 14.7987 29.5115 14.7987 29.5115C14.7987 29.5115 12.943 27.8403 11.5831 27.0184C10.5415 26.3889 9.01765 25.7904 7.98951 25.4199C7.25827 25.1564 6.48528 25.0406 5.70801 25.0406C6.48528 25.0406 7.25813 24.9247 7.98938 24.6612C9.01752 24.2907 10.5414 23.6922 11.5829 23.0627C12.9428 22.2408 14.7986 20.5697 14.7986 20.5697C14.7986 20.5697 16.7402 22.2327 18.1413 23.0627C19.1288 23.6477 19.824 24.0063 20.8179 24.3861C21.5896 24.6809 23.119 25.0355 23.9549 25.0405ZM46.1085 27.0185C44.7486 27.8404 42.8928 29.5115 42.8928 29.5115C42.8928 29.5115 40.9512 27.8485 39.5502 27.0185C38.5626 26.4334 37.8674 26.0749 36.8735 25.6951C36.0964 25.3982 34.5506 25.0406 33.7187 25.0406C34.5506 25.0406 36.0966 24.6831 36.8737 24.3861C37.8676 24.0063 38.5629 23.6478 39.5504 23.0627C40.9515 22.2327 42.8931 20.5697 42.8931 20.5697C42.8931 20.5697 44.7488 22.2409 46.1087 23.0627C47.1503 23.6922 48.6742 24.2908 49.7023 24.6612C50.4335 24.9247 51.2061 25.0406 51.9834 25.0406C51.2061 25.0406 50.4333 25.1565 49.702 25.42C48.6739 25.7905 47.1501 26.389 46.1085 27.0185ZM30.8235 42.3034C31.6454 40.9435 33.3166 39.0878 33.3166 39.0878C33.3166 39.0878 31.6536 37.1462 30.8235 35.7451C30.2385 34.7575 29.8512 34.0515 29.4714 33.0576C29.0916 32.0637 28.8456 30.7456 28.8456 29.9137C28.8456 30.7456 28.5999 32.0636 28.2201 33.0576C27.8403 34.0515 27.4531 34.7575 26.868 35.745C26.038 37.1461 24.375 39.0877 24.375 39.0877C24.375 39.0877 26.0461 40.9434 26.868 42.3034C27.4975 43.3449 28.096 44.8688 28.4665 45.8969C28.73 46.6282 28.8456 47.4011 28.8456 48.1783C28.8456 47.4011 28.9615 46.6282 29.225 45.897C29.5955 44.8688 30.1941 43.345 30.8235 42.3034Z" stroke="#F4F4E8"/>
</g>
</g>
</g>
<defs>
<filter id="filter0_d_1370_65755" x="2.15173e-05" y="0.000169992" width="317.488" height="416.85" filterUnits="userSpaceOnUse" color-interpolation-filters="sRGB">
<feFlood flood-opacity="0" result="BackgroundImageFix"/>
<feColorMatrix in="SourceAlpha" type="matrix" values="0 0 0 0 0 0 0 0 0 0 0 0 0 0 0 0 0 0 127 0" result="hardAlpha"/>
<feOffset dx="-0.951331" dy="2.85399"/>
<feGaussianBlur stdDeviation="2.37833"/>
<feComposite in2="hardAlpha" operator="out"/>
<feColorMatrix type="matrix" values="0 0 0 0 0 0 0 0 0 0 0 0 0 0 0 0 0 0 0.1 0"/>
<feBlend mode="normal" in2="BackgroundImageFix" result="effect1_dropShadow_1370_65755"/>
<feBlend mode="normal" in="SourceGraphic" in2="effect1_dropShadow_1370_65755" result="shape"/>
</filter>
</defs>
</svg>
