<svg width="53" height="48" viewBox="0 0 53 48" fill="none" xmlns="http://www.w3.org/2000/svg">
<path d="M51.8584 5.43512V0.500008L45.7888 0.5C44.7526 0.5 43.1109 0.749104 41.8729 1.13373C40.635 1.51836 39.7556 1.91058 38.5255 2.50308C36.7805 3.34368 34.3621 5.02785 34.3621 5.02785C34.3621 5.02785 32.0507 3.33543 30.3569 2.50308C29.0596 1.86558 27.3549 1.30008 26.0744 0.924888C24.7938 1.30008 23.2988 1.86558 22.0015 2.50308C20.3076 3.33543 17.9963 5.02785 17.9963 5.02785C17.9963 5.02785 15.5779 3.34368 13.8329 2.50308C12.6028 1.91058 11.7234 1.51836 10.4855 1.13373C9.24753 0.749104 7.60577 0.5 6.5696 0.5L0.5 0.500002L0.500027 5.43512C0.500027 6.27763 0.945385 7.84303 1.31524 8.63004C1.78828 9.63661 2.23486 10.3407 2.96356 11.3408C3.99739 12.7597 6.06871 14.726 6.06871 14.726C6.06871 14.726 3.98724 16.6054 2.96356 17.9826C2.17952 19.0375 1.43401 20.5807 0.972576 21.6219C0.644382 22.3625 0.500027 23.1452 0.500027 23.9324C0.500027 24.7195 0.645359 25.4527 0.973553 26.1933C1.43499 27.2345 2.18049 28.7778 2.96453 29.8326C3.98822 31.2098 6.06969 33.0892 6.06969 33.0892C6.06969 33.0892 3.99837 35.0555 2.96453 36.4744C2.23583 37.4745 1.78926 38.1786 1.31622 39.1852C0.946362 39.9722 0.501003 41.5376 0.501003 42.3801V47.3152L6.57058 47.3152C7.60675 47.3152 9.24851 47.0661 10.4865 46.6815C11.7244 46.2969 12.6038 45.9047 13.8338 45.3121C15.5789 44.4715 17.9972 42.7874 17.9972 42.7874C17.9972 42.7874 20.3086 44.4798 22.0025 45.3121C23.2998 45.9496 24.8124 46.5663 26.0929 46.9415C27.3735 46.5663 29.0596 45.9498 30.3569 45.3123C32.0507 44.48 34.3621 42.7876 34.3621 42.7876C34.3621 42.7876 36.7805 44.4717 38.5255 45.3123C39.7556 45.9049 40.635 46.2971 41.8729 46.6817C43.1109 47.0663 44.7526 47.3154 45.7888 47.3154L51.8584 47.3153V42.3803C51.8584 41.5378 51.413 39.9724 51.0432 39.1854C50.5701 38.1788 50.1235 37.4747 49.3948 36.4746C48.361 35.0557 46.2897 33.0894 46.2897 33.0894C46.2897 33.0894 48.3712 31.21 49.3948 29.8328C50.1789 28.778 50.9244 27.2347 51.3858 26.1935C51.714 25.4529 51.8584 24.7195 51.8584 23.9324C51.8584 23.1452 51.714 22.3625 51.3858 21.6219C50.9244 20.5807 50.1789 19.0375 49.3948 17.9826C48.3712 16.6054 46.2897 14.726 46.2897 14.726C46.2897 14.726 48.361 12.7597 49.3948 11.3408C50.1235 10.3407 50.5701 9.63661 51.0432 8.63004C51.413 7.84303 51.8584 6.27763 51.8584 5.43512Z" fill="#090809" stroke="#F8F8F7"/>
<path d="M39.6065 14.2477V11.667L36.4326 11.667C35.8907 11.667 35.0322 11.7973 34.3848 11.9984C33.7375 12.1995 33.2776 12.4046 32.6344 12.7144C31.7219 13.154 30.4573 14.0347 30.4573 14.0347C30.4573 14.0347 29.2486 13.1497 28.3629 12.7144C27.6845 12.3811 26.7931 12.0854 26.1234 11.8892C25.4538 12.0854 24.672 12.3811 23.9936 12.7144C23.1079 13.1497 21.8992 14.0347 21.8992 14.0347C21.8992 14.0347 20.6346 13.154 19.7221 12.7144C19.0788 12.4046 18.619 12.1995 17.9716 11.9984C17.3243 11.7973 16.4658 11.667 15.9239 11.667H12.75L12.75 14.2477C12.75 14.6882 12.9829 15.5068 13.1763 15.9184C13.4237 16.4447 13.6572 16.8129 14.0383 17.3359C14.5789 18.0779 15.662 19.1061 15.662 19.1061C15.662 19.1061 14.5736 20.0889 14.0383 20.8091C13.6283 21.3607 13.2384 22.1677 12.9971 22.7121C12.8255 23.0994 12.75 23.5087 12.75 23.9203C12.75 24.3319 12.826 24.7154 12.9976 25.1026C13.2389 25.6471 13.6288 26.4541 14.0388 27.0057C14.5741 27.7259 15.6625 28.7086 15.6625 28.7086C15.6625 28.7086 14.5794 29.7369 14.0388 30.4788C13.6577 31.0018 13.4242 31.37 13.1768 31.8964C12.9834 32.3079 12.7505 33.1265 12.7505 33.5671V36.1477L15.9244 36.1478C16.4663 36.1478 17.3248 36.0175 17.9722 35.8164C18.6195 35.6152 19.0794 35.4101 19.7226 35.1003C20.6351 34.6607 21.8997 33.78 21.8997 33.78C21.8997 33.78 23.1084 34.665 23.9941 35.1003C24.6725 35.4337 25.4635 35.7561 26.1331 35.9523C26.8028 35.7561 27.6845 35.4338 28.3629 35.1004C29.2486 34.6651 30.4573 33.7801 30.4573 33.7801C30.4573 33.7801 31.7219 34.6608 32.6344 35.1004C33.2776 35.4102 33.7375 35.6153 34.3848 35.8165C35.0322 36.0176 35.8907 36.1479 36.4326 36.1479L39.6065 36.1478V33.5672C39.6065 33.1266 39.3736 32.308 39.1802 31.8965C38.9328 31.3701 38.6993 31.0019 38.3182 30.479C37.7776 29.737 36.6945 28.7087 36.6945 28.7087C36.6945 28.7087 37.7829 27.726 38.3182 27.0058C38.7282 26.4542 39.1181 25.6472 39.3594 25.1027C39.531 24.7155 39.6065 24.3319 39.6065 23.9203C39.6065 23.5087 39.531 23.0994 39.3594 22.7121C39.1181 22.1677 38.7282 21.3607 38.3182 20.8091C37.7829 20.0889 36.6945 19.1061 36.6945 19.1061C36.6945 19.1061 37.7776 18.0779 38.3182 17.3359C38.6993 16.8129 38.9328 16.4447 39.1802 15.9184C39.3736 15.5068 39.6065 14.6882 39.6065 14.2477Z" fill="#F8F8F7" stroke="#F8F8F7"/>
</svg>
