<svg width="1001" height="598" viewBox="0 0 1001 598" fill="none" xmlns="http://www.w3.org/2000/svg">
<g id="&#215;&#144;&#215;&#153;&#215;&#160;&#215;&#147;&#215;&#167;&#215;&#161;">
<rect width="1920" height="1078" transform="translate(-132.639 -283.795)" fill="#090809"/>
<g id="Frame 236">
<g id="Vector" filter="url(#filter0_d_1370_65755)">
<path d="M991.887 20.6709C990.87 21.2851 989.484 22.5339 989.484 22.5339C989.484 22.5339 988.033 21.2912 986.986 20.6709C986.248 20.2337 985.728 19.9658 984.985 19.682C984.405 19.4601 983.25 19.1929 982.628 19.1929C983.25 19.1929 984.405 18.9257 984.986 18.7038C985.728 18.42 986.248 18.1521 986.986 17.7149C988.033 17.0946 989.484 15.8519 989.484 15.8519C989.484 15.8519 990.871 17.1007 991.887 17.7149C992.665 18.1853 993.804 18.6325 994.572 18.9094C995.119 19.1063 995.696 19.1929 996.277 19.1929C995.696 19.1929 995.118 19.2795 994.572 19.4764C993.804 19.7532 992.665 20.2005 991.887 20.6709Z" fill="#0B0B0B"/>
<path d="M980.465 32.093C981.079 31.0767 982.327 29.69 982.327 29.69C982.327 29.69 981.085 28.2391 980.465 27.1921C980.027 26.4541 979.738 25.9265 979.454 25.1838C979.17 24.4411 978.986 23.4561 978.986 22.8344C978.986 23.4561 978.803 24.441 978.519 25.1838C978.235 25.9265 977.946 26.4541 977.509 27.1921C976.888 28.239 975.646 29.6899 975.646 29.6899C975.646 29.6899 976.894 31.0767 977.509 32.0929C977.979 32.8713 978.426 34.01 978.703 34.7783C978.9 35.3247 978.986 35.9023 978.986 36.4832C978.986 35.9023 979.073 35.3248 979.27 34.7783C979.547 34.01 979.994 32.8713 980.465 32.093Z" fill="#0B0B0B"/>
<path d="M966.086 17.7148C967.103 17.1007 968.489 15.8519 968.489 15.8519C968.489 15.8519 969.94 17.0946 970.987 17.7148C971.725 18.152 972.245 18.42 972.988 18.7038C973.564 18.9241 974.707 19.1891 975.332 19.1928C974.707 19.1966 973.564 19.4616 972.988 19.6819C972.245 19.9657 971.725 20.2337 970.987 20.6709C969.94 21.2911 968.49 22.5338 968.49 22.5338C968.49 22.5338 967.103 21.285 966.087 20.6709C965.308 20.2005 964.17 19.7532 963.401 19.4763C962.855 19.2794 962.277 19.1929 961.696 19.1929C962.277 19.1929 962.855 19.1063 963.401 18.9094C964.169 18.6325 965.308 18.1852 966.086 17.7148Z" fill="#0B0B0B"/>
<path d="M977.509 6.29277C976.894 7.30901 975.646 8.69575 975.646 8.69575C975.646 8.69575 976.888 10.1467 977.509 11.1936C977.946 11.9316 978.235 12.4592 978.519 13.2019C978.792 13.9169 978.973 14.8562 978.986 15.48C978.986 15.5042 978.987 15.5281 978.987 15.5513C978.987 14.9297 979.17 13.9447 979.454 13.202C979.738 12.4593 980.028 11.9317 980.465 11.1937C981.085 10.1467 982.328 8.69579 982.328 8.69579C982.328 8.69579 981.079 7.30904 980.465 6.2928C979.994 5.51447 979.547 4.37574 979.27 3.60744C979.073 3.061 978.987 2.48343 978.987 1.90259C978.987 2.48342 978.9 3.06096 978.703 3.6074C978.426 4.3757 977.979 5.51443 977.509 6.29277Z" fill="#0B0B0B"/>
<path d="M996.123 19.1928C995.548 19.1928 994.975 19.2787 994.434 19.4738C993.672 19.7482 992.543 20.1916 991.772 20.6578C990.765 21.2666 989.39 22.5043 989.39 22.5043C989.39 22.5043 987.952 21.2726 986.914 20.6578C986.183 20.2245 985.668 19.9589 984.932 19.6776C984.356 19.4577 983.211 19.1928 982.595 19.1928H978.986M978.986 19.1928L978.986 22.8022C978.986 23.4184 979.168 24.3947 979.449 25.1308C979.731 25.867 980.017 26.3899 980.451 27.1214C981.066 28.1591 982.297 29.5972 982.297 29.5972C982.297 29.5972 981.06 30.9717 980.451 31.979C979.985 32.7505 979.541 33.8791 979.267 34.6406C979.072 35.1823 978.986 35.7547 978.986 36.3304M978.986 19.1928V15.48M978.986 19.1928H975.332M975.345 19.1929C975.341 19.1929 975.336 19.1928 975.332 19.1928M978.986 15.48C978.973 14.8562 978.792 13.9169 978.519 13.2019C978.235 12.4592 977.946 11.9316 977.509 11.1936C976.888 10.1467 975.646 8.69575 975.646 8.69575C975.646 8.69575 976.894 7.30901 977.509 6.29277C977.979 5.51443 978.426 4.3757 978.703 3.6074C978.9 3.06096 978.987 2.48342 978.987 1.90259C978.987 2.48343 979.073 3.061 979.27 3.60744C979.547 4.37574 979.994 5.51447 980.465 6.2928C981.079 7.30904 982.328 8.69579 982.328 8.69579C982.328 8.69579 981.085 10.1467 980.465 11.1937C980.028 11.9317 979.738 12.4593 979.454 13.202C979.17 13.9447 978.987 14.9297 978.987 15.5513C978.987 15.5281 978.986 15.5042 978.986 15.48ZM975.332 19.1928C974.707 19.1966 973.564 19.4616 972.988 19.6819C972.245 19.9657 971.725 20.2337 970.987 20.6709C969.94 21.2911 968.49 22.5338 968.49 22.5338C968.49 22.5338 967.103 21.285 966.087 20.6709C965.308 20.2005 964.17 19.7532 963.401 19.4763C962.855 19.2794 962.277 19.1929 961.696 19.1929C962.277 19.1929 962.855 19.1063 963.401 18.9094C964.169 18.6325 965.308 18.1852 966.086 17.7148C967.103 17.1007 968.489 15.8519 968.489 15.8519C968.489 15.8519 969.94 17.0946 970.987 17.7148C971.725 18.152 972.245 18.42 972.988 18.7038C973.564 18.9241 974.707 19.1891 975.332 19.1928ZM991.887 20.6709C990.87 21.2851 989.484 22.5339 989.484 22.5339C989.484 22.5339 988.033 21.2912 986.986 20.6709C986.248 20.2337 985.728 19.9658 984.985 19.682C984.405 19.4601 983.25 19.1929 982.628 19.1929C983.25 19.1929 984.405 18.9257 984.986 18.7038C985.728 18.42 986.248 18.1521 986.986 17.7149C988.033 17.0946 989.484 15.8519 989.484 15.8519C989.484 15.8519 990.871 17.1007 991.887 17.7149C992.665 18.1853 993.804 18.6325 994.572 18.9094C995.119 19.1063 995.696 19.1929 996.277 19.1929C995.696 19.1929 995.118 19.2795 994.572 19.4764C993.804 19.7532 992.665 20.2005 991.887 20.6709ZM980.465 32.093C981.079 31.0767 982.327 29.69 982.327 29.69C982.327 29.69 981.085 28.2391 980.465 27.1921C980.027 26.4541 979.738 25.9265 979.454 25.1838C979.17 24.4411 978.986 23.4561 978.986 22.8344C978.986 23.4561 978.803 24.441 978.519 25.1838C978.235 25.9265 977.946 26.4541 977.509 27.1921C976.888 28.239 975.646 29.6899 975.646 29.6899C975.646 29.6899 976.894 31.0767 977.509 32.0929C977.979 32.8713 978.426 34.01 978.703 34.7783C978.9 35.3247 978.986 35.9023 978.986 36.4832C978.986 35.9023 979.073 35.3248 979.27 34.7783C979.547 34.01 979.994 32.8713 980.465 32.093Z" stroke="#7E7E7E"/>
</g>
<g id="Vector_2" filter="url(#filter1_d_1370_65755)">
<path d="M975.377 296.556H978.987V292.947C978.987 292.331 978.804 291.354 978.523 290.618C978.242 289.882 977.955 289.359 977.522 288.628C976.907 287.59 975.675 286.152 975.675 286.152C975.675 286.152 976.913 284.777 977.522 283.77C977.988 282.999 978.431 281.87 978.706 281.109C978.901 280.567 978.987 279.994 978.987 279.419L978.987 36.3304C978.987 35.7547 978.901 35.1823 978.706 34.6406C978.431 33.8791 977.988 32.7505 977.522 31.979C976.913 30.9717 975.675 29.5972 975.675 29.5972C975.675 29.5972 976.907 28.1591 977.522 27.1214C977.955 26.3899 978.242 25.867 978.523 25.1308C978.805 24.3947 978.987 23.4184 978.987 22.8022L978.987 19.1928H975.377C974.761 19.1928 973.616 19.4577 973.041 19.6776C972.305 19.9589 971.79 20.2245 971.058 20.6578C970.02 21.2726 968.582 22.5043 968.582 22.5043C968.582 22.5043 967.208 21.2666 966.201 20.6578C965.429 20.1916 964.301 19.7482 963.539 19.4738C962.997 19.2787 962.425 19.1928 961.849 19.1928H633.646C633.07 19.1928 632.498 19.2787 631.956 19.4738C631.195 19.7482 630.066 20.1916 629.294 20.6578C628.287 21.2666 626.913 22.5043 626.913 22.5043C626.913 22.5043 625.475 21.2726 624.437 20.6578C623.705 20.2245 623.19 19.9589 622.454 19.6776C621.879 19.4577 620.734 19.1928 620.118 19.1928H616.508L616.508 22.8022C616.508 23.4184 616.69 24.3947 616.972 25.1308C617.253 25.867 617.54 26.3899 617.973 27.1214C618.588 28.1591 619.82 29.5972 619.82 29.5972C619.82 29.5972 618.582 30.9717 617.973 31.979C617.507 32.7505 617.064 33.8791 616.789 34.6406C616.594 35.1823 616.508 35.7547 616.508 36.3304V279.419C616.508 279.994 616.594 280.567 616.789 281.108C617.064 281.87 617.507 282.999 617.973 283.77C618.582 284.777 619.82 286.152 619.82 286.152C619.82 286.152 618.588 287.59 617.973 288.628C617.54 289.359 617.253 289.882 616.972 290.618C616.69 291.354 616.508 292.331 616.508 292.947L616.508 296.556H620.118C620.734 296.556 621.879 296.291 622.454 296.071C623.19 295.79 623.705 295.525 624.437 295.091C625.475 294.476 626.913 293.245 626.913 293.245C626.913 293.245 628.287 294.482 629.294 295.091C630.066 295.557 631.195 296.001 631.956 296.275C632.498 296.47 633.07 296.556 633.646 296.556L961.849 296.556C962.425 296.556 962.997 296.47 963.539 296.275C964.3 296.001 965.429 295.558 966.2 295.091C967.208 294.483 968.582 293.245 968.582 293.245C968.582 293.245 970.02 294.477 971.058 295.091C971.789 295.525 972.304 295.79 973.041 296.072C973.616 296.292 974.761 296.556 975.377 296.556Z" fill="#090809"/>
<path d="M629.409 20.6709C628.393 21.2851 627.006 22.5339 627.006 22.5339C627.006 22.5339 625.555 21.2912 624.508 20.6709C623.77 20.2337 623.251 19.9658 622.508 19.682C621.927 19.4601 620.772 19.1929 620.15 19.1929C620.772 19.1929 621.927 18.9257 622.508 18.7038C623.251 18.42 623.77 18.1521 624.508 17.7149C625.555 17.0946 627.006 15.8519 627.006 15.8519C627.006 15.8519 628.393 17.1007 629.409 17.7149C630.188 18.1853 631.326 18.6325 632.095 18.9094C632.641 19.1063 633.218 19.1929 633.799 19.1929C633.218 19.1929 632.641 19.2795 632.094 19.4764C631.326 19.7532 630.187 20.2005 629.409 20.6709Z" fill="#0B0B0B"/>
<path d="M617.987 32.093C618.601 31.0767 619.85 29.69 619.85 29.69C619.85 29.69 618.607 28.2391 617.987 27.1921C617.55 26.4541 617.26 25.9265 616.977 25.1838C616.693 24.4411 616.509 23.4561 616.509 22.8344C616.509 23.4561 616.325 24.441 616.042 25.1838C615.758 25.9265 615.468 26.4541 615.031 27.1921C614.411 28.239 613.168 29.6899 613.168 29.6899C613.168 29.6899 614.417 31.0767 615.031 32.0929C615.501 32.8713 615.949 34.01 616.226 34.7783C616.423 35.3247 616.509 35.9023 616.509 36.4832C616.509 35.9023 616.596 35.3248 616.792 34.7783C617.069 34.01 617.517 32.8713 617.987 32.093Z" fill="#0B0B0B"/>
<path d="M603.609 17.7148C604.625 17.1007 606.012 15.8519 606.012 15.8519C606.012 15.8519 607.463 17.0946 608.51 17.7148C609.248 18.152 609.767 18.42 610.51 18.7038C611.087 18.9241 612.23 19.1891 612.854 19.1928C612.23 19.1966 611.087 19.4616 610.51 19.6819C609.767 19.9657 609.248 20.2337 608.51 20.6709C607.463 21.2911 606.012 22.5338 606.012 22.5338C606.012 22.5338 604.625 21.285 603.609 20.6709C602.831 20.2005 601.692 19.7532 600.924 19.4763C600.377 19.2794 599.8 19.1929 599.219 19.1929C599.8 19.1929 600.377 19.1063 600.924 18.9094C601.692 18.6325 602.831 18.1852 603.609 17.7148Z" fill="#0B0B0B"/>
<path d="M615.031 6.29277C614.417 7.30901 613.168 8.69575 613.168 8.69575C613.168 8.69575 614.411 10.1467 615.031 11.1936C615.468 11.9316 615.758 12.4592 616.041 13.2019C616.315 13.9169 616.495 14.8562 616.508 15.48C616.509 15.5042 616.509 15.5281 616.509 15.5513C616.509 14.9297 616.693 13.9447 616.977 13.202C617.261 12.4593 617.55 11.9317 617.987 11.1937C618.607 10.1467 619.85 8.69579 619.85 8.69579C619.85 8.69579 618.601 7.30904 617.987 6.2928C617.517 5.51447 617.07 4.37574 616.793 3.60744C616.596 3.061 616.509 2.48343 616.509 1.90259C616.509 2.48342 616.422 3.06096 616.226 3.6074C615.949 4.3757 615.501 5.51443 615.031 6.29277Z" fill="#0B0B0B"/>
<path d="M616.508 19.1928H620.118C620.734 19.1928 621.879 19.4577 622.454 19.6776C623.19 19.9589 623.705 20.2245 624.437 20.6578C625.475 21.2726 626.913 22.5043 626.913 22.5043C626.913 22.5043 628.287 21.2666 629.294 20.6578C630.066 20.1916 631.195 19.7482 631.956 19.4738C632.498 19.2787 633.07 19.1928 633.646 19.1928H961.849C962.425 19.1928 962.997 19.2787 963.539 19.4738C964.301 19.7482 965.429 20.1916 966.201 20.6578C967.208 21.2666 968.582 22.5043 968.582 22.5043C968.582 22.5043 970.02 21.2726 971.058 20.6578C971.79 20.2245 972.305 19.9589 973.041 19.6776C973.616 19.4577 974.761 19.1928 975.377 19.1928H978.987L978.987 22.8022C978.987 23.4184 978.805 24.3947 978.523 25.1308C978.242 25.867 977.955 26.3899 977.522 27.1214C976.907 28.1591 975.675 29.5972 975.675 29.5972C975.675 29.5972 976.913 30.9717 977.522 31.979C977.988 32.7505 978.431 33.8791 978.706 34.6406C978.901 35.1823 978.987 35.7547 978.987 36.3304L978.987 279.419C978.987 279.994 978.901 280.567 978.706 281.109C978.431 281.87 977.988 282.999 977.522 283.77C976.913 284.777 975.675 286.152 975.675 286.152C975.675 286.152 976.907 287.59 977.522 288.628C977.955 289.359 978.242 289.882 978.523 290.618C978.804 291.354 978.987 292.331 978.987 292.947V296.556H975.377C974.761 296.556 973.616 296.291 973.041 296.072C972.304 295.79 971.789 295.525 971.058 295.091C970.02 294.477 968.582 293.245 968.582 293.245C968.582 293.245 967.208 294.483 966.2 295.091C965.429 295.558 964.3 296.001 963.539 296.275C962.997 296.47 962.425 296.556 961.849 296.556L633.646 296.556C633.07 296.556 632.498 296.47 631.956 296.275C631.195 296.001 630.066 295.557 629.294 295.091C628.287 294.482 626.913 293.245 626.913 293.245C626.913 293.245 625.475 294.476 624.437 295.091C623.705 295.525 623.19 295.79 622.454 296.071C621.879 296.291 620.734 296.556 620.118 296.556H616.508L616.508 292.947C616.508 292.331 616.69 291.354 616.972 290.618C617.253 289.882 617.54 289.359 617.973 288.628C618.588 287.59 619.82 286.152 619.82 286.152C619.82 286.152 618.582 284.777 617.973 283.77C617.507 282.999 617.064 281.87 616.789 281.108C616.594 280.567 616.508 279.994 616.508 279.419V36.3304C616.508 35.7547 616.594 35.1823 616.789 34.6406C617.064 33.8791 617.507 32.7505 617.973 31.979C618.582 30.9717 619.82 29.5972 619.82 29.5972C619.82 29.5972 618.588 28.1591 617.973 27.1214C617.54 26.3899 617.253 25.867 616.972 25.1308C616.69 24.3947 616.508 23.4184 616.508 22.8022L616.508 19.1928ZM616.508 19.1928V15.48M616.508 19.1928H612.854M612.868 19.1929C612.863 19.1929 612.859 19.1928 612.854 19.1928M616.508 15.48C616.495 14.8562 616.315 13.9169 616.041 13.2019C615.758 12.4592 615.468 11.9316 615.031 11.1936C614.411 10.1467 613.168 8.69575 613.168 8.69575C613.168 8.69575 614.417 7.30901 615.031 6.29277C615.501 5.51443 615.949 4.3757 616.226 3.6074C616.422 3.06096 616.509 2.48342 616.509 1.90259C616.509 2.48343 616.596 3.061 616.793 3.60744C617.07 4.37574 617.517 5.51447 617.987 6.2928C618.601 7.30904 619.85 8.69579 619.85 8.69579C619.85 8.69579 618.607 10.1467 617.987 11.1937C617.55 11.9317 617.261 12.4593 616.977 13.202C616.693 13.9447 616.509 14.9297 616.509 15.5513C616.509 15.5281 616.509 15.5042 616.508 15.48ZM612.854 19.1928C612.23 19.1966 611.087 19.4616 610.51 19.6819C609.767 19.9657 609.248 20.2337 608.51 20.6709C607.463 21.2911 606.012 22.5338 606.012 22.5338C606.012 22.5338 604.625 21.285 603.609 20.6709C602.831 20.2005 601.692 19.7532 600.924 19.4763C600.377 19.2794 599.8 19.1929 599.219 19.1929C599.8 19.1929 600.377 19.1063 600.924 18.9094C601.692 18.6325 602.831 18.1852 603.609 17.7148C604.625 17.1007 606.012 15.8519 606.012 15.8519C606.012 15.8519 607.463 17.0946 608.51 17.7148C609.248 18.152 609.767 18.42 610.51 18.7038C611.087 18.9241 612.23 19.1891 612.854 19.1928ZM629.409 20.6709C628.393 21.2851 627.006 22.5339 627.006 22.5339C627.006 22.5339 625.555 21.2912 624.508 20.6709C623.77 20.2337 623.251 19.9658 622.508 19.682C621.927 19.4601 620.772 19.1929 620.15 19.1929C620.772 19.1929 621.927 18.9257 622.508 18.7038C623.251 18.42 623.77 18.1521 624.508 17.7149C625.555 17.0946 627.006 15.8519 627.006 15.8519C627.006 15.8519 628.393 17.1007 629.409 17.7149C630.188 18.1853 631.326 18.6325 632.095 18.9094C632.641 19.1063 633.218 19.1929 633.799 19.1929C633.218 19.1929 632.641 19.2795 632.094 19.4764C631.326 19.7532 630.187 20.2005 629.409 20.6709ZM617.987 32.093C618.601 31.0767 619.85 29.69 619.85 29.69C619.85 29.69 618.607 28.2391 617.987 27.1921C617.55 26.4541 617.26 25.9265 616.977 25.1838C616.693 24.4411 616.509 23.4561 616.509 22.8344C616.509 23.4561 616.325 24.441 616.042 25.1838C615.758 25.9265 615.468 26.4541 615.031 27.1921C614.411 28.239 613.168 29.6899 613.168 29.6899C613.168 29.6899 614.417 31.0767 615.031 32.0929C615.501 32.8713 615.949 34.01 616.226 34.7783C616.423 35.3247 616.509 35.9023 616.509 36.4832C616.509 35.9023 616.596 35.3248 616.792 34.7783C617.069 34.01 617.517 32.8713 617.987 32.093Z" stroke="#7E7E7E"/>
</g>
<g id="Vector_3" filter="url(#filter2_d_1370_65755)">
<path d="M612.977 589.887H616.587V586.277C616.587 585.661 616.404 584.685 616.123 583.949C615.842 583.212 615.555 582.69 615.122 581.958C614.507 580.92 613.275 579.482 613.275 579.482C613.275 579.482 614.513 578.108 615.122 577.1C615.588 576.329 616.031 575.2 616.306 574.439C616.501 573.897 616.587 573.325 616.587 572.749L616.587 36.3304C616.587 35.7547 616.501 35.1823 616.306 34.6406C616.031 33.8791 615.588 32.7505 615.122 31.979C614.513 30.9717 613.275 29.5972 613.275 29.5972C613.275 29.5972 614.507 28.1591 615.122 27.1214C615.555 26.3899 615.842 25.867 616.123 25.1308C616.405 24.3947 616.587 23.4184 616.587 22.8022L616.587 19.1928H612.977C612.361 19.1928 611.216 19.4577 610.641 19.6776C609.905 19.9589 609.39 20.2245 608.658 20.6578C607.62 21.2726 606.182 22.5043 606.182 22.5043C606.182 22.5043 604.808 21.2666 603.801 20.6578C603.029 20.1916 601.9 19.7482 601.139 19.4738C600.597 19.2787 600.025 19.1928 599.449 19.1928H40.1351C39.5594 19.1928 38.987 19.2787 38.4453 19.4738C37.6838 19.7482 36.5552 20.1916 35.7837 20.6578C34.7764 21.2666 33.4019 22.5043 33.4019 22.5043C33.4019 22.5043 31.9638 21.2726 30.9261 20.6578C30.1946 20.2245 29.6797 19.9589 28.9435 19.6776C28.368 19.4577 27.2231 19.1928 26.6069 19.1928H22.9975L22.9975 22.8022C22.9975 23.4184 23.1797 24.3947 23.461 25.1308C23.7423 25.867 24.0292 26.3899 24.4625 27.1214C25.0773 28.1591 26.309 29.5972 26.309 29.5972C26.309 29.5972 25.0713 30.9717 24.4625 31.979C23.9963 32.7505 23.5529 33.8791 23.2785 34.6406C23.0834 35.1823 22.9975 35.7547 22.9975 36.3304V572.749C22.9975 573.325 23.0834 573.897 23.2785 574.439C23.5529 575.2 23.9963 576.329 24.4625 577.1C25.0713 578.108 26.309 579.482 26.309 579.482C26.309 579.482 25.0773 580.92 24.4625 581.958C24.0292 582.689 23.7423 583.212 23.461 583.948C23.1797 584.685 22.9975 585.661 22.9975 586.277L22.9975 589.886H26.6069C27.2231 589.886 28.368 589.622 28.9435 589.402C29.6797 589.12 30.1946 588.855 30.9261 588.422C31.9638 587.807 33.4019 586.575 33.4019 586.575C33.4019 586.575 34.7764 587.813 35.7837 588.422C36.5552 588.888 37.6838 589.331 38.4453 589.605C38.987 589.801 39.5594 589.886 40.1351 589.886L599.449 589.887C600.025 589.887 600.597 589.801 601.139 589.606C601.9 589.331 603.029 588.888 603.8 588.422C604.808 587.813 606.182 586.575 606.182 586.575C606.182 586.575 607.62 587.807 608.658 588.422C609.389 588.855 609.904 589.121 610.641 589.402C611.216 589.622 612.361 589.887 612.977 589.887Z" fill="#090809"/>
<path d="M35.8983 20.6709C34.8821 21.2851 33.4953 22.5339 33.4953 22.5339C33.4953 22.5339 32.0444 21.2912 30.9974 20.6709C30.2595 20.2337 29.7399 19.9658 28.9972 19.682C28.4165 19.4601 27.2614 19.1929 26.6397 19.1929C27.2614 19.1929 28.4167 18.9257 28.9974 18.7038C29.7401 18.42 30.2597 18.1521 30.9976 17.7149C32.0446 17.0946 33.4955 15.8519 33.4955 15.8519C33.4955 15.8519 34.8823 17.1007 35.8985 17.7149C36.6768 18.1853 37.8156 18.6325 38.5839 18.9094C39.1303 19.1063 39.7077 19.1929 40.2885 19.1929C39.7077 19.1929 39.1301 19.2795 38.5837 19.4764C37.8154 19.7532 36.6766 20.2005 35.8983 20.6709Z" fill="#090809"/>
<path d="M24.4762 32.093C25.0904 31.0767 26.3392 29.69 26.3392 29.69C26.3392 29.69 25.0965 28.2391 24.4762 27.1921C24.039 26.4541 23.7496 25.9265 23.4658 25.1838C23.182 24.4411 22.9982 23.4561 22.9982 22.8344C22.9982 23.4561 22.8146 24.441 22.5308 25.1838C22.247 25.9265 21.9576 26.4541 21.5204 27.1921C20.9001 28.239 19.6574 29.6899 19.6574 29.6899C19.6574 29.6899 20.9062 31.0767 21.5204 32.0929C21.9908 32.8713 22.438 34.01 22.7149 34.7783C22.9118 35.3247 22.9982 35.9023 22.9982 36.4832C22.9982 35.9023 23.0848 35.3248 23.2817 34.7783C23.5586 34.01 24.0058 32.8713 24.4762 32.093Z" fill="#090809"/>
<path d="M10.0982 17.7148C11.1144 17.1007 12.5012 15.8519 12.5012 15.8519C12.5012 15.8519 13.9521 17.0946 14.9991 17.7148C15.737 18.152 16.2566 18.42 16.9993 18.7038C17.5759 18.9241 18.7188 19.1891 19.3435 19.1928C18.7188 19.1966 17.576 19.4616 16.9994 19.6819C16.2567 19.9657 15.7371 20.2337 14.9992 20.6709C13.9522 21.2911 12.5013 22.5338 12.5013 22.5338C12.5013 22.5338 11.1145 21.285 10.0983 20.6709C9.31995 20.2005 8.18122 19.7532 7.41292 19.4763C6.86648 19.2794 6.28884 19.1929 5.70801 19.1929C6.28884 19.1929 6.86638 19.1063 7.41282 18.9094C8.18112 18.6325 9.31985 18.1852 10.0982 17.7148Z" fill="#090809"/>
<path d="M21.5203 6.29277C20.9061 7.30901 19.6573 8.69575 19.6573 8.69575C19.6573 8.69575 20.9 10.1467 21.5203 11.1936C21.9575 11.9316 22.2469 12.4592 22.5307 13.2019C22.8039 13.9169 22.9844 14.8562 22.9975 15.48C22.998 15.5042 22.9983 15.5281 22.9983 15.5513C22.9983 14.9297 23.1822 13.9447 23.466 13.202C23.7498 12.4593 24.0392 11.9317 24.4764 11.1937C25.0967 10.1467 26.3394 8.69579 26.3394 8.69579C26.3394 8.69579 25.0906 7.30904 24.4764 6.2928C24.006 5.51447 23.5588 4.37574 23.2819 3.60744C23.085 3.061 22.9983 2.48343 22.9983 1.90259C22.9983 2.48342 22.9117 3.06096 22.7148 3.6074C22.4379 4.3757 21.9907 5.51443 21.5203 6.29277Z" fill="#090809"/>
<path d="M22.9975 19.1928H26.6069C27.2231 19.1928 28.368 19.4577 28.9435 19.6776C29.6797 19.9589 30.1946 20.2245 30.9261 20.6578C31.9638 21.2726 33.4019 22.5043 33.4019 22.5043C33.4019 22.5043 34.7764 21.2666 35.7837 20.6578C36.5552 20.1916 37.6838 19.7482 38.4453 19.4738C38.987 19.2787 39.5594 19.1928 40.1351 19.1928H599.449C600.025 19.1928 600.597 19.2787 601.139 19.4738C601.9 19.7482 603.029 20.1916 603.801 20.6578C604.808 21.2666 606.182 22.5043 606.182 22.5043C606.182 22.5043 607.62 21.2726 608.658 20.6578C609.39 20.2245 609.905 19.9589 610.641 19.6776C611.216 19.4577 612.361 19.1928 612.977 19.1928H616.587L616.587 22.8022C616.587 23.4184 616.405 24.3947 616.123 25.1308C615.842 25.867 615.555 26.3899 615.122 27.1214C614.507 28.1591 613.275 29.5972 613.275 29.5972C613.275 29.5972 614.513 30.9717 615.122 31.979C615.588 32.7505 616.031 33.8791 616.306 34.6406C616.501 35.1823 616.587 35.7547 616.587 36.3304L616.587 572.749C616.587 573.325 616.501 573.897 616.306 574.439C616.031 575.2 615.588 576.329 615.122 577.1C614.513 578.108 613.275 579.482 613.275 579.482C613.275 579.482 614.507 580.92 615.122 581.958C615.555 582.69 615.842 583.212 616.123 583.949C616.404 584.685 616.587 585.661 616.587 586.277V589.887H612.977C612.361 589.887 611.216 589.622 610.641 589.402C609.904 589.121 609.389 588.855 608.658 588.422C607.62 587.807 606.182 586.575 606.182 586.575C606.182 586.575 604.808 587.813 603.8 588.422C603.029 588.888 601.9 589.331 601.139 589.606C600.597 589.801 600.025 589.887 599.449 589.887L40.1351 589.886C39.5594 589.886 38.987 589.801 38.4453 589.605C37.6838 589.331 36.5552 588.888 35.7837 588.422C34.7764 587.813 33.4019 586.575 33.4019 586.575C33.4019 586.575 31.9638 587.807 30.9261 588.422C30.1946 588.855 29.6797 589.12 28.9435 589.402C28.368 589.622 27.2231 589.886 26.6069 589.886H22.9975L22.9975 586.277C22.9975 585.661 23.1797 584.685 23.461 583.948C23.7423 583.212 24.0292 582.689 24.4625 581.958C25.0773 580.92 26.309 579.482 26.309 579.482C26.309 579.482 25.0713 578.108 24.4625 577.1C23.9963 576.329 23.5529 575.2 23.2785 574.439C23.0834 573.897 22.9975 573.325 22.9975 572.749V36.3304C22.9975 35.7547 23.0834 35.1823 23.2785 34.6406C23.5529 33.8791 23.9963 32.7505 24.4625 31.979C25.0713 30.9717 26.309 29.5972 26.309 29.5972C26.309 29.5972 25.0773 28.1591 24.4625 27.1214C24.0292 26.3899 23.7423 25.867 23.461 25.1308C23.1797 24.3947 22.9975 23.4184 22.9975 22.8022L22.9975 19.1928ZM22.9975 19.1928V15.48M22.9975 19.1928H19.3435M19.3568 19.1929C19.3524 19.1929 19.3479 19.1928 19.3435 19.1928M22.9975 15.48C22.9844 14.8562 22.8038 13.9169 22.5307 13.2019C22.2469 12.4592 21.9575 11.9316 21.5203 11.1936C20.9 10.1467 19.6573 8.69575 19.6573 8.69575C19.6573 8.69575 20.9061 7.30901 21.5203 6.29277C21.9907 5.51443 22.4379 4.3757 22.7148 3.6074C22.9117 3.06096 22.9983 2.48342 22.9983 1.90259C22.9983 2.48343 23.085 3.061 23.2819 3.60744C23.5588 4.37574 24.006 5.51447 24.4764 6.2928C25.0906 7.30904 26.3394 8.69579 26.3394 8.69579C26.3394 8.69579 25.0967 10.1467 24.4764 11.1937C24.0392 11.9317 23.7498 12.4593 23.466 13.202C23.1822 13.9447 22.9983 14.9297 22.9983 15.5513C22.9983 15.5281 22.998 15.5042 22.9975 15.48ZM19.3435 19.1928C18.7188 19.1966 17.576 19.4616 16.9994 19.6819C16.2567 19.9657 15.7371 20.2337 14.9992 20.6709C13.9522 21.2911 12.5013 22.5338 12.5013 22.5338C12.5013 22.5338 11.1145 21.285 10.0983 20.6709C9.31995 20.2005 8.18122 19.7532 7.41292 19.4763C6.86648 19.2794 6.28884 19.1929 5.70801 19.1929C6.28884 19.1929 6.86638 19.1063 7.41282 18.9094C8.18112 18.6325 9.31985 18.1852 10.0982 17.7148C11.1144 17.1007 12.5012 15.8519 12.5012 15.8519C12.5012 15.8519 13.9521 17.0946 14.9991 17.7148C15.737 18.152 16.2566 18.42 16.9993 18.7038C17.5759 18.9241 18.7188 19.1891 19.3435 19.1928ZM35.8983 20.6709C34.8821 21.2851 33.4953 22.5339 33.4953 22.5339C33.4953 22.5339 32.0444 21.2912 30.9974 20.6709C30.2595 20.2337 29.7399 19.9658 28.9972 19.682C28.4165 19.4601 27.2614 19.1929 26.6397 19.1929C27.2614 19.1929 28.4167 18.9257 28.9974 18.7038C29.7401 18.42 30.2597 18.1521 30.9976 17.7149C32.0446 17.0946 33.4955 15.8519 33.4955 15.8519C33.4955 15.8519 34.8823 17.1007 35.8985 17.7149C36.6768 18.1853 37.8156 18.6325 38.5839 18.9094C39.1303 19.1063 39.7077 19.1929 40.2885 19.1929C39.7077 19.1929 39.1301 19.2795 38.5837 19.4764C37.8154 19.7532 36.6766 20.2005 35.8983 20.6709ZM24.4762 32.093C25.0904 31.0767 26.3392 29.69 26.3392 29.69C26.3392 29.69 25.0965 28.2391 24.4762 27.1921C24.039 26.4541 23.7496 25.9265 23.4658 25.1838C23.182 24.4411 22.9982 23.4561 22.9982 22.8344C22.9982 23.4561 22.8146 24.441 22.5308 25.1838C22.247 25.9265 21.9576 26.4541 21.5204 27.1921C20.9001 28.239 19.6574 29.6899 19.6574 29.6899C19.6574 29.6899 20.9062 31.0767 21.5204 32.0929C21.9908 32.8713 22.438 34.01 22.7149 34.7783C22.9118 35.3247 22.9982 35.9023 22.9982 36.4832C22.9982 35.9023 23.0848 35.3248 23.2817 34.7783C23.5586 34.01 24.0058 32.8713 24.4762 32.093Z" stroke="#7E7E7E"/>
</g>
</g>
</g>
<defs>
<filter id="filter0_d_1370_65755" x="955.988" y="-7.41482e-05" width="44.0934" height="44.0939" filterUnits="userSpaceOnUse" color-interpolation-filters="sRGB">
<feFlood flood-opacity="0" result="BackgroundImageFix"/>
<feColorMatrix in="SourceAlpha" type="matrix" values="0 0 0 0 0 0 0 0 0 0 0 0 0 0 0 0 0 0 127 0" result="hardAlpha"/>
<feOffset dx="-0.951331" dy="2.85399"/>
<feGaussianBlur stdDeviation="2.37833"/>
<feComposite in2="hardAlpha" operator="out"/>
<feColorMatrix type="matrix" values="0 0 0 0 0 0 0 0 0 0 0 0 0 0 0 0 0 0 0.1 0"/>
<feBlend mode="normal" in2="BackgroundImageFix" result="effect1_dropShadow_1370_65755"/>
<feBlend mode="normal" in="SourceGraphic" in2="effect1_dropShadow_1370_65755" result="shape"/>
</filter>
<filter id="filter1_d_1370_65755" x="593.511" y="-7.41482e-05" width="389.781" height="304.667" filterUnits="userSpaceOnUse" color-interpolation-filters="sRGB">
<feFlood flood-opacity="0" result="BackgroundImageFix"/>
<feColorMatrix in="SourceAlpha" type="matrix" values="0 0 0 0 0 0 0 0 0 0 0 0 0 0 0 0 0 0 127 0" result="hardAlpha"/>
<feOffset dx="-0.951331" dy="2.85399"/>
<feGaussianBlur stdDeviation="2.37833"/>
<feComposite in2="hardAlpha" operator="out"/>
<feColorMatrix type="matrix" values="0 0 0 0 0 0 0 0 0 0 0 0 0 0 0 0 0 0 0.1 0"/>
<feBlend mode="normal" in2="BackgroundImageFix" result="effect1_dropShadow_1370_65755"/>
<feBlend mode="normal" in="SourceGraphic" in2="effect1_dropShadow_1370_65755" result="shape"/>
</filter>
<filter id="filter2_d_1370_65755" x="2.15173e-05" y="-7.41482e-05" width="620.892" height="597.997" filterUnits="userSpaceOnUse" color-interpolation-filters="sRGB">
<feFlood flood-opacity="0" result="BackgroundImageFix"/>
<feColorMatrix in="SourceAlpha" type="matrix" values="0 0 0 0 0 0 0 0 0 0 0 0 0 0 0 0 0 0 127 0" result="hardAlpha"/>
<feOffset dx="-0.951331" dy="2.85399"/>
<feGaussianBlur stdDeviation="2.37833"/>
<feComposite in2="hardAlpha" operator="out"/>
<feColorMatrix type="matrix" values="0 0 0 0 0 0 0 0 0 0 0 0 0 0 0 0 0 0 0.1 0"/>
<feBlend mode="normal" in2="BackgroundImageFix" result="effect1_dropShadow_1370_65755"/>
<feBlend mode="normal" in="SourceGraphic" in2="effect1_dropShadow_1370_65755" result="shape"/>
</filter>
<filter id="filter3_d_1370_65755" x="701.318" y="225.004" width="189.617" height="59.1331" filterUnits="userSpaceOnUse" color-interpolation-filters="sRGB">
<feFlood flood-opacity="0" result="BackgroundImageFix"/>
<feColorMatrix in="SourceAlpha" type="matrix" values="0 0 0 0 0 0 0 0 0 0 0 0 0 0 0 0 0 0 127 0" result="hardAlpha"/>
<feOffset dx="-2" dy="6"/>
<feGaussianBlur stdDeviation="5"/>
<feComposite in2="hardAlpha" operator="out"/>
<feColorMatrix type="matrix" values="0 0 0 0 0 0 0 0 0 0 0 0 0 0 0 0 0 0 0.1 0"/>
<feBlend mode="normal" in2="BackgroundImageFix" result="effect1_dropShadow_1370_65755"/>
<feBlend mode="normal" in="SourceGraphic" in2="effect1_dropShadow_1370_65755" result="shape"/>
</filter>
<clipPath id="clip0_1370_65755">
<rect width="118" height="24" fill="white" transform="translate(739.289 236.571)"/>
</clipPath>
</defs>
</svg>
