<svg width="1001" height="598" viewBox="0 0 1001 598" fill="none" xmlns="http://www.w3.org/2000/svg">
<rect width="1001" height="598" fill="#6E6E6E"/>
<g id="Section 2">
<path d="M-8883.29 -1994.43C-8883.29 -1995.54 -8882.4 -1996.43 -8881.29 -1996.43H7065.71C7066.81 -1996.43 7067.71 -1995.54 7067.71 -1994.43V7035.57C7067.71 7036.67 7066.81 7037.57 7065.71 7037.57H-8881.29C-8882.4 7037.57 -8883.29 7036.67 -8883.29 7035.57V-1994.43Z" fill="#444444"/>
<path d="M-8881.29 -1996.43V-1995.43H7065.71V-1996.43V-1997.43H-8881.29V-1996.43ZM7067.71 -1994.43H7066.71V7035.57H7067.71H7068.71V-1994.43H7067.71ZM7065.71 7037.57V7036.57H-8881.29V7037.57V7038.57H7065.71V7037.57ZM-8883.29 7035.57H-8882.29V-1994.43H-8883.29H-8884.29V7035.57H-8883.29ZM-8881.29 7037.57V7036.57C-8881.84 7036.57 -8882.29 7036.12 -8882.29 7035.57H-8883.29H-8884.29C-8884.29 7037.23 -8882.95 7038.57 -8881.29 7038.57V7037.57ZM7067.71 7035.57H7066.71C7066.71 7036.12 7066.26 7036.57 7065.71 7036.57V7037.57V7038.57C7067.37 7038.57 7068.71 7037.23 7068.71 7035.57H7067.71ZM7065.71 -1996.43V-1995.43C7066.26 -1995.43 7066.71 -1994.98 7066.71 -1994.43H7067.71H7068.71C7068.71 -1996.09 7067.36 -1997.43 7065.71 -1997.43V-1996.43ZM-8881.29 -1996.43V-1997.43C-8882.95 -1997.43 -8884.29 -1996.09 -8884.29 -1994.43H-8883.29H-8882.29C-8882.29 -1994.98 -8881.84 -1995.43 -8881.29 -1995.43V-1996.43Z" fill="white" fill-opacity="0.1"/>
<g id="Frame 236">
<rect x="-31.082" y="-720.931" width="1046.86" height="4118.98" rx="4.5" stroke="#9747FF" stroke-dasharray="10 5"/>
<g id="Property 1=Default">
<g id="Vector" filter="url(#filter0_d_1370_65755)">
<path d="M991.887 20.6711C990.87 21.2853 989.484 22.5341 989.484 22.5341C989.484 22.5341 988.033 21.2914 986.986 20.6711C986.248 20.2339 985.728 19.966 984.985 19.6822C984.405 19.4603 983.25 19.1931 982.628 19.1931C983.25 19.1931 984.405 18.9259 984.986 18.704C985.728 18.4202 986.248 18.1523 986.986 17.7151C988.033 17.0949 989.484 15.8521 989.484 15.8521C989.484 15.8521 990.871 17.1009 991.887 17.7151C992.665 18.1855 993.804 18.6328 994.572 18.9096C995.119 19.1065 995.696 19.1931 996.277 19.1931C995.696 19.1931 995.118 19.2797 994.572 19.4766C993.804 19.7535 992.665 20.2008 991.887 20.6711Z" fill="#0B0B0B"/>
<path d="M980.465 32.0932C981.079 31.077 982.327 29.6902 982.327 29.6902C982.327 29.6902 981.085 28.2393 980.465 27.1923C980.027 26.4544 979.738 25.9268 979.454 25.184C979.17 24.4413 978.986 23.4563 978.986 22.8346C978.986 23.4563 978.803 24.4413 978.519 25.184C978.235 25.9267 977.946 26.4543 977.509 27.1923C976.888 28.2393 975.646 29.6902 975.646 29.6902C975.646 29.6902 976.894 31.0769 977.509 32.0932C977.979 32.8715 978.426 34.0102 978.703 34.7785C978.9 35.325 978.986 35.9026 978.986 36.4834C978.986 35.9026 979.073 35.325 979.27 34.7786C979.547 34.0103 979.994 32.8716 980.465 32.0932Z" fill="#0B0B0B"/>
<path d="M966.086 17.7151C967.103 17.1009 968.489 15.8521 968.489 15.8521C968.489 15.8521 969.94 17.0948 970.987 17.7151C971.725 18.1523 972.245 18.4202 972.988 18.704C973.564 18.9243 974.707 19.1893 975.332 19.1931C974.707 19.1968 973.564 19.4618 972.988 19.6822C972.245 19.966 971.725 20.2339 970.987 20.6711C969.94 21.2914 968.49 22.5341 968.49 22.5341C968.49 22.5341 967.103 21.2853 966.087 20.6711C965.308 20.2007 964.17 19.7534 963.401 19.4766C962.855 19.2797 962.277 19.1931 961.696 19.1931C962.277 19.1931 962.855 19.1065 963.401 18.9096C964.169 18.6328 965.308 18.1855 966.086 17.7151Z" fill="#0B0B0B"/>
<path d="M977.509 6.29301C976.894 7.30925 975.646 8.696 975.646 8.696C975.646 8.696 976.888 10.1469 977.509 11.1939C977.946 11.9319 978.235 12.4595 978.519 13.2022C978.792 13.9171 978.973 14.8565 978.986 15.4802C978.986 15.5045 978.987 15.5283 978.987 15.5516C978.987 14.9299 979.17 13.945 979.454 13.2022C979.738 12.4595 980.028 11.9319 980.465 11.1939C981.085 10.1469 982.328 8.69604 982.328 8.69604C982.328 8.69604 981.079 7.30929 980.465 6.29305C979.994 5.51471 979.547 4.37598 979.27 3.60768C979.073 3.06124 978.987 2.48367 978.987 1.90283C978.987 2.48367 978.9 3.0612 978.703 3.60765C978.426 4.37595 977.979 5.51467 977.509 6.29301Z" fill="#0B0B0B"/>
<path d="M996.123 19.1931C995.548 19.1931 994.975 19.2789 994.434 19.4741C993.672 19.7485 992.543 20.1918 991.772 20.6581C990.765 21.2668 989.39 22.5046 989.39 22.5046C989.39 22.5046 987.952 21.2728 986.914 20.6581C986.183 20.2247 985.668 19.9592 984.932 19.6779C984.356 19.4579 983.211 19.1931 982.595 19.1931H978.986M978.986 19.1931L978.986 22.8024C978.986 23.4186 979.168 24.3949 979.449 25.1311C979.731 25.8672 980.017 26.3902 980.451 27.1216C981.066 28.1594 982.297 29.5975 982.297 29.5975C982.297 29.5975 981.06 30.972 980.451 31.9792C979.985 32.7507 979.541 33.8794 979.267 34.6409C979.072 35.1825 978.986 35.7549 978.986 36.3307M978.986 19.1931V15.4802M978.986 19.1931H975.332M975.345 19.1931C975.341 19.1931 975.336 19.193 975.332 19.1931M978.986 15.4802C978.973 14.8565 978.792 13.9171 978.519 13.2022C978.235 12.4595 977.946 11.9319 977.509 11.1939C976.888 10.1469 975.646 8.696 975.646 8.696C975.646 8.696 976.894 7.30925 977.509 6.29301C977.979 5.51467 978.426 4.37595 978.703 3.60765C978.9 3.0612 978.987 2.48367 978.987 1.90283C978.987 2.48367 979.073 3.06124 979.27 3.60768C979.547 4.37598 979.994 5.51471 980.465 6.29305C981.079 7.30929 982.328 8.69604 982.328 8.69604C982.328 8.69604 981.085 10.1469 980.465 11.1939C980.028 11.9319 979.738 12.4595 979.454 13.2022C979.17 13.945 978.987 14.9299 978.987 15.5516C978.987 15.5283 978.986 15.5045 978.986 15.4802ZM975.332 19.1931C974.707 19.1968 973.564 19.4618 972.988 19.6822C972.245 19.966 971.725 20.2339 970.987 20.6711C969.94 21.2914 968.49 22.5341 968.49 22.5341C968.49 22.5341 967.103 21.2853 966.087 20.6711C965.308 20.2007 964.17 19.7534 963.401 19.4766C962.855 19.2797 962.277 19.1931 961.696 19.1931C962.277 19.1931 962.855 19.1065 963.401 18.9096C964.169 18.6328 965.308 18.1855 966.086 17.7151C967.103 17.1009 968.489 15.8521 968.489 15.8521C968.489 15.8521 969.94 17.0948 970.987 17.7151C971.725 18.1523 972.245 18.4202 972.988 18.704C973.564 18.9243 974.707 19.1893 975.332 19.1931ZM991.887 20.6711C990.87 21.2853 989.484 22.5341 989.484 22.5341C989.484 22.5341 988.033 21.2914 986.986 20.6711C986.248 20.2339 985.728 19.966 984.985 19.6822C984.405 19.4603 983.25 19.1931 982.628 19.1931C983.25 19.1931 984.405 18.9259 984.986 18.704C985.728 18.4202 986.248 18.1523 986.986 17.7151C988.033 17.0949 989.484 15.8521 989.484 15.8521C989.484 15.8521 990.871 17.1009 991.887 17.7151C992.665 18.1855 993.804 18.6328 994.572 18.9096C995.119 19.1065 995.696 19.1931 996.277 19.1931C995.696 19.1931 995.118 19.2797 994.572 19.4766C993.804 19.7535 992.665 20.2008 991.887 20.6711ZM980.465 32.0932C981.079 31.077 982.327 29.6902 982.327 29.6902C982.327 29.6902 981.085 28.2393 980.465 27.1923C980.027 26.4544 979.738 25.9268 979.454 25.184C979.17 24.4413 978.986 23.4563 978.986 22.8346C978.986 23.4563 978.803 24.4413 978.519 25.184C978.235 25.9267 977.946 26.4543 977.509 27.1923C976.888 28.2393 975.646 29.6902 975.646 29.6902C975.646 29.6902 976.894 31.0769 977.509 32.0932C977.979 32.8715 978.426 34.0102 978.703 34.7785C978.9 35.325 978.986 35.9026 978.986 36.4834C978.986 35.9026 979.073 35.325 979.27 34.7786C979.547 34.0103 979.994 32.8716 980.465 32.0932Z" stroke="#7E7E7E"/>
</g>
<g id="Vector_2" filter="url(#filter1_d_1370_65755)">
<path d="M975.377 262.557H978.987V258.947C978.987 258.331 978.804 257.355 978.523 256.619C978.242 255.882 977.955 255.359 977.522 254.628C976.907 253.59 975.675 252.152 975.675 252.152C975.675 252.152 976.913 250.778 977.522 249.77C977.988 248.999 978.431 247.87 978.706 247.109C978.901 246.567 978.987 245.995 978.987 245.419L978.987 36.3307C978.987 35.7549 978.901 35.1825 978.706 34.6409C978.431 33.8794 977.988 32.7507 977.522 31.9792C976.913 30.972 975.675 29.5975 975.675 29.5975C975.675 29.5975 976.907 28.1594 977.522 27.1216C977.955 26.3902 978.242 25.8672 978.523 25.1311C978.805 24.3949 978.987 23.4186 978.987 22.8024L978.987 19.1931H975.377C974.761 19.1931 973.616 19.4579 973.041 19.6779C972.305 19.9592 971.79 20.2247 971.058 20.6581C970.02 21.2728 968.582 22.5046 968.582 22.5046C968.582 22.5046 967.208 21.2668 966.201 20.6581C965.429 20.1918 964.301 19.7485 963.539 19.4741C962.997 19.2789 962.425 19.1931 961.849 19.1931H633.646C633.07 19.1931 632.498 19.2789 631.956 19.4741C631.195 19.7485 630.066 20.1918 629.294 20.6581C628.287 21.2668 626.913 22.5046 626.913 22.5046C626.913 22.5046 625.475 21.2728 624.437 20.6581C623.705 20.2247 623.19 19.9592 622.454 19.6779C621.879 19.4579 620.734 19.1931 620.118 19.1931H616.508L616.508 22.8024C616.508 23.4186 616.69 24.3949 616.972 25.1311C617.253 25.8672 617.54 26.3902 617.973 27.1216C618.588 28.1594 619.82 29.5975 619.82 29.5975C619.82 29.5975 618.582 30.972 617.973 31.9792C617.507 32.7507 617.064 33.8794 616.789 34.6409C616.594 35.1825 616.508 35.7549 616.508 36.3307V245.419C616.508 245.995 616.594 246.567 616.789 247.109C617.064 247.87 617.507 248.999 617.973 249.77C618.582 250.778 619.82 252.152 619.82 252.152C619.82 252.152 618.588 253.59 617.973 254.628C617.54 255.359 617.253 255.882 616.972 256.618C616.69 257.355 616.508 258.331 616.508 258.947L616.508 262.556H620.118C620.734 262.556 621.879 262.292 622.454 262.072C623.19 261.79 623.705 261.525 624.437 261.091C625.475 260.477 626.913 259.245 626.913 259.245C626.913 259.245 628.287 260.483 629.294 261.091C630.066 261.558 631.195 262.001 631.956 262.275C632.498 262.471 633.07 262.556 633.646 262.556L961.849 262.557C962.425 262.557 962.997 262.471 963.539 262.276C964.3 262.001 965.429 261.558 966.2 261.092C967.208 260.483 968.582 259.245 968.582 259.245C968.582 259.245 970.02 260.477 971.058 261.092C971.789 261.525 972.304 261.79 973.041 262.072C973.616 262.292 974.761 262.557 975.377 262.557Z" fill="#090809"/>
<path d="M629.409 20.6711C628.393 21.2853 627.006 22.5341 627.006 22.5341C627.006 22.5341 625.555 21.2914 624.508 20.6711C623.77 20.2339 623.251 19.966 622.508 19.6822C621.927 19.4603 620.772 19.1931 620.15 19.1931C620.772 19.1931 621.927 18.9259 622.508 18.704C623.251 18.4202 623.77 18.1523 624.508 17.7151C625.555 17.0949 627.006 15.8521 627.006 15.8521C627.006 15.8521 628.393 17.1009 629.409 17.7151C630.188 18.1855 631.326 18.6328 632.095 18.9096C632.641 19.1065 633.218 19.1931 633.799 19.1931C633.218 19.1931 632.641 19.2797 632.094 19.4766C631.326 19.7535 630.187 20.2008 629.409 20.6711Z" fill="#0B0B0B"/>
<path d="M617.987 32.0932C618.601 31.077 619.85 29.6902 619.85 29.6902C619.85 29.6902 618.607 28.2393 617.987 27.1923C617.55 26.4544 617.26 25.9268 616.977 25.184C616.693 24.4413 616.509 23.4563 616.509 22.8346C616.509 23.4563 616.325 24.4413 616.042 25.184C615.758 25.9267 615.468 26.4543 615.031 27.1923C614.411 28.2393 613.168 29.6902 613.168 29.6902C613.168 29.6902 614.417 31.0769 615.031 32.0932C615.501 32.8715 615.949 34.0102 616.226 34.7785C616.423 35.325 616.509 35.9026 616.509 36.4834C616.509 35.9026 616.596 35.325 616.792 34.7786C617.069 34.0103 617.517 32.8716 617.987 32.0932Z" fill="#0B0B0B"/>
<path d="M603.609 17.7151C604.625 17.1009 606.012 15.8521 606.012 15.8521C606.012 15.8521 607.463 17.0948 608.51 17.7151C609.248 18.1523 609.767 18.4202 610.51 18.704C611.087 18.9243 612.23 19.1893 612.854 19.1931C612.23 19.1968 611.087 19.4618 610.51 19.6822C609.767 19.966 609.248 20.2339 608.51 20.6711C607.463 21.2914 606.012 22.5341 606.012 22.5341C606.012 22.5341 604.625 21.2853 603.609 20.6711C602.831 20.2007 601.692 19.7534 600.924 19.4766C600.377 19.2797 599.8 19.1931 599.219 19.1931C599.8 19.1931 600.377 19.1065 600.924 18.9096C601.692 18.6328 602.831 18.1855 603.609 17.7151Z" fill="#0B0B0B"/>
<path d="M615.031 6.29301C614.417 7.30925 613.168 8.696 613.168 8.696C613.168 8.696 614.411 10.1469 615.031 11.1939C615.468 11.9319 615.758 12.4595 616.041 13.2022C616.315 13.9171 616.495 14.8565 616.508 15.4802C616.509 15.5045 616.509 15.5283 616.509 15.5516C616.509 14.9299 616.693 13.945 616.977 13.2022C617.261 12.4595 617.55 11.9319 617.987 11.1939C618.607 10.1469 619.85 8.69604 619.85 8.69604C619.85 8.69604 618.601 7.30929 617.987 6.29305C617.517 5.51471 617.07 4.37598 616.793 3.60768C616.596 3.06124 616.509 2.48367 616.509 1.90283C616.509 2.48367 616.422 3.0612 616.226 3.60765C615.949 4.37595 615.501 5.51467 615.031 6.29301Z" fill="#0B0B0B"/>
<path d="M616.508 19.1931H620.118C620.734 19.1931 621.879 19.4579 622.454 19.6779C623.19 19.9592 623.705 20.2247 624.437 20.6581C625.475 21.2728 626.913 22.5046 626.913 22.5046C626.913 22.5046 628.287 21.2668 629.294 20.6581C630.066 20.1918 631.195 19.7485 631.956 19.4741C632.498 19.2789 633.07 19.1931 633.646 19.1931H961.849C962.425 19.1931 962.997 19.2789 963.539 19.4741C964.301 19.7485 965.429 20.1918 966.201 20.6581C967.208 21.2668 968.582 22.5046 968.582 22.5046C968.582 22.5046 970.02 21.2728 971.058 20.6581C971.79 20.2247 972.305 19.9592 973.041 19.6779C973.616 19.4579 974.761 19.1931 975.377 19.1931H978.987L978.987 22.8024C978.987 23.4186 978.805 24.3949 978.523 25.1311C978.242 25.8672 977.955 26.3902 977.522 27.1216C976.907 28.1594 975.675 29.5975 975.675 29.5975C975.675 29.5975 976.913 30.972 977.522 31.9792C977.988 32.7507 978.431 33.8794 978.706 34.6409C978.901 35.1825 978.987 35.7549 978.987 36.3307L978.987 245.419C978.987 245.995 978.901 246.567 978.706 247.109C978.431 247.87 977.988 248.999 977.522 249.77C976.913 250.778 975.675 252.152 975.675 252.152C975.675 252.152 976.907 253.59 977.522 254.628C977.955 255.359 978.242 255.882 978.523 256.619C978.804 257.355 978.987 258.331 978.987 258.947V262.557H975.377C974.761 262.557 973.616 262.292 973.041 262.072C972.304 261.791 971.789 261.525 971.058 261.092C970.02 260.477 968.582 259.245 968.582 259.245C968.582 259.245 967.208 260.483 966.2 261.092C965.429 261.558 964.3 262.001 963.539 262.276C962.997 262.471 962.425 262.557 961.849 262.557L633.646 262.556C633.07 262.556 632.498 262.471 631.956 262.275C631.195 262.001 630.066 261.558 629.294 261.091C628.287 260.483 626.913 259.245 626.913 259.245C626.913 259.245 625.475 260.477 624.437 261.091C623.705 261.525 623.19 261.79 622.454 262.072C621.879 262.292 620.734 262.556 620.118 262.556H616.508L616.508 258.947C616.508 258.331 616.69 257.355 616.972 256.618C617.253 255.882 617.54 255.359 617.973 254.628C618.588 253.59 619.82 252.152 619.82 252.152C619.82 252.152 618.582 250.778 617.973 249.77C617.507 248.999 617.064 247.87 616.789 247.109C616.594 246.567 616.508 245.995 616.508 245.419V36.3307C616.508 35.7549 616.594 35.1825 616.789 34.6409C617.064 33.8794 617.507 32.7507 617.973 31.9792C618.582 30.972 619.82 29.5975 619.82 29.5975C619.82 29.5975 618.588 28.1594 617.973 27.1216C617.54 26.3902 617.253 25.8672 616.972 25.1311C616.69 24.3949 616.508 23.4186 616.508 22.8024L616.508 19.1931ZM616.508 19.1931V15.4802M616.508 19.1931H612.854M612.868 19.1931C612.863 19.1931 612.859 19.193 612.854 19.1931M616.508 15.4802C616.495 14.8565 616.315 13.9171 616.041 13.2022C615.758 12.4595 615.468 11.9319 615.031 11.1939C614.411 10.1469 613.168 8.696 613.168 8.696C613.168 8.696 614.417 7.30925 615.031 6.29301C615.501 5.51467 615.949 4.37595 616.226 3.60765C616.422 3.0612 616.509 2.48367 616.509 1.90283C616.509 2.48367 616.596 3.06124 616.793 3.60768C617.07 4.37598 617.517 5.51471 617.987 6.29305C618.601 7.30929 619.85 8.69604 619.85 8.69604C619.85 8.69604 618.607 10.1469 617.987 11.1939C617.55 11.9319 617.261 12.4595 616.977 13.2022C616.693 13.945 616.509 14.9299 616.509 15.5516C616.509 15.5283 616.509 15.5045 616.508 15.4802ZM612.854 19.1931C612.23 19.1968 611.087 19.4618 610.51 19.6822C609.767 19.966 609.248 20.2339 608.51 20.6711C607.463 21.2914 606.012 22.5341 606.012 22.5341C606.012 22.5341 604.625 21.2853 603.609 20.6711C602.831 20.2007 601.692 19.7534 600.924 19.4766C600.377 19.2797 599.8 19.1931 599.219 19.1931C599.8 19.1931 600.377 19.1065 600.924 18.9096C601.692 18.6328 602.831 18.1855 603.609 17.7151C604.625 17.1009 606.012 15.8521 606.012 15.8521C606.012 15.8521 607.463 17.0948 608.51 17.7151C609.248 18.1523 609.767 18.4202 610.51 18.704C611.087 18.9243 612.23 19.1893 612.854 19.1931ZM629.409 20.6711C628.393 21.2853 627.006 22.5341 627.006 22.5341C627.006 22.5341 625.555 21.2914 624.508 20.6711C623.77 20.2339 623.251 19.966 622.508 19.6822C621.927 19.4603 620.772 19.1931 620.15 19.1931C620.772 19.1931 621.927 18.9259 622.508 18.704C623.251 18.4202 623.77 18.1523 624.508 17.7151C625.555 17.0949 627.006 15.8521 627.006 15.8521C627.006 15.8521 628.393 17.1009 629.409 17.7151C630.188 18.1855 631.326 18.6328 632.095 18.9096C632.641 19.1065 633.218 19.1931 633.799 19.1931C633.218 19.1931 632.641 19.2797 632.094 19.4766C631.326 19.7535 630.187 20.2008 629.409 20.6711ZM617.987 32.0932C618.601 31.077 619.85 29.6902 619.85 29.6902C619.85 29.6902 618.607 28.2393 617.987 27.1923C617.55 26.4544 617.26 25.9268 616.977 25.184C616.693 24.4413 616.509 23.4563 616.509 22.8346C616.509 23.4563 616.325 24.4413 616.042 25.184C615.758 25.9267 615.468 26.4543 615.031 27.1923C614.411 28.2393 613.168 29.6902 613.168 29.6902C613.168 29.6902 614.417 31.0769 615.031 32.0932C615.501 32.8715 615.949 34.0102 616.226 34.7785C616.423 35.325 616.509 35.9026 616.509 36.4834C616.509 35.9026 616.596 35.325 616.792 34.7786C617.069 34.0103 617.517 32.8716 617.987 32.0932Z" stroke="#7E7E7E"/>
</g>
<g id="Vector_3" filter="url(#filter2_d_1370_65755)">
<path d="M612.977 589.887H616.587V586.278C616.587 585.661 616.404 584.685 616.123 583.949C615.842 583.213 615.555 582.69 615.122 581.958C614.507 580.921 613.275 579.482 613.275 579.482C613.275 579.482 614.513 578.108 615.122 577.101C615.588 576.329 616.031 575.201 616.306 574.439C616.501 573.897 616.587 573.325 616.587 572.749L616.587 36.3307C616.587 35.7549 616.501 35.1825 616.306 34.6409C616.031 33.8794 615.588 32.7507 615.122 31.9792C614.513 30.972 613.275 29.5975 613.275 29.5975C613.275 29.5975 614.507 28.1594 615.122 27.1216C615.555 26.3902 615.842 25.8672 616.123 25.1311C616.405 24.3949 616.587 23.4186 616.587 22.8024L616.587 19.1931H612.977C612.361 19.1931 611.216 19.4579 610.641 19.6779C609.905 19.9592 609.39 20.2247 608.658 20.6581C607.62 21.2728 606.182 22.5046 606.182 22.5046C606.182 22.5046 604.808 21.2668 603.801 20.6581C603.029 20.1918 601.9 19.7485 601.139 19.4741C600.597 19.2789 600.025 19.1931 599.449 19.1931H40.1351C39.5594 19.1931 38.987 19.2789 38.4453 19.4741C37.6838 19.7485 36.5552 20.1918 35.7837 20.6581C34.7764 21.2668 33.4019 22.5046 33.4019 22.5046C33.4019 22.5046 31.9638 21.2728 30.9261 20.6581C30.1946 20.2247 29.6797 19.9592 28.9435 19.6779C28.368 19.4579 27.2231 19.1931 26.6069 19.1931H22.9975L22.9975 22.8024C22.9975 23.4186 23.1797 24.3949 23.461 25.1311C23.7423 25.8672 24.0292 26.3902 24.4625 27.1216C25.0773 28.1594 26.309 29.5975 26.309 29.5975C26.309 29.5975 25.0713 30.972 24.4625 31.9792C23.9963 32.7507 23.5529 33.8794 23.2785 34.6409C23.0834 35.1825 22.9975 35.7549 22.9975 36.3307V572.749C22.9975 573.325 23.0834 573.897 23.2785 574.439C23.5529 575.2 23.9963 576.329 24.4625 577.101C25.0713 578.108 26.309 579.482 26.309 579.482C26.309 579.482 25.0773 580.92 24.4625 581.958C24.0292 582.69 23.7423 583.213 23.461 583.949C23.1797 584.685 22.9975 585.661 22.9975 586.277L22.9975 589.887H26.6069C27.2231 589.887 28.368 589.622 28.9435 589.402C29.6797 589.121 30.1946 588.855 30.9261 588.422C31.9638 587.807 33.4019 586.575 33.4019 586.575C33.4019 586.575 34.7764 587.813 35.7837 588.422C36.5552 588.888 37.6838 589.331 38.4453 589.606C38.987 589.801 39.5594 589.887 40.1351 589.887L599.449 589.887C600.025 589.887 600.597 589.801 601.139 589.606C601.9 589.331 603.029 588.888 603.8 588.422C604.808 587.813 606.182 586.575 606.182 586.575C606.182 586.575 607.62 587.807 608.658 588.422C609.389 588.855 609.904 589.121 610.641 589.402C611.216 589.622 612.361 589.887 612.977 589.887Z" fill="#090809"/>
<path d="M35.8983 20.6711C34.8821 21.2853 33.4953 22.5341 33.4953 22.5341C33.4953 22.5341 32.0444 21.2914 30.9974 20.6711C30.2595 20.2339 29.7399 19.966 28.9972 19.6822C28.4165 19.4603 27.2614 19.1931 26.6397 19.1931C27.2614 19.1931 28.4167 18.9259 28.9974 18.704C29.7401 18.4202 30.2597 18.1523 30.9976 17.7151C32.0446 17.0949 33.4955 15.8521 33.4955 15.8521C33.4955 15.8521 34.8823 17.1009 35.8985 17.7151C36.6768 18.1855 37.8156 18.6328 38.5839 18.9096C39.1303 19.1065 39.7077 19.1931 40.2885 19.1931C39.7077 19.1931 39.1301 19.2797 38.5837 19.4766C37.8154 19.7535 36.6766 20.2008 35.8983 20.6711Z" fill="#090809"/>
<path d="M24.4762 32.0932C25.0904 31.077 26.3392 29.6902 26.3392 29.6902C26.3392 29.6902 25.0965 28.2393 24.4762 27.1923C24.039 26.4544 23.7496 25.9268 23.4658 25.184C23.182 24.4413 22.9982 23.4563 22.9982 22.8346C22.9982 23.4563 22.8146 24.4413 22.5308 25.184C22.247 25.9267 21.9576 26.4543 21.5204 27.1923C20.9001 28.2393 19.6574 29.6902 19.6574 29.6902C19.6574 29.6902 20.9062 31.0769 21.5204 32.0932C21.9908 32.8715 22.438 34.0102 22.7149 34.7785C22.9118 35.325 22.9982 35.9026 22.9982 36.4834C22.9982 35.9026 23.0848 35.325 23.2817 34.7786C23.5586 34.0103 24.0058 32.8716 24.4762 32.0932Z" fill="#090809"/>
<path d="M10.0982 17.7151C11.1144 17.1009 12.5012 15.8521 12.5012 15.8521C12.5012 15.8521 13.9521 17.0948 14.9991 17.7151C15.737 18.1523 16.2566 18.4202 16.9993 18.704C17.5759 18.9243 18.7188 19.1893 19.3435 19.1931C18.7188 19.1968 17.576 19.4618 16.9994 19.6822C16.2567 19.966 15.7371 20.2339 14.9992 20.6711C13.9522 21.2914 12.5013 22.5341 12.5013 22.5341C12.5013 22.5341 11.1145 21.2853 10.0983 20.6711C9.31995 20.2007 8.18122 19.7534 7.41292 19.4766C6.86648 19.2797 6.28884 19.1931 5.70801 19.1931C6.28884 19.1931 6.86638 19.1065 7.41282 18.9096C8.18112 18.6328 9.31985 18.1855 10.0982 17.7151Z" fill="#090809"/>
<path d="M21.5203 6.29301C20.9061 7.30925 19.6573 8.696 19.6573 8.696C19.6573 8.696 20.9 10.1469 21.5203 11.1939C21.9575 11.9319 22.2469 12.4595 22.5307 13.2022C22.8039 13.9171 22.9844 14.8565 22.9975 15.4802C22.998 15.5045 22.9983 15.5283 22.9983 15.5516C22.9983 14.9299 23.1822 13.945 23.466 13.2022C23.7498 12.4595 24.0392 11.9319 24.4764 11.1939C25.0967 10.1469 26.3394 8.69604 26.3394 8.69604C26.3394 8.69604 25.0906 7.30929 24.4764 6.29305C24.006 5.51471 23.5588 4.37598 23.2819 3.60768C23.085 3.06124 22.9983 2.48367 22.9983 1.90283C22.9983 2.48367 22.9117 3.0612 22.7148 3.60765C22.4379 4.37595 21.9907 5.51467 21.5203 6.29301Z" fill="#090809"/>
<path d="M22.9975 19.1931H26.6069C27.2231 19.1931 28.368 19.4579 28.9435 19.6779C29.6797 19.9592 30.1946 20.2247 30.9261 20.6581C31.9638 21.2728 33.4019 22.5046 33.4019 22.5046C33.4019 22.5046 34.7764 21.2668 35.7837 20.6581C36.5552 20.1918 37.6838 19.7485 38.4453 19.4741C38.987 19.2789 39.5594 19.1931 40.1351 19.1931H599.449C600.025 19.1931 600.597 19.2789 601.139 19.4741C601.9 19.7485 603.029 20.1918 603.801 20.6581C604.808 21.2668 606.182 22.5046 606.182 22.5046C606.182 22.5046 607.62 21.2728 608.658 20.6581C609.39 20.2247 609.905 19.9592 610.641 19.6779C611.216 19.4579 612.361 19.1931 612.977 19.1931H616.587L616.587 22.8024C616.587 23.4186 616.405 24.3949 616.123 25.1311C615.842 25.8672 615.555 26.3902 615.122 27.1216C614.507 28.1594 613.275 29.5975 613.275 29.5975C613.275 29.5975 614.513 30.972 615.122 31.9792C615.588 32.7507 616.031 33.8794 616.306 34.6409C616.501 35.1825 616.587 35.7549 616.587 36.3307L616.587 572.749C616.587 573.325 616.501 573.897 616.306 574.439C616.031 575.201 615.588 576.329 615.122 577.101C614.513 578.108 613.275 579.482 613.275 579.482C613.275 579.482 614.507 580.921 615.122 581.958C615.555 582.69 615.842 583.213 616.123 583.949C616.404 584.685 616.587 585.661 616.587 586.278V589.887H612.977C612.361 589.887 611.216 589.622 610.641 589.402C609.904 589.121 609.389 588.855 608.658 588.422C607.62 587.807 606.182 586.575 606.182 586.575C606.182 586.575 604.808 587.813 603.8 588.422C603.029 588.888 601.9 589.331 601.139 589.606C600.597 589.801 600.025 589.887 599.449 589.887L40.1351 589.887C39.5594 589.887 38.987 589.801 38.4453 589.606C37.6838 589.331 36.5552 588.888 35.7837 588.422C34.7764 587.813 33.4019 586.575 33.4019 586.575C33.4019 586.575 31.9638 587.807 30.9261 588.422C30.1946 588.855 29.6797 589.121 28.9435 589.402C28.368 589.622 27.2231 589.887 26.6069 589.887H22.9975L22.9975 586.277C22.9975 585.661 23.1797 584.685 23.461 583.949C23.7423 583.213 24.0292 582.69 24.4625 581.958C25.0773 580.92 26.309 579.482 26.309 579.482C26.309 579.482 25.0713 578.108 24.4625 577.101C23.9963 576.329 23.5529 575.2 23.2785 574.439C23.0834 573.897 22.9975 573.325 22.9975 572.749V36.3307C22.9975 35.7549 23.0834 35.1825 23.2785 34.6409C23.5529 33.8794 23.9963 32.7507 24.4625 31.9792C25.0713 30.972 26.309 29.5975 26.309 29.5975C26.309 29.5975 25.0773 28.1594 24.4625 27.1216C24.0292 26.3902 23.7423 25.8672 23.461 25.1311C23.1797 24.3949 22.9975 23.4186 22.9975 22.8024L22.9975 19.1931ZM22.9975 19.1931V15.4802M22.9975 19.1931H19.3435M19.3568 19.1931C19.3524 19.1931 19.3479 19.193 19.3435 19.1931M22.9975 15.4802C22.9844 14.8565 22.8038 13.9171 22.5307 13.2022C22.2469 12.4595 21.9575 11.9319 21.5203 11.1939C20.9 10.1469 19.6573 8.696 19.6573 8.696C19.6573 8.696 20.9061 7.30925 21.5203 6.29301C21.9907 5.51467 22.4379 4.37595 22.7148 3.60765C22.9117 3.0612 22.9983 2.48367 22.9983 1.90283C22.9983 2.48367 23.085 3.06124 23.2819 3.60768C23.5588 4.37598 24.006 5.51471 24.4764 6.29305C25.0906 7.30929 26.3394 8.69604 26.3394 8.69604C26.3394 8.69604 25.0967 10.1469 24.4764 11.1939C24.0392 11.9319 23.7498 12.4595 23.466 13.2022C23.1822 13.945 22.9983 14.9299 22.9983 15.5516C22.9983 15.5283 22.998 15.5045 22.9975 15.4802ZM19.3435 19.1931C18.7188 19.1968 17.576 19.4618 16.9994 19.6822C16.2567 19.966 15.7371 20.2339 14.9992 20.6711C13.9522 21.2914 12.5013 22.5341 12.5013 22.5341C12.5013 22.5341 11.1145 21.2853 10.0983 20.6711C9.31995 20.2007 8.18122 19.7534 7.41292 19.4766C6.86648 19.2797 6.28884 19.1931 5.70801 19.1931C6.28884 19.1931 6.86638 19.1065 7.41282 18.9096C8.18112 18.6328 9.31985 18.1855 10.0982 17.7151C11.1144 17.1009 12.5012 15.8521 12.5012 15.8521C12.5012 15.8521 13.9521 17.0948 14.9991 17.7151C15.737 18.1523 16.2566 18.4202 16.9993 18.704C17.5759 18.9243 18.7188 19.1893 19.3435 19.1931ZM35.8983 20.6711C34.8821 21.2853 33.4953 22.5341 33.4953 22.5341C33.4953 22.5341 32.0444 21.2914 30.9974 20.6711C30.2595 20.2339 29.7399 19.966 28.9972 19.6822C28.4165 19.4603 27.2614 19.1931 26.6397 19.1931C27.2614 19.1931 28.4167 18.9259 28.9974 18.704C29.7401 18.4202 30.2597 18.1523 30.9976 17.7151C32.0446 17.0949 33.4955 15.8521 33.4955 15.8521C33.4955 15.8521 34.8823 17.1009 35.8985 17.7151C36.6768 18.1855 37.8156 18.6328 38.5839 18.9096C39.1303 19.1065 39.7077 19.1931 40.2885 19.1931C39.7077 19.1931 39.1301 19.2797 38.5837 19.4766C37.8154 19.7535 36.6766 20.2008 35.8983 20.6711ZM24.4762 32.0932C25.0904 31.077 26.3392 29.6902 26.3392 29.6902C26.3392 29.6902 25.0965 28.2393 24.4762 27.1923C24.039 26.4544 23.7496 25.9268 23.4658 25.184C23.182 24.4413 22.9982 23.4563 22.9982 22.8346C22.9982 23.4563 22.8146 24.4413 22.5308 25.184C22.247 25.9267 21.9576 26.4543 21.5204 27.1923C20.9001 28.2393 19.6574 29.6902 19.6574 29.6902C19.6574 29.6902 20.9062 31.0769 21.5204 32.0932C21.9908 32.8715 22.438 34.0102 22.7149 34.7785C22.9118 35.325 22.9982 35.9026 22.9982 36.4834C22.9982 35.9026 23.0848 35.325 23.2817 34.7786C23.5586 34.0103 24.0058 32.8716 24.4762 32.0932Z" stroke="#7E7E7E"/>
</g>
<g id="Frame 228">
<g id="Frame 197">
<g id="Frame 194">
<path id="&#215;&#144;&#215;&#153;&#215;&#154; &#215;&#167;&#215;&#149;&#215;&#168;&#215;&#144;&#215;&#153;&#215;&#157; &#215;&#156;&#215;&#154;?" d="M704.724 65.6372C704.641 65.6372 704.558 65.6112 704.474 65.5591C704.12 65.2882 703.771 64.9185 703.428 64.4497C703.094 63.9705 702.928 63.4601 702.928 62.9185C702.928 62.5018 703.016 62.132 703.193 61.8091C703.381 61.4757 703.558 61.1945 703.724 60.9653C704.099 60.4549 704.495 59.9445 704.912 59.4341C705.329 58.9132 705.683 58.3768 705.974 57.8247C706.277 57.2726 706.428 56.7049 706.428 56.1216C706.428 55.2882 706.188 54.6685 705.709 54.2622C705.24 53.8455 704.641 53.5539 703.912 53.3872C703.183 53.2205 702.428 53.0851 701.646 52.981C701.438 52.9497 701.334 52.856 701.334 52.6997C701.334 52.606 701.438 52.4237 701.646 52.1528C701.865 51.882 702.094 51.6164 702.334 51.356C702.584 51.0851 702.756 50.908 702.849 50.8247C702.922 50.7518 702.995 50.7101 703.068 50.6997C703.141 50.6893 703.219 50.6841 703.303 50.6841C703.605 50.6841 704.12 50.7622 704.849 50.9185C705.579 51.0643 706.23 51.3039 706.803 51.6372C707.355 51.9601 707.823 52.408 708.209 52.981C708.594 53.5435 708.787 54.1789 708.787 54.8872C708.787 55.9705 708.469 56.9862 707.834 57.9341C707.198 58.8716 706.527 59.7414 705.818 60.5435C705.61 60.7726 705.464 61.007 705.381 61.2466C705.297 61.4862 705.256 61.7205 705.256 61.9497C705.256 62.1164 705.303 62.3299 705.396 62.5903C705.49 62.8507 705.667 63.1268 705.928 63.4185C706.042 63.5226 706.099 63.6372 706.099 63.7622C706.099 63.8143 706.089 63.8612 706.068 63.9028C706.058 63.9341 706.037 63.9966 706.006 64.0903C705.954 64.257 705.808 64.507 705.568 64.8403C705.329 65.1737 705.152 65.3924 705.037 65.4966C704.943 65.5903 704.839 65.6372 704.724 65.6372ZM704.928 71.5122C704.844 71.5122 704.777 71.4966 704.724 71.4653C704.516 71.3403 704.23 71.106 703.865 70.7622C703.511 70.4185 703.235 70.1268 703.037 69.8872C702.943 69.7518 702.896 69.6424 702.896 69.5591C702.896 69.4653 702.928 69.3872 702.99 69.3247C703.261 69.0539 703.521 68.7726 703.771 68.481C704.032 68.1893 704.23 67.9445 704.365 67.7466C704.428 67.6424 704.511 67.5903 704.615 67.5903C704.667 67.5903 704.709 67.606 704.74 67.6372C704.782 67.658 704.823 67.6841 704.865 67.7153C704.98 67.7882 705.146 67.9341 705.365 68.1528C705.584 68.3612 705.803 68.5695 706.021 68.7778C706.24 68.9757 706.396 69.106 706.49 69.1685C706.636 69.2726 706.709 69.3872 706.709 69.5122C706.709 69.5539 706.662 69.6632 706.568 69.8403C706.516 69.9549 706.396 70.1268 706.209 70.356C706.021 70.5851 705.823 70.8039 705.615 71.0122C705.417 71.231 705.25 71.382 705.115 71.4653C705.073 71.4966 705.011 71.5122 704.928 71.5122ZM720.413 77.3091C720.215 77.3091 720.116 77.1893 720.116 76.9497C720.095 76.533 720.069 75.882 720.038 74.9966C720.017 74.1112 719.985 73.0851 719.944 71.9185C719.902 70.7518 719.855 69.5278 719.803 68.2466C719.762 66.9653 719.715 65.7153 719.663 64.4966C719.61 63.2674 719.553 62.1528 719.491 61.1528C719.439 60.1528 719.381 59.3612 719.319 58.7778C719.288 58.5487 719.22 58.3768 719.116 58.2622C719.012 58.1372 718.824 58.0747 718.553 58.0747H712.163C711.985 58.0747 711.819 58.0382 711.663 57.9653C711.517 57.882 711.444 57.7622 711.444 57.606C711.444 57.533 711.532 57.3403 711.709 57.0278C711.887 56.7153 712.095 56.3612 712.334 55.9653C712.584 55.5695 712.819 55.2101 713.038 54.8872C713.256 54.5643 713.407 54.356 713.491 54.2622C713.616 54.0955 713.735 54.0122 713.85 54.0122C714.027 54.0122 714.157 54.1841 714.241 54.5278C714.324 54.8612 714.423 55.0955 714.538 55.231C714.663 55.356 714.918 55.4185 715.303 55.4185H723.725C724.1 55.4185 724.288 55.4862 724.288 55.6216C724.288 55.632 724.282 55.658 724.272 55.6997C724.262 55.7414 724.251 55.7882 724.241 55.8403C724.137 56.132 724.012 56.4497 723.866 56.7935C723.72 57.1372 723.564 57.4601 723.397 57.7622C723.324 57.8976 723.256 57.981 723.194 58.0122C723.131 58.033 723.058 58.0539 722.975 58.0747C722.683 58.1685 722.402 58.2674 722.131 58.3716C721.871 58.4653 721.741 58.731 721.741 59.1685C721.741 59.5851 721.746 60.3403 721.756 61.4341C721.767 62.5174 721.798 63.6685 721.85 64.8872C721.902 66.1476 721.949 67.3976 721.991 68.6372C722.032 69.8768 722.053 71.1164 722.053 72.356C722.053 72.6997 722.048 73.0382 722.038 73.3716C722.027 73.7049 722.022 74.0382 722.022 74.3716C722.022 74.7257 721.965 75.0226 721.85 75.2622C721.798 75.3872 721.694 75.5799 721.538 75.8403C721.392 76.1112 721.235 76.3768 721.069 76.6372C720.902 76.8976 720.756 77.0851 720.631 77.1997C720.558 77.2726 720.485 77.3091 720.413 77.3091ZM728.523 71.3247C728.325 71.3247 728.226 71.2414 728.226 71.0747C728.226 70.981 728.304 70.783 728.46 70.481C728.627 70.1789 728.799 69.8768 728.976 69.5747C729.163 69.2726 729.293 69.0747 729.366 68.981C729.439 68.8872 729.507 68.7987 729.569 68.7153C729.642 68.632 729.773 68.5695 729.96 68.5278C730.95 68.2674 731.944 67.9289 732.944 67.5122C733.944 67.0851 734.778 66.533 735.444 65.856C735.913 65.3872 736.273 64.8403 736.523 64.2153C736.783 63.5799 736.96 62.9341 737.054 62.2778C737.158 61.6112 737.21 61.0018 737.21 60.4497C737.21 60.0539 737.158 59.6737 737.054 59.3091C736.96 58.9445 736.872 58.7049 736.788 58.5903C736.601 58.2466 736.278 58.0747 735.819 58.0747H728.366C728.137 58.0747 727.939 58.007 727.773 57.8716C727.616 57.7362 727.491 57.5799 727.398 57.4028C727.345 57.2778 727.293 57.106 727.241 56.8872C727.2 56.658 727.179 56.3247 727.179 55.8872C727.179 55.5851 727.158 55.1841 727.116 54.6841C727.085 54.1841 727.028 53.6737 726.944 53.1528C726.861 52.632 726.747 52.1997 726.601 51.856C726.549 51.7414 726.523 51.6528 726.523 51.5903C726.523 51.5382 726.538 51.481 726.569 51.4185C726.601 51.356 726.637 51.2882 726.679 51.2153C726.866 50.9132 727.09 50.5955 727.351 50.2622C727.622 49.9185 727.845 49.658 728.023 49.481C728.075 49.408 728.132 49.3716 728.194 49.3716C728.288 49.3716 728.387 49.4549 728.491 49.6216C728.71 49.9341 728.872 50.3768 728.976 50.9497C729.09 51.5226 729.148 52.0695 729.148 52.5903C729.148 53.4028 729.158 53.9862 729.179 54.3403C729.2 54.6945 729.262 54.9497 729.366 55.106C729.481 55.2622 729.616 55.356 729.773 55.3872C729.929 55.408 730.09 55.4185 730.257 55.4185H737.069C737.715 55.4185 738.205 55.606 738.538 55.981C738.882 56.3455 739.116 56.7935 739.241 57.3247C739.366 57.8455 739.429 58.3455 739.429 58.8247C739.429 59.3976 739.377 59.9497 739.273 60.481C739.179 61.0122 739.08 61.4445 738.976 61.7778C738.882 62.1112 738.835 62.2778 738.835 62.2778C738.7 62.7778 738.476 63.3507 738.163 63.9966C737.851 64.6424 737.491 65.2935 737.085 65.9497C736.689 66.606 736.273 67.2049 735.835 67.7466C735.398 68.2882 734.981 68.7049 734.585 68.9966C734.064 69.382 733.325 69.783 732.366 70.1997C731.408 70.6164 730.304 70.9653 729.054 71.2466C728.793 71.2987 728.616 71.3247 728.523 71.3247ZM752.118 70.9341C751.42 70.9341 750.831 70.6737 750.352 70.1528C749.873 69.632 749.607 68.9132 749.555 67.9966C749.524 67.4862 749.487 66.8507 749.446 66.0903C749.414 65.3195 749.388 64.4757 749.368 63.5591L749.211 58.8091C749.201 58.4966 749.086 58.3039 748.868 58.231C748.649 58.1476 748.451 58.0695 748.274 57.9966C748.076 57.9132 747.977 57.7987 747.977 57.6528C747.977 57.5382 748.024 57.4132 748.118 57.2778C748.336 56.9757 748.612 56.6164 748.946 56.1997C749.279 55.783 749.597 55.3924 749.899 55.0278C750.201 54.6528 750.414 54.3976 750.539 54.2622C750.685 54.0955 750.831 54.0122 750.977 54.0122C751.206 54.0122 751.347 54.1372 751.399 54.3872C751.472 54.7935 751.571 55.0747 751.696 55.231C751.821 55.3768 752.024 55.4497 752.305 55.4497H760.477C761.258 55.4497 761.904 55.5278 762.414 55.6841C762.925 55.8299 763.404 56.1632 763.852 56.6841C764.164 57.0591 764.368 57.408 764.461 57.731C764.566 58.0435 764.644 58.408 764.696 58.8247C764.748 59.2205 764.789 59.7674 764.821 60.4653C764.852 61.1528 764.873 61.856 764.883 62.5747C764.904 63.2935 764.914 63.8976 764.914 64.3872C764.914 65.4185 764.888 66.158 764.836 66.606C764.784 67.0539 764.732 67.3664 764.68 67.5435C764.555 67.8872 764.383 68.2778 764.164 68.7153C763.956 69.1424 763.743 69.5382 763.524 69.9028C763.316 70.2674 763.149 70.5278 763.024 70.6841C762.868 70.8507 762.618 70.9341 762.274 70.9341H752.118ZM753.086 68.2622H762.352C762.592 68.2622 762.743 68.2257 762.805 68.1528C762.878 68.0695 762.914 67.9028 762.914 67.6528C762.914 66.9237 762.909 66.0799 762.899 65.1216C762.888 64.1528 762.852 63.1997 762.789 62.2622C762.737 61.3247 762.638 60.5382 762.493 59.9028C762.399 59.4757 762.164 59.0799 761.789 58.7153C761.654 58.5799 761.409 58.4393 761.055 58.2935C760.701 58.1476 760.243 58.0747 759.68 58.0747H752.524C752.118 58.0747 751.836 58.106 751.68 58.1685C751.534 58.2205 751.451 58.3612 751.43 58.5903C751.42 58.7362 751.409 58.9393 751.399 59.1997C751.399 59.4497 751.399 59.7362 751.399 60.0591C751.399 60.632 751.404 61.2726 751.414 61.981C751.425 62.6789 751.435 63.3664 751.446 64.0435C751.467 64.7101 751.487 65.2987 751.508 65.8091C751.529 66.3195 751.55 66.6737 751.571 66.8716C751.623 67.4341 751.795 67.8091 752.086 67.9966C752.378 68.1737 752.711 68.2622 753.086 68.2622ZM771.087 66.3872C770.962 66.3872 770.899 66.3143 770.899 66.1685C770.899 66.0851 770.936 65.9914 771.009 65.8872C771.207 65.5539 771.472 65.0851 771.806 64.481C772.139 63.8664 772.441 63.2466 772.712 62.6216C772.983 61.9966 773.118 61.4966 773.118 61.1216C773.118 60.9862 773.082 60.8143 773.009 60.606C772.936 60.3976 772.785 60.1789 772.556 59.9497C772.306 59.6893 771.905 59.3716 771.353 58.9966C770.811 58.6112 770.233 58.2362 769.618 57.8716C769.014 57.507 768.488 57.2205 768.04 57.0122C767.915 56.9497 767.853 56.8768 767.853 56.7935C767.853 56.7414 767.873 56.6737 767.915 56.5903C767.946 56.5278 768.066 56.3247 768.274 55.981C768.493 55.6372 768.728 55.2778 768.978 54.9028C769.228 54.5174 769.426 54.257 769.571 54.1216C769.644 54.0487 769.722 54.0122 769.806 54.0122C769.827 54.0122 769.868 54.033 769.931 54.0747C770.545 54.408 771.202 54.7987 771.899 55.2466C772.597 55.6945 773.248 56.1424 773.853 56.5903C774.467 57.0278 774.936 57.4185 775.259 57.7622C775.592 58.1268 775.806 58.4757 775.899 58.8091C776.004 59.1424 776.056 59.4601 776.056 59.7622C776.056 60.3247 775.806 61.033 775.306 61.8872C774.806 62.731 774.274 63.5695 773.712 64.4028C773.577 64.6112 773.462 64.757 773.368 64.8403C773.285 64.9132 773.212 64.9757 773.149 65.0278C773.056 65.1112 772.868 65.2674 772.587 65.4966C772.306 65.7153 772.019 65.9185 771.728 66.106C771.436 66.2935 771.222 66.3872 771.087 66.3872ZM795.166 71.6216C795.093 71.6216 795.015 71.5799 794.931 71.4966C794.306 70.6945 793.645 69.8976 792.947 69.106C792.259 68.3039 791.718 67.6997 791.322 67.2935C790.989 66.9393 790.567 66.4862 790.056 65.9341C789.546 65.382 788.999 64.8299 788.416 64.2778C787.78 63.6632 787.119 63.0591 786.431 62.4653C785.744 61.8716 785.077 61.2726 784.431 60.6685C784.379 60.6164 784.317 60.5851 784.244 60.5747C784.171 60.5643 784.134 60.5591 784.134 60.5591C784.009 60.5591 783.911 60.632 783.838 60.7778C783.286 61.9132 782.895 62.8976 782.666 63.731C782.447 64.5643 782.338 65.3612 782.338 66.1216C782.338 66.4653 782.369 66.7882 782.431 67.0903C782.494 67.3924 782.629 67.6632 782.838 67.9028C782.952 68.0591 783.082 68.1528 783.228 68.1841C783.374 68.2153 783.551 68.231 783.759 68.231H784.4C784.65 68.231 784.775 68.2987 784.775 68.4341C784.775 68.5487 784.692 68.7674 784.525 69.0903C784.369 69.4132 784.197 69.731 784.009 70.0435C783.832 70.3455 783.713 70.5382 783.65 70.6216C783.494 70.8091 783.317 70.9028 783.119 70.9028H779.9C779.765 70.9028 779.697 70.8455 779.697 70.731C779.697 70.658 779.707 70.6112 779.728 70.5903C779.874 70.3507 780.009 70.0747 780.134 69.7622C780.27 69.4393 780.338 69.1685 780.338 68.9497C780.327 68.533 780.312 68.1476 780.291 67.7935C780.27 67.4393 780.259 67.0851 780.259 66.731C780.259 66.3664 780.286 65.9549 780.338 65.4966C780.39 65.0382 780.499 64.5799 780.666 64.1216C780.801 63.6737 781.025 63.1007 781.338 62.4028C781.661 61.6945 782.14 60.8976 782.775 60.0122C782.9 59.8664 782.963 59.7466 782.963 59.6528C782.963 59.5799 782.911 59.4914 782.806 59.3872C782.306 58.9393 781.713 58.4601 781.025 57.9497C780.348 57.4393 779.754 56.9757 779.244 56.5591C779.171 56.507 779.134 56.4341 779.134 56.3403C779.134 56.3195 779.145 56.283 779.166 56.231C779.197 56.1789 779.218 56.132 779.228 56.0903C779.28 55.9341 779.4 55.6685 779.588 55.2935C779.786 54.908 780.009 54.5382 780.259 54.1841C780.353 54.0695 780.437 54.0122 780.509 54.0122C780.572 54.0122 780.624 54.033 780.666 54.0747C781.843 54.9289 782.978 55.8195 784.072 56.7466C785.176 57.6632 786.265 58.6216 787.338 59.6216C788.608 60.7987 789.499 61.6476 790.009 62.1685C790.53 62.6893 790.791 62.9497 790.791 62.9497C790.812 62.9601 790.838 62.981 790.869 63.0122C790.9 63.033 790.937 63.0435 790.978 63.0435C791.041 63.0435 791.103 63.0018 791.166 62.9185C791.489 62.4705 791.718 61.8872 791.853 61.1685C791.999 60.4393 792.072 59.8091 792.072 59.2778C792.072 58.9341 792.03 58.5487 791.947 58.1216C791.864 57.6841 791.702 57.2414 791.463 56.7935C791.39 56.6685 791.353 56.5643 791.353 56.481C791.353 56.3976 791.379 56.3039 791.431 56.1997C791.546 56.033 791.718 55.8143 791.947 55.5435C792.176 55.2726 792.411 55.007 792.65 54.7466C792.9 54.4862 793.093 54.2882 793.228 54.1528C793.27 54.1112 793.301 54.0799 793.322 54.0591C793.353 54.0278 793.405 54.0122 793.478 54.0122C793.509 54.0122 793.556 54.0435 793.619 54.106C793.869 54.4289 794.114 54.8664 794.353 55.4185C794.593 55.9601 794.713 56.606 794.713 57.356C794.713 57.9705 794.64 58.5226 794.494 59.0122C794.348 59.5018 794.207 59.9289 794.072 60.2935C793.884 60.7726 793.608 61.3403 793.244 61.9966C792.89 62.6424 792.551 63.2049 792.228 63.6841C792.155 63.7882 792.103 63.8768 792.072 63.9497C792.051 64.0226 792.041 64.0591 792.041 64.0591C792.041 64.1632 792.077 64.2518 792.15 64.3247C792.348 64.533 792.655 64.8664 793.072 65.3247C793.499 65.7726 793.947 66.2518 794.416 66.7622C794.884 67.2726 795.291 67.7257 795.634 68.1216C795.989 68.507 796.192 68.7414 796.244 68.8247C796.306 68.9185 796.338 69.007 796.338 69.0903C796.338 69.1737 796.327 69.2466 796.306 69.3091C796.254 69.4757 796.166 69.7049 796.041 69.9966C795.916 70.2778 795.791 70.5539 795.666 70.8247C795.541 71.0955 795.447 71.2987 795.384 71.4341C795.312 71.5591 795.239 71.6216 795.166 71.6216ZM809.291 71.6216C809.114 71.6216 809.01 71.4966 808.979 71.2466C808.916 70.3612 808.864 69.3612 808.823 68.2466C808.781 67.132 808.724 66.007 808.651 64.8716C808.578 63.7362 808.458 62.6945 808.291 61.7466C808.093 60.5799 807.656 59.6789 806.979 59.0435C806.302 58.3976 805.468 58.0747 804.479 58.0747H798.901C798.401 58.0747 798.151 57.9185 798.151 57.606C798.151 57.5122 798.182 57.4289 798.244 57.356C798.297 57.2622 798.416 57.0747 798.604 56.7935C798.791 56.5122 799.005 56.1997 799.244 55.856C799.484 55.5018 799.718 55.1737 799.948 54.8716C800.177 54.5695 800.354 54.3507 800.479 54.2153C800.593 54.0799 800.724 54.0122 800.869 54.0122C801.057 54.0122 801.187 54.1372 801.26 54.3872C801.354 54.7935 801.437 55.0695 801.51 55.2153C801.583 55.3507 801.843 55.4185 802.291 55.4185H805.541C806 55.4185 806.515 55.5278 807.088 55.7466C807.661 55.9549 808.213 56.3299 808.744 56.8716C809.286 57.4132 809.729 58.1893 810.073 59.1997C810.323 59.8976 810.505 60.8039 810.619 61.9185C810.734 63.0226 810.802 64.1685 810.823 65.356C810.854 66.533 810.869 67.5955 810.869 68.5435C810.869 68.6997 810.864 68.8247 810.854 68.9185C810.854 69.0018 810.828 69.1007 810.776 69.2153C810.651 69.5278 810.489 69.8924 810.291 70.3091C810.093 70.7257 809.875 71.1007 809.635 71.4341C809.52 71.5591 809.406 71.6216 809.291 71.6216ZM819.401 71.6216C819.256 71.6216 819.183 71.5435 819.183 71.3872C819.183 70.7518 819.177 69.981 819.167 69.0747C819.167 68.158 819.157 67.1997 819.136 66.1997C819.115 65.1997 819.084 64.2466 819.042 63.3403C819 62.4341 818.948 61.6685 818.886 61.0435C818.865 60.7726 818.802 60.5122 818.698 60.2622C818.604 60.0122 818.417 59.757 818.136 59.4966C817.782 59.1841 817.349 58.8612 816.839 58.5278C816.339 58.1841 815.834 57.8664 815.323 57.5747C814.823 57.283 814.391 57.0487 814.026 56.8716C813.828 56.7466 813.729 56.6268 813.729 56.5122C813.729 56.4601 813.75 56.408 813.792 56.356C813.834 56.2935 813.875 56.2257 813.917 56.1528C814.136 55.7987 814.427 55.408 814.792 54.981C815.157 54.5435 815.391 54.2674 815.495 54.1528C815.61 54.0591 815.688 54.0122 815.729 54.0122C815.761 54.0122 815.881 54.0591 816.089 54.1528C816.578 54.4028 817.131 54.731 817.745 55.1372C818.37 55.5435 819.032 56.0382 819.729 56.6216C820.25 57.0591 820.604 57.5122 820.792 57.981C820.979 58.4393 821.094 58.8976 821.136 59.356C821.157 59.5643 821.172 59.9132 821.183 60.4028C821.203 60.8924 821.219 61.4237 821.229 61.9966C821.25 62.5695 821.261 63.0903 821.261 63.5591C821.261 64.4132 821.256 65.3195 821.245 66.2778C821.245 67.2362 821.224 68.1737 821.183 69.0903C821.183 69.1945 821.162 69.3039 821.12 69.4185C821.078 69.5226 821.037 69.6164 820.995 69.6997C820.808 70.033 820.563 70.3924 820.261 70.7778C819.959 71.1632 819.735 71.4185 819.589 71.5435C819.526 71.5955 819.464 71.6216 819.401 71.6216ZM827.668 77.3091C827.49 77.3091 827.402 77.2205 827.402 77.0435C827.371 75.0851 827.345 73.0643 827.324 70.981C827.313 68.8976 827.272 66.8195 827.199 64.7466C827.126 62.6632 826.975 60.6632 826.746 58.7466C826.714 58.5487 826.595 58.408 826.386 58.3247C826.188 58.231 825.975 58.1737 825.746 58.1528C825.517 58.1216 825.355 58.0955 825.261 58.0747C825.084 58.033 824.996 57.9445 824.996 57.8091C824.996 57.7153 825.032 57.6007 825.105 57.4653C825.532 56.7674 826.011 56.1112 826.543 55.4966C827.074 54.8716 827.459 54.4445 827.699 54.2153C827.834 54.0799 827.97 54.0122 828.105 54.0122C828.334 54.0122 828.475 54.1372 828.527 54.3872C828.61 54.6476 828.688 54.8872 828.761 55.106C828.834 55.3143 829.069 55.4185 829.464 55.4185H839.089C839.975 55.4185 840.626 55.7257 841.043 56.3403C841.459 56.9445 841.668 57.6164 841.668 58.356C841.668 59.3976 841.517 60.4289 841.214 61.4497C840.923 62.4705 840.621 63.3351 840.308 64.0435C839.819 65.1893 839.204 66.2674 838.464 67.2778C837.735 68.2778 836.834 69.1007 835.761 69.7466C835.459 69.9237 835.043 70.1424 834.511 70.4028C833.99 70.6632 833.485 70.8924 832.996 71.0903C832.517 71.2882 832.183 71.3872 831.996 71.3872C831.756 71.3872 831.636 71.283 831.636 71.0747C831.636 70.981 831.72 70.7726 831.886 70.4497C832.053 70.1164 832.225 69.783 832.402 69.4497C832.589 69.106 832.714 68.8768 832.777 68.7622C832.871 68.6268 832.949 68.5226 833.011 68.4497C833.084 68.3664 833.194 68.3039 833.339 68.2622C834.1 68.033 834.829 67.783 835.527 67.5122C836.235 67.2414 836.86 66.8716 837.402 66.4028C837.954 65.9341 838.376 65.2987 838.668 64.4966C838.793 64.1632 838.933 63.5955 839.089 62.7935C839.256 61.981 839.339 61.2101 839.339 60.481C839.339 59.8976 839.24 59.3507 839.043 58.8403C838.855 58.3299 838.423 58.0747 837.746 58.0747H829.652C829.558 58.0747 829.464 58.1216 829.371 58.2153C829.277 58.3091 829.23 58.4132 829.23 58.5278C829.293 59.8195 829.329 61.1164 829.339 62.4185C829.35 63.7101 829.355 64.7362 829.355 65.4966C829.355 66.2257 829.355 66.8612 829.355 67.4028C829.365 67.9445 829.371 68.6372 829.371 69.481C829.371 70.5122 829.365 71.5174 829.355 72.4966C829.355 73.4862 829.345 74.1945 829.324 74.6216C829.324 74.6528 829.308 74.731 829.277 74.856C829.256 74.981 829.214 75.1164 829.152 75.2622C829.017 75.5851 828.819 75.9341 828.558 76.3091C828.308 76.6841 828.095 76.9757 827.918 77.1841C827.855 77.2674 827.772 77.3091 827.668 77.3091ZM859.106 77.3091C858.908 77.3091 858.809 77.1893 858.809 76.9497C858.789 76.533 858.763 75.882 858.731 74.9966C858.711 74.1112 858.679 73.0851 858.638 71.9185C858.596 70.7518 858.549 69.5278 858.497 68.2466C858.455 66.9653 858.408 65.7153 858.356 64.4966C858.304 63.2674 858.247 62.1528 858.184 61.1528C858.132 60.1528 858.075 59.3612 858.013 58.7778C857.981 58.5487 857.914 58.3768 857.809 58.2622C857.705 58.1372 857.518 58.0747 857.247 58.0747H850.856C850.679 58.0747 850.513 58.0382 850.356 57.9653C850.211 57.882 850.138 57.7622 850.138 57.606C850.138 57.533 850.226 57.3403 850.403 57.0278C850.58 56.7153 850.789 56.3612 851.028 55.9653C851.278 55.5695 851.513 55.2101 851.731 54.8872C851.95 54.5643 852.101 54.356 852.184 54.2622C852.309 54.0955 852.429 54.0122 852.544 54.0122C852.721 54.0122 852.851 54.1841 852.934 54.5278C853.018 54.8612 853.117 55.0955 853.231 55.231C853.356 55.356 853.612 55.4185 853.997 55.4185H862.419C862.794 55.4185 862.981 55.4862 862.981 55.6216C862.981 55.632 862.976 55.658 862.966 55.6997C862.955 55.7414 862.945 55.7882 862.934 55.8403C862.83 56.132 862.705 56.4497 862.559 56.7935C862.414 57.1372 862.257 57.4601 862.091 57.7622C862.018 57.8976 861.95 57.981 861.888 58.0122C861.825 58.033 861.752 58.0539 861.669 58.0747C861.377 58.1685 861.096 58.2674 860.825 58.3716C860.565 58.4653 860.434 58.731 860.434 59.1685C860.434 59.5851 860.44 60.3403 860.45 61.4341C860.461 62.5174 860.492 63.6685 860.544 64.8872C860.596 66.1476 860.643 67.3976 860.684 68.6372C860.726 69.8768 860.747 71.1164 860.747 72.356C860.747 72.6997 860.742 73.0382 860.731 73.3716C860.721 73.7049 860.716 74.0382 860.716 74.3716C860.716 74.7257 860.658 75.0226 860.544 75.2622C860.492 75.3872 860.388 75.5799 860.231 75.8403C860.086 76.1112 859.929 76.3768 859.763 76.6372C859.596 76.8976 859.45 77.0851 859.325 77.1997C859.252 77.2726 859.179 77.3091 859.106 77.3091ZM868.794 66.3872C868.669 66.3872 868.607 66.3143 868.607 66.1685C868.607 66.0851 868.643 65.9914 868.716 65.8872C868.914 65.5539 869.18 65.0851 869.513 64.481C869.847 63.8664 870.149 63.2466 870.419 62.6216C870.69 61.9966 870.826 61.4966 870.826 61.1216C870.826 60.9862 870.789 60.8143 870.716 60.606C870.643 60.3976 870.492 60.1789 870.263 59.9497C870.013 59.6893 869.612 59.3716 869.06 58.9966C868.518 58.6112 867.94 58.2362 867.326 57.8716C866.722 57.507 866.196 57.2205 865.748 57.0122C865.623 56.9497 865.56 56.8768 865.56 56.7935C865.56 56.7414 865.581 56.6737 865.623 56.5903C865.654 56.5278 865.774 56.3247 865.982 55.981C866.201 55.6372 866.435 55.2778 866.685 54.9028C866.935 54.5174 867.133 54.257 867.279 54.1216C867.352 54.0487 867.43 54.0122 867.513 54.0122C867.534 54.0122 867.576 54.033 867.638 54.0747C868.253 54.408 868.909 54.7987 869.607 55.2466C870.305 55.6945 870.956 56.1424 871.56 56.5903C872.175 57.0278 872.643 57.4185 872.966 57.7622C873.3 58.1268 873.513 58.4757 873.607 58.8091C873.711 59.1424 873.763 59.4601 873.763 59.7622C873.763 60.3247 873.513 61.033 873.013 61.8872C872.513 62.731 871.982 63.5695 871.419 64.4028C871.284 64.6112 871.169 64.757 871.076 64.8403C870.992 64.9132 870.919 64.9757 870.857 65.0278C870.763 65.1112 870.576 65.2674 870.294 65.4966C870.013 65.7153 869.727 65.9185 869.435 66.106C869.143 66.2935 868.93 66.3872 868.794 66.3872ZM892.873 71.6216C892.8 71.6216 892.722 71.5799 892.639 71.4966C892.014 70.6945 891.352 69.8976 890.654 69.106C889.967 68.3039 889.425 67.6997 889.029 67.2935C888.696 66.9393 888.274 66.4862 887.764 65.9341C887.253 65.382 886.707 64.8299 886.123 64.2778C885.488 63.6632 884.826 63.0591 884.139 62.4653C883.451 61.8716 882.785 61.2726 882.139 60.6685C882.087 60.6164 882.024 60.5851 881.951 60.5747C881.878 60.5643 881.842 60.5591 881.842 60.5591C881.717 60.5591 881.618 60.632 881.545 60.7778C880.993 61.9132 880.602 62.8976 880.373 63.731C880.154 64.5643 880.045 65.3612 880.045 66.1216C880.045 66.4653 880.076 66.7882 880.139 67.0903C880.201 67.3924 880.337 67.6632 880.545 67.9028C880.66 68.0591 880.79 68.1528 880.936 68.1841C881.082 68.2153 881.259 68.231 881.467 68.231H882.108C882.358 68.231 882.483 68.2987 882.483 68.4341C882.483 68.5487 882.399 68.7674 882.233 69.0903C882.076 69.4132 881.904 69.731 881.717 70.0435C881.54 70.3455 881.42 70.5382 881.358 70.6216C881.201 70.8091 881.024 70.9028 880.826 70.9028H877.608C877.472 70.9028 877.404 70.8455 877.404 70.731C877.404 70.658 877.415 70.6112 877.436 70.5903C877.582 70.3507 877.717 70.0747 877.842 69.7622C877.977 69.4393 878.045 69.1685 878.045 68.9497C878.035 68.533 878.019 68.1476 877.998 67.7935C877.977 67.4393 877.967 67.0851 877.967 66.731C877.967 66.3664 877.993 65.9549 878.045 65.4966C878.097 65.0382 878.207 64.5799 878.373 64.1216C878.509 63.6737 878.733 63.1007 879.045 62.4028C879.368 61.6945 879.847 60.8976 880.483 60.0122C880.608 59.8664 880.67 59.7466 880.67 59.6528C880.67 59.5799 880.618 59.4914 880.514 59.3872C880.014 58.9393 879.42 58.4601 878.733 57.9497C878.055 57.4393 877.462 56.9757 876.951 56.5591C876.878 56.507 876.842 56.4341 876.842 56.3403C876.842 56.3195 876.852 56.283 876.873 56.231C876.904 56.1789 876.925 56.132 876.936 56.0903C876.988 55.9341 877.108 55.6685 877.295 55.2935C877.493 54.908 877.717 54.5382 877.967 54.1841C878.061 54.0695 878.144 54.0122 878.217 54.0122C878.279 54.0122 878.332 54.033 878.373 54.0747C879.55 54.9289 880.686 55.8195 881.779 56.7466C882.884 57.6632 883.972 58.6216 885.045 59.6216C886.316 60.7987 887.207 61.6476 887.717 62.1685C888.238 62.6893 888.498 62.9497 888.498 62.9497C888.519 62.9601 888.545 62.981 888.576 63.0122C888.608 63.033 888.644 63.0435 888.686 63.0435C888.748 63.0435 888.811 63.0018 888.873 62.9185C889.196 62.4705 889.425 61.8872 889.561 61.1685C889.707 60.4393 889.779 59.8091 889.779 59.2778C889.779 58.9341 889.738 58.5487 889.654 58.1216C889.571 57.6841 889.41 57.2414 889.17 56.7935C889.097 56.6685 889.061 56.5643 889.061 56.481C889.061 56.3976 889.087 56.3039 889.139 56.1997C889.253 56.033 889.425 55.8143 889.654 55.5435C889.884 55.2726 890.118 55.007 890.358 54.7466C890.608 54.4862 890.8 54.2882 890.936 54.1528C890.977 54.1112 891.009 54.0799 891.029 54.0591C891.061 54.0278 891.113 54.0122 891.186 54.0122C891.217 54.0122 891.264 54.0435 891.326 54.106C891.576 54.4289 891.821 54.8664 892.061 55.4185C892.3 55.9601 892.42 56.606 892.42 57.356C892.42 57.9705 892.347 58.5226 892.201 59.0122C892.055 59.5018 891.915 59.9289 891.779 60.2935C891.592 60.7726 891.316 61.3403 890.951 61.9966C890.597 62.6424 890.259 63.2049 889.936 63.6841C889.863 63.7882 889.811 63.8768 889.779 63.9497C889.759 64.0226 889.748 64.0591 889.748 64.0591C889.748 64.1632 889.785 64.2518 889.858 64.3247C890.055 64.533 890.363 64.8664 890.779 65.3247C891.207 65.7726 891.654 66.2518 892.123 66.7622C892.592 67.2726 892.998 67.7257 893.342 68.1216C893.696 68.507 893.899 68.7414 893.951 68.8247C894.014 68.9185 894.045 69.007 894.045 69.0903C894.045 69.1737 894.035 69.2466 894.014 69.3091C893.962 69.4757 893.873 69.7049 893.748 69.9966C893.623 70.2778 893.498 70.5539 893.373 70.8247C893.248 71.0955 893.154 71.2987 893.092 71.4341C893.019 71.5591 892.946 71.6216 892.873 71.6216Z" fill="#F8F8F7"/>
</g>
<g id="Frame 213">
<rect x="646.377" y="100.403" width="302" height="74" stroke="#7E7E7E"/>
<g id="Frame 199">
<path id="&#215;&#148;&#215;&#167;&#215;&#156;&#215;&#147;.." d="M768.565 131.407C768.518 131.407 768.471 131.391 768.425 131.36C768.261 131.274 768.042 131.102 767.768 130.844C767.503 130.579 767.3 130.36 767.159 130.188C767.089 130.086 767.054 130.004 767.054 129.942C767.054 129.879 767.073 129.821 767.112 129.766C767.557 129.336 767.901 128.938 768.143 128.571C768.19 128.5 768.253 128.465 768.331 128.465C768.378 128.465 768.413 128.477 768.436 128.5C768.46 128.516 768.487 128.536 768.518 128.559C768.604 128.614 768.729 128.723 768.893 128.887C769.057 129.043 769.221 129.2 769.386 129.356C769.55 129.504 769.667 129.598 769.737 129.637C769.846 129.731 769.901 129.817 769.901 129.895C769.901 129.934 769.87 130.016 769.807 130.141C769.768 130.227 769.679 130.356 769.538 130.528C769.397 130.7 769.249 130.864 769.093 131.02C768.936 131.184 768.807 131.297 768.706 131.36C768.659 131.391 768.612 131.407 768.565 131.407ZM776.71 131.407C776.663 131.407 776.616 131.391 776.57 131.36C776.406 131.274 776.187 131.102 775.913 130.844C775.648 130.579 775.445 130.36 775.304 130.188C775.234 130.086 775.199 130.004 775.199 129.942C775.199 129.879 775.218 129.821 775.257 129.766C775.702 129.336 776.046 128.938 776.288 128.571C776.335 128.5 776.398 128.465 776.476 128.465C776.523 128.465 776.558 128.477 776.581 128.5C776.605 128.516 776.632 128.536 776.663 128.559C776.749 128.614 776.874 128.723 777.038 128.887C777.202 129.043 777.366 129.2 777.531 129.356C777.695 129.504 777.812 129.598 777.882 129.637C777.991 129.731 778.046 129.817 778.046 129.895C778.046 129.934 778.015 130.016 777.952 130.141C777.913 130.227 777.824 130.356 777.683 130.528C777.542 130.7 777.394 130.864 777.238 131.02C777.081 131.184 776.952 131.297 776.851 131.36C776.804 131.391 776.757 131.407 776.71 131.407ZM785.031 131.442C784.945 131.442 784.89 131.34 784.867 131.137C784.742 129.59 784.644 128.036 784.574 126.473C784.504 124.911 784.449 123.364 784.41 121.833C784.41 121.7 784.383 121.575 784.328 121.458C784.273 121.34 784.172 121.282 784.023 121.282H778.773C778.453 121.282 778.293 121.165 778.293 120.93C778.293 120.86 778.363 120.708 778.504 120.473C778.644 120.231 778.812 119.961 779.008 119.665C779.211 119.368 779.398 119.098 779.57 118.856C779.75 118.606 779.875 118.442 779.945 118.364C780.015 118.278 780.101 118.235 780.203 118.235C780.289 118.235 780.351 118.274 780.39 118.352C780.429 118.43 780.453 118.512 780.461 118.598C780.5 118.864 780.566 119.051 780.66 119.161C780.754 119.262 780.875 119.313 781.023 119.313H784.234C784.312 119.313 784.375 119.278 784.422 119.208C784.578 119.012 784.808 118.801 785.113 118.575C785.426 118.348 785.672 118.235 785.851 118.235C786 118.235 786.074 118.313 786.074 118.469C786.074 118.547 786.086 118.668 786.109 118.833C786.133 118.989 786.172 119.098 786.226 119.161C786.304 119.262 786.461 119.313 786.695 119.313H787.633C787.687 119.313 787.761 119.333 787.855 119.372C787.949 119.403 787.996 119.473 787.996 119.583C787.996 119.606 787.98 119.672 787.949 119.782C787.863 119.961 787.75 120.188 787.609 120.461C787.476 120.735 787.344 120.961 787.211 121.141C787.156 121.235 787.058 121.282 786.918 121.282C786.652 121.282 786.453 121.364 786.32 121.528C786.195 121.692 786.125 121.864 786.109 122.043C786.094 122.176 786.082 122.348 786.074 122.559C786.074 122.762 786.074 122.981 786.074 123.215C786.074 123.762 786.086 124.344 786.109 124.961C786.133 125.579 786.16 126.176 786.191 126.754C786.222 127.325 786.25 127.825 786.273 128.254C786.297 128.684 786.308 128.985 786.308 129.157C786.308 129.43 786.261 129.649 786.168 129.813C786.019 130.094 785.886 130.333 785.769 130.528C785.652 130.723 785.492 130.969 785.289 131.266C785.203 131.383 785.117 131.442 785.031 131.442ZM791.313 131.219C791.164 131.219 791.09 131.157 791.09 131.032C791.09 130.961 791.149 130.813 791.266 130.586C791.391 130.36 791.52 130.133 791.653 129.907C791.793 129.68 791.891 129.532 791.946 129.461C792 129.391 792.051 129.325 792.098 129.262C792.153 129.2 792.25 129.153 792.391 129.122C793.133 128.926 793.879 128.672 794.629 128.36C795.379 128.04 796.004 127.625 796.504 127.118C796.856 126.766 797.125 126.356 797.313 125.887C797.508 125.411 797.641 124.926 797.711 124.434C797.789 123.934 797.828 123.477 797.828 123.063C797.828 122.766 797.789 122.481 797.711 122.208C797.641 121.934 797.574 121.754 797.512 121.668C797.371 121.411 797.129 121.282 796.785 121.282H791.196C791.024 121.282 790.875 121.231 790.75 121.129C790.633 121.028 790.539 120.911 790.469 120.778C790.43 120.684 790.391 120.555 790.352 120.391C790.321 120.219 790.305 119.969 790.305 119.641C790.305 119.415 790.289 119.114 790.258 118.739C790.235 118.364 790.192 117.981 790.129 117.59C790.067 117.2 789.981 116.875 789.871 116.618C789.832 116.532 789.813 116.465 789.813 116.418C789.813 116.379 789.824 116.336 789.848 116.29C789.871 116.243 789.899 116.192 789.93 116.137C790.071 115.911 790.239 115.672 790.434 115.422C790.637 115.165 790.805 114.969 790.938 114.836C790.977 114.782 791.02 114.754 791.067 114.754C791.137 114.754 791.211 114.817 791.289 114.942C791.453 115.176 791.574 115.508 791.653 115.938C791.739 116.368 791.781 116.778 791.781 117.168C791.781 117.778 791.789 118.215 791.805 118.481C791.821 118.747 791.867 118.938 791.946 119.055C792.031 119.172 792.133 119.243 792.25 119.266C792.367 119.282 792.489 119.29 792.614 119.29H797.723C798.207 119.29 798.574 119.43 798.824 119.711C799.082 119.985 799.258 120.321 799.352 120.719C799.446 121.11 799.492 121.485 799.492 121.844C799.492 122.274 799.453 122.688 799.375 123.086C799.305 123.485 799.231 123.809 799.153 124.059C799.082 124.309 799.047 124.434 799.047 124.434C798.946 124.809 798.778 125.239 798.543 125.723C798.309 126.208 798.039 126.696 797.735 127.188C797.438 127.68 797.125 128.129 796.797 128.536C796.469 128.942 796.156 129.254 795.86 129.473C795.469 129.762 794.914 130.063 794.196 130.375C793.477 130.688 792.649 130.95 791.711 131.161C791.516 131.2 791.383 131.219 791.313 131.219ZM803.864 135.708C803.731 135.708 803.665 135.641 803.665 135.508C803.641 134.04 803.622 132.524 803.606 130.961C803.598 129.399 803.567 127.84 803.512 126.286C803.458 124.723 803.344 123.223 803.173 121.786C803.149 121.637 803.059 121.532 802.903 121.469C802.755 121.399 802.594 121.356 802.423 121.34C802.251 121.317 802.13 121.297 802.059 121.282C801.926 121.25 801.86 121.184 801.86 121.083C801.86 121.012 801.887 120.926 801.942 120.825C802.262 120.301 802.622 119.809 803.02 119.348C803.419 118.879 803.708 118.559 803.887 118.387C803.989 118.286 804.091 118.235 804.192 118.235C804.364 118.235 804.469 118.329 804.509 118.516C804.571 118.711 804.63 118.891 804.684 119.055C804.739 119.211 804.915 119.29 805.212 119.29H812.43C813.094 119.29 813.583 119.52 813.895 119.981C814.208 120.434 814.364 120.938 814.364 121.493C814.364 122.274 814.251 123.047 814.024 123.813C813.805 124.579 813.579 125.227 813.344 125.758C812.977 126.618 812.516 127.426 811.962 128.184C811.415 128.934 810.739 129.551 809.934 130.036C809.708 130.168 809.395 130.333 808.997 130.528C808.606 130.723 808.227 130.895 807.86 131.043C807.501 131.192 807.251 131.266 807.11 131.266C806.93 131.266 806.841 131.188 806.841 131.032C806.841 130.961 806.903 130.805 807.028 130.563C807.153 130.313 807.282 130.063 807.415 129.813C807.555 129.555 807.649 129.383 807.696 129.297C807.766 129.196 807.825 129.118 807.872 129.063C807.926 129 808.009 128.954 808.118 128.922C808.688 128.75 809.235 128.563 809.759 128.36C810.29 128.157 810.759 127.879 811.165 127.528C811.579 127.176 811.895 126.7 812.114 126.098C812.208 125.848 812.313 125.422 812.43 124.821C812.555 124.211 812.618 123.633 812.618 123.086C812.618 122.649 812.544 122.239 812.395 121.856C812.255 121.473 811.93 121.282 811.423 121.282H805.352C805.282 121.282 805.212 121.317 805.141 121.387C805.071 121.458 805.036 121.536 805.036 121.622C805.083 122.59 805.11 123.563 805.118 124.54C805.126 125.508 805.13 126.278 805.13 126.848C805.13 127.395 805.13 127.872 805.13 128.278C805.137 128.684 805.141 129.204 805.141 129.836C805.141 130.61 805.137 131.364 805.13 132.098C805.13 132.84 805.122 133.372 805.106 133.692C805.106 133.715 805.094 133.774 805.071 133.868C805.055 133.961 805.024 134.063 804.977 134.172C804.876 134.415 804.727 134.676 804.532 134.958C804.344 135.239 804.184 135.458 804.051 135.614C804.005 135.676 803.942 135.708 803.864 135.708ZM827.255 131.442C827.114 131.442 827.044 131.36 827.044 131.196C827.013 130.266 826.982 129.286 826.95 128.254C826.919 127.215 826.876 126.231 826.821 125.301C826.775 124.364 826.704 123.59 826.611 122.981C826.587 122.793 826.529 122.567 826.435 122.301C826.341 122.028 826.177 121.79 825.943 121.586C825.708 121.383 825.361 121.282 824.9 121.282H817.341C816.81 121.282 816.544 121.149 816.544 120.883C816.544 120.797 816.571 120.715 816.626 120.637C816.743 120.458 816.919 120.219 817.154 119.922C817.388 119.618 817.626 119.317 817.868 119.02C818.118 118.723 818.325 118.504 818.489 118.364C818.591 118.278 818.665 118.235 818.712 118.235C818.837 118.235 818.919 118.321 818.958 118.493C818.974 118.586 818.989 118.704 819.005 118.844C819.029 118.985 819.083 119.09 819.169 119.161C819.239 119.223 819.333 119.262 819.45 119.278C819.575 119.286 819.685 119.29 819.779 119.29H825.263C825.529 119.29 825.81 119.317 826.107 119.372C826.411 119.418 826.732 119.575 827.068 119.84C827.435 120.106 827.7 120.43 827.864 120.813C828.029 121.188 828.138 121.61 828.193 122.079C828.271 122.727 828.329 123.461 828.368 124.282C828.407 125.102 828.435 125.942 828.45 126.801C828.466 127.653 828.474 128.465 828.474 129.239C828.474 129.34 828.47 129.426 828.462 129.497C828.454 129.559 828.431 129.641 828.392 129.743C828.353 129.844 828.267 130.012 828.134 130.247C828.009 130.473 827.88 130.696 827.747 130.915C827.614 131.133 827.509 131.282 827.431 131.36C827.376 131.415 827.318 131.442 827.255 131.442ZM818.513 131.442C818.411 131.442 818.349 131.36 818.325 131.196C818.286 130.625 818.243 130.028 818.196 129.403C818.157 128.778 818.118 128.188 818.079 127.633C818.04 127.071 818.009 126.598 817.986 126.215C817.962 125.825 817.95 125.583 817.95 125.489C817.95 125.215 817.978 125.024 818.032 124.915C818.142 124.704 818.29 124.458 818.478 124.176C818.673 123.887 818.884 123.61 819.111 123.344C819.15 123.305 819.189 123.286 819.228 123.286C819.345 123.286 819.415 123.375 819.439 123.555C819.478 123.774 819.509 124.094 819.532 124.516C819.564 124.938 819.591 125.407 819.614 125.922C819.638 126.43 819.657 126.934 819.673 127.434C819.689 127.926 819.7 128.36 819.708 128.735C819.716 129.11 819.72 129.364 819.72 129.497C819.72 129.637 819.685 129.786 819.614 129.942C819.489 130.192 819.357 130.43 819.216 130.657C819.075 130.883 818.927 131.098 818.771 131.301C818.7 131.395 818.614 131.442 818.513 131.442Z" fill="#F8F8F7"/>
</g>
</g>
<g id="Frame 217">
<g id="Group 71">
<g id="Frame 213_2">
<g id="Rectangle 1002" filter="url(#filter3_d_1370_65755)">
<path d="M713.318 197.004H788.556C790.845 197.004 793.161 197.145 795.325 197.89C796.435 198.272 798.127 199.482 798.127 199.482C798.127 199.482 799.868 198.274 801.001 197.89C803.124 197.171 805.386 197.004 807.628 197.004H882.936V202.788C882.936 206.114 882.812 209.569 881.232 212.497C881.201 212.553 881.171 212.608 881.14 212.662C880.166 214.366 877.981 216.571 877.981 216.571C877.981 216.571 880.172 218.683 881.14 220.343C881.254 220.539 881.365 220.752 881.471 220.976C882.79 223.744 882.936 226.894 882.936 229.96V236.137H807.93C805.485 236.137 802.992 236.073 800.698 235.228C799.688 234.855 798.127 233.66 798.127 233.66C798.127 233.66 796.64 234.854 795.599 235.228C793.272 236.062 790.755 236.137 788.283 236.137H713.318V230.876C713.318 227.214 713.643 223.426 715.51 220.275C716.43 218.723 718.273 216.571 718.273 216.571C718.273 216.571 716.421 214.514 715.51 213.007C713.569 209.795 713.318 205.887 713.318 202.134V197.004Z" fill="#F8F8F7"/>
<path d="M788.556 197.504C790.831 197.504 793.079 197.645 795.162 198.363C795.659 198.534 796.319 198.905 796.878 199.253C797.152 199.424 797.392 199.584 797.564 199.701C797.65 199.759 797.719 199.807 797.766 199.839C797.789 199.856 797.807 199.868 797.819 199.876C797.825 199.88 797.829 199.883 797.832 199.885L797.836 199.888L798.123 200.093L798.412 199.892H798.413C798.414 199.892 798.415 199.891 798.416 199.89C798.419 199.888 798.424 199.885 798.43 199.88C798.442 199.872 798.46 199.859 798.484 199.843C798.533 199.811 798.603 199.763 798.691 199.705C798.869 199.588 799.117 199.428 799.398 199.257C799.973 198.909 800.651 198.536 801.161 198.364C803.208 197.671 805.406 197.504 807.628 197.504H882.436V202.788C882.436 206.122 882.304 209.457 880.792 212.259C880.763 212.312 880.735 212.364 880.706 212.415C880.245 213.221 879.483 214.167 878.819 214.926C878.49 215.303 878.19 215.627 877.974 215.857C877.866 215.972 877.778 216.062 877.718 216.125C877.688 216.156 877.664 216.18 877.648 216.196C877.641 216.204 877.635 216.21 877.631 216.213C877.629 216.215 877.628 216.217 877.627 216.218L877.626 216.219L877.269 216.579L877.634 216.931L877.635 216.932C877.636 216.933 877.638 216.934 877.64 216.936C877.643 216.94 877.65 216.945 877.657 216.953L877.982 217.278C878.199 217.498 878.499 217.81 878.828 218.171C879.493 218.902 880.252 219.813 880.708 220.595C880.814 220.777 880.918 220.977 881.02 221.191C882.285 223.848 882.436 226.894 882.436 229.96V235.637H807.93C805.481 235.637 803.071 235.569 800.87 234.758C800.426 234.595 799.826 234.233 799.312 233.889C799.06 233.721 798.839 233.564 798.681 233.449C798.602 233.391 798.538 233.344 798.495 233.312C798.474 233.296 798.457 233.283 798.446 233.275C798.441 233.271 798.437 233.268 798.435 233.266C798.433 233.265 798.432 233.265 798.432 233.264L798.431 233.263L798.12 233.025L797.813 233.27V233.271C797.813 233.271 797.812 233.272 797.811 233.273C797.808 233.275 797.805 233.278 797.8 233.282C797.79 233.29 797.773 233.303 797.753 233.319C797.712 233.351 797.652 233.397 797.577 233.454C797.426 233.568 797.213 233.725 796.97 233.892C796.471 234.235 795.885 234.594 795.431 234.757C793.194 235.559 790.757 235.637 788.283 235.637H713.818V230.876L713.822 230.192C713.865 226.771 714.259 223.368 715.94 220.53C716.383 219.783 717.057 218.879 717.63 218.15C717.914 217.788 718.17 217.474 718.355 217.25C718.448 217.139 718.523 217.05 718.574 216.989C718.6 216.958 718.62 216.935 718.633 216.919C718.639 216.912 718.644 216.906 718.647 216.902C718.649 216.9 718.651 216.898 718.651 216.897L718.652 216.896L718.938 216.563L718.645 216.236L718.64 216.231C718.636 216.227 718.632 216.222 718.625 216.214C718.612 216.199 718.591 216.177 718.565 216.148C718.514 216.09 718.439 216.005 718.347 215.898C718.161 215.684 717.904 215.383 717.619 215.037C717.045 214.338 716.374 213.47 715.938 212.749C714.075 209.666 713.818 205.884 713.818 202.133V197.504H788.556Z" stroke="#F8F8F7"/>
</g>
<g id="Frame 237" clip-path="url(#clip0_1370_65755)">
<path id="&#215;&#169;&#215;&#158;&#215;&#149;&#215;&#168; &#215;&#170;&#215;&#169;&#215;&#149;&#215;&#145;&#215;&#148;" d="M750.89 224.098C750.742 224.098 750.668 223.965 750.668 223.7C750.637 222.825 750.601 221.918 750.562 220.981C750.531 220.036 750.488 219.141 750.433 218.297C750.387 217.446 750.324 216.727 750.246 216.141C750.222 215.977 750.168 215.786 750.082 215.567C749.996 215.34 749.847 215.145 749.637 214.981C749.433 214.817 749.129 214.735 748.722 214.735H741.234C740.797 214.735 740.578 214.622 740.578 214.395C740.578 214.286 740.64 214.125 740.765 213.915C741.055 213.43 741.351 212.938 741.656 212.438C741.961 211.93 742.234 211.532 742.476 211.243C742.562 211.125 742.648 211.04 742.734 210.985C742.828 210.93 742.894 210.903 742.933 210.903C743.082 210.903 743.187 211.008 743.25 211.219C743.344 211.602 743.461 211.825 743.601 211.887C743.75 211.95 743.949 211.981 744.199 211.981H749.801C750.683 211.981 751.324 212.344 751.722 213.071C752.121 213.79 752.34 214.786 752.379 216.059C752.402 216.747 752.43 217.52 752.461 218.379C752.492 219.231 752.508 220.153 752.508 221.145C752.508 221.317 752.496 221.493 752.472 221.672C752.449 221.844 752.383 222.016 752.273 222.188C752.14 222.43 751.98 222.704 751.793 223.008C751.605 223.313 751.43 223.571 751.265 223.782C751.109 223.993 750.984 224.098 750.89 224.098ZM742.676 224.098C742.605 224.098 742.555 224.067 742.523 224.004C742.5 223.942 742.484 223.875 742.476 223.805C742.43 223.43 742.383 222.997 742.336 222.504C742.297 222.012 742.258 221.516 742.219 221.016C742.187 220.516 742.16 220.063 742.137 219.657C742.121 219.25 742.113 218.946 742.113 218.743C742.113 218.532 742.16 218.336 742.254 218.157C742.355 217.977 742.512 217.735 742.722 217.43C742.941 217.118 743.137 216.848 743.308 216.622C743.394 216.512 743.476 216.422 743.555 216.352C743.633 216.274 743.699 216.235 743.754 216.235C743.887 216.235 743.961 216.336 743.976 216.54C744 216.704 744.027 216.989 744.058 217.395C744.09 217.801 744.121 218.262 744.152 218.778C744.191 219.286 744.222 219.79 744.246 220.29C744.269 220.79 744.281 221.215 744.281 221.567C744.281 221.708 744.269 221.836 744.246 221.954C744.23 222.063 744.187 222.176 744.117 222.293C743.945 222.551 743.758 222.833 743.555 223.137C743.351 223.442 743.16 223.7 742.98 223.911C742.863 224.036 742.762 224.098 742.676 224.098ZM755.25 223.571C755.063 223.571 754.969 223.493 754.969 223.336C754.969 223.29 754.996 223.2 755.051 223.067C755.262 222.583 755.43 222.215 755.555 221.965C755.68 221.708 755.84 221.422 756.035 221.11C756.16 220.915 756.332 220.817 756.551 220.817H761.391C761.539 220.817 761.633 220.782 761.672 220.711C761.719 220.641 761.743 220.567 761.743 220.489C761.743 220.254 761.735 219.903 761.719 219.434C761.711 218.965 761.696 218.473 761.672 217.958C761.657 217.434 761.637 216.965 761.614 216.551C761.59 216.129 761.571 215.852 761.555 215.719C761.469 215.063 761.106 214.735 760.465 214.735H755.789C755.618 214.735 755.457 214.708 755.309 214.653C755.16 214.59 755.086 214.461 755.086 214.266C755.086 214.172 755.188 213.954 755.391 213.61C755.594 213.266 755.828 212.872 756.094 212.426C756.36 211.981 756.598 211.614 756.809 211.325C756.895 211.208 756.973 211.11 757.043 211.032C757.121 210.946 757.2 210.903 757.278 210.903C757.364 210.903 757.43 210.95 757.477 211.043C757.524 211.137 757.563 211.239 757.594 211.348C757.633 211.497 757.692 211.641 757.77 211.782C757.848 211.915 757.977 211.981 758.157 211.981H761.039C761.766 211.981 762.317 212.125 762.692 212.415C763.075 212.696 763.332 213.067 763.465 213.528C763.598 213.981 763.664 214.465 763.664 214.981C763.664 215.723 763.668 216.473 763.676 217.231C763.692 217.981 763.715 218.75 763.746 219.54C763.762 220.04 763.821 220.379 763.922 220.559C764.032 220.731 764.207 220.817 764.45 220.817H765.071C765.258 220.817 765.352 220.899 765.352 221.063C765.352 221.125 765.325 221.239 765.27 221.403C765.215 221.575 765.102 221.825 764.93 222.153C764.758 222.481 764.586 222.793 764.414 223.09C764.235 223.411 764.012 223.571 763.746 223.571H755.25ZM770.661 224.11C770.583 224.11 770.52 224.063 770.473 223.969C770.434 223.875 770.415 223.778 770.415 223.676C770.415 223.223 770.403 222.676 770.38 222.036C770.364 221.387 770.337 220.719 770.298 220.032C770.266 219.336 770.227 218.688 770.18 218.086C770.134 217.485 770.079 216.997 770.016 216.622C769.985 216.418 769.911 216.192 769.794 215.942C769.677 215.692 769.497 215.458 769.255 215.239C768.88 214.895 768.466 214.59 768.013 214.325C767.567 214.051 767.22 213.829 766.97 213.657C766.829 213.571 766.759 213.481 766.759 213.387C766.759 213.293 766.802 213.18 766.888 213.047C767.13 212.68 767.391 212.313 767.673 211.946C767.962 211.571 768.216 211.274 768.434 211.055C768.536 210.969 768.614 210.926 768.669 210.926C768.708 210.926 768.809 210.973 768.973 211.067C769.27 211.286 769.641 211.575 770.087 211.934C770.532 212.286 770.934 212.645 771.294 213.012C771.544 213.254 771.751 213.559 771.915 213.926C772.087 214.286 772.188 214.743 772.22 215.297C772.251 215.758 772.27 216.247 772.278 216.762C772.286 217.27 772.29 217.895 772.29 218.637C772.298 219.372 772.302 220.309 772.302 221.45C772.302 221.739 772.231 222.012 772.091 222.27C771.942 222.536 771.751 222.836 771.516 223.172C771.282 223.508 771.095 223.762 770.954 223.934C770.86 224.051 770.763 224.11 770.661 224.11ZM779.79 223.934C779.142 223.934 778.661 223.684 778.349 223.184C778.044 222.676 777.802 222.036 777.622 221.262C777.513 220.77 777.368 220.196 777.189 219.54C777.009 218.883 776.802 218.204 776.568 217.5C776.341 216.79 776.103 216.11 775.853 215.461C775.611 214.813 775.372 214.254 775.138 213.786C775.091 213.676 775.04 213.575 774.986 213.481C774.939 213.387 774.915 213.317 774.915 213.27C774.915 213.192 774.943 213.106 774.997 213.012C775.013 212.981 775.095 212.856 775.243 212.637C775.4 212.418 775.575 212.172 775.771 211.899C775.974 211.618 776.15 211.379 776.298 211.184C776.431 211.012 776.552 210.926 776.661 210.926C776.779 210.926 776.9 211.032 777.025 211.243C777.197 211.563 777.396 212.063 777.622 212.743C777.857 213.422 778.095 214.227 778.337 215.157C778.431 215.508 778.521 215.856 778.607 216.2C778.693 216.543 778.786 216.922 778.888 217.336C778.904 217.368 778.923 217.407 778.947 217.454C778.978 217.5 779.021 217.524 779.075 217.524C779.208 217.524 779.388 217.442 779.615 217.278C779.849 217.114 780.06 216.879 780.247 216.575C780.435 216.262 780.529 215.899 780.529 215.485C780.529 215.071 780.493 214.735 780.423 214.477C780.361 214.211 780.275 213.93 780.165 213.633C780.15 213.571 780.13 213.52 780.107 213.481C780.091 213.434 780.083 213.391 780.083 213.352C780.083 213.258 780.126 213.137 780.212 212.989C780.431 212.606 780.673 212.266 780.939 211.969C781.204 211.672 781.423 211.418 781.595 211.208C781.689 211.09 781.771 211.016 781.841 210.985C781.911 210.946 781.962 210.926 781.993 210.926C782.134 210.926 782.247 211.04 782.333 211.266C782.443 211.547 782.56 211.926 782.685 212.403C782.81 212.879 782.872 213.329 782.872 213.75C782.872 214.438 782.693 215.125 782.333 215.813C781.974 216.493 781.568 217.075 781.115 217.559C780.88 217.809 780.607 218.055 780.294 218.297C779.99 218.54 779.72 218.75 779.486 218.93C779.376 219.024 779.322 219.102 779.322 219.165C779.322 219.204 779.337 219.293 779.368 219.434C779.478 220.028 779.607 220.473 779.755 220.77C779.904 221.059 780.208 221.204 780.669 221.204C781.177 221.204 781.747 221.122 782.38 220.958C783.021 220.786 783.646 220.454 784.255 219.961C784.646 219.641 784.939 219.286 785.134 218.895C785.337 218.497 785.439 217.985 785.439 217.36C785.439 216.954 785.404 216.52 785.333 216.059C785.263 215.59 785.177 215.149 785.075 214.735C784.982 214.321 784.884 213.997 784.783 213.762C784.728 213.637 784.693 213.536 784.677 213.458C784.661 213.372 784.654 213.305 784.654 213.258C784.654 213.141 784.716 212.993 784.841 212.813C785.044 212.547 785.259 212.278 785.486 212.004C785.72 211.731 785.97 211.465 786.236 211.208C786.408 211.02 786.548 210.926 786.658 210.926C786.806 210.926 786.931 211.075 787.033 211.372C787.118 211.629 787.204 211.954 787.29 212.344C787.384 212.727 787.462 213.114 787.525 213.504C787.587 213.887 787.618 214.211 787.618 214.477C787.618 215.399 787.509 216.254 787.29 217.043C787.072 217.833 786.822 218.52 786.54 219.106C786.259 219.684 786.025 220.129 785.837 220.442C785.353 221.192 784.74 221.836 783.997 222.375C783.677 222.602 783.29 222.833 782.837 223.067C782.392 223.293 781.923 223.481 781.431 223.629C781.142 223.715 780.857 223.786 780.575 223.84C780.302 223.903 780.04 223.934 779.79 223.934ZM800.263 224.133C800.131 224.133 800.053 224.016 800.029 223.782C800.021 223.54 800.006 223.165 799.982 222.657C799.967 222.141 799.943 221.559 799.912 220.911C799.881 220.262 799.845 219.61 799.806 218.954C799.767 218.29 799.72 217.684 799.666 217.137C799.619 216.583 799.56 216.157 799.49 215.86C799.388 215.469 799.236 215.184 799.033 215.004C798.838 214.825 798.556 214.735 798.189 214.735H794.416C794.33 214.735 794.26 214.743 794.205 214.758C794.158 214.766 794.135 214.813 794.135 214.899C794.135 214.954 794.142 215.024 794.158 215.11C794.174 215.188 794.185 215.258 794.193 215.321C794.263 215.665 794.345 216.063 794.439 216.516C794.541 216.961 794.635 217.403 794.72 217.84C794.814 218.278 794.888 218.665 794.943 219C795.006 219.329 795.037 219.551 795.037 219.668C795.037 219.833 795.025 219.981 795.002 220.114C794.986 220.239 794.959 220.368 794.92 220.5C794.842 220.852 794.709 221.313 794.521 221.883C794.334 222.446 794.154 222.911 793.982 223.278C793.888 223.489 793.728 223.594 793.502 223.594H789.81C789.607 223.594 789.506 223.508 789.506 223.336C789.506 223.336 789.517 223.29 789.541 223.196C789.564 223.102 789.603 222.993 789.658 222.868C789.814 222.524 789.959 222.223 790.092 221.965C790.232 221.708 790.373 221.454 790.513 221.204C790.662 220.946 790.842 220.817 791.053 220.817H792.951C793.154 220.817 793.256 220.735 793.256 220.571C793.256 220.5 793.209 220.254 793.115 219.833C793.021 219.403 792.896 218.891 792.74 218.297C792.592 217.696 792.431 217.102 792.26 216.516C792.095 215.922 791.939 215.434 791.791 215.051C791.744 214.895 791.674 214.805 791.58 214.782C791.486 214.75 791.385 214.735 791.275 214.735H790.092C790.013 214.735 789.931 214.715 789.845 214.676C789.76 214.637 789.717 214.555 789.717 214.43C789.717 214.344 789.752 214.211 789.822 214.032C790.025 213.579 790.306 213.067 790.666 212.497C791.025 211.926 791.345 211.473 791.627 211.137C791.736 210.997 791.873 210.926 792.037 210.926C792.123 210.926 792.197 210.961 792.26 211.032C792.33 211.102 792.381 211.18 792.412 211.266C792.506 211.516 792.592 211.704 792.67 211.829C792.756 211.946 792.885 212.004 793.056 212.004H799.045C799.771 212.004 800.314 212.208 800.674 212.614C801.041 213.012 801.291 213.524 801.424 214.149C801.556 214.774 801.638 215.422 801.67 216.094C801.709 216.954 801.744 217.817 801.775 218.684C801.806 219.543 801.826 220.243 801.834 220.782C801.834 221.118 801.822 221.368 801.799 221.532C801.783 221.696 801.748 221.84 801.693 221.965C801.576 222.247 801.416 222.567 801.213 222.926C801.017 223.278 800.799 223.618 800.556 223.946C800.525 223.985 800.482 224.024 800.428 224.063C800.381 224.11 800.326 224.133 800.263 224.133ZM816.155 224.11C816.1 224.11 816.042 224.075 815.979 224.004C815.917 223.934 815.878 223.809 815.862 223.629C815.823 222.653 815.768 221.606 815.698 220.489C815.628 219.364 815.542 218.375 815.44 217.524C815.346 216.649 815.069 215.965 814.608 215.473C814.155 214.981 813.475 214.735 812.569 214.735H808.784C808.464 214.735 808.303 214.641 808.303 214.454C808.303 214.336 808.366 214.157 808.491 213.915C808.592 213.719 808.725 213.469 808.889 213.165C809.061 212.86 809.241 212.547 809.428 212.227C809.624 211.907 809.796 211.625 809.944 211.383C810.053 211.204 810.159 211.079 810.26 211.008C810.37 210.938 810.452 210.903 810.507 210.903C810.694 210.903 810.807 211.024 810.846 211.266C810.878 211.438 810.936 211.602 811.022 211.758C811.116 211.907 811.264 211.981 811.467 211.981H814.034C814.643 211.981 815.19 212.149 815.675 212.485C816.159 212.821 816.553 213.258 816.858 213.797C817.163 214.336 817.342 214.915 817.397 215.532C817.483 216.422 817.553 217.293 817.608 218.145C817.663 218.989 817.69 219.875 817.69 220.805C817.69 221.032 817.675 221.254 817.643 221.473C817.612 221.692 817.546 221.922 817.444 222.165C817.358 222.36 817.221 222.622 817.034 222.95C816.846 223.278 816.682 223.555 816.542 223.782C816.471 223.875 816.405 223.954 816.342 224.016C816.28 224.079 816.217 224.11 816.155 224.11ZM823.925 224.11C823.847 224.11 823.784 224.063 823.738 223.969C823.698 223.875 823.679 223.778 823.679 223.676C823.679 223.223 823.667 222.676 823.644 222.036C823.628 221.387 823.601 220.719 823.562 220.032C823.53 219.336 823.491 218.688 823.445 218.086C823.398 217.485 823.343 216.997 823.28 216.622C823.249 216.418 823.175 216.192 823.058 215.942C822.941 215.692 822.761 215.458 822.519 215.239C822.144 214.895 821.73 214.59 821.277 214.325C820.831 214.051 820.484 213.829 820.234 213.657C820.093 213.571 820.023 213.481 820.023 213.387C820.023 213.293 820.066 213.18 820.152 213.047C820.394 212.68 820.655 212.313 820.937 211.946C821.226 211.571 821.48 211.274 821.698 211.055C821.8 210.969 821.878 210.926 821.933 210.926C821.972 210.926 822.073 210.973 822.238 211.067C822.534 211.286 822.905 211.575 823.351 211.934C823.796 212.286 824.198 212.645 824.558 213.012C824.808 213.254 825.015 213.559 825.179 213.926C825.351 214.286 825.452 214.743 825.484 215.297C825.515 215.758 825.534 216.247 825.542 216.762C825.55 217.27 825.554 217.895 825.554 218.637C825.562 219.372 825.566 220.309 825.566 221.45C825.566 221.739 825.495 222.012 825.355 222.27C825.206 222.536 825.015 222.836 824.78 223.172C824.546 223.508 824.359 223.762 824.218 223.934C824.124 224.051 824.027 224.11 823.925 224.11ZM828.871 224.016C828.769 224.016 828.718 223.946 828.718 223.805C828.718 223.602 828.793 223.243 828.941 222.727C829.09 222.204 829.261 221.614 829.457 220.958C829.66 220.301 829.836 219.657 829.984 219.024C830.133 218.391 830.207 217.856 830.207 217.418C830.207 217.028 830.144 216.641 830.019 216.258C829.894 215.875 829.722 215.493 829.504 215.11C829.379 214.899 829.242 214.688 829.093 214.477C828.945 214.258 828.8 214.075 828.66 213.926C828.488 213.739 828.402 213.606 828.402 213.528C828.402 213.458 828.422 213.387 828.461 213.317C828.5 213.239 828.539 213.165 828.578 213.094C828.726 212.868 828.941 212.567 829.222 212.192C829.504 211.809 829.742 211.493 829.937 211.243C830.117 211.016 830.254 210.903 830.347 210.903C830.433 210.903 830.508 210.942 830.57 211.02C830.633 211.09 830.703 211.184 830.781 211.301C831.117 211.825 831.394 212.364 831.613 212.918C831.84 213.473 832.008 213.958 832.117 214.372C832.234 214.786 832.293 215.051 832.293 215.168C832.293 215.215 832.304 215.239 832.328 215.239C832.359 215.239 832.383 215.223 832.398 215.192C832.726 214.504 833.082 213.887 833.465 213.34C833.855 212.786 834.304 212.348 834.812 212.028C835.328 211.7 835.929 211.536 836.617 211.536C837.383 211.536 838.047 211.762 838.609 212.215C839.172 212.661 839.621 213.266 839.957 214.032C840.16 214.5 840.316 215.059 840.425 215.708C840.543 216.348 840.625 217.004 840.672 217.676C840.718 218.348 840.742 218.958 840.742 219.504C840.742 219.825 840.711 220.114 840.648 220.372C840.593 220.629 840.531 220.86 840.461 221.063C840.328 221.446 840.175 221.833 840.004 222.223C839.84 222.606 839.664 222.926 839.476 223.184C839.289 223.442 839.097 223.571 838.902 223.571H832.773C832.539 223.571 832.422 223.485 832.422 223.313C832.422 223.235 832.465 223.133 832.55 223.008C832.761 222.649 832.957 222.313 833.136 222C833.324 221.68 833.488 221.415 833.629 221.204C833.754 221.047 833.859 220.946 833.945 220.899C834.031 220.844 834.125 220.817 834.226 220.817H838.468C838.562 220.817 838.648 220.801 838.726 220.77C838.804 220.739 838.843 220.649 838.843 220.5C838.843 220.125 838.816 219.649 838.761 219.071C838.715 218.485 838.621 217.887 838.48 217.278C838.34 216.668 838.133 216.149 837.859 215.719C837.554 215.243 837.203 214.899 836.804 214.688C836.406 214.477 835.988 214.372 835.55 214.372C834.98 214.372 834.48 214.547 834.05 214.899C833.621 215.25 833.246 215.727 832.925 216.329C832.613 216.922 832.332 217.594 832.082 218.344C831.832 219.086 831.601 219.848 831.39 220.629C831.32 220.895 831.258 221.102 831.203 221.25C831.156 221.391 831.09 221.528 831.004 221.661C830.925 221.786 830.808 221.954 830.652 222.165C830.41 222.485 830.187 222.762 829.984 222.997C829.789 223.231 829.582 223.469 829.363 223.711C829.16 223.915 828.996 224.016 828.871 224.016ZM847.879 223.934C847.231 223.934 846.75 223.684 846.438 223.184C846.133 222.676 845.891 222.036 845.711 221.262C845.602 220.77 845.457 220.196 845.277 219.54C845.098 218.883 844.891 218.204 844.656 217.5C844.43 216.79 844.192 216.11 843.942 215.461C843.699 214.813 843.461 214.254 843.227 213.786C843.18 213.676 843.129 213.575 843.074 213.481C843.027 213.387 843.004 213.317 843.004 213.27C843.004 213.192 843.031 213.106 843.086 213.012C843.102 212.981 843.184 212.856 843.332 212.637C843.488 212.418 843.664 212.172 843.86 211.899C844.063 211.618 844.238 211.379 844.387 211.184C844.52 211.012 844.641 210.926 844.75 210.926C844.867 210.926 844.988 211.032 845.113 211.243C845.285 211.563 845.485 212.063 845.711 212.743C845.945 213.422 846.184 214.227 846.426 215.157C846.52 215.508 846.61 215.856 846.695 216.2C846.781 216.543 846.875 216.922 846.977 217.336C846.992 217.368 847.012 217.407 847.035 217.454C847.067 217.5 847.11 217.524 847.164 217.524C847.297 217.524 847.477 217.442 847.703 217.278C847.938 217.114 848.149 216.879 848.336 216.575C848.524 216.262 848.617 215.899 848.617 215.485C848.617 215.071 848.582 214.735 848.512 214.477C848.449 214.211 848.363 213.93 848.254 213.633C848.238 213.571 848.219 213.52 848.195 213.481C848.18 213.434 848.172 213.391 848.172 213.352C848.172 213.258 848.215 213.137 848.301 212.989C848.52 212.606 848.762 212.266 849.027 211.969C849.293 211.672 849.512 211.418 849.684 211.208C849.777 211.09 849.86 211.016 849.93 210.985C850 210.946 850.051 210.926 850.082 210.926C850.223 210.926 850.336 211.04 850.422 211.266C850.531 211.547 850.649 211.926 850.774 212.403C850.899 212.879 850.961 213.329 850.961 213.75C850.961 214.438 850.781 215.125 850.422 215.813C850.063 216.493 849.656 217.075 849.203 217.559C848.969 217.809 848.695 218.055 848.383 218.297C848.078 218.54 847.809 218.75 847.574 218.93C847.465 219.024 847.41 219.102 847.41 219.165C847.41 219.204 847.426 219.293 847.457 219.434C847.567 220.028 847.695 220.473 847.844 220.77C847.992 221.059 848.297 221.204 848.758 221.204C849.266 221.204 849.836 221.122 850.469 220.958C851.11 220.786 851.735 220.454 852.344 219.961C852.735 219.641 853.027 219.286 853.223 218.895C853.426 218.497 853.527 217.985 853.527 217.36C853.527 216.954 853.492 216.52 853.422 216.059C853.352 215.59 853.266 215.149 853.164 214.735C853.07 214.321 852.973 213.997 852.871 213.762C852.817 213.637 852.781 213.536 852.766 213.458C852.75 213.372 852.742 213.305 852.742 213.258C852.742 213.141 852.805 212.993 852.93 212.813C853.133 212.547 853.348 212.278 853.574 212.004C853.809 211.731 854.059 211.465 854.324 211.208C854.496 211.02 854.637 210.926 854.746 210.926C854.895 210.926 855.02 211.075 855.121 211.372C855.207 211.629 855.293 211.954 855.379 212.344C855.473 212.727 855.551 213.114 855.613 213.504C855.676 213.887 855.707 214.211 855.707 214.477C855.707 215.399 855.598 216.254 855.379 217.043C855.16 217.833 854.91 218.52 854.629 219.106C854.348 219.684 854.113 220.129 853.926 220.442C853.442 221.192 852.828 221.836 852.086 222.375C851.766 222.602 851.379 222.833 850.926 223.067C850.481 223.293 850.012 223.481 849.52 223.629C849.231 223.715 848.945 223.786 848.664 223.84C848.391 223.903 848.129 223.934 847.879 223.934Z" fill="#1B1613"/>
</g>
</g>
</g>
</g>
</g>
</g>
</g>
</g>
</g>
<defs>
<filter id="filter0_d_1370_65755" x="955.988" y="0.000169992" width="44.0934" height="44.0939" filterUnits="userSpaceOnUse" color-interpolation-filters="sRGB">
<feFlood flood-opacity="0" result="BackgroundImageFix"/>
<feColorMatrix in="SourceAlpha" type="matrix" values="0 0 0 0 0 0 0 0 0 0 0 0 0 0 0 0 0 0 127 0" result="hardAlpha"/>
<feOffset dx="-0.951331" dy="2.85399"/>
<feGaussianBlur stdDeviation="2.37833"/>
<feComposite in2="hardAlpha" operator="out"/>
<feColorMatrix type="matrix" values="0 0 0 0 0 0 0 0 0 0 0 0 0 0 0 0 0 0 0.1 0"/>
<feBlend mode="normal" in2="BackgroundImageFix" result="effect1_dropShadow_1370_65755"/>
<feBlend mode="normal" in="SourceGraphic" in2="effect1_dropShadow_1370_65755" result="shape"/>
</filter>
<filter id="filter1_d_1370_65755" x="593.511" y="0.000169992" width="389.782" height="270.667" filterUnits="userSpaceOnUse" color-interpolation-filters="sRGB">
<feFlood flood-opacity="0" result="BackgroundImageFix"/>
<feColorMatrix in="SourceAlpha" type="matrix" values="0 0 0 0 0 0 0 0 0 0 0 0 0 0 0 0 0 0 127 0" result="hardAlpha"/>
<feOffset dx="-0.951331" dy="2.85399"/>
<feGaussianBlur stdDeviation="2.37833"/>
<feComposite in2="hardAlpha" operator="out"/>
<feColorMatrix type="matrix" values="0 0 0 0 0 0 0 0 0 0 0 0 0 0 0 0 0 0 0.1 0"/>
<feBlend mode="normal" in2="BackgroundImageFix" result="effect1_dropShadow_1370_65755"/>
<feBlend mode="normal" in="SourceGraphic" in2="effect1_dropShadow_1370_65755" result="shape"/>
</filter>
<filter id="filter2_d_1370_65755" x="2.15173e-05" y="0.000169992" width="620.892" height="597.997" filterUnits="userSpaceOnUse" color-interpolation-filters="sRGB">
<feFlood flood-opacity="0" result="BackgroundImageFix"/>
<feColorMatrix in="SourceAlpha" type="matrix" values="0 0 0 0 0 0 0 0 0 0 0 0 0 0 0 0 0 0 127 0" result="hardAlpha"/>
<feOffset dx="-0.951331" dy="2.85399"/>
<feGaussianBlur stdDeviation="2.37833"/>
<feComposite in2="hardAlpha" operator="out"/>
<feColorMatrix type="matrix" values="0 0 0 0 0 0 0 0 0 0 0 0 0 0 0 0 0 0 0.1 0"/>
<feBlend mode="normal" in2="BackgroundImageFix" result="effect1_dropShadow_1370_65755"/>
<feBlend mode="normal" in="SourceGraphic" in2="effect1_dropShadow_1370_65755" result="shape"/>
</filter>
<filter id="filter3_d_1370_65755" x="701.318" y="193.004" width="189.617" height="59.1333" filterUnits="userSpaceOnUse" color-interpolation-filters="sRGB">
<feFlood flood-opacity="0" result="BackgroundImageFix"/>
<feColorMatrix in="SourceAlpha" type="matrix" values="0 0 0 0 0 0 0 0 0 0 0 0 0 0 0 0 0 0 127 0" result="hardAlpha"/>
<feOffset dx="-2" dy="6"/>
<feGaussianBlur stdDeviation="5"/>
<feComposite in2="hardAlpha" operator="out"/>
<feColorMatrix type="matrix" values="0 0 0 0 0 0 0 0 0 0 0 0 0 0 0 0 0 0 0.1 0"/>
<feBlend mode="normal" in2="BackgroundImageFix" result="effect1_dropShadow_1370_65755"/>
<feBlend mode="normal" in="SourceGraphic" in2="effect1_dropShadow_1370_65755" result="shape"/>
</filter>
<clipPath id="clip0_1370_65755">
<rect width="118" height="24" fill="white" transform="translate(739.289 204.571)"/>
</clipPath>
</defs>
</svg>
