<svg shape-rendering="geometricPrecision" width="1001" height="598" viewBox="0 0 1001 598" fill="none" xmlns="http://www.w3.org/2000/svg">
<g id="Frame 236">
<rect x="-13.792" y="-2855.93" width="1046.86" height="4118.98" rx="4.5" stroke="#9747FF" stroke-dasharray="10 5"/>
<g id="Property 1=Default">
<g id="Vector">
<path d="M991.887 20.6711C990.87 21.2853 989.484 22.5341 989.484 22.5341C989.484 22.5341 988.033 21.2914 986.986 20.6711C986.248 20.2339 985.728 19.966 984.985 19.6822C984.405 19.4603 983.25 19.1931 982.628 19.1931C983.25 19.1931 984.405 18.9259 984.986 18.704C985.728 18.4202 986.248 18.1523 986.986 17.7151C988.033 17.0949 989.484 15.8521 989.484 15.8521C989.484 15.8521 990.871 17.1009 991.887 17.7151C992.665 18.1855 993.804 18.6328 994.572 18.9096C995.119 19.1065 995.696 19.1931 996.277 19.1931C995.696 19.1931 995.118 19.2797 994.572 19.4766C993.804 19.7535 992.665 20.2008 991.887 20.6711Z" fill="#0B0B0B"/>
<path d="M980.465 32.0932C981.079 31.077 982.327 29.6902 982.327 29.6902C982.327 29.6902 981.085 28.2393 980.465 27.1923C980.027 26.4544 979.738 25.9268 979.454 25.184C979.17 24.4413 978.986 23.4563 978.986 22.8346C978.986 23.4563 978.803 24.4413 978.519 25.184C978.235 25.9267 977.946 26.4543 977.509 27.1923C976.888 28.2393 975.646 29.6902 975.646 29.6902C975.646 29.6902 976.894 31.0769 977.509 32.0932C977.979 32.8715 978.426 34.0102 978.703 34.7785C978.9 35.325 978.986 35.9026 978.986 36.4834C978.986 35.9026 979.073 35.325 979.27 34.7786C979.547 34.0103 979.994 32.8716 980.465 32.0932Z" fill="#0B0B0B"/>
<path d="M966.086 17.7151C967.103 17.1009 968.489 15.8521 968.489 15.8521C968.489 15.8521 969.94 17.0948 970.987 17.7151C971.725 18.1523 972.245 18.4202 972.988 18.704C973.564 18.9243 974.707 19.1893 975.332 19.1931C974.707 19.1968 973.564 19.4618 972.988 19.6822C972.245 19.966 971.725 20.2339 970.987 20.6711C969.94 21.2914 968.49 22.5341 968.49 22.5341C968.49 22.5341 967.103 21.2853 966.087 20.6711C965.308 20.2007 964.17 19.7534 963.401 19.4766C962.855 19.2797 962.277 19.1931 961.696 19.1931C962.277 19.1931 962.855 19.1065 963.401 18.9096C964.169 18.6328 965.308 18.1855 966.086 17.7151Z" fill="#0B0B0B"/>
<path d="M977.509 6.29301C976.894 7.30925 975.646 8.696 975.646 8.696C975.646 8.696 976.888 10.1469 977.509 11.1939C977.946 11.9319 978.235 12.4595 978.519 13.2022C978.792 13.9171 978.973 14.8565 978.986 15.4802C978.986 15.5045 978.987 15.5283 978.987 15.5516C978.987 14.9299 979.17 13.945 979.454 13.2022C979.738 12.4595 980.028 11.9319 980.465 11.1939C981.085 10.1469 982.328 8.69604 982.328 8.69604C982.328 8.69604 981.079 7.30929 980.465 6.29305C979.994 5.51471 979.547 4.37598 979.27 3.60768C979.073 3.06124 978.987 2.48367 978.987 1.90283C978.987 2.48367 978.9 3.0612 978.703 3.60765C978.426 4.37595 977.979 5.51467 977.509 6.29301Z" fill="#0B0B0B"/>
<path d="M996.123 19.1931C995.548 19.1931 994.975 19.2789 994.434 19.4741C993.672 19.7485 992.543 20.1918 991.772 20.6581C990.765 21.2668 989.39 22.5046 989.39 22.5046C989.39 22.5046 987.952 21.2728 986.914 20.6581C986.183 20.2247 985.668 19.9592 984.932 19.6779C984.356 19.4579 983.211 19.1931 982.595 19.1931H978.986M978.986 19.1931L978.986 22.8024C978.986 23.4186 979.168 24.3949 979.449 25.1311C979.731 25.8672 980.017 26.3902 980.451 27.1216C981.066 28.1594 982.297 29.5975 982.297 29.5975C982.297 29.5975 981.06 30.972 980.451 31.9792C979.985 32.7507 979.541 33.8794 979.267 34.6409C979.072 35.1825 978.986 35.7549 978.986 36.3307M978.986 19.1931V15.4802M978.986 19.1931H975.332M975.345 19.1931C975.341 19.1931 975.336 19.193 975.332 19.1931M978.986 15.4802C978.973 14.8565 978.792 13.9171 978.519 13.2022C978.235 12.4595 977.946 11.9319 977.509 11.1939C976.888 10.1469 975.646 8.696 975.646 8.696C975.646 8.696 976.894 7.30925 977.509 6.29301C977.979 5.51467 978.426 4.37595 978.703 3.60765C978.9 3.0612 978.987 2.48367 978.987 1.90283C978.987 2.48367 979.073 3.06124 979.27 3.60768C979.547 4.37598 979.994 5.51471 980.465 6.29305C981.079 7.30929 982.328 8.69604 982.328 8.69604C982.328 8.69604 981.085 10.1469 980.465 11.1939C980.028 11.9319 979.738 12.4595 979.454 13.2022C979.17 13.945 978.987 14.9299 978.987 15.5516C978.987 15.5283 978.986 15.5045 978.986 15.4802ZM975.332 19.1931C974.707 19.1968 973.564 19.4618 972.988 19.6822C972.245 19.966 971.725 20.2339 970.987 20.6711C969.94 21.2914 968.49 22.5341 968.49 22.5341C968.49 22.5341 967.103 21.2853 966.087 20.6711C965.308 20.2007 964.17 19.7534 963.401 19.4766C962.855 19.2797 962.277 19.1931 961.696 19.1931C962.277 19.1931 962.855 19.1065 963.401 18.9096C964.169 18.6328 965.308 18.1855 966.086 17.7151C967.103 17.1009 968.489 15.8521 968.489 15.8521C968.489 15.8521 969.94 17.0948 970.987 17.7151C971.725 18.1523 972.245 18.4202 972.988 18.704C973.564 18.9243 974.707 19.1893 975.332 19.1931ZM991.887 20.6711C990.87 21.2853 989.484 22.5341 989.484 22.5341C989.484 22.5341 988.033 21.2914 986.986 20.6711C986.248 20.2339 985.728 19.966 984.985 19.6822C984.405 19.4603 983.25 19.1931 982.628 19.1931C983.25 19.1931 984.405 18.9259 984.986 18.704C985.728 18.4202 986.248 18.1523 986.986 17.7151C988.033 17.0949 989.484 15.8521 989.484 15.8521C989.484 15.8521 990.871 17.1009 991.887 17.7151C992.665 18.1855 993.804 18.6328 994.572 18.9096C995.119 19.1065 995.696 19.1931 996.277 19.1931C995.696 19.1931 995.118 19.2797 994.572 19.4766C993.804 19.7535 992.665 20.2008 991.887 20.6711ZM980.465 32.0932C981.079 31.077 982.327 29.6902 982.327 29.6902C982.327 29.6902 981.085 28.2393 980.465 27.1923C980.027 26.4544 979.738 25.9268 979.454 25.184C979.17 24.4413 978.986 23.4563 978.986 22.8346C978.986 23.4563 978.803 24.4413 978.519 25.184C978.235 25.9267 977.946 26.4543 977.509 27.1923C976.888 28.2393 975.646 29.6902 975.646 29.6902C975.646 29.6902 976.894 31.0769 977.509 32.0932C977.979 32.8715 978.426 34.0102 978.703 34.7785C978.9 35.325 978.986 35.9026 978.986 36.4834C978.986 35.9026 979.073 35.325 979.27 34.7786C979.547 34.0103 979.994 32.8716 980.465 32.0932Z" stroke="#7E7E7E" stroke-width="1" vector-effect="non-scaling-stroke"/>
</g>
<g id="Vector_2">
<path d="M975.377 508.557H978.987V504.947C978.987 504.331 978.804 503.355 978.523 502.619C978.242 501.882 977.955 501.359 977.522 500.628C976.907 499.59 975.675 498.152 975.675 498.152C975.675 498.152 976.913 496.778 977.522 495.77C977.988 494.999 978.431 493.87 978.706 493.109C978.901 492.567 978.987 491.995 978.987 491.419L978.987 36.3307C978.987 35.7549 978.901 35.1825 978.706 34.6409C978.431 33.8794 977.988 32.7507 977.522 31.9792C976.913 30.972 975.675 29.5975 975.675 29.5975C975.675 29.5975 976.907 28.1594 977.522 27.1216C977.955 26.3902 978.242 25.8672 978.523 25.1311C978.805 24.3949 978.987 23.4186 978.987 22.8024L978.987 19.1931H975.377C974.761 19.1931 973.616 19.4579 973.041 19.6779C972.305 19.9592 971.79 20.2247 971.058 20.6581C970.02 21.2728 968.582 22.5046 968.582 22.5046C968.582 22.5046 967.208 21.2668 966.201 20.6581C965.429 20.1918 964.301 19.7485 963.539 19.4741C962.997 19.2789 962.425 19.1931 961.849 19.1931H633.646C633.07 19.1931 632.498 19.2789 631.956 19.4741C631.195 19.7485 630.066 20.1918 629.294 20.6581C628.287 21.2668 626.913 22.5046 626.913 22.5046C626.913 22.5046 625.475 21.2728 624.437 20.6581C623.705 20.2247 623.19 19.9592 622.454 19.6779C621.879 19.4579 620.734 19.1931 620.118 19.1931H616.508L616.508 22.8024C616.508 23.4186 616.69 24.3949 616.972 25.1311C617.253 25.8672 617.54 26.3902 617.973 27.1216C618.588 28.1594 619.82 29.5975 619.82 29.5975C619.82 29.5975 618.582 30.972 617.973 31.9792C617.507 32.7507 617.064 33.8794 616.789 34.6409C616.594 35.1825 616.508 35.7549 616.508 36.3307V491.419C616.508 491.995 616.594 492.567 616.789 493.109C617.064 493.87 617.507 494.999 617.973 495.77C618.582 496.778 619.82 498.152 619.82 498.152C619.82 498.152 618.588 499.59 617.973 500.628C617.54 501.359 617.253 501.882 616.972 502.618C616.69 503.355 616.508 504.331 616.508 504.947L616.508 508.556H620.118C620.734 508.556 621.879 508.292 622.454 508.072C623.19 507.79 623.705 507.525 624.437 507.091C625.475 506.477 626.913 505.245 626.913 505.245C626.913 505.245 628.287 506.483 629.294 507.091C630.066 507.558 631.195 508.001 631.956 508.275C632.498 508.471 633.07 508.556 633.646 508.556L961.849 508.557C962.425 508.557 962.997 508.471 963.539 508.276C964.3 508.001 965.429 507.558 966.2 507.092C967.208 506.483 968.582 505.245 968.582 505.245C968.582 505.245 970.02 506.477 971.058 507.092C971.789 507.525 972.304 507.79 973.041 508.072C973.616 508.292 974.761 508.557 975.377 508.557Z" fill="#090809"/>
<path d="M629.409 20.6711C628.393 21.2853 627.006 22.5341 627.006 22.5341C627.006 22.5341 625.555 21.2914 624.508 20.6711C623.77 20.2339 623.251 19.966 622.508 19.6822C621.927 19.4603 620.772 19.1931 620.15 19.1931C620.772 19.1931 621.927 18.9259 622.508 18.704C623.251 18.4202 623.77 18.1523 624.508 17.7151C625.555 17.0949 627.006 15.8521 627.006 15.8521C627.006 15.8521 628.393 17.1009 629.409 17.7151C630.188 18.1855 631.326 18.6328 632.095 18.9096C632.641 19.1065 633.218 19.1931 633.799 19.1931C633.218 19.1931 632.641 19.2797 632.094 19.4766C631.326 19.7535 630.187 20.2008 629.409 20.6711Z" fill="#0B0B0B"/>
<path d="M617.987 32.0932C618.601 31.077 619.85 29.6902 619.85 29.6902C619.85 29.6902 618.607 28.2393 617.987 27.1923C617.55 26.4544 617.26 25.9268 616.977 25.184C616.693 24.4413 616.509 23.4563 616.509 22.8346C616.509 23.4563 616.325 24.4413 616.042 25.184C615.758 25.9267 615.468 26.4543 615.031 27.1923C614.411 28.2393 613.168 29.6902 613.168 29.6902C613.168 29.6902 614.417 31.0769 615.031 32.0932C615.501 32.8715 615.949 34.0102 616.226 34.7785C616.423 35.325 616.509 35.9026 616.509 36.4834C616.509 35.9026 616.596 35.325 616.792 34.7786C617.069 34.0103 617.517 32.8716 617.987 32.0932Z" fill="#0B0B0B"/>
<path d="M603.609 17.7151C604.625 17.1009 606.012 15.8521 606.012 15.8521C606.012 15.8521 607.463 17.0948 608.51 17.7151C609.248 18.1523 609.767 18.4202 610.51 18.704C611.087 18.9243 612.23 19.1893 612.854 19.1931C612.23 19.1968 611.087 19.4618 610.51 19.6822C609.767 19.966 609.248 20.2339 608.51 20.6711C607.463 21.2914 606.012 22.5341 606.012 22.5341C606.012 22.5341 604.625 21.2853 603.609 20.6711C602.831 20.2007 601.692 19.7534 600.924 19.4766C600.377 19.2797 599.8 19.1931 599.219 19.1931C599.8 19.1931 600.377 19.1065 600.924 18.9096C601.692 18.6328 602.831 18.1855 603.609 17.7151Z" fill="#0B0B0B"/>
<path d="M615.031 6.29301C614.417 7.30925 613.168 8.696 613.168 8.696C613.168 8.696 614.411 10.1469 615.031 11.1939C615.468 11.9319 615.758 12.4595 616.041 13.2022C616.315 13.9171 616.495 14.8565 616.508 15.4802C616.509 15.5045 616.509 15.5283 616.509 15.5516C616.509 14.9299 616.693 13.945 616.977 13.2022C617.261 12.4595 617.55 11.9319 617.987 11.1939C618.607 10.1469 619.85 8.69604 619.85 8.69604C619.85 8.69604 618.601 7.30929 617.987 6.29305C617.517 5.51471 617.07 4.37598 616.793 3.60768C616.596 3.06124 616.509 2.48367 616.509 1.90283C616.509 2.48367 616.422 3.0612 616.226 3.60765C615.949 4.37595 615.501 5.51467 615.031 6.29301Z" fill="#0B0B0B"/>
<path d="M616.508 19.1931H620.118C620.734 19.1931 621.879 19.4579 622.454 19.6779C623.19 19.9592 623.705 20.2247 624.437 20.6581C625.475 21.2728 626.913 22.5046 626.913 22.5046C626.913 22.5046 628.287 21.2668 629.294 20.6581C630.066 20.1918 631.195 19.7485 631.956 19.4741C632.498 19.2789 633.07 19.1931 633.646 19.1931H961.849C962.425 19.1931 962.997 19.2789 963.539 19.4741C964.301 19.7485 965.429 20.1918 966.201 20.6581C967.208 21.2668 968.582 22.5046 968.582 22.5046C968.582 22.5046 970.02 21.2728 971.058 20.6581C971.79 20.2247 972.305 19.9592 973.041 19.6779C973.616 19.4579 974.761 19.1931 975.377 19.1931H978.987L978.987 22.8024C978.987 23.4186 978.805 24.3949 978.523 25.1311C978.242 25.8672 977.955 26.3902 977.522 27.1216C976.907 28.1594 975.675 29.5975 975.675 29.5975C975.675 29.5975 976.913 30.972 977.522 31.9792C977.988 32.7507 978.431 33.8794 978.706 34.6409C978.901 35.1825 978.987 35.7549 978.987 36.3307L978.987 491.419C978.987 491.995 978.901 492.567 978.706 493.109C978.431 493.87 977.988 494.999 977.522 495.77C976.913 496.778 975.675 498.152 975.675 498.152C975.675 498.152 976.907 499.59 977.522 500.628C977.955 501.359 978.242 501.882 978.523 502.619C978.804 503.355 978.987 504.331 978.987 504.947V508.557H975.377C974.761 508.557 973.616 508.292 973.041 508.072C972.304 507.791 971.789 507.525 971.058 507.092C970.02 506.477 968.582 505.245 968.582 505.245C968.582 505.245 967.208 506.483 966.2 507.092C965.429 507.558 964.3 508.001 963.539 508.276C962.997 508.471 962.425 508.557 961.849 508.557L633.646 508.556C633.07 508.556 632.498 508.471 631.956 508.275C631.195 508.001 630.066 507.558 629.294 507.091C628.287 506.483 626.913 505.245 626.913 505.245C626.913 505.245 625.475 506.477 624.437 507.091C623.705 507.525 623.19 507.79 622.454 508.072C621.879 508.292 620.734 508.556 620.118 508.556H616.508L616.508 504.947C616.508 504.331 616.69 503.355 616.972 502.618C617.253 501.882 617.54 501.359 617.973 500.628C618.588 499.59 619.82 498.152 619.82 498.152C619.82 498.152 618.582 496.778 617.973 495.77C617.507 494.999 617.064 493.87 616.789 493.109C616.594 492.567 616.508 491.995 616.508 491.419V36.3307C616.508 35.7549 616.594 35.1825 616.789 34.6409C617.064 33.8794 617.507 32.7507 617.973 31.9792C618.582 30.972 619.82 29.5975 619.82 29.5975C619.82 29.5975 618.588 28.1594 617.973 27.1216C617.54 26.3902 617.253 25.8672 616.972 25.1311C616.69 24.3949 616.508 23.4186 616.508 22.8024L616.508 19.1931ZM616.508 19.1931V15.4802M616.508 19.1931H612.854M612.868 19.1931C612.863 19.1931 612.859 19.193 612.854 19.1931M616.508 15.4802C616.495 14.8565 616.315 13.9171 616.041 13.2022C615.758 12.4595 615.468 11.9319 615.031 11.1939C614.411 10.1469 613.168 8.696 613.168 8.696C613.168 8.696 614.417 7.30925 615.031 6.29301C615.501 5.51467 615.949 4.37595 616.226 3.60765C616.422 3.0612 616.509 2.48367 616.509 1.90283C616.509 2.48367 616.596 3.06124 616.793 3.60768C617.07 4.37598 617.517 5.51471 617.987 6.29305C618.601 7.30929 619.85 8.69604 619.85 8.69604C619.85 8.69604 618.607 10.1469 617.987 11.1939C617.55 11.9319 617.261 12.4595 616.977 13.2022C616.693 13.945 616.509 14.9299 616.509 15.5516C616.509 15.5283 616.509 15.5045 616.508 15.4802ZM612.854 19.1931C612.23 19.1968 611.087 19.4618 610.51 19.6822C609.767 19.966 609.248 20.2339 608.51 20.6711C607.463 21.2914 606.012 22.5341 606.012 22.5341C606.012 22.5341 604.625 21.2853 603.609 20.6711C602.831 20.2007 601.692 19.7534 600.924 19.4766C600.377 19.2797 599.8 19.1931 599.219 19.1931C599.8 19.1931 600.377 19.1065 600.924 18.9096C601.692 18.6328 602.831 18.1855 603.609 17.7151C604.625 17.1009 606.012 15.8521 606.012 15.8521C606.012 15.8521 607.463 17.0948 608.51 17.7151C609.248 18.1523 609.767 18.4202 610.51 18.704C611.087 18.9243 612.23 19.1893 612.854 19.1931ZM629.409 20.6711C628.393 21.2853 627.006 22.5341 627.006 22.5341C627.006 22.5341 625.555 21.2914 624.508 20.6711C623.77 20.2339 623.251 19.966 622.508 19.6822C621.927 19.4603 620.772 19.1931 620.15 19.1931C620.772 19.1931 621.927 18.9259 622.508 18.704C623.251 18.4202 623.77 18.1523 624.508 17.7151C625.555 17.0949 627.006 15.8521 627.006 15.8521C627.006 15.8521 628.393 17.1009 629.409 17.7151C630.188 18.1855 631.326 18.6328 632.095 18.9096C632.641 19.1065 633.218 19.1931 633.799 19.1931C633.218 19.1931 632.641 19.2797 632.094 19.4766C631.326 19.7535 630.187 20.2008 629.409 20.6711ZM617.987 32.0932C618.601 31.077 619.85 29.6902 619.85 29.6902C619.85 29.6902 618.607 28.2393 617.987 27.1923C617.55 26.4544 617.26 25.9268 616.977 25.184C616.693 24.4413 616.509 23.4563 616.509 22.8346C616.509 23.4563 616.325 24.4413 616.042 25.184C615.758 25.9267 615.468 26.4543 615.031 27.1923C614.411 28.2393 613.168 29.6902 613.168 29.6902C613.168 29.6902 614.417 31.0769 615.031 32.0932C615.501 32.8715 615.949 34.0102 616.226 34.7785C616.423 35.325 616.509 35.9026 616.509 36.4834C616.509 35.9026 616.596 35.325 616.792 34.7786C617.069 34.0103 617.517 32.8716 617.987 32.0932Z" stroke="#7E7E7E" stroke-width="1" vector-effect="non-scaling-stroke"/>
</g>
<g id="Vector_3">
<path d="M612.977 589.887H616.587V586.278C616.587 585.661 616.404 584.685 616.123 583.949C615.842 583.213 615.555 582.69 615.122 581.958C614.507 580.921 613.275 579.482 613.275 579.482C613.275 579.482 614.513 578.108 615.122 577.101C615.588 576.329 616.031 575.201 616.306 574.439C616.501 573.897 616.587 573.325 616.587 572.749L616.587 36.3307C616.587 35.7549 616.501 35.1825 616.306 34.6409C616.031 33.8794 615.588 32.7507 615.122 31.9792C614.513 30.972 613.275 29.5975 613.275 29.5975C613.275 29.5975 614.507 28.1594 615.122 27.1216C615.555 26.3902 615.842 25.8672 616.123 25.1311C616.405 24.3949 616.587 23.4186 616.587 22.8024L616.587 19.1931H612.977C612.361 19.1931 611.216 19.4579 610.641 19.6779C609.905 19.9592 609.39 20.2247 608.658 20.6581C607.62 21.2728 606.182 22.5046 606.182 22.5046C606.182 22.5046 604.808 21.2668 603.801 20.6581C603.029 20.1918 601.9 19.7485 601.139 19.4741C600.597 19.2789 600.025 19.1931 599.449 19.1931H40.1351C39.5594 19.1931 38.987 19.2789 38.4453 19.4741C37.6838 19.7485 36.5552 20.1918 35.7837 20.6581C34.7764 21.2668 33.4019 22.5046 33.4019 22.5046C33.4019 22.5046 31.9638 21.2728 30.9261 20.6581C30.1946 20.2247 29.6797 19.9592 28.9435 19.6779C28.368 19.4579 27.2231 19.1931 26.6069 19.1931H22.9975L22.9975 22.8024C22.9975 23.4186 23.1797 24.3949 23.461 25.1311C23.7423 25.8672 24.0292 26.3902 24.4625 27.1216C25.0773 28.1594 26.309 29.5975 26.309 29.5975C26.309 29.5975 25.0713 30.972 24.4625 31.9792C23.9963 32.7507 23.5529 33.8794 23.2785 34.6409C23.0834 35.1825 22.9975 35.7549 22.9975 36.3307V572.749C22.9975 573.325 23.0834 573.897 23.2785 574.439C23.5529 575.2 23.9963 576.329 24.4625 577.101C25.0713 578.108 26.309 579.482 26.309 579.482C26.309 579.482 25.0773 580.92 24.4625 581.958C24.0292 582.69 23.7423 583.213 23.461 583.949C23.1797 584.685 22.9975 585.661 22.9975 586.277L22.9975 589.887H26.6069C27.2231 589.887 28.368 589.622 28.9435 589.402C29.6797 589.121 30.1946 588.855 30.9261 588.422C31.9638 587.807 33.4019 586.575 33.4019 586.575C33.4019 586.575 34.7764 587.813 35.7837 588.422C36.5552 588.888 37.6838 589.331 38.4453 589.606C38.987 589.801 39.5594 589.887 40.1351 589.887L599.449 589.887C600.025 589.887 600.597 589.801 601.139 589.606C601.9 589.331 603.029 588.888 603.8 588.422C604.808 587.813 606.182 586.575 606.182 586.575C606.182 586.575 607.62 587.807 608.658 588.422C609.389 588.855 609.904 589.121 610.641 589.402C611.216 589.622 612.361 589.887 612.977 589.887Z" fill="#090809"/>
<path d="M35.8983 20.6711C34.8821 21.2853 33.4953 22.5341 33.4953 22.5341C33.4953 22.5341 32.0444 21.2914 30.9974 20.6711C30.2595 20.2339 29.7399 19.966 28.9972 19.6822C28.4165 19.4603 27.2614 19.1931 26.6397 19.1931C27.2614 19.1931 28.4167 18.9259 28.9974 18.704C29.7401 18.4202 30.2597 18.1523 30.9976 17.7151C32.0446 17.0949 33.4955 15.8521 33.4955 15.8521C33.4955 15.8521 34.8823 17.1009 35.8985 17.7151C36.6768 18.1855 37.8156 18.6328 38.5839 18.9096C39.1303 19.1065 39.7077 19.1931 40.2885 19.1931C39.7077 19.1931 39.1301 19.2797 38.5837 19.4766C37.8154 19.7535 36.6766 20.2008 35.8983 20.6711Z" fill="#090809"/>
<path d="M24.4762 32.0932C25.0904 31.077 26.3392 29.6902 26.3392 29.6902C26.3392 29.6902 25.0965 28.2393 24.4762 27.1923C24.039 26.4544 23.7496 25.9268 23.4658 25.184C23.182 24.4413 22.9982 23.4563 22.9982 22.8346C22.9982 23.4563 22.8146 24.4413 22.5308 25.184C22.247 25.9267 21.9576 26.4543 21.5204 27.1923C20.9001 28.2393 19.6574 29.6902 19.6574 29.6902C19.6574 29.6902 20.9062 31.0769 21.5204 32.0932C21.9908 32.8715 22.438 34.0102 22.7149 34.7785C22.9118 35.325 22.9982 35.9026 22.9982 36.4834C22.9982 35.9026 23.0848 35.325 23.2817 34.7786C23.5586 34.0103 24.0058 32.8716 24.4762 32.0932Z" fill="#090809"/>
<path d="M10.0982 17.7151C11.1144 17.1009 12.5012 15.8521 12.5012 15.8521C12.5012 15.8521 13.9521 17.0948 14.9991 17.7151C15.737 18.1523 16.2566 18.4202 16.9993 18.704C17.5759 18.9243 18.7188 19.1893 19.3435 19.1931C18.7188 19.1968 17.576 19.4618 16.9994 19.6822C16.2567 19.966 15.7371 20.2339 14.9992 20.6711C13.9522 21.2914 12.5013 22.5341 12.5013 22.5341C12.5013 22.5341 11.1145 21.2853 10.0983 20.6711C9.31995 20.2007 8.18122 19.7534 7.41292 19.4766C6.86648 19.2797 6.28884 19.1931 5.70801 19.1931C6.28884 19.1931 6.86638 19.1065 7.41282 18.9096C8.18112 18.6328 9.31985 18.1855 10.0982 17.7151Z" fill="#090809"/>
<path d="M21.5203 6.29301C20.9061 7.30925 19.6573 8.696 19.6573 8.696C19.6573 8.696 20.9 10.1469 21.5203 11.1939C21.9575 11.9319 22.2469 12.4595 22.5307 13.2022C22.8039 13.9171 22.9844 14.8565 22.9975 15.4802C22.998 15.5045 22.9983 15.5283 22.9983 15.5516C22.9983 14.9299 23.1822 13.945 23.466 13.2022C23.7498 12.4595 24.0392 11.9319 24.4764 11.1939C25.0967 10.1469 26.3394 8.69604 26.3394 8.69604C26.3394 8.69604 25.0906 7.30929 24.4764 6.29305C24.006 5.51471 23.5588 4.37598 23.2819 3.60768C23.085 3.06124 22.9983 2.48367 22.9983 1.90283C22.9983 2.48367 22.9117 3.0612 22.7148 3.60765C22.4379 4.37595 21.9907 5.51467 21.5203 6.29301Z" fill="#090809"/>
<path d="M22.9975 19.1931H26.6069C27.2231 19.1931 28.368 19.4579 28.9435 19.6779C29.6797 19.9592 30.1946 20.2247 30.9261 20.6581C31.9638 21.2728 33.4019 22.5046 33.4019 22.5046C33.4019 22.5046 34.7764 21.2668 35.7837 20.6581C36.5552 20.1918 37.6838 19.7485 38.4453 19.4741C38.987 19.2789 39.5594 19.1931 40.1351 19.1931H599.449C600.025 19.1931 600.597 19.2789 601.139 19.4741C601.9 19.7485 603.029 20.1918 603.801 20.6581C604.808 21.2668 606.182 22.5046 606.182 22.5046C606.182 22.5046 607.62 21.2728 608.658 20.6581C609.39 20.2247 609.905 19.9592 610.641 19.6779C611.216 19.4579 612.361 19.1931 612.977 19.1931H616.587L616.587 22.8024C616.587 23.4186 616.405 24.3949 616.123 25.1311C615.842 25.8672 615.555 26.3902 615.122 27.1216C614.507 28.1594 613.275 29.5975 613.275 29.5975C613.275 29.5975 614.513 30.972 615.122 31.9792C615.588 32.7507 616.031 33.8794 616.306 34.6409C616.501 35.1825 616.587 35.7549 616.587 36.3307L616.587 572.749C616.587 573.325 616.501 573.897 616.306 574.439C616.031 575.201 615.588 576.329 615.122 577.101C614.513 578.108 613.275 579.482 613.275 579.482C613.275 579.482 614.507 580.921 615.122 581.958C615.555 582.69 615.842 583.213 616.123 583.949C616.404 584.685 616.587 585.661 616.587 586.278V589.887H612.977C612.361 589.887 611.216 589.622 610.641 589.402C609.904 589.121 609.389 588.855 608.658 588.422C607.62 587.807 606.182 586.575 606.182 586.575C606.182 586.575 604.808 587.813 603.8 588.422C603.029 588.888 601.9 589.331 601.139 589.606C600.597 589.801 600.025 589.887 599.449 589.887L40.1351 589.887C39.5594 589.887 38.987 589.801 38.4453 589.606C37.6838 589.331 36.5552 588.888 35.7837 588.422C34.7764 587.813 33.4019 586.575 33.4019 586.575C33.4019 586.575 31.9638 587.807 30.9261 588.422C30.1946 588.855 29.6797 589.121 28.9435 589.402C28.368 589.622 27.2231 589.887 26.6069 589.887H22.9975L22.9975 586.277C22.9975 585.661 23.1797 584.685 23.461 583.949C23.7423 583.213 24.0292 582.69 24.4625 581.958C25.0773 580.92 26.309 579.482 26.309 579.482C26.309 579.482 25.0713 578.108 24.4625 577.101C23.9963 576.329 23.5529 575.2 23.2785 574.439C23.0834 573.897 22.9975 573.325 22.9975 572.749V36.3307C22.9975 35.7549 23.0834 35.1825 23.2785 34.6409C23.5529 33.8794 23.9963 32.7507 24.4625 31.9792C25.0713 30.972 26.309 29.5975 26.309 29.5975C26.309 29.5975 25.0773 28.1594 24.4625 27.1216C24.0292 26.3902 23.7423 25.8672 23.461 25.1311C23.1797 24.3949 22.9975 23.4186 22.9975 22.8024L22.9975 19.1931ZM22.9975 19.1931V15.4802M22.9975 19.1931H19.3435M19.3568 19.1931C19.3524 19.1931 19.3479 19.193 19.3435 19.1931M22.9975 15.4802C22.9844 14.8565 22.8038 13.9171 22.5307 13.2022C22.2469 12.4595 21.9575 11.9319 21.5203 11.1939C20.9 10.1469 19.6573 8.696 19.6573 8.696C19.6573 8.696 20.9061 7.30925 21.5203 6.29301C21.9907 5.51467 22.4379 4.37595 22.7148 3.60765C22.9117 3.0612 22.9983 2.48367 22.9983 1.90283C22.9983 2.48367 23.085 3.06124 23.2819 3.60768C23.5588 4.37598 24.006 5.51471 24.4764 6.29305C25.0906 7.30929 26.3394 8.69604 26.3394 8.69604C26.3394 8.69604 25.0967 10.1469 24.4764 11.1939C24.0392 11.9319 23.7498 12.4595 23.466 13.2022C23.1822 13.945 22.9983 14.9299 22.9983 15.5516C22.9983 15.5283 22.998 15.5045 22.9975 15.4802ZM19.3435 19.1931C18.7188 19.1968 17.576 19.4618 16.9994 19.6822C16.2567 19.966 15.7371 20.2339 14.9992 20.6711C13.9522 21.2914 12.5013 22.5341 12.5013 22.5341C12.5013 22.5341 11.1145 21.2853 10.0983 20.6711C9.31995 20.2007 8.18122 19.7534 7.41292 19.4766C6.86648 19.2797 6.28884 19.1931 5.70801 19.1931C6.28884 19.1931 6.86638 19.1065 7.41282 18.9096C8.18112 18.6328 9.31985 18.1855 10.0982 17.7151C11.1144 17.1009 12.5012 15.8521 12.5012 15.8521C12.5012 15.8521 13.9521 17.0948 14.9991 17.7151C15.737 18.1523 16.2566 18.4202 16.9993 18.704C17.5759 18.9243 18.7188 19.1893 19.3435 19.1931ZM35.8983 20.6711C34.8821 21.2853 33.4953 22.5341 33.4953 22.5341C33.4953 22.5341 32.0444 21.2914 30.9974 20.6711C30.2595 20.2339 29.7399 19.966 28.9972 19.6822C28.4165 19.4603 27.2614 19.1931 26.6397 19.1931C27.2614 19.1931 28.4167 18.9259 28.9974 18.704C29.7401 18.4202 30.2597 18.1523 30.9976 17.7151C32.0446 17.0949 33.4955 15.8521 33.4955 15.8521C33.4955 15.8521 34.8823 17.1009 35.8985 17.7151C36.6768 18.1855 37.8156 18.6328 38.5839 18.9096C39.1303 19.1065 39.7077 19.1931 40.2885 19.1931C39.7077 19.1931 39.1301 19.2797 38.5837 19.4766C37.8154 19.7535 36.6766 20.2008 35.8983 20.6711ZM24.4762 32.0932C25.0904 31.077 26.3392 29.6902 26.3392 29.6902C26.3392 29.6902 25.0965 28.2393 24.4762 27.1923C24.039 26.4544 23.7496 25.9268 23.4658 25.184C23.182 24.4413 22.9982 23.4563 22.9982 22.8346C22.9982 23.4563 22.8146 24.4413 22.5308 25.184C22.247 25.9267 21.9576 26.4543 21.5204 27.1923C20.9001 28.2393 19.6574 29.6902 19.6574 29.6902C19.6574 29.6902 20.9062 31.0769 21.5204 32.0932C21.9908 32.8715 22.438 34.0102 22.7149 34.7785C22.9118 35.325 22.9982 35.9026 22.9982 36.4834C22.9982 35.9026 23.0848 35.325 23.2817 34.7786C23.5586 34.0103 24.0058 32.8716 24.4762 32.0932Z" stroke="#7E7E7E" stroke-width="1" vector-effect="non-scaling-stroke"/>
</g>
</g>
</g>
<defs>
<filter id="filter0_d_1370_65755" x="955.988" y="0.000169992" width="44.0934" height="44.0939" filterUnits="userSpaceOnUse" color-interpolation-filters="sRGB">
<feFlood flood-opacity="0" result="BackgroundImageFix"/>
<feColorMatrix in="SourceAlpha" type="matrix" values="0 0 0 0 0 0 0 0 0 0 0 0 0 0 0 0 0 0 127 0" result="hardAlpha"/>
<feOffset dx="-0.951331" dy="2.85399"/>
<feGaussianBlur stdDeviation="2.37833"/>
<feComposite in2="hardAlpha" operator="out"/>
<feColorMatrix type="matrix" values="0 0 0 0 0 0 0 0 0 0 0 0 0 0 0 0 0 0 0.1 0"/>
<feBlend mode="normal" in2="BackgroundImageFix" result="effect1_dropShadow_1370_65755"/>
<feBlend mode="normal" in="SourceGraphic" in2="effect1_dropShadow_1370_65755" result="shape"/>
</filter>
<filter id="filter1_d_1370_65755" x="593.511" y="0.000169992" width="389.781" height="516.667" filterUnits="userSpaceOnUse" color-interpolation-filters="sRGB">
<feFlood flood-opacity="0" result="BackgroundImageFix"/>
<feColorMatrix in="SourceAlpha" type="matrix" values="0 0 0 0 0 0 0 0 0 0 0 0 0 0 0 0 0 0 127 0" result="hardAlpha"/>
<feOffset dx="-0.951331" dy="2.85399"/>
<feGaussianBlur stdDeviation="2.37833"/>
<feComposite in2="hardAlpha" operator="out"/>
<feColorMatrix type="matrix" values="0 0 0 0 0 0 0 0 0 0 0 0 0 0 0 0 0 0 0.1 0"/>
<feBlend mode="normal" in2="BackgroundImageFix" result="effect1_dropShadow_1370_65755"/>
<feBlend mode="normal" in="SourceGraphic" in2="effect1_dropShadow_1370_65755" result="shape"/>
</filter>
<filter id="filter2_d_1370_65755" x="2.15173e-05" y="0.000169992" width="620.892" height="597.997" filterUnits="userSpaceOnUse" color-interpolation-filters="sRGB">
<feFlood flood-opacity="0" result="BackgroundImageFix"/>
<feColorMatrix in="SourceAlpha" type="matrix" values="0 0 0 0 0 0 0 0 0 0 0 0 0 0 0 0 0 0 127 0" result="hardAlpha"/>
<feOffset dx="-0.951331" dy="2.85399"/>
<feGaussianBlur stdDeviation="2.37833"/>
<feComposite in2="hardAlpha" operator="out"/>
<feColorMatrix type="matrix" values="0 0 0 0 0 0 0 0 0 0 0 0 0 0 0 0 0 0 0.1 0"/>
<feBlend mode="normal" in2="BackgroundImageFix" result="effect1_dropShadow_1370_65755"/>
<feBlend mode="normal" in="SourceGraphic" in2="effect1_dropShadow_1370_65755" result="shape"/>
</filter>
<filter id="filter3_d_1370_65755" x="701.318" y="438.004" width="189.617" height="59.1333" filterUnits="userSpaceOnUse" color-interpolation-filters="sRGB">
<feFlood flood-opacity="0" result="BackgroundImageFix"/>
<feColorMatrix in="SourceAlpha" type="matrix" values="0 0 0 0 0 0 0 0 0 0 0 0 0 0 0 0 0 0 127 0" result="hardAlpha"/>
<feOffset dx="-2" dy="6"/>
<feGaussianBlur stdDeviation="5"/>
<feComposite in2="hardAlpha" operator="out"/>
<feColorMatrix type="matrix" values="0 0 0 0 0 0 0 0 0 0 0 0 0 0 0 0 0 0 0.1 0"/>
<feBlend mode="normal" in2="BackgroundImageFix" result="effect1_dropShadow_1370_65755"/>
<feBlend mode="normal" in="SourceGraphic" in2="effect1_dropShadow_1370_65755" result="shape"/>
</filter>
<clipPath id="clip0_1370_65755">
<rect width="118" height="24" fill="white" transform="translate(739.289 449.571)"/>
</clipPath>
</defs>
</svg>
