<svg xmlns="http://www.w3.org/2000/svg" viewBox="0 0 175 172" fill="none" aria-hidden="true">
  <path
    id="hotspotPath"
    d="M 4.50 4.50 L 5.50 4.50 L 6.50 4.50 L 7.50 4.50 L 8.50 4.50 L 9.50 4.50 L 10.50 4.50 L 11.50 4.50 L 12.50 4.50 L 13.50 4.50 L 14.50 4.50 L 15.50 4.50 L 16.50 4.50 L 17.50 4.50 L 18.50 4.50 L 19.50 4.50 L 20.50 4.50 L 21.50 4.50 L 22.50 4.50 L 23.50 4.50 L 24.50 4.50 L 25.50 4.50 L 26.50 4.50 L 27.50 4.50 L 28.50 4.50 L 29.50 4.50 L 30.50 4.50 L 31.50 4.50 L 32.50 4.50 L 33.50 4.50 L 34.50 4.50 L 35.50 4.50 L 36.50 4.50 L 37.50 4.50 L 38.50 4.50 L 39.50 4.50 L 40.50 4.50 L 41.50 4.50 L 42.50 4.50 L 43.50 4.50 L 44.50 4.50 L 45.50 4.50 L 46.50 4.50 L 47.50 4.50 L 48.50 4.50 L 49.50 4.50 L 50.50 4.50 L 51.50 4.50 L 52.50 4.50 L 53.50 4.50 L 54.50 4.50 L 55.50 4.50 L 56.50 4.50 L 57.50 4.50 L 58.50 4.50 L 59.50 4.50 L 60.50 4.50 L 61.50 4.50 L 62.50 4.50 L 63.50 4.50 L 64.50 4.50 L 65.50 4.50 L 66.50 4.50 L 67.50 4.50 L 68.50 4.50 L 69.50 4.50 L 70.50 4.50 L 71.50 4.50 L 72.50 4.50 L 73.50 4.50 L 74.50 4.50 L 75.50 4.50 L 76.50 4.50 L 77.50 4.50 L 78.50 4.50 L 79.50 4.50 L 80.50 4.50 L 81.50 4.50 L 82.50 4.50 L 83.50 4.50 L 84.50 4.50 L 85.50 4.50 L 86.50 4.50 L 87.50 4.50 L 88.50 4.50 L 89.50 4.50 L 90.50 4.50 L 91.50 4.50 L 92.50 4.50 L 93.50 4.50 L 94.50 4.50 L 95.50 4.50 L 96.50 4.50 L 97.50 4.50 L 98.50 4.50 L 99.50 4.50 L 100.50 4.50 L 101.50 4.50 L 102.50 4.50 L 103.50 4.50 L 104.50 4.50 L 105.50 4.50 L 106.50 4.50 L 107.50 4.50 L 108.50 4.50 L 109.50 4.50 L 110.50 4.50 L 111.50 4.50 L 112.50 4.50 L 113.50 4.50 L 114.50 4.50 L 115.50 4.50 L 116.50 4.50 L 117.50 4.50 L 118.50 4.50 L 119.50 4.50 L 120.50 4.50 L 121.50 4.50 L 122.50 4.50 L 123.50 4.50 L 124.50 4.50 L 125.50 4.50 L 126.50 4.50 L 127.50 4.50 L 128.50 4.50 L 129.50 4.50 L 130.50 4.50 L 131.50 4.50 L 132.50 4.50 L 133.50 4.50 L 134.50 4.50 L 135.50 4.50 L 136.50 4.50 L 137.50 4.50 L 138.50 4.50 L 139.50 4.50 L 140.50 4.50 L 141.50 4.50 L 142.50 4.50 L 143.50 4.50 L 144.50 4.50 L 145.50 4.50 L 146.50 4.50 L 147.50 4.50 L 148.50 4.50 L 149.50 4.50 L 150.50 4.50 L 151.50 4.50 L 152.50 4.50 L 153.50 4.50 L 154.50 4.50 L 155.50 4.50 L 156.50 4.50 L 157.50 4.50 L 158.50 4.50 L 159.50 4.50 L 160.50 4.50 L 161.50 4.50 L 162.50 4.50 L 163.50 4.50 L 164.50 4.50 L 165.50 4.50 L 166.50 4.50 L 167.50 4.50 L 168.50 4.50 L 169.50 4.50 L 169.50 5.50 L 169.50 6.50 L 169.50 7.50 L 169.50 8.50 L 169.50 9.50 L 169.50 10.50 L 169.50 11.50 L 169.50 12.50 L 169.50 13.50 L 169.50 14.50 L 169.50 15.50 L 169.50 16.50 L 169.50 17.50 L 169.50 18.50 L 169.50 19.50 L 169.50 20.50 L 169.50 21.50 L 169.50 22.50 L 169.50 23.50 L 169.50 24.50 L 169.50 25.50 L 169.50 26.50 L 169.50 27.50 L 169.50 28.50 L 169.50 29.50 L 169.50 30.50 L 169.50 31.50 L 169.50 32.50 L 169.50 33.50 L 169.50 34.50 L 169.50 35.50 L 169.50 36.50 L 169.50 37.50 L 169.50 38.50 L 169.50 39.50 L 169.50 40.50 L 169.50 41.50 L 169.50 42.50 L 169.50 43.50 L 169.50 44.50 L 169.50 45.50 L 169.50 46.50 L 169.50 47.50 L 169.50 48.50 L 169.50 49.50 L 169.50 50.50 L 169.50 51.50 L 169.50 52.50 L 169.50 53.50 L 169.50 54.50 L 169.50 55.50 L 169.50 56.50 L 168.50 57.50 L 168.50 58.50 L 168.50 59.50 L 168.50 60.50 L 167.50 61.50 L 167.50 62.50 L 167.50 63.50 L 166.50 64.50 L 166.50 65.50 L 165.50 66.50 L 165.50 67.50 L 164.50 68.50 L 164.50 69.50 L 163.50 70.50 L 162.50 71.50 L 162.50 72.50 L 161.50 73.50 L 160.50 74.50 L 159.50 75.50 L 158.50 76.50 L 157.50 77.50 L 156.50 78.50 L 155.50 79.50 L 154.50 79.50 L 153.50 80.50 L 152.50 81.50 L 151.50 81.50 L 150.50 82.50 L 149.50 82.50 L 148.50 83.50 L 147.50 83.50 L 146.50 84.50 L 145.50 84.50 L 144.50 84.50 L 143.50 84.50 L 142.50 85.50 L 143.50 86.50 L 144.50 87.50 L 145.50 87.50 L 146.50 88.50 L 147.50 88.50 L 148.50 89.50 L 149.50 89.50 L 150.50 89.50 L 151.50 90.50 L 152.50 91.50 L 153.50 91.50 L 154.50 92.50 L 155.50 92.50 L 156.50 93.50 L 157.50 94.50 L 158.50 95.50 L 159.50 96.50 L 160.50 97.50 L 161.50 98.50 L 162.50 99.50 L 162.50 100.50 L 163.50 101.50 L 164.50 102.50 L 164.50 103.50 L 165.50 104.50 L 165.50 105.50 L 166.50 106.50 L 166.50 107.50 L 167.50 108.50 L 167.50 109.50 L 167.50 110.50 L 168.50 111.50 L 168.50 112.50 L 168.50 113.50 L 168.50 114.50 L 169.50 115.50 L 169.50 116.50 L 169.50 117.50 L 169.50 118.50 L 169.50 119.50 L 169.50 120.50 L 169.50 121.50 L 169.50 122.50 L 169.50 123.50 L 169.50 124.50 L 169.50 125.50 L 169.50 126.50 L 169.50 127.50 L 169.50 128.50 L 169.50 129.50 L 169.50 130.50 L 169.50 131.50 L 169.50 132.50 L 169.50 133.50 L 169.50 134.50 L 169.50 135.50 L 169.50 136.50 L 169.50 137.50 L 169.50 138.50 L 169.50 139.50 L 169.50 140.50 L 169.50 141.50 L 169.50 142.50 L 169.50 143.50 L 169.50 144.50 L 169.50 145.50 L 169.50 146.50 L 169.50 147.50 L 169.50 148.50 L 169.50 149.50 L 169.50 150.50 L 169.50 151.50 L 169.50 152.50 L 169.50 153.50 L 169.50 154.50 L 169.50 155.50 L 169.50 156.50 L 169.50 157.50 L 169.50 158.50 L 169.50 159.50 L 169.50 160.50 L 169.50 161.50 L 169.50 162.50 L 169.50 163.50 L 169.50 164.50 L 169.50 165.50 L 169.50 166.50 L 169.50 167.50 L 168.50 167.50 L 167.50 167.50 L 166.50 167.50 L 165.50 167.50 L 164.50 167.50 L 163.50 167.50 L 162.50 167.50 L 161.50 167.50 L 160.50 167.50 L 159.50 167.50 L 158.50 167.50 L 157.50 167.50 L 156.50 167.50 L 155.50 167.50 L 154.50 167.50 L 153.50 167.50 L 152.50 167.50 L 151.50 167.50 L 150.50 167.50 L 149.50 167.50 L 148.50 167.50 L 147.50 167.50 L 146.50 167.50 L 145.50 167.50 L 144.50 167.50 L 143.50 167.50 L 142.50 167.50 L 141.50 167.50 L 140.50 167.50 L 139.50 167.50 L 138.50 167.50 L 137.50 167.50 L 136.50 167.50 L 135.50 167.50 L 134.50 167.50 L 133.50 167.50 L 132.50 167.50 L 131.50 167.50 L 130.50 167.50 L 129.50 167.50 L 128.50 167.50 L 127.50 167.50 L 126.50 167.50 L 125.50 167.50 L 124.50 167.50 L 123.50 167.50 L 122.50 167.50 L 121.50 167.50 L 120.50 167.50 L 119.50 167.50 L 118.50 167.50 L 117.50 167.50 L 116.50 167.50 L 115.50 167.50 L 114.50 167.50 L 113.50 167.50 L 112.50 167.50 L 111.50 167.50 L 110.50 167.50 L 109.50 167.50 L 108.50 167.50 L 107.50 167.50 L 106.50 167.50 L 105.50 167.50 L 104.50 167.50 L 103.50 167.50 L 102.50 167.50 L 101.50 167.50 L 100.50 167.50 L 99.50 167.50 L 98.50 167.50 L 97.50 167.50 L 96.50 167.50 L 95.50 167.50 L 94.50 167.50 L 93.50 167.50 L 92.50 167.50 L 91.50 167.50 L 90.50 167.50 L 89.50 167.50 L 88.50 167.50 L 87.50 167.50 L 86.50 167.50 L 85.50 167.50 L 84.50 167.50 L 83.50 167.50 L 82.50 167.50 L 81.50 167.50 L 80.50 167.50 L 79.50 167.50 L 78.50 167.50 L 77.50 167.50 L 76.50 167.50 L 75.50 167.50 L 74.50 167.50 L 73.50 167.50 L 72.50 167.50 L 71.50 167.50 L 70.50 167.50 L 69.50 167.50 L 68.50 167.50 L 67.50 167.50 L 66.50 167.50 L 65.50 167.50 L 64.50 167.50 L 63.50 167.50 L 62.50 167.50 L 61.50 167.50 L 60.50 167.50 L 59.50 167.50 L 58.50 167.50 L 57.50 167.50 L 56.50 167.50 L 55.50 167.50 L 54.50 167.50 L 53.50 167.50 L 52.50 167.50 L 51.50 167.50 L 50.50 167.50 L 49.50 167.50 L 48.50 167.50 L 47.50 167.50 L 46.50 167.50 L 45.50 167.50 L 44.50 167.50 L 43.50 167.50 L 42.50 167.50 L 41.50 167.50 L 40.50 167.50 L 39.50 167.50 L 38.50 167.50 L 37.50 167.50 L 36.50 167.50 L 35.50 167.50 L 34.50 167.50 L 33.50 167.50 L 32.50 167.50 L 31.50 167.50 L 30.50 167.50 L 29.50 167.50 L 28.50 167.50 L 27.50 167.50 L 26.50 167.50 L 25.50 167.50 L 24.50 167.50 L 23.50 167.50 L 22.50 167.50 L 21.50 167.50 L 20.50 167.50 L 19.50 167.50 L 18.50 167.50 L 17.50 167.50 L 16.50 167.50 L 15.50 167.50 L 14.50 167.50 L 13.50 167.50 L 12.50 167.50 L 11.50 167.50 L 10.50 167.50 L 9.50 167.50 L 8.50 167.50 L 7.50 167.50 L 6.50 167.50 L 5.50 167.50 L 4.50 167.50 L 4.50 166.50 L 4.50 165.50 L 4.50 164.50 L 4.50 163.50 L 4.50 162.50 L 4.50 161.50 L 4.50 160.50 L 4.50 159.50 L 4.50 158.50 L 4.50 157.50 L 4.50 156.50 L 4.50 155.50 L 4.50 154.50 L 4.50 153.50 L 4.50 152.50 L 4.50 151.50 L 4.50 150.50 L 4.50 149.50 L 4.50 148.50 L 4.50 147.50 L 4.50 146.50 L 4.50 145.50 L 4.50 144.50 L 4.50 143.50 L 4.50 142.50 L 4.50 141.50 L 4.50 140.50 L 4.50 139.50 L 4.50 138.50 L 4.50 137.50 L 4.50 136.50 L 4.50 135.50 L 4.50 134.50 L 4.50 133.50 L 4.50 132.50 L 4.50 131.50 L 4.50 130.50 L 4.50 129.50 L 4.50 128.50 L 4.50 127.50 L 4.50 126.50 L 4.50 125.50 L 4.50 124.50 L 4.50 123.50 L 4.50 122.50 L 4.50 121.50 L 4.50 120.50 L 4.50 119.50 L 4.50 118.50 L 4.50 117.50 L 5.50 116.50 L 5.50 115.50 L 5.50 114.50 L 5.50 113.50 L 5.50 112.50 L 6.50 111.50 L 6.50 110.50 L 6.50 109.50 L 7.50 108.50 L 7.50 107.50 L 8.50 106.50 L 8.50 105.50 L 9.50 104.50 L 9.50 103.50 L 10.50 102.50 L 10.50 101.50 L 11.50 100.50 L 12.50 99.50 L 12.50 98.50 L 13.50 97.50 L 14.50 96.50 L 15.50 95.50 L 16.50 94.50 L 17.50 93.50 L 18.50 93.50 L 19.50 92.50 L 20.50 91.50 L 21.50 91.50 L 22.50 90.50 L 23.50 90.50 L 24.50 89.50 L 25.50 89.50 L 26.50 88.50 L 27.50 88.50 L 28.50 87.50 L 29.50 87.50 L 30.50 87.50 L 31.50 86.50 L 31.50 85.50 L 30.50 84.50 L 29.50 84.50 L 28.50 84.50 L 27.50 83.50 L 26.50 83.50 L 25.50 82.50 L 24.50 82.50 L 23.50 81.50 L 22.50 81.50 L 21.50 80.50 L 20.50 80.50 L 19.50 79.50 L 18.50 78.50 L 17.50 77.50 L 16.50 77.50 L 15.50 76.50 L 14.50 75.50 L 13.50 74.50 L 12.50 73.50 L 12.50 72.50 L 11.50 71.50 L 10.50 70.50 L 10.50 69.50 L 9.50 68.50 L 8.50 67.50 L 8.50 66.50 L 7.50 65.50 L 7.50 64.50 L 7.50 63.50 L 6.50 62.50 L 6.50 61.50 L 6.50 60.50 L 5.50 59.50 L 5.50 58.50 L 5.50 57.50 L 5.50 56.50 L 5.50 55.50 L 5.50 54.50 L 4.50 53.50 L 4.50 52.50 L 4.50 51.50 L 4.50 50.50 L 4.50 49.50 L 4.50 48.50 L 4.50 47.50 L 4.50 46.50 L 4.50 45.50 L 4.50 44.50 L 4.50 43.50 L 4.50 42.50 L 4.50 41.50 L 4.50 40.50 L 4.50 39.50 L 4.50 38.50 L 4.50 37.50 L 4.50 36.50 L 4.50 35.50 L 4.50 34.50 L 4.50 33.50 L 4.50 32.50 L 4.50 31.50 L 4.50 30.50 L 4.50 29.50 L 4.50 28.50 L 4.50 27.50 L 4.50 26.50 L 4.50 25.50 L 4.50 24.50 L 4.50 23.50 L 4.50 22.50 L 4.50 21.50 L 4.50 20.50 L 4.50 19.50 L 4.50 18.50 L 4.50 17.50 L 4.50 16.50 L 4.50 15.50 L 4.50 14.50 L 4.50 13.50 L 4.50 12.50 L 4.50 11.50 L 4.50 10.50 L 4.50 9.50 L 4.50 8.50 L 4.50 7.50 L 4.50 6.50 Z"
    fill="#000000"
    stroke="#F4F4E8"
    stroke-width="1.5"
    vector-effect="non-scaling-stroke"
    stroke-linejoin="miter"
    stroke-miterlimit="10"
    shape-rendering="geometricPrecision"
  />
</svg>