<svg shape-rendering="geometricPrecision" width="1135" height="797" viewBox="0 0 1135 797" fill="none" xmlns="http://www.w3.org/2000/svg">
<g>
<path d="M1102.58 302.533H1107.41V297.703C1107.41 296.879 1107.17 295.572 1106.79 294.587C1106.42 293.602 1106.03 292.902 1105.45 291.923C1104.63 290.534 1102.98 288.61 1102.98 288.61C1102.98 288.61 1104.64 286.771 1105.45 285.423C1106.08 284.39 1106.67 282.88 1107.04 281.861C1107.3 281.136 1107.41 280.37 1107.41 279.6L1107.41 47.9739C1107.41 47.2035 1107.3 46.4375 1107.04 45.7127C1106.67 44.6936 1106.08 43.1833 1105.45 42.1509C1104.64 40.803 1102.98 38.9636 1102.98 38.9636C1102.98 38.9636 1104.63 37.0392 1105.45 35.6505C1106.03 34.6717 1106.42 33.9719 1106.79 32.9867C1107.17 32.0016 1107.41 30.6951 1107.41 29.8706L1107.41 25.0405H1102.58C1101.76 25.0405 1100.23 25.3949 1099.46 25.6893C1098.47 26.0657 1097.78 26.4211 1096.8 27.001C1095.42 27.8237 1093.49 29.472 1093.49 29.472C1093.49 29.472 1091.65 27.8156 1090.3 27.001C1089.27 26.377 1087.76 25.7838 1086.74 25.4166C1086.02 25.1554 1085.25 25.0405 1084.48 25.0405H846.011C845.24 25.0405 844.474 25.1554 843.749 25.4166C842.73 25.7838 841.22 26.377 840.188 27.001C838.84 27.8156 837 29.472 837 29.472C837 29.472 835.076 27.8237 833.687 27.001C832.708 26.4211 832.019 26.0657 831.034 25.6893C830.264 25.3949 828.732 25.0405 827.907 25.0405H823.077V29.8706C823.077 30.6951 823.321 32.0016 823.697 32.9867C824.074 33.9719 824.458 34.6717 825.038 35.6505C825.86 37.0392 827.509 38.9636 827.509 38.9636C827.509 38.9636 825.852 40.803 825.038 42.1509C824.414 43.1833 823.82 44.6936 823.453 45.7127C823.192 46.4375 823.077 47.2035 823.077 47.9739V279.599C823.077 280.37 823.192 281.136 823.453 281.861C823.82 282.88 824.414 284.39 825.038 285.423C825.852 286.77 827.509 288.61 827.509 288.61C827.509 288.61 825.86 290.534 825.038 291.923C824.458 292.902 824.074 293.602 823.697 294.587C823.321 295.572 823.077 296.878 823.077 297.703V302.533H827.907C828.732 302.533 830.264 302.178 831.034 301.884C832.019 301.508 832.708 301.152 833.687 300.572C835.076 299.75 837 298.101 837 298.101C837 298.101 838.84 299.758 840.188 300.572C841.22 301.196 842.73 301.79 843.749 302.157C844.474 302.418 845.24 302.533 846.011 302.533L1084.48 302.533C1085.25 302.533 1086.02 302.418 1086.74 302.157C1087.76 301.79 1089.27 301.197 1090.3 300.573C1091.65 299.758 1093.49 298.102 1093.49 298.102C1093.49 298.102 1095.42 299.75 1096.8 300.573C1097.78 301.153 1098.47 301.508 1099.46 301.884C1100.23 302.179 1101.76 302.533 1102.58 302.533Z" fill="none"/>
<path d="M840.341 27.0185C838.981 27.8404 837.125 29.5115 837.125 29.5115C837.125 29.5115 835.184 27.8485 833.783 27.0185C832.795 26.4334 832.1 26.0749 831.106 25.6951C830.329 25.3982 828.783 25.0406 827.951 25.0406C828.783 25.0406 830.329 24.6831 831.106 24.3861C832.1 24.0063 832.795 23.6478 833.783 23.0627C835.184 22.2327 837.125 20.5697 837.125 20.5697C837.125 20.5697 838.981 22.2409 840.341 23.0627C841.383 23.6922 842.907 24.2908 843.935 24.6612C844.666 24.9247 845.439 25.0406 846.216 25.0406C845.439 25.0406 844.666 25.1565 843.934 25.42C842.906 25.7905 841.382 26.389 840.341 27.0185Z" fill="#1B1613"/>
<path d="M825.056 42.3034C825.878 40.9435 827.549 39.0878 827.549 39.0878C827.549 39.0878 825.886 37.1462 825.056 35.7451C824.471 34.7575 824.084 34.0515 823.704 33.0576C823.324 32.0637 823.078 30.7456 823.078 29.9137C823.078 30.7456 822.832 32.0636 822.453 33.0576C822.073 34.0515 821.685 34.7575 821.1 35.745C820.27 37.1461 818.607 39.0877 818.607 39.0877C818.607 39.0877 820.279 40.9434 821.1 42.3034C821.73 43.3449 822.328 44.8688 822.699 45.8969C822.962 46.6282 823.078 47.4011 823.078 48.1783C823.078 47.4011 823.194 46.6282 823.457 45.897C823.828 44.8688 824.426 43.345 825.056 42.3034Z" fill="#1B1613"/>
<path d="M805.815 23.0627C807.175 22.2408 809.031 20.5697 809.031 20.5697C809.031 20.5697 810.973 22.2327 812.374 23.0627C813.361 23.6477 814.056 24.0063 815.05 24.3861C815.822 24.6809 817.351 25.0355 818.187 25.0405C817.351 25.0455 815.822 25.4002 815.05 25.695C814.057 26.0748 813.361 26.4334 812.374 27.0184C810.973 27.8485 809.031 29.5115 809.031 29.5115C809.031 29.5115 807.175 27.8403 805.815 27.0184C804.774 26.3889 803.25 25.7904 802.222 25.4199C801.491 25.1564 800.718 25.0406 799.94 25.0406C800.718 25.0406 801.491 24.9247 802.222 24.6612C803.25 24.2907 804.774 23.6922 805.815 23.0627Z" fill="#1B1613"/>
<path d="M821.1 7.77774C820.278 9.13767 818.607 10.9934 818.607 10.9934C818.607 10.9934 820.27 12.935 821.1 14.3361C821.685 15.3236 822.073 16.0297 822.452 17.0236C822.818 17.9802 823.06 19.2373 823.077 20.072C823.078 20.1045 823.078 20.1363 823.078 20.1675C823.078 19.3356 823.324 18.0175 823.704 17.0236C824.084 16.0297 824.471 15.3237 825.056 14.3361C825.886 12.9351 827.549 10.9935 827.549 10.9935C827.549 10.9935 825.878 9.13772 825.056 7.77779C824.427 6.73623 823.828 5.21239 823.458 4.18425C823.194 3.45301 823.078 2.68011 823.078 1.90283C823.078 2.6801 822.962 3.45296 822.699 4.1842C822.328 5.21234 821.73 6.73618 821.1 7.77774Z" fill="#1B1613"/>
<path d="M818.352 788.739H823.182V783.909C823.182 783.085 822.938 781.778 822.562 780.793C822.185 779.808 821.801 779.108 821.221 778.13C820.399 776.741 818.75 774.816 818.75 774.816C818.75 774.816 820.407 772.977 821.221 771.629C821.845 770.597 822.439 769.086 822.806 768.067C823.067 767.342 823.182 766.577 823.182 765.806L823.182 47.9739C823.182 47.2035 823.067 46.4375 822.806 45.7127C822.439 44.6936 821.846 43.1833 821.222 42.1509C820.407 40.803 818.751 38.9636 818.751 38.9636C818.751 38.9636 820.399 37.0392 821.222 35.6505C821.802 34.6717 822.186 33.9719 822.562 32.9867C822.938 32.0016 823.182 30.6951 823.182 29.8706L823.182 25.0405H818.352C817.528 25.0405 815.996 25.3949 815.225 25.6893C814.24 26.0657 813.551 26.4211 812.572 27.001C811.184 27.8237 809.259 29.472 809.259 29.472C809.259 29.472 807.42 27.8156 806.072 27.001C805.039 26.377 803.529 25.7838 802.51 25.4166C801.785 25.1554 801.019 25.0405 800.249 25.0405H51.7781C51.0077 25.0405 50.2417 25.1554 49.5169 25.4166C48.4979 25.7838 46.9875 26.377 45.9551 27.001C44.6072 27.8156 42.7678 29.472 42.7678 29.472C42.7678 29.472 40.8434 27.8237 39.4547 27.001C38.4759 26.4211 37.7868 26.0657 36.8017 25.6893C36.0314 25.3949 34.4993 25.0405 33.6748 25.0405H28.8447L28.8447 29.8706C28.8447 30.6951 29.0885 32.0016 29.465 32.9867C29.8414 33.9719 30.2253 34.6717 30.8052 35.6505C31.6279 37.0392 33.2762 38.9636 33.2762 38.9636C33.2762 38.9636 31.6198 40.803 30.8052 42.1509C30.1812 43.1833 29.588 44.6936 29.2208 45.7127C28.9596 46.4375 28.8447 47.2035 28.8447 47.9739V765.806C28.8447 766.576 28.9596 767.342 29.2208 768.067C29.588 769.086 30.1812 770.597 30.8052 771.629C31.6198 772.977 33.2762 774.816 33.2762 774.816C33.2762 774.816 31.6279 776.741 30.8052 778.129C30.2253 779.108 29.8414 779.808 29.465 780.793C29.0885 781.778 28.8447 783.085 28.8447 783.909L28.8447 788.739H33.6748C34.4993 788.739 36.0314 788.385 36.8017 788.091C37.7868 787.714 38.4759 787.359 39.4547 786.779C40.8434 785.956 42.7678 784.308 42.7678 784.308C42.7678 784.308 44.6072 785.964 45.9551 786.779C46.9875 787.403 48.4979 787.996 49.5169 788.363C50.2417 788.624 51.0077 788.739 51.7781 788.739L800.249 788.739C801.019 788.739 801.785 788.625 802.51 788.363C803.529 787.996 805.039 787.403 806.072 786.779C807.419 785.964 809.259 784.308 809.259 784.308C809.259 784.308 811.183 785.956 812.572 786.779C813.551 787.359 814.24 787.714 815.225 788.091C815.995 788.385 817.527 788.739 818.352 788.739Z" fill="none"/>
<path d="M46.1085 27.0185C44.7486 27.8404 42.8928 29.5115 42.8928 29.5115C42.8928 29.5115 40.9512 27.8485 39.5502 27.0185C38.5626 26.4334 37.8674 26.0749 36.8735 25.6951C36.0964 25.3982 34.5506 25.0406 33.7187 25.0406C34.5506 25.0406 36.0966 24.6831 36.8737 24.3861C37.8676 24.0063 38.5629 23.6478 39.5504 23.0627C40.9515 22.2327 42.8931 20.5697 42.8931 20.5697C42.8931 20.5697 44.7488 22.2409 46.1087 23.0627C47.1503 23.6922 48.6742 24.2908 49.7023 24.6612C50.4335 24.9247 51.2061 25.0406 51.9834 25.0406C51.2061 25.0406 50.4333 25.1565 49.702 25.42C48.6739 25.7905 47.1501 26.389 46.1085 27.0185Z" fill="#1B1613"/>
<path d="M30.8235 42.3034C31.6454 40.9435 33.3166 39.0878 33.3166 39.0878C33.3166 39.0878 31.6536 37.1462 30.8235 35.7451C30.2385 34.7575 29.8512 34.0515 29.4714 33.0576C29.0916 32.0637 28.8456 30.7456 28.8456 29.9137C28.8456 30.7456 28.5999 32.0636 28.2201 33.0576C27.8403 34.0515 27.4531 34.7575 26.868 35.745C26.038 37.1461 24.375 39.0877 24.375 39.0877C24.375 39.0877 26.0461 40.9434 26.868 42.3034C27.4975 43.3449 28.096 44.8688 28.4665 45.8969C28.73 46.6282 28.8456 47.4011 28.8456 48.1783C28.8456 47.4011 28.9615 46.6282 29.225 45.897C29.5955 44.8688 30.1941 43.345 30.8235 42.3034Z" fill="#1B1613"/>
<path d="M11.5829 23.0627C12.9428 22.2408 14.7986 20.5697 14.7986 20.5697C14.7986 20.5697 16.7402 22.2327 18.1413 23.0627C19.1288 23.6477 19.824 24.0063 20.8179 24.3861C21.5896 24.6809 23.119 25.0355 23.9549 25.0405C23.119 25.0455 21.5897 25.4002 20.8181 25.695C19.8242 26.0748 19.1289 26.4334 18.1414 27.0184C16.7403 27.8485 14.7987 29.5115 14.7987 29.5115C14.7987 29.5115 12.943 27.8403 11.5831 27.0184C10.5415 26.3889 9.01765 25.7904 7.98951 25.4199C7.25827 25.1564 6.48528 25.0406 5.70801 25.0406C6.48528 25.0406 7.25813 24.9247 7.98938 24.6612C9.01752 24.2907 10.5414 23.6922 11.5829 23.0627Z" fill="#1B1613"/>
<path d="M26.8679 7.77774C26.046 9.13767 24.3748 10.9934 24.3748 10.9934C24.3748 10.9934 26.0378 12.935 26.8679 14.3361C27.4529 15.3236 27.8402 16.0297 28.22 17.0236C28.5856 17.9802 28.8271 19.2373 28.8447 20.072C28.8454 20.1045 28.8458 20.1363 28.8458 20.1675C28.8458 19.3356 29.0919 18.0175 29.4717 17.0236C29.8515 16.0297 30.2387 15.3237 30.8238 14.3361C31.6538 12.9351 33.3168 10.9935 33.3168 10.9935C33.3168 10.9935 31.6457 9.13772 30.8238 7.77779C30.1943 6.73623 29.5958 5.21239 29.2253 4.18425C28.9618 3.45301 28.8458 2.68011 28.8458 1.90283C28.8458 2.6801 28.7299 3.45296 28.4664 4.1842C28.0959 5.21234 27.4973 6.73618 26.8679 7.77774Z" fill="#1B1613"/>
<path d="M1124.68 27.0185C1123.32 27.8404 1121.46 29.5115 1121.46 29.5115C1121.46 29.5115 1119.52 27.8485 1118.12 27.0185C1117.13 26.4334 1116.44 26.0749 1115.44 25.6951C1114.67 25.3982 1113.12 25.0406 1112.29 25.0406C1113.12 25.0406 1114.67 24.6831 1115.44 24.3861C1116.44 24.0063 1117.13 23.6478 1118.12 23.0627C1119.52 22.2327 1121.46 20.5697 1121.46 20.5697C1121.46 20.5697 1123.32 22.2409 1124.68 23.0627C1125.72 23.6922 1127.24 24.2908 1128.27 24.6612C1129 24.9247 1129.78 25.0406 1130.55 25.0406C1129.78 25.0406 1129 25.1565 1128.27 25.42C1127.24 25.7905 1125.72 26.389 1124.68 27.0185Z" fill="#1B1613"/>
<path d="M1109.39 42.3034C1110.21 40.9435 1111.89 39.0878 1111.89 39.0878C1111.89 39.0878 1110.22 37.1462 1109.39 35.7451C1108.81 34.7575 1108.42 34.0515 1108.04 33.0576C1107.66 32.0637 1107.41 30.7456 1107.41 29.9137C1107.41 30.7456 1107.17 32.0636 1106.79 33.0576C1106.41 34.0515 1106.02 34.7575 1105.44 35.745C1104.61 37.1461 1102.94 39.0877 1102.94 39.0877C1102.94 39.0877 1104.62 40.9434 1105.44 42.3034C1106.07 43.3449 1106.67 44.8688 1107.04 45.8969C1107.3 46.6282 1107.41 47.4011 1107.41 48.1783C1107.41 47.4011 1107.53 46.6282 1107.79 45.897C1108.16 44.8688 1108.76 43.345 1109.39 42.3034Z" fill="#1B1613"/>
<path d="M1090.15 23.0627C1091.51 22.2408 1093.37 20.5697 1093.37 20.5697C1093.37 20.5697 1095.31 22.2327 1096.71 23.0627C1097.7 23.6477 1098.39 24.0063 1099.39 24.3861C1100.16 24.6809 1101.69 25.0355 1102.52 25.0405C1101.69 25.0455 1100.16 25.4002 1099.39 25.695C1098.39 26.0748 1097.7 26.4334 1096.71 27.0184C1095.31 27.8485 1093.37 29.5115 1093.37 29.5115C1093.37 29.5115 1091.51 27.8403 1090.15 27.0184C1089.11 26.3889 1087.59 25.7904 1086.56 25.4199C1085.83 25.1564 1085.05 25.0406 1084.28 25.0406C1085.05 25.0406 1085.83 24.9247 1086.56 24.6612C1087.59 24.2907 1089.11 23.6922 1090.15 23.0627Z" fill="#1B1613"/>
<path d="M1105.44 7.77774C1104.62 9.13767 1102.94 10.9934 1102.94 10.9934C1102.94 10.9934 1104.61 12.935 1105.44 14.3361C1106.02 15.3236 1106.41 16.0297 1106.79 17.0236C1107.15 17.9802 1107.4 19.2373 1107.41 20.072C1107.41 20.1045 1107.42 20.1363 1107.42 20.1675C1107.42 19.3356 1107.66 18.0175 1108.04 17.0236C1108.42 16.0297 1108.81 15.3237 1109.39 14.3361C1110.22 12.9351 1111.89 10.9935 1111.89 10.9935C1111.89 10.9935 1110.22 9.13772 1109.39 7.77779C1108.76 6.73623 1108.17 5.21239 1107.79 4.18425C1107.53 3.45301 1107.42 2.68011 1107.42 1.90283C1107.42 2.6801 1107.3 3.45296 1107.04 4.1842C1106.67 5.21234 1106.07 6.73618 1105.44 7.77774Z" fill="#1B1613"/>
<path d="M1107.41 25.0405L1107.41 29.8706C1107.41 30.6951 1107.17 32.0016 1106.79 32.9867C1106.42 33.9719 1106.03 34.6717 1105.45 35.6505C1104.63 37.0392 1102.98 38.9636 1102.98 38.9636C1102.98 38.9636 1104.64 40.803 1105.45 42.1509C1106.08 43.1833 1106.67 44.6936 1107.04 45.7127C1107.3 46.4375 1107.41 47.2035 1107.41 47.9739M1107.41 29.8706C1107.41 30.6951 1107.66 32.0016 1108.03 32.9867C1108.41 33.9719 1108.79 34.6717 1109.37 35.6505C1110.2 37.0392 1111.85 38.9636 1111.85 38.9636C1111.85 38.9636 1110.19 40.803 1109.37 42.1509C1108.75 43.1833 1108.16 44.6936 1107.79 45.7127C1107.53 46.4375 1107.41 47.2035 1107.41 47.9739L1107.41 279.6C1107.41 280.37 1107.3 281.136 1107.04 281.861C1106.67 282.88 1106.08 284.39 1105.45 285.423C1104.64 286.771 1102.98 288.61 1102.98 288.61C1102.98 288.61 1104.63 290.534 1105.45 291.923C1106.03 292.902 1106.42 293.602 1106.79 294.587C1107.17 295.572 1107.41 296.879 1107.41 297.703V302.533H1102.58C1101.76 302.533 1100.23 302.179 1099.46 301.884C1098.47 301.508 1097.78 301.153 1096.8 300.573C1095.42 299.75 1093.49 298.102 1093.49 298.102C1093.49 298.102 1091.65 299.758 1090.3 300.573C1089.27 301.197 1087.76 301.79 1086.74 302.157C1086.02 302.418 1085.25 302.533 1084.48 302.533L846.011 302.533C845.24 302.533 844.474 302.418 843.749 302.157C842.73 301.79 841.22 301.196 840.188 300.572C838.84 299.758 837 298.101 837 298.101C837 298.101 835.076 299.75 833.687 300.572C832.708 301.152 832.019 301.508 831.034 301.884C830.264 302.178 828.732 302.533 827.907 302.533H823.077V297.703C823.077 296.878 823.321 295.572 823.697 294.587C824.074 293.602 824.458 292.902 825.038 291.923C825.86 290.534 827.509 288.61 827.509 288.61C827.509 288.61 825.852 286.77 825.038 285.423C824.414 284.39 823.82 282.88 823.453 281.861C823.192 281.136 823.077 280.37 823.077 279.599V47.9739C823.077 47.2035 823.192 46.4375 823.453 45.7127C823.82 44.6936 824.414 43.1833 825.038 42.1509C825.852 40.803 827.509 38.9636 827.509 38.9636C827.509 38.9636 825.86 37.0392 825.038 35.6505C824.458 34.6717 824.074 33.9719 823.697 32.9867C823.321 32.0016 823.077 30.6951 823.077 29.8706V25.0405M1107.41 25.0405H1102.58C1101.76 25.0405 1100.23 25.3949 1099.46 25.6893C1098.47 26.0657 1097.78 26.4211 1096.8 27.001C1095.42 27.8237 1093.49 29.472 1093.49 29.472C1093.49 29.472 1091.65 27.8156 1090.3 27.001C1089.27 26.377 1087.76 25.7838 1086.74 25.4166C1086.02 25.1554 1085.25 25.0405 1084.48 25.0405H846.011C845.24 25.0405 844.474 25.1554 843.749 25.4166C842.73 25.7838 841.22 26.377 840.188 27.001C838.84 27.8156 837 29.472 837 29.472C837 29.472 835.076 27.8237 833.687 27.001C832.708 26.4211 832.019 26.0657 831.034 25.6893C830.264 25.3949 828.732 25.0405 827.907 25.0405H823.077M1107.41 25.0405H1112.24C1113.07 25.0405 1114.6 25.3949 1115.37 25.6893C1116.36 26.0657 1117.05 26.4211 1118.02 27.001C1119.41 27.8237 1121.34 29.472 1121.34 29.472C1121.34 29.472 1123.18 27.8156 1124.52 27.001C1125.56 26.377 1127.07 25.7838 1128.09 25.4166C1128.81 25.1554 1129.58 25.0405 1130.35 25.0405M1107.41 25.0405L1107.41 20.072M1107.41 25.0405H1102.52M823.077 25.0405V20.072M823.077 25.0405H818.187M818.205 25.0406C818.199 25.0406 818.193 25.0405 818.187 25.0405M823.077 20.072C823.06 19.2373 822.818 17.9802 822.452 17.0236C822.073 16.0297 821.685 15.3236 821.1 14.3361C820.27 12.935 818.607 10.9934 818.607 10.9934C818.607 10.9934 820.278 9.13767 821.1 7.77774C821.73 6.73618 822.328 5.21234 822.699 4.1842C822.962 3.45296 823.078 2.6801 823.078 1.90283C823.078 2.68011 823.194 3.45301 823.458 4.18425C823.828 5.21239 824.427 6.73623 825.056 7.77779C825.878 9.13772 827.549 10.9935 827.549 10.9935C827.549 10.9935 825.886 12.9351 825.056 14.3361C824.471 15.3237 824.084 16.0297 823.704 17.0236C823.324 18.0175 823.078 19.3356 823.078 20.1675C823.078 20.1363 823.078 20.1045 823.077 20.072ZM818.187 25.0405C817.351 25.0455 815.822 25.4002 815.05 25.695C814.057 26.0748 813.361 26.4334 812.374 27.0184C810.973 27.8485 809.031 29.5115 809.031 29.5115C809.031 29.5115 807.175 27.8403 805.815 27.0184C804.774 26.3889 803.25 25.7904 802.222 25.4199C801.491 25.1564 800.718 25.0406 799.94 25.0406C800.718 25.0406 801.491 24.9247 802.222 24.6612C803.25 24.2907 804.774 23.6922 805.815 23.0627C807.175 22.2408 809.031 20.5697 809.031 20.5697C809.031 20.5697 810.973 22.2327 812.374 23.0627C813.361 23.6477 814.056 24.0063 815.05 24.3861C815.822 24.6809 817.351 25.0355 818.187 25.0405ZM28.8447 25.0405H33.6748C34.4993 25.0405 36.0314 25.3949 36.8017 25.6893C37.7868 26.0657 38.4759 26.4211 39.4547 27.001C40.8434 27.8237 42.7678 29.472 42.7678 29.472C42.7678 29.472 44.6072 27.8156 45.9551 27.001C46.9875 26.377 48.4979 25.7838 49.5169 25.4166C50.2417 25.1554 51.0077 25.0405 51.7781 25.0405H800.249C801.019 25.0405 801.785 25.1554 802.51 25.4166C803.529 25.7838 805.039 26.377 806.072 27.001C807.42 27.8156 809.259 29.472 809.259 29.472C809.259 29.472 811.184 27.8237 812.572 27.001C813.551 26.4211 814.24 26.0657 815.225 25.6893C815.996 25.3949 817.528 25.0405 818.352 25.0405H823.182L823.182 29.8706C823.182 30.6951 822.938 32.0016 822.562 32.9867C822.186 33.9719 821.802 34.6717 821.222 35.6505C820.399 37.0392 818.751 38.9636 818.751 38.9636C818.751 38.9636 820.407 40.803 821.222 42.1509C821.846 43.1833 822.439 44.6936 822.806 45.7127C823.067 46.4375 823.182 47.2035 823.182 47.9739L823.182 765.806C823.182 766.577 823.067 767.342 822.806 768.067C822.439 769.086 821.845 770.597 821.221 771.629C820.407 772.977 818.75 774.816 818.75 774.816C818.75 774.816 820.399 776.741 821.221 778.13C821.801 779.108 822.185 779.808 822.562 780.793C822.938 781.778 823.182 783.085 823.182 783.909V788.739H818.352C817.527 788.739 815.995 788.385 815.225 788.091C814.24 787.714 813.551 787.359 812.572 786.779C811.183 785.956 809.259 784.308 809.259 784.308C809.259 784.308 807.419 785.964 806.072 786.779C805.039 787.403 803.529 787.996 802.51 788.363C801.785 788.625 801.019 788.739 800.249 788.739L51.7781 788.739C51.0077 788.739 50.2417 788.624 49.5169 788.363C48.4979 787.996 46.9875 787.403 45.9551 786.779C44.6072 785.964 42.7678 784.308 42.7678 784.308C42.7678 784.308 40.8434 785.956 39.4547 786.779C38.4759 787.359 37.7868 787.714 36.8017 788.091C36.0314 788.385 34.4993 788.739 33.6748 788.739H28.8447L28.8447 783.909C28.8447 783.085 29.0885 781.778 29.465 780.793C29.8414 779.808 30.2253 779.108 30.8052 778.129C31.6279 776.741 33.2762 774.816 33.2762 774.816C33.2762 774.816 31.6198 772.977 30.8052 771.629C30.1812 770.597 29.588 769.086 29.2208 768.067C28.9596 767.342 28.8447 766.576 28.8447 765.806V47.9739C28.8447 47.2035 28.9596 46.4375 29.2208 45.7127C29.588 44.6936 30.1812 43.1833 30.8052 42.1509C31.6198 40.803 33.2762 38.9636 33.2762 38.9636C33.2762 38.9636 31.6279 37.0392 30.8052 35.6505C30.2253 34.6717 29.8414 33.9719 29.465 32.9867C29.0885 32.0016 28.8447 30.6951 28.8447 29.8706L28.8447 25.0405ZM28.8447 25.0405V20.072M28.8447 25.0405H23.9549M23.9727 25.0406C23.9668 25.0406 23.9609 25.0405 23.9549 25.0405M28.8447 20.072C28.8271 19.2373 28.5856 17.9802 28.22 17.0236C27.8402 16.0297 27.4529 15.3236 26.8679 14.3361C26.0378 12.935 24.3748 10.9934 24.3748 10.9934C24.3748 10.9934 26.046 9.13767 26.8679 7.77774C27.4973 6.73618 28.0959 5.21234 28.4664 4.1842C28.7299 3.45296 28.8458 2.6801 28.8458 1.90283C28.8458 2.68011 28.9618 3.45301 29.2253 4.18425C29.5958 5.21239 30.1943 6.73623 30.8238 7.77779C31.6457 9.13772 33.3168 10.9935 33.3168 10.9935C33.3168 10.9935 31.6538 12.9351 30.8238 14.3361C30.2387 15.3237 29.8515 16.0297 29.4717 17.0236C29.0919 18.0175 28.8458 19.3356 28.8458 20.1675C28.8458 20.1363 28.8454 20.1045 28.8447 20.072ZM23.9549 25.0405C23.119 25.0455 21.5897 25.4002 20.8181 25.695C19.8242 26.0748 19.1289 26.4334 18.1414 27.0184C16.7403 27.8485 14.7987 29.5115 14.7987 29.5115C14.7987 29.5115 12.943 27.8403 11.5831 27.0184C10.5415 26.3889 9.01765 25.7904 7.98951 25.4199C7.25827 25.1564 6.48528 25.0406 5.70801 25.0406C6.48528 25.0406 7.25813 24.9247 7.98938 24.6612C9.01752 24.2907 10.5414 23.6922 11.5829 23.0627C12.9428 22.2408 14.7986 20.5697 14.7986 20.5697C14.7986 20.5697 16.7402 22.2327 18.1413 23.0627C19.1288 23.6477 19.824 24.0063 20.8179 24.3861C21.5896 24.6809 23.119 25.0355 23.9549 25.0405ZM1102.54 25.0406C1102.54 25.0406 1102.53 25.0405 1102.52 25.0405M1107.41 20.072C1107.4 19.2373 1107.15 17.9802 1106.79 17.0236C1106.41 16.0297 1106.02 15.3236 1105.44 14.3361C1104.61 12.935 1102.94 10.9934 1102.94 10.9934C1102.94 10.9934 1104.62 9.13767 1105.44 7.77774C1106.07 6.73618 1106.67 5.21234 1107.04 4.1842C1107.3 3.45296 1107.42 2.6801 1107.42 1.90283C1107.42 2.68011 1107.53 3.45301 1107.79 4.18425C1108.17 5.21239 1108.76 6.73623 1109.39 7.77779C1110.22 9.13772 1111.89 10.9935 1111.89 10.9935C1111.89 10.9935 1110.22 12.9351 1109.39 14.3361C1108.81 15.3237 1108.42 16.0297 1108.04 17.0236C1107.66 18.0175 1107.42 19.3356 1107.42 20.1675C1107.42 20.1363 1107.41 20.1045 1107.41 20.072ZM1102.52 25.0405C1101.69 25.0455 1100.16 25.4002 1099.39 25.695C1098.39 26.0748 1097.7 26.4334 1096.71 27.0184C1095.31 27.8485 1093.37 29.5115 1093.37 29.5115C1093.37 29.5115 1091.51 27.8403 1090.15 27.0184C1089.11 26.3889 1087.59 25.7904 1086.56 25.4199C1085.83 25.1564 1085.05 25.0406 1084.28 25.0406C1085.05 25.0406 1085.83 24.9247 1086.56 24.6612C1087.59 24.2907 1089.11 23.6922 1090.15 23.0627C1091.51 22.2408 1093.37 20.5697 1093.37 20.5697C1093.37 20.5697 1095.31 22.2327 1096.71 23.0627C1097.7 23.6477 1098.39 24.0063 1099.39 24.3861C1100.16 24.6809 1101.69 25.0355 1102.52 25.0405ZM840.341 27.0185C838.981 27.8404 837.125 29.5115 837.125 29.5115C837.125 29.5115 835.184 27.8485 833.783 27.0185C832.795 26.4334 832.1 26.0749 831.106 25.6951C830.329 25.3982 828.783 25.0406 827.951 25.0406C828.783 25.0406 830.329 24.6831 831.106 24.3861C832.1 24.0063 832.795 23.6478 833.783 23.0627C835.184 22.2327 837.125 20.5697 837.125 20.5697C837.125 20.5697 838.981 22.2409 840.341 23.0627C841.383 23.6922 842.907 24.2908 843.935 24.6612C844.666 24.9247 845.439 25.0406 846.216 25.0406C845.439 25.0406 844.666 25.1565 843.934 25.42C842.906 25.7905 841.382 26.389 840.341 27.0185ZM825.056 42.3034C825.878 40.9435 827.549 39.0878 827.549 39.0878C827.549 39.0878 825.886 37.1462 825.056 35.7451C824.471 34.7575 824.084 34.0515 823.704 33.0576C823.324 32.0637 823.078 30.7456 823.078 29.9137C823.078 30.7456 822.832 32.0636 822.453 33.0576C822.073 34.0515 821.685 34.7575 821.1 35.745C820.27 37.1461 818.607 39.0877 818.607 39.0877C818.607 39.0877 820.279 40.9434 821.1 42.3034C821.73 43.3449 822.328 44.8688 822.699 45.8969C822.962 46.6282 823.078 47.4011 823.078 48.1783C823.078 47.4011 823.194 46.6282 823.457 45.897C823.828 44.8688 824.426 43.345 825.056 42.3034ZM46.1085 27.0185C44.7486 27.8404 42.8928 29.5115 42.8928 29.5115C42.8928 29.5115 40.9512 27.8485 39.5502 27.0185C38.5626 26.4334 37.8674 26.0749 36.8735 25.6951C36.0964 25.3982 34.5506 25.0406 33.7187 25.0406C34.5506 25.0406 36.0966 24.6831 36.8737 24.3861C37.8676 24.0063 38.5629 23.6478 39.5504 23.0627C40.9515 22.2327 42.8931 20.5697 42.8931 20.5697C42.8931 20.5697 44.7488 22.2409 46.1087 23.0627C47.1503 23.6922 48.6742 24.2908 49.7023 24.6612C50.4335 24.9247 51.2061 25.0406 51.9834 25.0406C51.2061 25.0406 50.4333 25.1565 49.702 25.42C48.6739 25.7905 47.1501 26.389 46.1085 27.0185ZM30.8235 42.3034C31.6454 40.9435 33.3166 39.0878 33.3166 39.0878C33.3166 39.0878 31.6536 37.1462 30.8235 35.7451C30.2385 34.7575 29.8512 34.0515 29.4714 33.0576C29.0916 32.0637 28.8456 30.7456 28.8456 29.9137C28.8456 30.7456 28.5999 32.0636 28.2201 33.0576C27.8403 34.0515 27.4531 34.7575 26.868 35.745C26.038 37.1461 24.375 39.0877 24.375 39.0877C24.375 39.0877 26.0461 40.9434 26.868 42.3034C27.4975 43.3449 28.096 44.8688 28.4665 45.8969C28.73 46.6282 28.8456 47.4011 28.8456 48.1783C28.8456 47.4011 28.9615 46.6282 29.225 45.897C29.5955 44.8688 30.1941 43.345 30.8235 42.3034ZM1124.68 27.0185C1123.32 27.8404 1121.46 29.5115 1121.46 29.5115C1121.46 29.5115 1119.52 27.8485 1118.12 27.0185C1117.13 26.4334 1116.44 26.0749 1115.44 25.6951C1114.67 25.3982 1113.12 25.0406 1112.29 25.0406C1113.12 25.0406 1114.67 24.6831 1115.44 24.3861C1116.44 24.0063 1117.13 23.6478 1118.12 23.0627C1119.52 22.2327 1121.46 20.5697 1121.46 20.5697C1121.46 20.5697 1123.32 22.2409 1124.68 23.0627C1125.72 23.6922 1127.24 24.2908 1128.27 24.6612C1129 24.9247 1129.78 25.0406 1130.55 25.0406C1129.78 25.0406 1129 25.1565 1128.27 25.42C1127.24 25.7905 1125.72 26.389 1124.68 27.0185ZM1109.39 42.3034C1110.21 40.9435 1111.89 39.0878 1111.89 39.0878C1111.89 39.0878 1110.22 37.1462 1109.39 35.7451C1108.81 34.7575 1108.42 34.0515 1108.04 33.0576C1107.66 32.0637 1107.41 30.7456 1107.41 29.9137C1107.41 30.7456 1107.17 32.0636 1106.79 33.0576C1106.41 34.0515 1106.02 34.7575 1105.44 35.745C1104.61 37.1461 1102.94 39.0877 1102.94 39.0877C1102.94 39.0877 1104.62 40.9434 1105.44 42.3034C1106.07 43.3449 1106.67 44.8688 1107.04 45.8969C1107.3 46.6282 1107.41 47.4011 1107.41 48.1783C1107.41 47.4011 1107.53 46.6282 1107.79 45.897C1108.16 44.8688 1108.76 43.345 1109.39 42.3034Z" stroke="#1B1613" vector-effect="non-scaling-stroke"/>
</g>
</svg>
