<svg preserveAspectRatio="none" width="100%" height="100%" overflow="visible" style="display: block;" viewBox="0 0 2675.2 1229.64" fill="none" xmlns="http://www.w3.org/2000/svg">
<path id="Vector" d="M706.303 694.717H713.053M706.303 694.717V701.467M706.303 662.666C706.303 663.742 706.463 664.813 706.828 665.826C707.342 667.25 708.171 669.361 709.043 670.804C710.181 672.688 712.496 675.258 712.496 675.258C712.496 675.258 710.193 677.948 709.043 679.889C708.232 681.257 707.696 682.235 707.17 683.611C706.644 684.988 706.303 686.814 706.303 687.966L706.303 694.717M706.303 694.717H699.553M713.053 694.717C714.206 694.717 716.347 695.212 717.423 695.623C718.8 696.149 719.763 696.646 721.131 697.457C723.072 698.606 725.762 700.91 725.762 700.91C725.762 700.91 728.332 698.595 730.216 697.457C731.659 696.585 733.77 695.755 735.194 695.242C736.207 694.877 737.277 694.717 738.354 694.717M713.053 694.717C714.206 694.717 716.347 694.221 717.423 693.81C718.8 693.284 719.763 692.787 721.131 691.977C723.072 690.827 725.761 688.523 725.761 688.523C725.761 688.523 728.332 690.838 730.216 691.977C731.659 692.849 733.77 693.678 735.194 694.191C736.207 694.556 737.277 694.717 738.354 694.717M738.354 694.717H1305.55M706.303 701.467C706.303 702.619 706.644 704.445 707.17 705.822C707.696 707.199 708.232 708.177 709.043 709.545C710.193 711.485 712.496 714.175 712.496 714.175C712.496 714.175 710.181 716.746 709.043 718.63C708.171 720.072 707.342 722.183 706.829 723.607C706.464 724.62 706.303 725.691 706.303 726.768M706.303 1019.37C706.303 1018.21 705.962 1016.39 705.436 1015.01C704.91 1013.63 704.373 1012.66 703.563 1011.29C702.413 1009.35 700.109 1006.66 700.109 1006.66C700.109 1006.66 702.424 1004.09 703.563 1002.2C704.435 1000.76 705.264 998.65 705.777 997.226C706.142 996.213 706.303 995.143 706.303 994.066L706.303 726.768C706.303 725.691 706.142 724.62 705.777 723.607C705.264 722.183 704.435 720.072 703.563 718.63C702.425 716.746 700.11 714.175 700.11 714.175C700.11 714.175 702.413 711.485 703.563 709.545C704.373 708.177 704.91 707.199 705.436 705.822C705.962 704.445 706.303 702.619 706.303 701.467M706.303 687.966C706.303 686.814 705.962 684.988 705.436 683.611C704.91 682.235 704.373 681.257 703.563 679.889C702.413 677.948 700.109 675.258 700.109 675.258C700.109 675.258 702.424 672.688 703.563 670.804C704.435 669.361 705.264 667.25 705.777 665.826C706.142 664.813 706.303 663.742 706.303 662.666M706.303 662.666V619.459L706.303 438.709V395.502M699.553 694.717C698.4 694.717 696.259 695.212 695.182 695.623C693.806 696.149 692.843 696.646 691.475 697.457C689.534 698.606 686.844 700.91 686.844 700.91C686.844 700.91 684.274 698.595 682.39 697.457C680.947 696.585 678.836 695.755 677.412 695.242C676.399 694.877 675.329 694.717 674.252 694.717M699.553 694.717C698.4 694.717 696.259 694.221 695.182 693.81C693.806 693.284 692.843 692.787 691.475 691.977C689.534 690.827 686.844 688.523 686.844 688.523C686.844 688.523 684.274 690.838 682.39 691.977C680.947 692.849 678.836 693.678 677.412 694.191C676.399 694.556 675.329 694.717 674.252 694.717M674.252 694.717H107.057M1337.6 694.717H1344.35M1337.6 694.717V701.467M1337.6 694.717V687.966M1337.6 694.717H1330.85M1344.35 694.717C1345.5 694.717 1347.64 695.212 1348.72 695.623C1350.1 696.149 1351.06 696.646 1352.43 697.457C1354.37 698.606 1357.06 700.91 1357.06 700.91C1357.06 700.91 1359.63 698.595 1361.51 697.457C1362.96 696.585 1365.07 695.755 1366.49 695.242C1367.5 694.877 1368.57 694.717 1369.65 694.717M1344.35 694.717C1345.5 694.717 1347.64 694.221 1348.72 693.81C1350.1 693.284 1351.06 692.787 1352.43 691.977C1354.37 690.827 1357.06 688.523 1357.06 688.523C1357.06 688.523 1359.63 690.838 1361.51 691.977C1362.96 692.849 1365.07 693.678 1366.49 694.191C1367.5 694.556 1368.57 694.717 1369.65 694.717M1369.65 694.717H1936.85M1337.6 701.467C1337.6 702.619 1337.94 704.445 1338.47 705.822C1338.99 707.199 1339.53 708.177 1340.34 709.545C1341.49 711.485 1343.79 714.175 1343.79 714.175C1343.79 714.175 1341.48 716.746 1340.34 718.63C1339.47 720.072 1338.64 722.183 1338.13 723.607C1337.76 724.62 1337.6 725.691 1337.6 726.768M1337.6 701.467C1337.6 702.619 1337.26 704.445 1336.73 705.822C1336.21 707.199 1335.67 708.177 1334.86 709.545C1333.71 711.485 1331.41 714.175 1331.41 714.175C1331.41 714.175 1333.72 716.746 1334.86 718.63C1335.73 720.072 1336.56 722.183 1337.07 723.607C1337.44 724.62 1337.6 725.691 1337.6 726.768M1337.6 726.768V994.066M1337.6 687.966C1337.6 686.814 1337.94 684.988 1338.47 683.611C1338.99 682.235 1339.53 681.257 1340.34 679.889C1341.49 677.948 1343.79 675.258 1343.79 675.258C1343.79 675.258 1341.48 672.688 1340.34 670.804C1339.47 669.361 1338.64 667.25 1338.13 665.826C1337.76 664.813 1337.6 663.742 1337.6 662.666M1337.6 687.966C1337.6 686.814 1337.26 684.988 1336.73 683.611C1336.21 682.235 1335.67 681.257 1334.86 679.889C1333.71 677.948 1331.41 675.258 1331.41 675.258C1331.41 675.258 1333.72 672.688 1334.86 670.804C1335.73 669.361 1336.56 667.25 1337.07 665.826C1337.44 664.813 1337.6 663.742 1337.6 662.666M1337.6 662.666V619.459V438.709V395.502M1330.85 694.717C1329.7 694.717 1327.56 695.212 1326.48 695.623C1325.1 696.149 1324.14 696.646 1322.77 697.457C1320.83 698.606 1318.14 700.91 1318.14 700.91C1318.14 700.91 1315.57 698.595 1313.69 697.457C1312.24 696.585 1310.13 695.755 1308.71 695.242C1307.7 694.877 1306.63 694.717 1305.55 694.717M1330.85 694.717C1329.7 694.717 1327.56 694.221 1326.48 693.81C1325.1 693.284 1324.14 692.787 1322.77 691.977C1320.83 690.827 1318.14 688.523 1318.14 688.523C1318.14 688.523 1315.57 690.838 1313.69 691.977C1312.24 692.849 1310.13 693.678 1308.71 694.191C1307.7 694.556 1306.63 694.717 1305.55 694.717M1968.9 694.717H1975.65M1968.9 726.768C1968.9 725.691 1968.74 724.62 1968.37 723.607C1967.86 722.183 1967.03 720.072 1966.16 718.63C1965.02 716.746 1962.7 714.175 1962.7 714.175C1962.7 714.175 1965.01 711.485 1966.16 709.545C1966.97 708.177 1967.5 707.199 1968.03 705.822C1968.56 704.445 1968.9 702.619 1968.9 701.467L1968.9 694.717M1968.9 662.666C1968.9 663.742 1969.06 664.813 1969.42 665.826C1969.94 667.25 1970.77 669.361 1971.64 670.804C1972.78 672.688 1975.09 675.258 1975.09 675.258C1975.09 675.258 1972.79 677.948 1971.64 679.889C1970.83 681.257 1970.29 682.235 1969.76 683.611C1969.24 684.988 1968.9 686.814 1968.9 687.966L1968.9 694.717M1968.9 694.717H1962.15M1975.65 694.717C1976.8 694.717 1978.94 695.212 1980.02 695.623C1981.39 696.149 1982.36 696.646 1983.73 697.457C1985.67 698.606 1988.36 700.91 1988.36 700.91C1988.36 700.91 1990.93 698.595 1992.81 697.457C1994.25 696.585 1996.36 695.755 1997.79 695.242C1998.8 694.877 1999.87 694.717 2000.95 694.717M1975.65 694.717C1976.8 694.717 1978.94 694.221 1980.02 693.81C1981.39 693.284 1982.36 692.787 1983.73 691.977C1985.67 690.827 1988.36 688.523 1988.36 688.523C1988.36 688.523 1990.93 690.838 1992.81 691.977C1994.25 692.849 1996.36 693.678 1997.79 694.191C1998.8 694.556 1999.87 694.717 2000.95 694.717M2000.95 694.717H2568.14M1968.9 701.467C1968.9 702.619 1969.24 704.445 1969.76 705.822C1970.29 707.199 1970.83 708.177 1971.64 709.545C1972.79 711.485 1975.09 714.175 1975.09 714.175C1975.09 714.175 1972.78 716.746 1971.64 718.63C1970.77 720.072 1969.94 722.183 1969.42 723.607C1969.06 724.62 1968.9 725.691 1968.9 726.768M1968.9 726.768V994.066M1968.9 687.966C1968.9 686.814 1968.56 684.988 1968.03 683.611C1967.5 682.235 1966.97 681.257 1966.16 679.889C1965.01 677.948 1962.7 675.258 1962.7 675.258C1962.7 675.258 1965.02 672.688 1966.16 670.804C1967.03 669.361 1967.86 667.25 1968.37 665.826C1968.74 664.813 1968.9 663.742 1968.9 662.666M1968.9 662.666V619.459V438.709V395.502M1962.15 694.717C1960.99 694.717 1958.85 695.212 1957.78 695.623C1956.4 696.149 1955.44 696.646 1954.07 697.457C1952.13 698.606 1949.44 700.91 1949.44 700.91C1949.44 700.91 1946.87 698.595 1944.98 697.457C1943.54 696.585 1941.43 695.755 1940.01 695.242C1938.99 694.877 1937.92 694.717 1936.85 694.717M1962.15 694.717C1960.99 694.717 1958.85 694.221 1957.78 693.81C1956.4 693.284 1955.44 692.787 1954.07 691.977C1952.13 690.827 1949.44 688.523 1949.44 688.523C1949.44 688.523 1946.87 690.838 1944.98 691.977C1943.54 692.849 1941.43 693.678 1940.01 694.191C1938.99 694.556 1937.92 694.717 1936.85 694.717M2600.19 694.717H2606.94M2600.19 726.768C2600.19 725.691 2600.03 724.62 2599.67 723.607C2599.16 722.183 2598.33 720.072 2597.45 718.63C2596.32 716.746 2594 714.175 2594 714.175C2594 714.175 2596.3 711.485 2597.45 709.545C2598.26 708.177 2598.8 707.199 2599.33 705.822C2599.85 704.445 2600.19 702.619 2600.19 701.467L2600.19 694.717M2600.19 662.666C2600.19 663.742 2600.35 664.813 2600.72 665.826C2601.23 667.25 2602.06 669.361 2602.93 670.804C2604.07 672.688 2606.39 675.258 2606.39 675.258C2606.39 675.258 2604.08 677.948 2602.93 679.889C2602.12 681.257 2601.59 682.235 2601.06 683.611C2600.54 684.988 2600.19 686.814 2600.19 687.966L2600.19 694.717M2600.19 694.717H2593.44M2606.94 694.717C2608.1 694.717 2610.24 695.212 2611.31 695.623C2612.69 696.149 2613.65 696.646 2615.02 697.457C2616.96 698.606 2619.65 700.91 2619.65 700.91C2619.65 700.91 2622.22 698.595 2624.11 697.457C2625.55 696.585 2627.66 695.755 2629.09 695.242C2630.1 694.877 2631.17 694.717 2632.25 694.717M2606.94 694.717C2608.1 694.717 2610.24 694.221 2611.31 693.81C2612.69 693.284 2613.65 692.787 2615.02 691.977C2616.96 690.827 2619.65 688.523 2619.65 688.523C2619.65 688.523 2622.22 690.838 2624.11 691.977C2625.55 692.849 2627.66 693.678 2629.09 694.191C2630.1 694.556 2631.17 694.717 2632.25 694.717M2632.25 694.717H2675.2M2600.19 701.467C2600.19 702.619 2600.54 704.445 2601.06 705.822C2601.59 707.199 2602.12 708.177 2602.93 709.545C2604.08 711.485 2606.39 714.175 2606.39 714.175C2606.39 714.175 2604.07 716.746 2602.93 718.63C2602.06 720.072 2601.23 722.183 2600.72 723.607C2600.35 724.62 2600.19 725.691 2600.19 726.768M2600.19 726.768V994.066M2600.19 687.966C2600.19 686.814 2599.85 684.988 2599.33 683.611C2598.8 682.235 2598.26 681.257 2597.45 679.889C2596.3 677.948 2594 675.258 2594 675.258C2594 675.258 2596.32 672.688 2597.45 670.804C2598.33 669.361 2599.16 667.25 2599.67 665.826C2600.03 664.813 2600.19 663.742 2600.19 662.666M2600.19 662.666V619.459V438.709V395.502M2593.44 694.717C2592.29 694.717 2590.15 695.212 2589.07 695.623C2587.7 696.149 2586.73 696.646 2585.37 697.457C2583.43 698.606 2580.74 700.91 2580.74 700.91C2580.74 700.91 2578.17 698.595 2576.28 697.457C2574.84 696.585 2572.73 695.755 2571.3 695.242C2570.29 694.877 2569.22 694.717 2568.14 694.717M2593.44 694.717C2592.29 694.717 2590.15 694.221 2589.07 693.81C2587.7 693.284 2586.73 692.787 2585.37 691.977C2583.43 690.827 2580.74 688.523 2580.74 688.523C2580.74 688.523 2578.17 690.838 2576.28 691.977C2574.84 692.849 2572.73 693.678 2571.3 694.191C2570.29 694.556 2569.22 694.717 2568.14 694.717M75.0059 694.717H81.7562M75.0058 1019.37C75.0058 1018.21 74.6649 1016.39 74.1388 1015.01C73.6127 1013.63 73.0762 1012.66 72.2658 1011.29C71.116 1009.35 68.8124 1006.66 68.8124 1006.66C68.8124 1006.66 71.1273 1004.09 72.2658 1002.2C73.1378 1000.76 73.9669 998.65 74.4801 997.226C74.8451 996.213 75.0058 995.143 75.0058 994.066L75.0059 726.768C75.0059 725.691 74.8451 724.62 74.4801 723.607C73.967 722.183 73.1378 720.072 72.2659 718.63C71.1274 716.746 68.8125 714.175 68.8125 714.175C68.8125 714.175 71.1161 711.485 72.2659 709.545C73.0763 708.177 73.6128 707.199 74.1389 705.822C74.665 704.445 75.0059 702.619 75.0059 701.467L75.0059 694.717M75.0058 662.666C75.0058 663.742 75.1664 664.813 75.5313 665.826C76.0445 667.25 76.8737 669.361 77.7456 670.804C78.8841 672.688 81.199 675.258 81.199 675.258C81.199 675.258 78.8954 677.948 77.7456 679.889C76.9352 681.257 76.3987 682.235 75.8726 683.611C75.3465 684.988 75.0058 686.814 75.0058 687.966L75.0059 694.717M75.0059 694.717H68.2554M81.7562 694.717C82.9086 694.717 85.0497 695.212 86.1262 695.623C87.503 696.149 88.4661 696.646 89.834 697.457C91.7748 698.606 94.4644 700.91 94.4644 700.91C94.4644 700.91 97.035 698.595 98.9188 697.457C100.362 696.585 102.472 695.755 103.897 695.242C104.91 694.877 105.98 694.717 107.057 694.717M81.7562 694.717C82.9086 694.717 85.0497 694.221 86.1261 693.81C87.5029 693.284 88.466 692.787 89.8339 691.977C91.7747 690.827 94.4643 688.523 94.4643 688.523C94.4643 688.523 97.0349 690.838 98.9187 691.977C100.362 692.849 102.472 693.678 103.897 694.191C104.91 694.556 105.98 694.717 107.057 694.717M75.0059 701.467C75.0059 702.619 75.3466 704.445 75.8727 705.822C76.3988 707.199 76.9353 708.177 77.7457 709.545C78.8955 711.485 81.1991 714.175 81.1991 714.175C81.1991 714.175 78.8842 716.746 77.7457 718.63C76.8737 720.072 76.0446 722.183 75.5314 723.607C75.1664 724.62 75.0059 725.691 75.0059 726.768M75.0058 687.966C75.0058 686.814 74.6649 684.988 74.1388 683.611C73.6127 682.235 73.0762 681.257 72.2658 679.889C71.116 677.948 68.8124 675.258 68.8124 675.258C68.8124 675.258 71.1273 672.688 72.2658 670.804C73.1378 669.361 73.9669 667.25 74.4801 665.826C74.8451 664.813 75.0058 663.742 75.0058 662.666M75.0058 662.666V619.459L75.0059 438.709V395.502M68.2554 694.717C67.103 694.717 64.9618 695.212 63.8854 695.623C62.5086 696.149 61.5455 696.646 60.1776 697.457C58.2368 698.606 55.5472 700.91 55.5472 700.91C55.5472 700.91 52.9766 698.595 51.0928 697.457C49.65 696.585 47.5391 695.755 46.1149 695.242C45.102 694.877 44.0314 694.717 42.9547 694.717M68.2554 694.717C67.103 694.717 64.9617 694.221 63.8853 693.81C62.5085 693.284 61.5454 692.787 60.1775 691.977C58.2367 690.827 55.5471 688.523 55.5471 688.523C55.5471 688.523 52.9765 690.838 51.0927 691.977C49.6499 692.849 47.539 693.678 46.1148 694.191C45.1019 694.556 44.0314 694.717 42.9547 694.717M42.9547 694.717H0M706.303 1026.12H713.053M706.303 1026.12V1032.87M706.303 994.066C706.303 995.143 706.463 996.213 706.828 997.226C707.342 998.65 708.171 1000.76 709.043 1002.2C710.181 1004.09 712.496 1006.66 712.496 1006.66C712.496 1006.66 710.193 1009.35 709.043 1011.29C708.232 1012.66 707.696 1013.63 707.17 1015.01C706.644 1016.39 706.303 1018.21 706.303 1019.37L706.303 1026.12M706.303 1026.12H699.553M713.053 1026.12C714.206 1026.12 716.347 1026.61 717.423 1027.02C718.8 1027.55 719.763 1028.05 721.131 1028.86C723.072 1030.01 725.762 1032.31 725.762 1032.31C725.762 1032.31 728.332 1030 730.216 1028.86C731.659 1027.98 733.77 1027.16 735.194 1026.64C736.207 1026.28 737.277 1026.12 738.354 1026.12M713.053 1026.12C714.206 1026.12 716.347 1025.62 717.423 1025.21C718.8 1024.68 719.763 1024.19 721.131 1023.38C723.072 1022.23 725.761 1019.92 725.761 1019.92C725.761 1019.92 728.332 1022.24 730.216 1023.38C731.659 1024.25 733.77 1025.08 735.194 1025.59C736.207 1025.96 737.277 1026.12 738.354 1026.12M738.354 1026.12H1305.55M706.303 1032.87C706.303 1034.02 706.644 1035.85 707.17 1037.22C707.696 1038.6 708.232 1039.58 709.043 1040.94C710.193 1042.89 712.496 1045.58 712.496 1045.58C712.496 1045.58 710.181 1048.15 709.043 1050.03C708.171 1051.47 707.342 1053.58 706.829 1055.01C706.464 1056.02 706.303 1057.09 706.303 1058.17M706.303 1214.03L706.303 1058.17C706.303 1057.09 706.142 1056.02 705.777 1055.01C705.264 1053.58 704.435 1051.47 703.563 1050.03C702.425 1048.15 700.11 1045.58 700.11 1045.58C700.11 1045.58 702.413 1042.89 703.563 1040.94C704.373 1039.58 704.91 1038.6 705.436 1037.22C705.962 1035.85 706.303 1034.02 706.303 1032.87M699.553 1026.12C698.4 1026.12 696.259 1026.61 695.182 1027.02C693.806 1027.55 692.843 1028.05 691.475 1028.86C689.534 1030.01 686.844 1032.31 686.844 1032.31C686.844 1032.31 684.274 1030 682.39 1028.86C680.947 1027.98 678.836 1027.16 677.412 1026.64C676.399 1026.28 675.329 1026.12 674.252 1026.12M699.553 1026.12C698.4 1026.12 696.259 1025.62 695.182 1025.21C693.806 1024.68 692.843 1024.19 691.475 1023.38C689.534 1022.23 686.844 1019.92 686.844 1019.92C686.844 1019.92 684.274 1022.24 682.39 1023.38C680.947 1024.25 678.836 1025.08 677.412 1025.59C676.399 1025.96 675.329 1026.12 674.252 1026.12M674.252 1026.12H107.057M1337.6 1026.12H1344.35M1337.6 1026.12V1032.87M1337.6 1026.12V1019.37M1337.6 1026.12H1330.85M1344.35 1026.12C1345.5 1026.12 1347.64 1026.61 1348.72 1027.02C1350.1 1027.55 1351.06 1028.05 1352.43 1028.86C1354.37 1030.01 1357.06 1032.31 1357.06 1032.31C1357.06 1032.31 1359.63 1030 1361.51 1028.86C1362.96 1027.98 1365.07 1027.16 1366.49 1026.64C1367.5 1026.28 1368.57 1026.12 1369.65 1026.12M1344.35 1026.12C1345.5 1026.12 1347.64 1025.62 1348.72 1025.21C1350.1 1024.68 1351.06 1024.19 1352.43 1023.38C1354.37 1022.23 1357.06 1019.92 1357.06 1019.92C1357.06 1019.92 1359.63 1022.24 1361.51 1023.38C1362.96 1024.25 1365.07 1025.08 1366.49 1025.59C1367.5 1025.96 1368.57 1026.12 1369.65 1026.12M1369.65 1026.12H1936.85M1337.6 1032.87C1337.6 1034.02 1337.94 1035.85 1338.47 1037.22C1338.99 1038.6 1339.53 1039.58 1340.34 1040.94C1341.49 1042.89 1343.79 1045.58 1343.79 1045.58C1343.79 1045.58 1341.48 1048.15 1340.34 1050.03C1339.47 1051.47 1338.64 1053.58 1338.13 1055.01C1337.76 1056.02 1337.6 1057.09 1337.6 1058.17M1337.6 1032.87C1337.6 1034.02 1337.26 1035.85 1336.73 1037.22C1336.21 1038.6 1335.67 1039.58 1334.86 1040.94C1333.71 1042.89 1331.41 1045.58 1331.41 1045.58C1331.41 1045.58 1333.72 1048.15 1334.86 1050.03C1335.73 1051.47 1336.56 1053.58 1337.07 1055.01C1337.44 1056.02 1337.6 1057.09 1337.6 1058.17M1337.6 1058.17V1229.64M1337.6 1019.37C1337.6 1018.21 1337.94 1016.39 1338.47 1015.01C1338.99 1013.63 1339.53 1012.66 1340.34 1011.29C1341.49 1009.35 1343.79 1006.66 1343.79 1006.66C1343.79 1006.66 1341.48 1004.09 1340.34 1002.2C1339.47 1000.76 1338.64 998.65 1338.13 997.226C1337.76 996.213 1337.6 995.143 1337.6 994.066M1337.6 1019.37C1337.6 1018.21 1337.26 1016.39 1336.73 1015.01C1336.21 1013.63 1335.67 1012.66 1334.86 1011.29C1333.71 1009.35 1331.41 1006.66 1331.41 1006.66C1331.41 1006.66 1333.72 1004.09 1334.86 1002.2C1335.73 1000.76 1336.56 998.65 1337.07 997.226C1337.44 996.213 1337.6 995.143 1337.6 994.066M1330.85 1026.12C1329.7 1026.12 1327.56 1026.61 1326.48 1027.02C1325.1 1027.55 1324.14 1028.05 1322.77 1028.86C1320.83 1030.01 1318.14 1032.31 1318.14 1032.31C1318.14 1032.31 1315.57 1030 1313.69 1028.86C1312.24 1027.98 1310.13 1027.16 1308.71 1026.64C1307.7 1026.28 1306.63 1026.12 1305.55 1026.12M1330.85 1026.12C1329.7 1026.12 1327.56 1025.62 1326.48 1025.21C1325.1 1024.68 1324.14 1024.19 1322.77 1023.38C1320.83 1022.23 1318.14 1019.92 1318.14 1019.92C1318.14 1019.92 1315.57 1022.24 1313.69 1023.38C1312.24 1024.25 1310.13 1025.08 1308.71 1025.59C1307.7 1025.96 1306.63 1026.12 1305.55 1026.12M1968.9 1026.12H1975.65M1968.9 1058.17C1968.9 1057.09 1968.74 1056.02 1968.37 1055.01C1967.86 1053.58 1967.03 1051.47 1966.16 1050.03C1965.02 1048.15 1962.7 1045.58 1962.7 1045.58C1962.7 1045.58 1965.01 1042.89 1966.16 1040.94C1966.97 1039.58 1967.5 1038.6 1968.03 1037.22C1968.56 1035.85 1968.9 1034.02 1968.9 1032.87L1968.9 1026.12M1968.9 994.066C1968.9 995.143 1969.06 996.213 1969.42 997.226C1969.94 998.65 1970.77 1000.76 1971.64 1002.2C1972.78 1004.09 1975.09 1006.66 1975.09 1006.66C1975.09 1006.66 1972.79 1009.35 1971.64 1011.29C1970.83 1012.66 1970.29 1013.63 1969.76 1015.01C1969.24 1016.39 1968.9 1018.21 1968.9 1019.37L1968.9 1026.12M1968.9 1026.12H1962.15M1975.65 1026.12C1976.8 1026.12 1978.94 1026.61 1980.02 1027.02C1981.39 1027.55 1982.36 1028.05 1983.73 1028.86C1985.67 1030.01 1988.36 1032.31 1988.36 1032.31C1988.36 1032.31 1990.93 1030 1992.81 1028.86C1994.25 1027.98 1996.36 1027.16 1997.79 1026.64C1998.8 1026.28 1999.87 1026.12 2000.95 1026.12M1975.65 1026.12C1976.8 1026.12 1978.94 1025.62 1980.02 1025.21C1981.39 1024.68 1982.36 1024.19 1983.73 1023.38C1985.67 1022.23 1988.36 1019.92 1988.36 1019.92C1988.36 1019.92 1990.93 1022.24 1992.81 1023.38C1994.25 1024.25 1996.36 1025.08 1997.79 1025.59C1998.8 1025.96 1999.87 1026.12 2000.95 1026.12M2000.95 1026.12H2568.14M1968.9 1032.87C1968.9 1034.02 1969.24 1035.85 1969.76 1037.22C1970.29 1038.6 1970.83 1039.58 1971.64 1040.94C1972.79 1042.89 1975.09 1045.58 1975.09 1045.58C1975.09 1045.58 1972.78 1048.15 1971.64 1050.03C1970.77 1051.47 1969.94 1053.58 1969.42 1055.01C1969.06 1056.02 1968.9 1057.09 1968.9 1058.17M1968.9 1058.17V1209.74M1968.9 1019.37C1968.9 1018.21 1968.56 1016.39 1968.03 1015.01C1967.5 1013.63 1966.97 1012.66 1966.16 1011.29C1965.01 1009.35 1962.7 1006.66 1962.7 1006.66C1962.7 1006.66 1965.02 1004.09 1966.16 1002.2C1967.03 1000.76 1967.86 998.65 1968.37 997.226C1968.74 996.213 1968.9 995.143 1968.9 994.066M1962.15 1026.12C1960.99 1026.12 1958.85 1026.61 1957.78 1027.02C1956.4 1027.55 1955.44 1028.05 1954.07 1028.86C1952.13 1030.01 1949.44 1032.31 1949.44 1032.31C1949.44 1032.31 1946.87 1030 1944.98 1028.86C1943.54 1027.98 1941.43 1027.16 1940.01 1026.64C1938.99 1026.28 1937.92 1026.12 1936.85 1026.12M1962.15 1026.12C1960.99 1026.12 1958.85 1025.62 1957.78 1025.21C1956.4 1024.68 1955.44 1024.19 1954.07 1023.38C1952.13 1022.23 1949.44 1019.92 1949.44 1019.92C1949.44 1019.92 1946.87 1022.24 1944.98 1023.38C1943.54 1024.25 1941.43 1025.08 1940.01 1025.59C1938.99 1025.96 1937.92 1026.12 1936.85 1026.12M2600.19 1026.12H2606.94M2600.19 1026.12L2600.19 1032.87M2600.19 994.066C2600.19 995.143 2600.35 996.213 2600.72 997.226C2601.23 998.65 2602.06 1000.76 2602.93 1002.2C2604.07 1004.09 2606.39 1006.66 2606.39 1006.66C2606.39 1006.66 2604.08 1009.35 2602.93 1011.29C2602.12 1012.66 2601.59 1013.63 2601.06 1015.01C2600.54 1016.39 2600.19 1018.21 2600.19 1019.37L2600.19 1026.12M2600.19 1026.12H2593.44M2606.94 1026.12C2608.1 1026.12 2610.24 1026.61 2611.31 1027.02C2612.69 1027.55 2613.65 1028.05 2615.02 1028.86C2616.96 1030.01 2619.65 1032.31 2619.65 1032.31C2619.65 1032.31 2622.22 1030 2624.11 1028.86C2625.55 1027.98 2627.66 1027.16 2629.09 1026.64C2630.1 1026.28 2631.17 1026.12 2632.25 1026.12M2606.94 1026.12C2608.1 1026.12 2610.24 1025.62 2611.31 1025.21C2612.69 1024.68 2613.65 1024.19 2615.02 1023.38C2616.96 1022.23 2619.65 1019.92 2619.65 1019.92C2619.65 1019.92 2622.22 1022.24 2624.11 1023.38C2625.55 1024.25 2627.66 1025.08 2629.09 1025.59C2630.1 1025.96 2631.17 1026.12 2632.25 1026.12M2632.25 1026.12H2675.2M2600.19 1032.87C2600.19 1034.02 2600.54 1035.85 2601.06 1037.22C2601.59 1038.6 2602.12 1039.58 2602.93 1040.94C2604.08 1042.89 2606.39 1045.58 2606.39 1045.58C2606.39 1045.58 2604.07 1048.15 2602.93 1050.03C2602.06 1051.47 2601.23 1053.58 2600.72 1055.01C2600.35 1056.02 2600.19 1057.09 2600.19 1058.17C2600.19 1057.09 2600.03 1056.02 2599.67 1055.01C2599.16 1053.58 2598.33 1051.47 2597.45 1050.03C2596.32 1048.15 2594 1045.58 2594 1045.58C2594 1045.58 2596.3 1042.89 2597.45 1040.94C2598.26 1039.58 2598.8 1038.6 2599.33 1037.22C2599.85 1035.85 2600.19 1034.02 2600.19 1032.87ZM2600.19 1019.37C2600.19 1018.21 2599.85 1016.39 2599.33 1015.01C2598.8 1013.63 2598.26 1012.66 2597.45 1011.29C2596.3 1009.35 2594 1006.66 2594 1006.66C2594 1006.66 2596.32 1004.09 2597.45 1002.2C2598.33 1000.76 2599.16 998.65 2599.67 997.226C2600.03 996.213 2600.19 995.143 2600.19 994.066M2593.44 1026.12C2592.29 1026.12 2590.15 1026.61 2589.07 1027.02C2587.7 1027.55 2586.73 1028.05 2585.37 1028.86C2583.43 1030.01 2580.74 1032.31 2580.74 1032.31C2580.74 1032.31 2578.17 1030 2576.28 1028.86C2574.84 1027.98 2572.73 1027.16 2571.3 1026.64C2570.29 1026.28 2569.22 1026.12 2568.14 1026.12M2593.44 1026.12C2592.29 1026.12 2590.15 1025.62 2589.07 1025.21C2587.7 1024.68 2586.73 1024.19 2585.37 1023.38C2583.43 1022.23 2580.74 1019.92 2580.74 1019.92C2580.74 1019.92 2578.17 1022.24 2576.28 1023.38C2574.84 1024.25 2572.73 1025.08 2571.3 1025.59C2570.29 1025.96 2569.22 1026.12 2568.14 1026.12M75.0059 1026.12H81.7562M75.0058 1217L75.0059 1058.17C75.0059 1057.09 74.8451 1056.02 74.4801 1055.01C73.967 1053.58 73.1378 1051.47 72.2659 1050.03C71.1274 1048.15 68.8125 1045.58 68.8125 1045.58C68.8125 1045.58 71.1161 1042.89 72.2659 1040.94C73.0763 1039.58 73.6128 1038.6 74.1389 1037.22C74.665 1035.85 75.0059 1034.02 75.0059 1032.87L75.0059 1026.12M75.0058 994.066C75.0058 995.143 75.1664 996.213 75.5313 997.226C76.0445 998.65 76.8737 1000.76 77.7456 1002.2C78.8841 1004.09 81.199 1006.66 81.199 1006.66C81.199 1006.66 78.8954 1009.35 77.7456 1011.29C76.9352 1012.66 76.3987 1013.63 75.8726 1015.01C75.3465 1016.39 75.0058 1018.21 75.0058 1019.37L75.0059 1026.12M75.0059 1026.12H68.2554M81.7562 1026.12C82.9086 1026.12 85.0497 1026.61 86.1262 1027.02C87.503 1027.55 88.4661 1028.05 89.834 1028.86C91.7748 1030.01 94.4644 1032.31 94.4644 1032.31C94.4644 1032.31 97.035 1030 98.9188 1028.86C100.362 1027.98 102.472 1027.16 103.897 1026.64C104.91 1026.28 105.98 1026.12 107.057 1026.12M81.7562 1026.12C82.9086 1026.12 85.0497 1025.62 86.1261 1025.21C87.5029 1024.68 88.466 1024.19 89.8339 1023.38C91.7747 1022.23 94.4643 1019.92 94.4643 1019.92C94.4643 1019.92 97.0349 1022.24 98.9187 1023.38C100.362 1024.25 102.472 1025.08 103.897 1025.59C104.91 1025.96 105.98 1026.12 107.057 1026.12M75.0059 1032.87C75.0059 1034.02 75.3466 1035.85 75.8727 1037.22C76.3988 1038.6 76.9353 1039.58 77.7457 1040.94C78.8955 1042.89 81.1991 1045.58 81.1991 1045.58C81.1991 1045.58 78.8842 1048.15 77.7457 1050.03C76.8737 1051.47 76.0446 1053.58 75.5314 1055.01C75.1664 1056.02 75.0059 1057.09 75.0059 1058.17M68.2554 1026.12C67.103 1026.12 64.9618 1026.61 63.8854 1027.02C62.5086 1027.55 61.5455 1028.05 60.1776 1028.86C58.2368 1030.01 55.5472 1032.31 55.5472 1032.31C55.5472 1032.31 52.9766 1030 51.0928 1028.86C49.65 1027.98 47.5391 1027.16 46.1149 1026.64C45.102 1026.28 44.0314 1026.12 42.9547 1026.12M68.2554 1026.12C67.103 1026.12 64.9617 1025.62 63.8853 1025.21C62.5085 1024.68 61.5454 1024.19 60.1775 1023.38C58.2367 1022.23 55.5471 1019.92 55.5471 1019.92C55.5471 1019.92 52.9765 1022.24 51.0927 1023.38C49.6499 1024.25 47.539 1025.08 46.1148 1025.59C45.1019 1025.96 44.0314 1026.12 42.9547 1026.12M42.9547 1026.12H0M706.303 32.051H713.053M706.303 32.051V38.8014M706.303 32.051L706.303 25.3008M706.303 32.051H699.553M713.053 32.051C714.206 32.051 716.347 32.5464 717.423 32.9578C718.8 33.4839 719.763 33.9805 721.131 34.7909C723.072 35.9407 725.762 38.2443 725.762 38.2443C725.762 38.2443 728.332 35.9294 730.216 34.7909C731.659 33.9189 733.77 33.0898 735.194 32.5767C736.207 32.2117 737.277 32.051 738.354 32.051M713.053 32.051C714.206 32.051 716.347 31.5556 717.423 31.1443C718.8 30.6182 719.763 30.1216 721.131 29.3112C723.072 28.1614 725.761 25.8578 725.761 25.8578C725.761 25.8578 728.332 28.1727 730.216 29.3112C731.659 30.1831 733.77 31.0122 735.194 31.5254C736.207 31.8904 737.277 32.051 738.354 32.051M738.354 32.051H1305.55M706.303 38.8014C706.303 39.9538 706.644 41.7796 707.17 43.1564C707.696 44.5332 708.232 45.5112 709.043 46.8792C710.193 48.8199 712.496 51.5095 712.496 51.5095C712.496 51.5095 710.181 54.0802 709.043 55.964C708.171 57.4068 707.342 59.5176 706.829 60.9418C706.464 61.9547 706.303 63.0254 706.303 64.1021M706.303 356.701C706.303 355.549 705.962 353.723 705.436 352.346C704.91 350.969 704.373 349.991 703.563 348.623C702.413 346.682 700.109 343.993 700.109 343.993C700.109 343.993 702.424 341.422 703.563 339.538C704.435 338.096 705.264 335.985 705.777 334.56C706.142 333.547 706.303 332.477 706.303 331.4L706.303 150.22L706.303 64.1021C706.303 63.0254 706.142 61.9547 705.777 60.9418C705.264 59.5176 704.435 57.4068 703.563 55.964C702.425 54.0802 700.11 51.5095 700.11 51.5095C700.11 51.5095 702.413 48.8199 703.563 46.8792C704.373 45.5112 704.91 44.5332 705.436 43.1564C705.962 41.7796 706.303 39.9538 706.303 38.8014M706.303 25.3008C706.303 24.1484 706.644 22.3225 707.17 20.9457C707.696 19.5689 708.232 18.5909 709.043 17.2229C710.193 15.2821 712.496 12.5925 712.496 12.5925C712.496 12.5925 710.181 10.0219 709.043 8.13806C708.171 6.69526 707.342 4.58448 706.828 3.16028C706.463 2.14734 706.303 1.0767 706.303 0C706.303 1.0767 706.142 2.14734 705.777 3.16028C705.264 4.58448 704.435 6.69526 703.563 8.13806C702.424 10.0219 700.109 12.5925 700.109 12.5925C700.109 12.5925 702.413 15.2821 703.563 17.2229C704.373 18.5909 704.91 19.5689 705.436 20.9457C705.962 22.3225 706.303 24.1484 706.303 25.3008ZM699.553 32.051C698.4 32.051 696.259 32.5464 695.182 32.9578C693.806 33.4839 692.843 33.9805 691.475 34.7909C689.534 35.9407 686.844 38.2443 686.844 38.2443C686.844 38.2443 684.274 35.9294 682.39 34.7909C680.947 33.9189 678.836 33.0898 677.412 32.5767C676.399 32.2117 675.329 32.051 674.252 32.051M699.553 32.051C698.4 32.051 696.259 31.5556 695.182 31.1443C693.806 30.6182 692.843 30.1216 691.475 29.3112C689.534 28.1614 686.844 25.8578 686.844 25.8578C686.844 25.8578 684.274 28.1727 682.39 29.3112C680.947 30.1831 678.836 31.0122 677.412 31.5254C676.399 31.8904 675.329 32.051 674.252 32.051M674.252 32.051H107.057M1337.6 32.051H1344.35M1337.6 32.051V38.8014M1337.6 32.051V25.3008M1337.6 32.051H1330.85M1344.35 32.051C1345.5 32.051 1347.64 32.5464 1348.72 32.9578C1350.1 33.4839 1351.06 33.9805 1352.43 34.7909C1354.37 35.9407 1357.06 38.2443 1357.06 38.2443C1357.06 38.2443 1359.63 35.9294 1361.51 34.7909C1362.96 33.9189 1365.07 33.0898 1366.49 32.5767C1367.5 32.2117 1368.57 32.051 1369.65 32.051M1344.35 32.051C1345.5 32.051 1347.64 31.5556 1348.72 31.1443C1350.1 30.6182 1351.06 30.1216 1352.43 29.3112C1354.37 28.1614 1357.06 25.8578 1357.06 25.8578C1357.06 25.8578 1359.63 28.1727 1361.51 29.3112C1362.96 30.1831 1365.07 31.0122 1366.49 31.5254C1367.5 31.8904 1368.57 32.051 1369.65 32.051M1369.65 32.051H1936.85M1337.6 38.8014C1337.6 39.9538 1337.94 41.7796 1338.47 43.1564C1338.99 44.5332 1339.53 45.5112 1340.34 46.8792C1341.49 48.8199 1343.79 51.5095 1343.79 51.5095C1343.79 51.5095 1341.48 54.0802 1340.34 55.964C1339.47 57.4068 1338.64 59.5176 1338.13 60.9418C1337.76 61.9547 1337.6 63.0254 1337.6 64.1021M1337.6 38.8014C1337.6 39.9538 1337.26 41.7796 1336.73 43.1564C1336.21 44.5332 1335.67 45.5112 1334.86 46.8792C1333.71 48.8199 1331.41 51.5095 1331.41 51.5095C1331.41 51.5095 1333.72 54.0802 1334.86 55.964C1335.73 57.4068 1336.56 59.5176 1337.07 60.9418C1337.44 61.9547 1337.6 63.0254 1337.6 64.1021M1337.6 64.1021V331.4M1337.6 25.3008C1337.6 24.1484 1337.94 22.3225 1338.47 20.9457C1338.99 19.5689 1339.53 18.5909 1340.34 17.2229C1341.49 15.2821 1343.79 12.5925 1343.79 12.5925C1343.79 12.5925 1341.48 10.0219 1340.34 8.13806C1339.47 6.69526 1338.64 4.58448 1338.13 3.16028C1337.76 2.14734 1337.6 1.0767 1337.6 0C1337.6 1.0767 1337.44 2.14734 1337.07 3.16028C1336.56 4.58448 1335.73 6.69526 1334.86 8.13806C1333.72 10.0219 1331.41 12.5925 1331.41 12.5925C1331.41 12.5925 1333.71 15.2821 1334.86 17.2229C1335.67 18.5909 1336.21 19.5689 1336.73 20.9457C1337.26 22.3225 1337.6 24.1484 1337.6 25.3008ZM1330.85 32.051C1329.7 32.051 1327.56 32.5464 1326.48 32.9578C1325.1 33.4839 1324.14 33.9805 1322.77 34.7909C1320.83 35.9407 1318.14 38.2443 1318.14 38.2443C1318.14 38.2443 1315.57 35.9294 1313.69 34.7909C1312.24 33.9189 1310.13 33.0898 1308.71 32.5767C1307.7 32.2117 1306.63 32.051 1305.55 32.051M1330.85 32.051C1329.7 32.051 1327.56 31.5556 1326.48 31.1443C1325.1 30.6182 1324.14 30.1216 1322.77 29.3112C1320.83 28.1614 1318.14 25.8578 1318.14 25.8578C1318.14 25.8578 1315.57 28.1727 1313.69 29.3112C1312.24 30.1831 1310.13 31.0122 1308.71 31.5254C1307.7 31.8904 1306.63 32.051 1305.55 32.051M1968.9 32.051H1975.65M1968.9 64.1021C1968.9 63.0254 1968.74 61.9547 1968.37 60.9418C1967.86 59.5176 1967.03 57.4068 1966.16 55.964C1965.02 54.0802 1962.7 51.5095 1962.7 51.5095C1962.7 51.5095 1965.01 48.8199 1966.16 46.8792C1966.97 45.5112 1967.5 44.5332 1968.03 43.1564C1968.56 41.7796 1968.9 39.9538 1968.9 38.8014L1968.9 32.051M1968.9 32.051L1968.9 25.3008M1968.9 32.051H1962.15M1975.65 32.051C1976.8 32.051 1978.94 32.5464 1980.02 32.9578C1981.39 33.4839 1982.36 33.9805 1983.73 34.7909C1985.67 35.9407 1988.36 38.2443 1988.36 38.2443C1988.36 38.2443 1990.93 35.9294 1992.81 34.7909C1994.25 33.9189 1996.36 33.0898 1997.79 32.5767C1998.8 32.2117 1999.87 32.051 2000.95 32.051M1975.65 32.051C1976.8 32.051 1978.94 31.5556 1980.02 31.1443C1981.39 30.6182 1982.36 30.1216 1983.73 29.3112C1985.67 28.1614 1988.36 25.8578 1988.36 25.8578C1988.36 25.8578 1990.93 28.1727 1992.81 29.3112C1994.25 30.1831 1996.36 31.0122 1997.79 31.5254C1998.8 31.8904 1999.87 32.051 2000.95 32.051M2000.95 32.051H2568.14M1968.9 38.8014C1968.9 39.9538 1969.24 41.7796 1969.76 43.1564C1970.29 44.5332 1970.83 45.5112 1971.64 46.8792C1972.79 48.8199 1975.09 51.5095 1975.09 51.5095C1975.09 51.5095 1972.78 54.0802 1971.64 55.964C1970.77 57.4068 1969.94 59.5176 1969.42 60.9418C1969.06 61.9547 1968.9 63.0254 1968.9 64.1021M1968.9 64.1021V331.4M1968.9 25.3008C1968.9 24.1484 1969.24 22.3225 1969.76 20.9457C1970.29 19.5689 1970.83 18.5909 1971.64 17.2229C1972.79 15.2821 1975.09 12.5925 1975.09 12.5925C1975.09 12.5925 1972.78 10.0219 1971.64 8.13806C1970.77 6.69526 1969.94 4.58448 1969.42 3.16028C1969.06 2.14734 1968.9 1.0767 1968.9 0C1968.9 1.0767 1968.74 2.14734 1968.37 3.16028C1967.86 4.58448 1967.03 6.69526 1966.16 8.13806C1965.02 10.0219 1962.7 12.5925 1962.7 12.5925C1962.7 12.5925 1965.01 15.2821 1966.16 17.2229C1966.97 18.5909 1967.5 19.5689 1968.03 20.9457C1968.56 22.3225 1968.9 24.1484 1968.9 25.3008ZM1962.15 32.051C1960.99 32.051 1958.85 32.5464 1957.78 32.9578C1956.4 33.4839 1955.44 33.9805 1954.07 34.7909C1952.13 35.9407 1949.44 38.2443 1949.44 38.2443C1949.44 38.2443 1946.87 35.9294 1944.98 34.7909C1943.54 33.9189 1941.43 33.0898 1940.01 32.5767C1938.99 32.2117 1937.92 32.051 1936.85 32.051M1962.15 32.051C1960.99 32.051 1958.85 31.5556 1957.78 31.1443C1956.4 30.6182 1955.44 30.1216 1954.07 29.3112C1952.13 28.1614 1949.44 25.8578 1949.44 25.8578C1949.44 25.8578 1946.87 28.1727 1944.98 29.3112C1943.54 30.1831 1941.43 31.0122 1940.01 31.5254C1938.99 31.8904 1937.92 32.051 1936.85 32.051M2600.19 32.051H2606.94M2600.19 64.1021C2600.19 63.0254 2600.03 61.9547 2599.67 60.9418C2599.16 59.5176 2598.33 57.4068 2597.45 55.964C2596.32 54.0802 2594 51.5095 2594 51.5095C2594 51.5095 2596.3 48.8199 2597.45 46.8792C2598.26 45.5112 2598.8 44.5332 2599.33 43.1564C2599.85 41.7796 2600.19 39.9538 2600.19 38.8014L2600.19 32.051M2600.19 32.051L2600.19 25.3008M2600.19 32.051H2593.44M2606.94 32.051C2608.1 32.051 2610.24 32.5464 2611.31 32.9578C2612.69 33.4839 2613.65 33.9805 2615.02 34.7909C2616.96 35.9407 2619.65 38.2443 2619.65 38.2443C2619.65 38.2443 2622.22 35.9294 2624.11 34.7909C2625.55 33.9189 2627.66 33.0898 2629.09 32.5767C2630.1 32.2117 2631.17 32.051 2632.25 32.051M2606.94 32.051C2608.1 32.051 2610.24 31.5556 2611.31 31.1443C2612.69 30.6182 2613.65 30.1216 2615.02 29.3112C2616.96 28.1614 2619.65 25.8578 2619.65 25.8578C2619.65 25.8578 2622.22 28.1727 2624.11 29.3112C2625.55 30.1831 2627.66 31.0122 2629.09 31.5254C2630.1 31.8904 2631.17 32.051 2632.25 32.051M2632.25 32.051H2675.2M2600.19 38.8014C2600.19 39.9538 2600.54 41.7796 2601.06 43.1564C2601.59 44.5332 2602.12 45.5112 2602.93 46.8792C2604.08 48.8199 2606.39 51.5095 2606.39 51.5095C2606.39 51.5095 2604.07 54.0802 2602.93 55.964C2602.06 57.4068 2601.23 59.5176 2600.72 60.9418C2600.35 61.9547 2600.19 63.0254 2600.19 64.1021M2600.19 64.1021V331.4M2600.19 25.3008C2600.19 24.1484 2600.54 22.3225 2601.06 20.9457C2601.59 19.5689 2602.12 18.5909 2602.93 17.2229C2604.08 15.2821 2606.39 12.5925 2606.39 12.5925C2606.39 12.5925 2604.07 10.0219 2602.93 8.13806C2602.06 6.69526 2601.23 4.58448 2600.72 3.16028C2600.35 2.14734 2600.19 1.0767 2600.19 0C2600.19 1.0767 2600.03 2.14734 2599.67 3.16028C2599.16 4.58448 2598.33 6.69526 2597.45 8.13806C2596.32 10.0219 2594 12.5925 2594 12.5925C2594 12.5925 2596.3 15.2821 2597.45 17.2229C2598.26 18.5909 2598.8 19.5689 2599.33 20.9457C2599.85 22.3225 2600.19 24.1484 2600.19 25.3008ZM2593.44 32.051C2592.29 32.051 2590.15 32.5464 2589.07 32.9578C2587.7 33.4839 2586.73 33.9805 2585.37 34.7909C2583.43 35.9407 2580.74 38.2443 2580.74 38.2443C2580.74 38.2443 2578.17 35.9294 2576.28 34.7909C2574.84 33.9189 2572.73 33.0898 2571.3 32.5767C2570.29 32.2117 2569.22 32.051 2568.14 32.051M2593.44 32.051C2592.29 32.051 2590.15 31.5556 2589.07 31.1443C2587.7 30.6182 2586.73 30.1216 2585.37 29.3112C2583.43 28.1614 2580.74 25.8578 2580.74 25.8578C2580.74 25.8578 2578.17 28.1727 2576.28 29.3112C2574.84 30.1831 2572.73 31.0122 2571.3 31.5254C2570.29 31.8904 2569.22 32.051 2568.14 32.051M75.0059 32.051H81.7562M75.0058 356.701C75.0058 355.549 74.6649 353.723 74.1388 352.346C73.6127 350.969 73.0762 349.991 72.2658 348.623C71.116 346.682 68.8124 343.993 68.8124 343.993C68.8124 343.993 71.1273 341.422 72.2658 339.538C73.1378 338.096 73.9669 335.985 74.4801 334.56C74.8451 333.547 75.0058 332.477 75.0058 331.4L75.0059 64.1021C75.0059 63.0254 74.8451 61.9547 74.4801 60.9418C73.967 59.5176 73.1378 57.4068 72.2659 55.964C71.1274 54.0802 68.8125 51.5095 68.8125 51.5095C68.8125 51.5095 71.1161 48.8199 72.2659 46.8792C73.0763 45.5112 73.6128 44.5332 74.1389 43.1564C74.665 41.7796 75.0059 39.9538 75.0059 38.8014L75.0059 32.051M75.0059 32.051L75.0058 25.3008M75.0059 32.051H68.2554M81.7562 32.051C82.9086 32.051 85.0497 32.5464 86.1262 32.9578C87.503 33.4839 88.4661 33.9805 89.834 34.7909C91.7748 35.9407 94.4644 38.2443 94.4644 38.2443C94.4644 38.2443 97.035 35.9294 98.9188 34.7909C100.362 33.9189 102.472 33.0898 103.897 32.5767C104.91 32.2117 105.98 32.051 107.057 32.051M81.7562 32.051C82.9086 32.051 85.0497 31.5556 86.1261 31.1443C87.5029 30.6182 88.466 30.1216 89.8339 29.3112C91.7747 28.1614 94.4643 25.8578 94.4643 25.8578C94.4643 25.8578 97.0349 28.1727 98.9187 29.3112C100.362 30.1831 102.472 31.0122 103.897 31.5254C104.91 31.8904 105.98 32.051 107.057 32.051M75.0059 38.8014C75.0059 39.9538 75.3466 41.7796 75.8727 43.1564C76.3988 44.5332 76.9353 45.5112 77.7457 46.8792C78.8955 48.8199 81.1991 51.5095 81.1991 51.5095C81.1991 51.5095 78.8842 54.0802 77.7457 55.964C76.8737 57.4068 76.0446 59.5176 75.5314 60.9418C75.1664 61.9547 75.0059 63.0254 75.0059 64.1021M75.0058 25.3008C75.0058 24.1484 75.3465 22.3225 75.8726 20.9457C76.3987 19.5689 76.9352 18.5909 77.7456 17.2229C78.8954 15.2821 81.199 12.5925 81.199 12.5925C81.199 12.5925 78.8841 10.0219 77.7456 8.13806C76.8737 6.69526 76.0445 4.58448 75.5313 3.16028C75.1664 2.14734 75.0058 1.0767 75.0058 0C75.0058 1.0767 74.8451 2.14734 74.4801 3.16028C73.9669 4.58448 73.1378 6.69526 72.2658 8.13806C71.1273 10.0219 68.8124 12.5925 68.8124 12.5925C68.8124 12.5925 71.116 15.2821 72.2658 17.2229C73.0762 18.5909 73.6127 19.5689 74.1388 20.9457C74.6649 22.3225 75.0058 24.1484 75.0058 25.3008ZM68.2554 32.051C67.103 32.051 64.9618 32.5464 63.8854 32.9578C62.5086 33.4839 61.5455 33.9805 60.1776 34.7909C58.2368 35.9407 55.5472 38.2443 55.5472 38.2443C55.5472 38.2443 52.9766 35.9294 51.0928 34.7909C49.65 33.9189 47.5391 33.0898 46.1149 32.5767C45.102 32.2117 44.0314 32.051 42.9547 32.051M68.2554 32.051C67.103 32.051 64.9617 31.5556 63.8853 31.1443C62.5085 30.6182 61.5454 30.1216 60.1775 29.3112C58.2367 28.1614 55.5471 25.8578 55.5471 25.8578C55.5471 25.8578 52.9765 28.1727 51.0927 29.3112C49.6499 30.1831 47.539 31.0122 46.1148 31.5254C45.1019 31.8904 44.0314 32.051 42.9547 32.051M42.9547 32.051H0M706.303 363.451H713.053M706.303 363.451V370.202M706.303 331.4C706.303 332.477 706.463 333.547 706.828 334.56C707.342 335.985 708.171 338.096 709.043 339.538C710.181 341.422 712.496 343.993 712.496 343.993C712.496 343.993 710.193 346.682 709.043 348.623C708.232 349.991 707.696 350.969 707.17 352.346C706.644 353.723 706.303 355.549 706.303 356.701L706.303 363.451M706.303 363.451H699.553M713.053 363.451C714.206 363.451 716.347 363.947 717.423 364.358C718.8 364.884 719.763 365.381 721.131 366.191C723.072 367.341 725.762 369.644 725.762 369.644C725.762 369.644 728.332 367.33 730.216 366.191C731.659 365.319 733.77 364.49 735.194 363.977C736.207 363.612 737.277 363.451 738.354 363.451M713.053 363.451C714.206 363.451 716.347 362.956 717.423 362.545C718.8 362.018 719.763 361.522 721.131 360.711C723.072 359.562 725.761 357.258 725.761 357.258C725.761 357.258 728.332 359.573 730.216 360.711C731.659 361.583 733.77 362.412 735.194 362.926C736.207 363.291 737.277 363.451 738.354 363.451M738.354 363.451H1305.55M706.303 370.202C706.303 371.354 706.644 373.18 707.17 374.557C707.696 375.933 708.232 376.911 709.043 378.279C710.193 380.22 712.496 382.91 712.496 382.91C712.496 382.91 710.181 385.48 709.043 387.364C708.171 388.807 707.342 390.918 706.829 392.342C706.464 393.355 706.303 394.425 706.303 395.502M706.303 370.202C706.303 371.354 705.962 373.18 705.436 374.557C704.91 375.933 704.373 376.911 703.563 378.279C702.413 380.22 700.11 382.91 700.11 382.91C700.11 382.91 702.425 385.48 703.563 387.364C704.435 388.807 705.264 390.918 705.777 392.342C706.142 393.355 706.303 394.425 706.303 395.502M699.553 363.451C698.4 363.451 696.259 363.947 695.182 364.358C693.806 364.884 692.843 365.381 691.475 366.191C689.534 367.341 686.844 369.644 686.844 369.644C686.844 369.644 684.274 367.33 682.39 366.191C680.947 365.319 678.836 364.49 677.412 363.977C676.399 363.612 675.329 363.451 674.252 363.451M699.553 363.451C698.4 363.451 696.259 362.956 695.182 362.545C693.806 362.018 692.843 361.522 691.475 360.711C689.534 359.562 686.844 357.258 686.844 357.258C686.844 357.258 684.274 359.573 682.39 360.711C680.947 361.583 678.836 362.412 677.412 362.926C676.399 363.291 675.329 363.451 674.252 363.451M674.252 363.451H107.057M1337.6 363.451H1344.35M1337.6 363.451V370.202M1337.6 363.451V356.701M1337.6 363.451H1330.85M1344.35 363.451C1345.5 363.451 1347.64 363.947 1348.72 364.358C1350.1 364.884 1351.06 365.381 1352.43 366.191C1354.37 367.341 1357.06 369.644 1357.06 369.644C1357.06 369.644 1359.63 367.33 1361.51 366.191C1362.96 365.319 1365.07 364.49 1366.49 363.977C1367.5 363.612 1368.57 363.451 1369.65 363.451M1344.35 363.451C1345.5 363.451 1347.64 362.956 1348.72 362.545C1350.1 362.018 1351.06 361.522 1352.43 360.711C1354.37 359.562 1357.06 357.258 1357.06 357.258C1357.06 357.258 1359.63 359.573 1361.51 360.711C1362.96 361.583 1365.07 362.412 1366.49 362.926C1367.5 363.291 1368.57 363.451 1369.65 363.451M1369.65 363.451H1936.85M1337.6 370.202C1337.6 371.354 1337.94 373.18 1338.47 374.557C1338.99 375.933 1339.53 376.911 1340.34 378.279C1341.49 380.22 1343.79 382.91 1343.79 382.91C1343.79 382.91 1341.48 385.48 1340.34 387.364C1339.47 388.807 1338.64 390.918 1338.13 392.342C1337.76 393.355 1337.6 394.425 1337.6 395.502M1337.6 370.202C1337.6 371.354 1337.26 373.18 1336.73 374.557C1336.21 375.933 1335.67 376.911 1334.86 378.279C1333.71 380.22 1331.41 382.91 1331.41 382.91C1331.41 382.91 1333.72 385.48 1334.86 387.364C1335.73 388.807 1336.56 390.918 1337.07 392.342C1337.44 393.355 1337.6 394.425 1337.6 395.502M1337.6 356.701C1337.6 355.549 1337.94 353.723 1338.47 352.346C1338.99 350.969 1339.53 349.991 1340.34 348.623C1341.49 346.682 1343.79 343.993 1343.79 343.993C1343.79 343.993 1341.48 341.422 1340.34 339.538C1339.47 338.096 1338.64 335.985 1338.13 334.56C1337.76 333.547 1337.6 332.477 1337.6 331.4M1337.6 356.701C1337.6 355.549 1337.26 353.723 1336.73 352.346C1336.21 350.969 1335.67 349.991 1334.86 348.623C1333.71 346.682 1331.41 343.993 1331.41 343.993C1331.41 343.993 1333.72 341.422 1334.86 339.538C1335.73 338.096 1336.56 335.985 1337.07 334.56C1337.44 333.547 1337.6 332.477 1337.6 331.4M1330.85 363.451C1329.7 363.451 1327.56 363.947 1326.48 364.358C1325.1 364.884 1324.14 365.381 1322.77 366.191C1320.83 367.341 1318.14 369.644 1318.14 369.644C1318.14 369.644 1315.57 367.33 1313.69 366.191C1312.24 365.319 1310.13 364.49 1308.71 363.977C1307.7 363.612 1306.63 363.451 1305.55 363.451M1330.85 363.451C1329.7 363.451 1327.56 362.956 1326.48 362.545C1325.1 362.018 1324.14 361.522 1322.77 360.711C1320.83 359.562 1318.14 357.258 1318.14 357.258C1318.14 357.258 1315.57 359.573 1313.69 360.711C1312.24 361.583 1310.13 362.412 1308.71 362.926C1307.7 363.291 1306.63 363.451 1305.55 363.451M1968.9 363.451H1975.65M1968.9 395.502C1968.9 394.425 1968.74 393.355 1968.37 392.342C1967.86 390.918 1967.03 388.807 1966.16 387.364C1965.02 385.48 1962.7 382.91 1962.7 382.91C1962.7 382.91 1965.01 380.22 1966.16 378.279C1966.97 376.911 1967.5 375.933 1968.03 374.557C1968.56 373.18 1968.9 371.354 1968.9 370.202L1968.9 363.451M1968.9 331.4C1968.9 332.477 1969.06 333.547 1969.42 334.56C1969.94 335.985 1970.77 338.096 1971.64 339.538C1972.78 341.422 1975.09 343.993 1975.09 343.993C1975.09 343.993 1972.79 346.682 1971.64 348.623C1970.83 349.991 1970.29 350.969 1969.76 352.346C1969.24 353.723 1968.9 355.549 1968.9 356.701L1968.9 363.451M1968.9 363.451H1962.15M1975.65 363.451C1976.8 363.451 1978.94 363.947 1980.02 364.358C1981.39 364.884 1982.36 365.381 1983.73 366.191C1985.67 367.341 1988.36 369.644 1988.36 369.644C1988.36 369.644 1990.93 367.33 1992.81 366.191C1994.25 365.319 1996.36 364.49 1997.79 363.977C1998.8 363.612 1999.87 363.451 2000.95 363.451M1975.65 363.451C1976.8 363.451 1978.94 362.956 1980.02 362.545C1981.39 362.018 1982.36 361.522 1983.73 360.711C1985.67 359.562 1988.36 357.258 1988.36 357.258C1988.36 357.258 1990.93 359.573 1992.81 360.711C1994.25 361.583 1996.36 362.412 1997.79 362.926C1998.8 363.291 1999.87 363.451 2000.95 363.451M2000.95 363.451H2568.14M1968.9 370.202C1968.9 371.354 1969.24 373.18 1969.76 374.557C1970.29 375.933 1970.83 376.911 1971.64 378.279C1972.79 380.22 1975.09 382.91 1975.09 382.91C1975.09 382.91 1972.78 385.48 1971.64 387.364C1970.77 388.807 1969.94 390.918 1969.42 392.342C1969.06 393.355 1968.9 394.425 1968.9 395.502M1968.9 356.701C1968.9 355.549 1968.56 353.723 1968.03 352.346C1967.5 350.969 1966.97 349.991 1966.16 348.623C1965.01 346.682 1962.7 343.993 1962.7 343.993C1962.7 343.993 1965.02 341.422 1966.16 339.538C1967.03 338.096 1967.86 335.985 1968.37 334.56C1968.74 333.547 1968.9 332.477 1968.9 331.4M1962.15 363.451C1960.99 363.451 1958.85 363.947 1957.78 364.358C1956.4 364.884 1955.44 365.381 1954.07 366.191C1952.13 367.341 1949.44 369.644 1949.44 369.644C1949.44 369.644 1946.87 367.33 1944.98 366.191C1943.54 365.319 1941.43 364.49 1940.01 363.977C1938.99 363.612 1937.92 363.451 1936.85 363.451M1962.15 363.451C1960.99 363.451 1958.85 362.956 1957.78 362.545C1956.4 362.018 1955.44 361.522 1954.07 360.711C1952.13 359.562 1949.44 357.258 1949.44 357.258C1949.44 357.258 1946.87 359.573 1944.98 360.711C1943.54 361.583 1941.43 362.412 1940.01 362.926C1938.99 363.291 1937.92 363.451 1936.85 363.451M2600.19 363.451H2606.94M2600.19 395.502C2600.19 394.425 2600.03 393.355 2599.67 392.342C2599.16 390.918 2598.33 388.807 2597.45 387.364C2596.32 385.48 2594 382.91 2594 382.91C2594 382.91 2596.3 380.22 2597.45 378.279C2598.26 376.911 2598.8 375.933 2599.33 374.557C2599.85 373.18 2600.19 371.354 2600.19 370.202L2600.19 363.451M2600.19 331.4C2600.19 332.477 2600.35 333.547 2600.72 334.56C2601.23 335.985 2602.06 338.096 2602.93 339.538C2604.07 341.422 2606.39 343.993 2606.39 343.993C2606.39 343.993 2604.08 346.682 2602.93 348.623C2602.12 349.991 2601.59 350.969 2601.06 352.346C2600.54 353.723 2600.19 355.549 2600.19 356.701L2600.19 363.451M2600.19 363.451H2593.44M2606.94 363.451C2608.1 363.451 2610.24 363.947 2611.31 364.358C2612.69 364.884 2613.65 365.381 2615.02 366.191C2616.96 367.341 2619.65 369.644 2619.65 369.644C2619.65 369.644 2622.22 367.33 2624.11 366.191C2625.55 365.319 2627.66 364.49 2629.09 363.977C2630.1 363.612 2631.17 363.451 2632.25 363.451M2606.94 363.451C2608.1 363.451 2610.24 362.956 2611.31 362.545C2612.69 362.018 2613.65 361.522 2615.02 360.711C2616.96 359.562 2619.65 357.258 2619.65 357.258C2619.65 357.258 2622.22 359.573 2624.11 360.711C2625.55 361.583 2627.66 362.412 2629.09 362.926C2630.1 363.291 2631.17 363.451 2632.25 363.451M2632.25 363.451H2675.2M2600.19 370.202C2600.19 371.354 2600.54 373.18 2601.06 374.557C2601.59 375.933 2602.12 376.911 2602.93 378.279C2604.08 380.22 2606.39 382.91 2606.39 382.91C2606.39 382.91 2604.07 385.48 2602.93 387.364C2602.06 388.807 2601.23 390.918 2600.72 392.342C2600.35 393.355 2600.19 394.425 2600.19 395.502M2600.19 356.701C2600.19 355.549 2599.85 353.723 2599.33 352.346C2598.8 350.969 2598.26 349.991 2597.45 348.623C2596.3 346.682 2594 343.993 2594 343.993C2594 343.993 2596.32 341.422 2597.45 339.538C2598.33 338.096 2599.16 335.985 2599.67 334.56C2600.03 333.547 2600.19 332.477 2600.19 331.4M2593.44 363.451C2592.29 363.451 2590.15 363.947 2589.07 364.358C2587.7 364.884 2586.73 365.381 2585.37 366.191C2583.43 367.341 2580.74 369.644 2580.74 369.644C2580.74 369.644 2578.17 367.33 2576.28 366.191C2574.84 365.319 2572.73 364.49 2571.3 363.977C2570.29 363.612 2569.22 363.451 2568.14 363.451M2593.44 363.451C2592.29 363.451 2590.15 362.956 2589.07 362.545C2587.7 362.018 2586.73 361.522 2585.37 360.711C2583.43 359.562 2580.74 357.258 2580.74 357.258C2580.74 357.258 2578.17 359.573 2576.28 360.711C2574.84 361.583 2572.73 362.412 2571.3 362.926C2570.29 363.291 2569.22 363.451 2568.14 363.451M75.0059 363.451H81.7562M75.0059 395.502C75.0059 394.425 74.8451 393.355 74.4801 392.342C73.967 390.918 73.1378 388.807 72.2659 387.364C71.1274 385.48 68.8125 382.91 68.8125 382.91C68.8125 382.91 71.1161 380.22 72.2659 378.279C73.0763 376.911 73.6128 375.933 74.1389 374.557C74.665 373.18 75.0059 371.354 75.0059 370.202L75.0059 363.451M75.0058 331.4C75.0058 332.477 75.1664 333.547 75.5313 334.56C76.0445 335.985 76.8737 338.096 77.7456 339.538C78.8841 341.422 81.199 343.993 81.199 343.993C81.199 343.993 78.8954 346.682 77.7456 348.623C76.9352 349.991 76.3987 350.969 75.8726 352.346C75.3465 353.723 75.0058 355.549 75.0058 356.701L75.0059 363.451M75.0059 363.451H68.2554M81.7562 363.451C82.9086 363.451 85.0497 363.947 86.1262 364.358C87.503 364.884 88.4661 365.381 89.834 366.191C91.7748 367.341 94.4644 369.644 94.4644 369.644C94.4644 369.644 97.035 367.33 98.9188 366.191C100.362 365.319 102.472 364.49 103.897 363.977C104.91 363.612 105.98 363.451 107.057 363.451M81.7562 363.451C82.9086 363.451 85.0497 362.956 86.1261 362.545C87.5029 362.018 88.466 361.522 89.8339 360.711C91.7747 359.562 94.4643 357.258 94.4643 357.258C94.4643 357.258 97.0349 359.573 98.9187 360.711C100.362 361.583 102.472 362.412 103.897 362.926C104.91 363.291 105.98 363.451 107.057 363.451M75.0059 370.202C75.0059 371.354 75.3466 373.18 75.8727 374.557C76.3988 375.933 76.9353 376.911 77.7457 378.279C78.8955 380.22 81.1991 382.91 81.1991 382.91C81.1991 382.91 78.8842 385.48 77.7457 387.364C76.8737 388.807 76.0446 390.918 75.5314 392.342C75.1664 393.355 75.0059 394.425 75.0059 395.502M68.2554 363.451C67.103 363.451 64.9618 363.947 63.8854 364.358C62.5086 364.884 61.5455 365.381 60.1776 366.191C58.2368 367.341 55.5472 369.644 55.5472 369.644C55.5472 369.644 52.9766 367.33 51.0928 366.191C49.65 365.319 47.5391 364.49 46.1149 363.977C45.102 363.612 44.0314 363.451 42.9547 363.451M68.2554 363.451C67.103 363.451 64.9617 362.956 63.8853 362.545C62.5085 362.018 61.5454 361.522 60.1775 360.711C58.2367 359.562 55.5471 357.258 55.5471 357.258C55.5471 357.258 52.9765 359.573 51.0927 360.711C49.6499 361.583 47.539 362.412 46.1148 362.926C45.1019 363.291 44.0314 363.451 42.9547 363.451M42.9547 363.451H0" stroke="var(--stroke-0, #121212)"/>
</svg>
