<svg preserveAspectRatio="none" width="100%" height="100%" overflow="visible" style="display: block;" viewBox="0 0 622.449 363.564" fill="none" xmlns="http://www.w3.org/2000/svg">
<path d="M0.5 363.064H621.949V28.0208C621.949 27.0962 621.795 26.1789 621.443 25.3091C620.949 24.0861 620.151 22.2734 619.311 21.0345C618.215 19.4168 615.986 17.2094 615.986 17.2094C615.986 17.2094 618.204 14.8998 619.311 13.2332C620.092 12.0585 620.608 11.2186 621.115 10.0364C621.621 8.85409 621.949 7.28621 621.949 6.29663L621.949 0.500001L615.45 0.500013C614.34 0.500013 612.279 0.925295 611.242 1.27852C609.917 1.73029 608.989 2.15677 607.672 2.8527C605.803 3.84005 603.214 5.81822 603.214 5.81822C603.214 5.81822 600.739 3.83035 598.925 2.8527C597.536 2.10392 595.503 1.39195 594.132 0.951258C593.157 0.637832 592.142 0.500001 591.106 0.500001H0.5V363.064Z" fill="#F4F4E8" stroke="#1B1613" stroke-width="1.5"/>
</svg>
