<svg preserveAspectRatio="none" width="100%" height="100%" overflow="visible" style="display: block;" viewBox="0 0 61.7207 61.7209" fill="none" xmlns="http://www.w3.org/2000/svg">
<g id="Vector">
<path d="M53.8849 33.4985C52.0711 34.5947 49.596 36.8236 49.596 36.8236C49.596 36.8236 47.0063 34.6056 45.1376 33.4985C43.8205 32.7182 42.8932 32.24 41.5675 31.7334C40.5311 31.3373 38.4694 30.8604 37.3598 30.8604C38.4694 30.8604 40.5314 30.3836 41.5679 29.9875C42.8935 29.481 43.8208 29.0028 45.138 28.2224C47.0067 27.1154 49.5963 24.8973 49.5963 24.8973C49.5963 24.8973 52.0715 27.1262 53.8853 28.2224C55.2745 29.062 57.3069 29.8603 58.6782 30.3545C59.6535 30.7059 60.684 30.8604 61.7207 30.8604C60.684 30.8604 59.6532 31.015 58.6779 31.3665C57.3066 31.8606 55.2741 32.6589 53.8849 33.4985Z" fill="var(--fill-0, #969696)"/>
<path d="M33.4983 53.8851C34.5945 52.0712 36.8235 49.5961 36.8235 49.5961C36.8235 49.5961 34.6054 47.0065 33.4983 45.1378C32.718 43.8206 32.2015 42.8789 31.6949 41.5533C31.1883 40.2276 30.8603 38.4696 30.8603 37.36C30.8603 38.4696 30.5325 40.2276 30.026 41.5532C29.5194 42.8789 29.0029 43.8205 28.2225 45.1377C27.1155 47.0064 24.8974 49.5961 24.8974 49.5961C24.8974 49.5961 27.1263 52.0712 28.2225 53.885C29.0621 55.2742 29.8604 57.3067 30.3546 58.678C30.706 59.6533 30.8603 60.6841 30.8603 61.7209C30.8603 60.6842 31.0149 59.6533 31.3663 58.678C31.8604 57.3067 32.6588 55.2743 33.4983 53.8851Z" fill="var(--fill-0, #969696)"/>
<path d="M7.83578 28.2224C9.64961 27.1262 12.1247 24.8972 12.1247 24.8972C12.1247 24.8972 14.7144 27.1153 16.5831 28.2224C17.9002 29.0027 18.8275 29.4809 20.1532 29.9875C21.1896 30.3835 23.2513 30.8604 24.3609 30.8604C23.2513 30.8604 21.1898 31.3373 20.1533 31.7333C18.8277 32.2399 17.9004 32.7181 16.5833 33.4984C14.7146 34.6055 12.1249 36.8235 12.1249 36.8235C12.1249 36.8235 9.64978 34.5946 7.83595 33.4984C6.44674 32.6588 4.4143 31.8605 3.043 31.3664C2.06769 31.015 1.0367 30.8604 0 30.8604C1.0367 30.8604 2.06751 30.7058 3.04282 30.3544C4.41412 29.8603 6.44657 29.062 7.83578 28.2224Z" fill="var(--fill-0, #969696)"/>
<path d="M28.2224 7.83578C27.1262 9.64961 24.8973 12.1247 24.8973 12.1247C24.8973 12.1247 27.1153 14.7144 28.2224 16.5831C29.0027 17.9002 29.5193 18.8419 30.0258 20.1676C30.5324 21.4932 30.8604 23.2513 30.8604 24.3609C30.8604 23.2513 31.1887 21.4933 31.6952 20.1676C32.2018 18.842 32.7184 17.9003 33.4987 16.5831C34.6058 14.7144 36.8238 12.1248 36.8238 12.1248C36.8238 12.1248 34.5949 9.64967 33.4987 7.83584C32.6591 6.44663 31.8608 4.41419 31.3667 3.04289C31.0152 2.06758 30.8604 1.0367 30.8604 0C30.8604 1.0367 30.7058 2.06751 30.3544 3.04282C29.8603 4.41412 29.062 6.44657 28.2224 7.83578Z" fill="var(--fill-0, #969696)"/>
<path d="M53.8849 33.4985C52.0711 34.5947 49.596 36.8236 49.596 36.8236C49.596 36.8236 47.0063 34.6056 45.1376 33.4985C43.8205 32.7182 42.8932 32.24 41.5675 31.7334C40.5311 31.3373 38.4694 30.8604 37.3598 30.8604C38.4694 30.8604 40.5314 30.3836 41.5679 29.9875C42.8935 29.481 43.8208 29.0028 45.138 28.2224C47.0067 27.1154 49.5963 24.8973 49.5963 24.8973C49.5963 24.8973 52.0715 27.1262 53.8853 28.2224C55.2745 29.062 57.3069 29.8603 58.6782 30.3545C59.6535 30.7059 60.684 30.8604 61.7207 30.8604C60.684 30.8604 59.6532 31.015 58.6779 31.3665C57.3066 31.8606 55.2741 32.6589 53.8849 33.4985Z" stroke="var(--stroke-0, #969696)" stroke-width="0.7"/>
<path d="M33.4983 53.8851C34.5945 52.0712 36.8235 49.5961 36.8235 49.5961C36.8235 49.5961 34.6054 47.0065 33.4983 45.1378C32.718 43.8206 32.2015 42.8789 31.6949 41.5533C31.1883 40.2276 30.8603 38.4696 30.8603 37.36C30.8603 38.4696 30.5325 40.2276 30.026 41.5532C29.5194 42.8789 29.0029 43.8205 28.2225 45.1377C27.1155 47.0064 24.8974 49.5961 24.8974 49.5961C24.8974 49.5961 27.1263 52.0712 28.2225 53.885C29.0621 55.2742 29.8604 57.3067 30.3546 58.678C30.706 59.6533 30.8603 60.6841 30.8603 61.7209C30.8603 60.6842 31.0149 59.6533 31.3663 58.678C31.8604 57.3067 32.6588 55.2743 33.4983 53.8851Z" stroke="var(--stroke-0, #969696)" stroke-width="0.7"/>
<path d="M7.83578 28.2224C9.64961 27.1262 12.1247 24.8972 12.1247 24.8972C12.1247 24.8972 14.7144 27.1153 16.5831 28.2224C17.9002 29.0027 18.8275 29.4809 20.1532 29.9875C21.1896 30.3835 23.2513 30.8604 24.3609 30.8604C23.2513 30.8604 21.1898 31.3373 20.1533 31.7333C18.8277 32.2399 17.9004 32.7181 16.5833 33.4984C14.7146 34.6055 12.1249 36.8235 12.1249 36.8235C12.1249 36.8235 9.64978 34.5946 7.83595 33.4984C6.44674 32.6588 4.4143 31.8605 3.043 31.3664C2.06769 31.015 1.0367 30.8604 0 30.8604C1.0367 30.8604 2.06751 30.7058 3.04282 30.3544C4.41412 29.8603 6.44657 29.062 7.83578 28.2224Z" stroke="var(--stroke-0, #969696)" stroke-width="0.7"/>
<path d="M28.2224 7.83578C27.1262 9.64961 24.8973 12.1247 24.8973 12.1247C24.8973 12.1247 27.1153 14.7144 28.2224 16.5831C29.0027 17.9002 29.5193 18.8419 30.0258 20.1676C30.5324 21.4932 30.8604 23.2513 30.8604 24.3609C30.8604 23.2513 31.1887 21.4933 31.6952 20.1676C32.2018 18.842 32.7184 17.9003 33.4987 16.5831C34.6058 14.7144 36.8238 12.1248 36.8238 12.1248C36.8238 12.1248 34.5949 9.64967 33.4987 7.83584C32.6591 6.44663 31.8608 4.41419 31.3667 3.04289C31.0152 2.06758 30.8604 1.0367 30.8604 0C30.8604 1.0367 30.7058 2.06751 30.3544 3.04282C29.8603 4.41412 29.062 6.44657 28.2224 7.83578Z" stroke="var(--stroke-0, #969696)" stroke-width="0.7"/>
</g>
</svg>
