<svg viewBox="0 0 279 404" fill="none" xmlns="http://www.w3.org/2000/svg" aria-hidden="true">
  <g transform="translate(139.5 202) rotate(-90) translate(-214.489 -144)">
    <path
      d="M12.5 4.50001L351.644 4.5C354.852 4.5 358.062 4.72715 361.19 5.43836C363.762 6.02301 366.878 6.85929 369.177 7.88557C373.274 9.71461 379.886 13.9688 379.886 13.9688C379.886 13.9688 386.723 9.80176 390.872 7.88557C393.134 6.84079 396.151 6.00935 398.646 5.4319C401.731 4.71818 404.899 4.5 408.066 4.5L416.477 4.50001C416.477 52.9316 416.477 235.033 416.477 283.5C309.723 283.5 121.025 283.5 12.5 283.5C12.5 236.06 12.5 51.9896 12.5 4.50001Z"
      fill="#F8F8F7"
      stroke="#1B1613"
      stroke-width="1"
      vector-effect="non-scaling-stroke"
      shape-rendering="geometricPrecision"
    />
  </g>
</svg>
