<svg xmlns="http://www.w3.org/2000/svg" viewBox="0 0 28 28" fill="none" aria-hidden="true">
  <path d="M24.3065 15.1105C23.4883 15.605 22.3718 16.6104 22.3718 16.6104C22.3718 16.6104 21.2037 15.6099 20.3607 15.1105C19.7666 14.7585 19.3483 14.5428 18.7503 14.3143C18.2828 14.1357 17.3528 13.9206 16.8523 13.9206C17.3528 13.9206 18.283 13.7055 18.7505 13.5268C19.3485 13.2983 19.7667 13.0826 20.3609 12.7306C21.2038 12.2312 22.372 11.2307 22.372 11.2307C22.372 11.2307 23.4885 12.2361 24.3066 12.7306C24.9333 13.1093 25.8501 13.4694 26.4686 13.6923C26.9086 13.8509 27.3734 13.9206 27.841 13.9206C27.3734 13.9206 26.9084 13.9903 26.4685 14.1488C25.8499 14.3717 24.9331 14.7318 24.3065 15.1105Z" fill="#969696"/>
  <path d="M15.1105 24.3065C15.6049 23.4884 16.6104 22.3719 16.6104 22.3719C16.6104 22.3719 15.6098 21.2037 15.1105 20.3608C14.7585 19.7667 14.5255 19.3419 14.297 18.7439C14.0685 18.1459 13.9205 17.3529 13.9205 16.8524C13.9205 17.3529 13.7727 18.1459 13.5442 18.7439C13.3157 19.3418 13.0827 19.7666 12.7307 20.3608C12.2313 21.2037 11.2308 22.3718 11.2308 22.3718C11.2308 22.3718 12.2362 23.4883 12.7307 24.3065C13.1094 24.9332 13.4695 25.85 13.6924 26.4685C13.8509 26.9085 13.9205 27.3735 13.9205 27.8411C13.9205 27.3735 13.9902 26.9085 14.1487 26.4686C14.3716 25.85 14.7317 24.9332 15.1105 24.3065Z" fill="#969696"/>
  <path d="M3.53457 12.7306C4.35276 12.2361 5.46924 11.2307 5.46924 11.2307C5.46924 11.2307 6.63738 12.2312 7.48032 12.7306C8.07446 13.0826 8.49273 13.2983 9.09071 13.5268C9.55825 13.7054 10.4882 13.9206 10.9887 13.9206C10.4882 13.9206 9.55833 14.1357 9.09079 14.3143C8.49281 14.5428 8.07454 14.7585 7.4804 15.1105C6.63746 15.6099 5.46932 16.6104 5.46932 16.6104C5.46932 16.6104 4.35283 15.605 3.53465 15.1105C2.908 14.7318 1.99121 14.3717 1.37264 14.1488C0.932696 13.9903 0.467636 13.9206 0 13.9206C0.467636 13.9206 0.932616 13.8508 1.37256 13.6923C1.99113 13.4694 2.90793 13.1093 3.53457 12.7306Z" fill="#969696"/>
  <path d="M12.7306 3.53457C12.2361 4.35276 11.2307 5.46924 11.2307 5.46924C11.2307 5.46924 12.2312 6.63738 12.7306 7.48031C13.0826 8.07446 13.3156 8.49924 13.5441 9.09721C13.7726 9.69519 13.9206 10.4882 13.9206 10.9887C13.9206 10.4882 14.0686 9.69522 14.2971 9.09724C14.5256 8.49927 14.7586 8.07449 15.1106 7.48034C15.61 6.63741 16.6105 5.46927 16.6105 5.46927C16.6105 5.46927 15.6051 4.35279 15.1106 3.5346C14.7319 2.90795 14.3718 1.99116 14.1489 1.37259C13.9904 0.932645 13.9206 0.467637 13.9206 0C13.9206 0.467637 13.8508 0.932615 13.6923 1.37256C13.4694 1.99113 13.1093 2.90793 12.7306 3.53457Z" fill="#969696"/>
  <path d="M24.3065 15.1105C23.4883 15.605 22.3718 16.6104 22.3718 16.6104C22.3718 16.6104 21.2037 15.6099 20.3607 15.1105C19.7666 14.7585 19.3483 14.5428 18.7503 14.3143C18.2828 14.1357 17.3528 13.9206 16.8523 13.9206C17.3528 13.9206 18.283 13.7055 18.7505 13.5268C19.3485 13.2983 19.7667 13.0826 20.3609 12.7306C21.2038 12.2312 22.372 11.2307 22.372 11.2307C22.372 11.2307 23.4885 12.2361 24.3066 12.7306C24.9333 13.1093 25.8501 13.4694 26.4686 13.6923C26.9086 13.8509 27.3734 13.9206 27.841 13.9206C27.3734 13.9206 26.9084 13.9903 26.4685 14.1488C25.8499 14.3717 24.9331 14.7318 24.3065 15.1105Z" stroke="#969696"/>
  <path d="M15.1105 24.3065C15.6049 23.4884 16.6104 22.3719 16.6104 22.3719C16.6104 22.3719 15.6098 21.2037 15.1105 20.3608C14.7585 19.7667 14.5255 19.3419 14.297 18.7439C14.0685 18.1459 13.9205 17.3529 13.9205 16.8524C13.9205 17.3529 13.7727 18.1459 13.5442 18.7439C13.3157 19.3418 13.0827 19.7666 12.7307 20.3608C12.2313 21.2037 11.2308 22.3718 11.2308 22.3718C11.2308 22.3718 12.2362 23.4883 12.7307 24.3065C13.1094 24.9332 13.4695 25.85 13.6924 26.4685C13.8509 26.9085 13.9205 27.3735 13.9205 27.8411C13.9205 27.3735 13.9902 26.9085 14.1487 26.4686C14.3716 25.85 14.7317 24.9332 15.1105 24.3065Z" stroke="#969696"/>
  <path d="M3.53457 12.7306C4.35276 12.2361 5.46924 11.2307 5.46924 11.2307C5.46924 11.2307 6.63738 12.2312 7.48032 12.7306C8.07446 13.0826 8.49273 13.2983 9.09071 13.5268C9.55825 13.7054 10.4882 13.9206 10.9887 13.9206C10.4882 13.9206 9.55833 14.1357 9.09079 14.3143C8.49281 14.5428 8.07454 14.7585 7.4804 15.1105C6.63746 15.6099 5.46932 16.6104 5.46932 16.6104C5.46932 16.6104 4.35283 15.605 3.53465 15.1105C2.908 14.7318 1.99121 14.3717 1.37264 14.1488C0.932696 13.9903 0.467636 13.9206 0 13.9206C0.467636 13.9206 0.932616 13.8508 1.37256 13.6923C1.99113 13.4694 2.90793 13.1093 3.53457 12.7306Z" stroke="#969696"/>
  <path d="M12.7306 3.53457C12.2361 4.35276 11.2307 5.46924 11.2307 5.46924C11.2307 5.46924 12.2312 6.63738 12.7306 7.48031C13.0826 8.07446 13.3156 8.49924 13.5441 9.09721C13.7726 9.69519 13.9206 10.4882 13.9206 10.9887C13.9206 10.4882 14.0686 9.69522 14.2971 9.09724C14.5256 8.49927 14.7586 8.07449 15.1106 7.48034C15.61 6.63741 16.6105 5.46927 16.6105 5.46927C16.6105 5.46927 15.6051 4.35279 15.1106 3.5346C14.7319 2.90795 14.3718 1.99116 14.1489 1.37259C13.9904 0.932645 13.9206 0.467637 13.9206 0C13.9206 0.467637 13.8508 0.932615 13.6923 1.37256C13.4694 1.99113 13.1093 2.90793 12.7306 3.53457Z" stroke="#969696"/>
</svg>
