<svg xmlns="http://www.w3.org/2000/svg" viewBox="58 16 52 40" fill="none" shape-rendering="geometricPrecision">
  <path d="M81.8094 18.0536C83.4977 17.7244 85.0259 18.0257 86.3475 18.6641C86.2965 18.6942 86.2462 18.7253 86.1966 18.7574C84.2906 19.9907 83.1297 21.6862 83.4569 24.6385C84.0033 29.568 91.1345 36.0946 91.7743 40.788C92.4938 46.0664 91.059 51.7322 85.6641 52.7842C83.9757 53.1135 82.4475 52.8122 81.1259 52.1738C81.1769 52.1436 81.2272 52.1125 81.2768 52.0805C83.1828 50.8472 84.3437 49.1517 84.0165 46.1994C83.4701 41.2699 76.3389 34.7433 75.6991 30.0499C74.9796 24.7715 76.4144 19.1057 81.8094 18.0536Z" fill="#F4F4E8"/>
  <path d="M91.6288 24.8851C91.255 22.8185 87.4151 16.9605 81.8094 18.0536C76.4144 19.1057 74.9796 24.7715 75.6991 30.0499C76.3389 34.7433 83.4701 41.2699 84.0165 46.1994C84.3437 49.1517 83.1828 50.8472 81.2768 52.0805C79.3317 53.3391 76.2597 53.0895 74.9989 51.9379M71.5213 27.3511C66.5091 30.566 61.8558 28.9017 60.3613 25.5391C59.2065 21.8029 61.5161 18.8818 64.9172 18.1151C70.5171 17.1156 75.3997 21.8084 75.5861 29.2813C75.8862 33.4176 72.5236 39.5217 69.32 44.6269C67.3381 47.7852 65.7962 49.9605 63.338 52.5709M75.8446 45.9528C76.2184 48.0194 80.0583 53.8774 85.6641 52.7842C91.059 51.7322 92.4938 46.0664 91.7743 40.788C91.1345 36.0946 84.0033 29.568 83.4569 24.6385C83.1297 21.6862 84.2906 19.9907 86.1966 18.7574C88.1417 17.4988 91.2137 17.7484 92.4745 18.9M95.9521 43.4868C100.964 40.2719 105.618 41.9362 107.112 45.2988C108.267 49.035 105.957 51.9561 102.556 52.7228C96.9564 53.7223 92.0737 49.0295 91.8873 41.5566C91.5872 37.4203 94.9498 31.3162 98.1534 26.211C100.135 23.0527 101.677 20.8774 104.135 18.267" fill="none" stroke="#F4F4E8" stroke-linecap="round" vector-effect="non-scaling-stroke"/>
</svg>
